G04 #@! TF.GenerationSoftware,KiCad,Pcbnew,(5.1.5-0-10_14)*
G04 #@! TF.CreationDate,2020-04-20T09:39:30+02:00*
G04 #@! TF.ProjectId,sinope,73696e6f-7065-42e6-9b69-6361645f7063,rev?*
G04 #@! TF.SameCoordinates,Original*
G04 #@! TF.FileFunction,Copper,L2,Bot*
G04 #@! TF.FilePolarity,Positive*
%FSLAX46Y46*%
G04 Gerber Fmt 4.6, Leading zero omitted, Abs format (unit mm)*
G04 Created by KiCad (PCBNEW (5.1.5-0-10_14)) date 2020-04-20 09:39:30*
%MOMM*%
%LPD*%
G04 APERTURE LIST*
%ADD10O,1.700000X1.700000*%
%ADD11R,1.700000X1.700000*%
%ADD12O,1.350000X1.350000*%
%ADD13R,1.350000X1.350000*%
%ADD14O,1.600000X1.600000*%
%ADD15R,1.600000X1.600000*%
%ADD16C,1.600000*%
%ADD17R,1.300000X1.300000*%
%ADD18C,1.300000*%
%ADD19C,0.800000*%
%ADD20C,0.500000*%
%ADD21C,0.250000*%
G04 APERTURE END LIST*
D10*
X45974000Y-38354000D03*
D11*
X45974000Y-40894000D03*
D12*
X196056000Y-46608000D03*
X194056000Y-46608000D03*
X196056000Y-44608000D03*
X194056000Y-44608000D03*
X196056000Y-42608000D03*
X194056000Y-42608000D03*
X196056000Y-40608000D03*
X194056000Y-40608000D03*
X196056000Y-38608000D03*
D13*
X194056000Y-38608000D03*
D14*
X187198000Y-30480000D03*
X179578000Y-48260000D03*
X187198000Y-33020000D03*
X179578000Y-45720000D03*
X187198000Y-35560000D03*
X179578000Y-43180000D03*
X187198000Y-38100000D03*
X179578000Y-40640000D03*
X187198000Y-40640000D03*
X179578000Y-38100000D03*
X187198000Y-43180000D03*
X179578000Y-35560000D03*
X187198000Y-45720000D03*
X179578000Y-33020000D03*
X187198000Y-48260000D03*
D15*
X179578000Y-30480000D03*
D14*
X169418000Y-82550000D03*
X154178000Y-120650000D03*
X169418000Y-85090000D03*
X154178000Y-118110000D03*
X169418000Y-87630000D03*
X154178000Y-115570000D03*
X169418000Y-90170000D03*
X154178000Y-113030000D03*
X169418000Y-92710000D03*
X154178000Y-110490000D03*
X169418000Y-95250000D03*
X154178000Y-107950000D03*
X169418000Y-97790000D03*
X154178000Y-105410000D03*
X169418000Y-100330000D03*
X154178000Y-102870000D03*
X169418000Y-102870000D03*
X154178000Y-100330000D03*
X169418000Y-105410000D03*
X154178000Y-97790000D03*
X169418000Y-107950000D03*
X154178000Y-95250000D03*
X169418000Y-110490000D03*
X154178000Y-92710000D03*
X169418000Y-113030000D03*
X154178000Y-90170000D03*
X169418000Y-115570000D03*
X154178000Y-87630000D03*
X169418000Y-118110000D03*
X154178000Y-85090000D03*
X169418000Y-120650000D03*
D15*
X154178000Y-82550000D03*
D10*
X147828000Y-59436000D03*
X145288000Y-59436000D03*
X147828000Y-56896000D03*
X145288000Y-56896000D03*
X147828000Y-54356000D03*
X145288000Y-54356000D03*
X147828000Y-51816000D03*
X145288000Y-51816000D03*
X147828000Y-49276000D03*
X145288000Y-49276000D03*
X147828000Y-46736000D03*
D11*
X145288000Y-46736000D03*
D14*
X170688000Y-27940000D03*
X155448000Y-76200000D03*
X170688000Y-30480000D03*
X155448000Y-73660000D03*
X170688000Y-33020000D03*
X155448000Y-71120000D03*
X170688000Y-35560000D03*
X155448000Y-68580000D03*
X170688000Y-38100000D03*
X155448000Y-66040000D03*
X170688000Y-40640000D03*
X155448000Y-63500000D03*
X170688000Y-43180000D03*
X155448000Y-60960000D03*
X170688000Y-45720000D03*
X155448000Y-58420000D03*
X170688000Y-48260000D03*
X155448000Y-55880000D03*
X170688000Y-50800000D03*
X155448000Y-53340000D03*
X170688000Y-53340000D03*
X155448000Y-50800000D03*
X170688000Y-55880000D03*
X155448000Y-48260000D03*
X170688000Y-58420000D03*
X155448000Y-45720000D03*
X170688000Y-60960000D03*
X155448000Y-43180000D03*
X170688000Y-63500000D03*
X155448000Y-40640000D03*
X170688000Y-66040000D03*
X155448000Y-38100000D03*
X170688000Y-68580000D03*
X155448000Y-35560000D03*
X170688000Y-71120000D03*
X155448000Y-33020000D03*
X170688000Y-73660000D03*
X155448000Y-30480000D03*
X170688000Y-76200000D03*
D15*
X155448000Y-27940000D03*
D14*
X86233000Y-70485000D03*
X70993000Y-118745000D03*
X86233000Y-73025000D03*
X70993000Y-116205000D03*
X86233000Y-75565000D03*
X70993000Y-113665000D03*
X86233000Y-78105000D03*
X70993000Y-111125000D03*
X86233000Y-80645000D03*
X70993000Y-108585000D03*
X86233000Y-83185000D03*
X70993000Y-106045000D03*
X86233000Y-85725000D03*
X70993000Y-103505000D03*
X86233000Y-88265000D03*
X70993000Y-100965000D03*
X86233000Y-90805000D03*
X70993000Y-98425000D03*
X86233000Y-93345000D03*
X70993000Y-95885000D03*
X86233000Y-95885000D03*
X70993000Y-93345000D03*
X86233000Y-98425000D03*
X70993000Y-90805000D03*
X86233000Y-100965000D03*
X70993000Y-88265000D03*
X86233000Y-103505000D03*
X70993000Y-85725000D03*
X86233000Y-106045000D03*
X70993000Y-83185000D03*
X86233000Y-108585000D03*
X70993000Y-80645000D03*
X86233000Y-111125000D03*
X70993000Y-78105000D03*
X86233000Y-113665000D03*
X70993000Y-75565000D03*
X86233000Y-116205000D03*
X70993000Y-73025000D03*
X86233000Y-118745000D03*
D15*
X70993000Y-70485000D03*
D14*
X140208000Y-27940000D03*
X124968000Y-76200000D03*
X140208000Y-30480000D03*
X124968000Y-73660000D03*
X140208000Y-33020000D03*
X124968000Y-71120000D03*
X140208000Y-35560000D03*
X124968000Y-68580000D03*
X140208000Y-38100000D03*
X124968000Y-66040000D03*
X140208000Y-40640000D03*
X124968000Y-63500000D03*
X140208000Y-43180000D03*
X124968000Y-60960000D03*
X140208000Y-45720000D03*
X124968000Y-58420000D03*
X140208000Y-48260000D03*
X124968000Y-55880000D03*
X140208000Y-50800000D03*
X124968000Y-53340000D03*
X140208000Y-53340000D03*
X124968000Y-50800000D03*
X140208000Y-55880000D03*
X124968000Y-48260000D03*
X140208000Y-58420000D03*
X124968000Y-45720000D03*
X140208000Y-60960000D03*
X124968000Y-43180000D03*
X140208000Y-63500000D03*
X124968000Y-40640000D03*
X140208000Y-66040000D03*
X124968000Y-38100000D03*
X140208000Y-68580000D03*
X124968000Y-35560000D03*
X140208000Y-71120000D03*
X124968000Y-33020000D03*
X140208000Y-73660000D03*
X124968000Y-30480000D03*
X140208000Y-76200000D03*
D15*
X124968000Y-27940000D03*
D14*
X85598000Y-42545000D03*
X77978000Y-60325000D03*
X85598000Y-45085000D03*
X77978000Y-57785000D03*
X85598000Y-47625000D03*
X77978000Y-55245000D03*
X85598000Y-50165000D03*
X77978000Y-52705000D03*
X85598000Y-52705000D03*
X77978000Y-50165000D03*
X85598000Y-55245000D03*
X77978000Y-47625000D03*
X85598000Y-57785000D03*
X77978000Y-45085000D03*
X85598000Y-60325000D03*
D15*
X77978000Y-42545000D03*
D10*
X196088000Y-73660000D03*
X196088000Y-71120000D03*
D11*
X196088000Y-68580000D03*
D16*
X85598000Y-37592000D03*
X85598000Y-29972000D03*
X70358000Y-29972000D03*
D15*
X70358000Y-37592000D03*
D14*
X193548000Y-82550000D03*
X178308000Y-120650000D03*
X193548000Y-85090000D03*
X178308000Y-118110000D03*
X193548000Y-87630000D03*
X178308000Y-115570000D03*
X193548000Y-90170000D03*
X178308000Y-113030000D03*
X193548000Y-92710000D03*
X178308000Y-110490000D03*
X193548000Y-95250000D03*
X178308000Y-107950000D03*
X193548000Y-97790000D03*
X178308000Y-105410000D03*
X193548000Y-100330000D03*
X178308000Y-102870000D03*
X193548000Y-102870000D03*
X178308000Y-100330000D03*
X193548000Y-105410000D03*
X178308000Y-97790000D03*
X193548000Y-107950000D03*
X178308000Y-95250000D03*
X193548000Y-110490000D03*
X178308000Y-92710000D03*
X193548000Y-113030000D03*
X178308000Y-90170000D03*
X193548000Y-115570000D03*
X178308000Y-87630000D03*
X193548000Y-118110000D03*
X178308000Y-85090000D03*
X193548000Y-120650000D03*
D15*
X178308000Y-82550000D03*
D14*
X141478000Y-95250000D03*
X133858000Y-113030000D03*
X141478000Y-97790000D03*
X133858000Y-110490000D03*
X141478000Y-100330000D03*
X133858000Y-107950000D03*
X141478000Y-102870000D03*
X133858000Y-105410000D03*
X141478000Y-105410000D03*
X133858000Y-102870000D03*
X141478000Y-107950000D03*
X133858000Y-100330000D03*
X141478000Y-110490000D03*
X133858000Y-97790000D03*
X141478000Y-113030000D03*
D15*
X133858000Y-95250000D03*
D14*
X124968000Y-85090000D03*
X117348000Y-113030000D03*
X124968000Y-87630000D03*
X117348000Y-110490000D03*
X124968000Y-90170000D03*
X117348000Y-107950000D03*
X124968000Y-92710000D03*
X117348000Y-105410000D03*
X124968000Y-95250000D03*
X117348000Y-102870000D03*
X124968000Y-97790000D03*
X117348000Y-100330000D03*
X124968000Y-100330000D03*
X117348000Y-97790000D03*
X124968000Y-102870000D03*
X117348000Y-95250000D03*
X124968000Y-105410000D03*
X117348000Y-92710000D03*
X124968000Y-107950000D03*
X117348000Y-90170000D03*
X124968000Y-110490000D03*
X117348000Y-87630000D03*
X124968000Y-113030000D03*
D15*
X117348000Y-85090000D03*
D14*
X105664000Y-70358000D03*
X98044000Y-98298000D03*
X105664000Y-72898000D03*
X98044000Y-95758000D03*
X105664000Y-75438000D03*
X98044000Y-93218000D03*
X105664000Y-77978000D03*
X98044000Y-90678000D03*
X105664000Y-80518000D03*
X98044000Y-88138000D03*
X105664000Y-83058000D03*
X98044000Y-85598000D03*
X105664000Y-85598000D03*
X98044000Y-83058000D03*
X105664000Y-88138000D03*
X98044000Y-80518000D03*
X105664000Y-90678000D03*
X98044000Y-77978000D03*
X105664000Y-93218000D03*
X98044000Y-75438000D03*
X105664000Y-95758000D03*
X98044000Y-72898000D03*
X105664000Y-98298000D03*
D15*
X98044000Y-70358000D03*
D14*
X187198000Y-54610000D03*
X179578000Y-72390000D03*
X187198000Y-57150000D03*
X179578000Y-69850000D03*
X187198000Y-59690000D03*
X179578000Y-67310000D03*
X187198000Y-62230000D03*
X179578000Y-64770000D03*
X187198000Y-64770000D03*
X179578000Y-62230000D03*
X187198000Y-67310000D03*
X179578000Y-59690000D03*
X187198000Y-69850000D03*
X179578000Y-57150000D03*
X187198000Y-72390000D03*
D15*
X179578000Y-54610000D03*
D14*
X110998000Y-27940000D03*
X95758000Y-60960000D03*
X110998000Y-30480000D03*
X95758000Y-58420000D03*
X110998000Y-33020000D03*
X95758000Y-55880000D03*
X110998000Y-35560000D03*
X95758000Y-53340000D03*
X110998000Y-38100000D03*
X95758000Y-50800000D03*
X110998000Y-40640000D03*
X95758000Y-48260000D03*
X110998000Y-43180000D03*
X95758000Y-45720000D03*
X110998000Y-45720000D03*
X95758000Y-43180000D03*
X110998000Y-48260000D03*
X95758000Y-40640000D03*
X110998000Y-50800000D03*
X95758000Y-38100000D03*
X110998000Y-53340000D03*
X95758000Y-35560000D03*
X110998000Y-55880000D03*
X95758000Y-33020000D03*
X110998000Y-58420000D03*
X95758000Y-30480000D03*
X110998000Y-60960000D03*
D15*
X95758000Y-27940000D03*
D17*
X72898000Y-43180000D03*
D18*
X70358000Y-43180000D03*
X71628000Y-44450000D03*
D10*
X45974000Y-50546000D03*
D11*
X45974000Y-53086000D03*
D10*
X45974000Y-62484000D03*
D11*
X45974000Y-65024000D03*
D10*
X119888000Y-64135000D03*
X117348000Y-64135000D03*
X119888000Y-61595000D03*
X117348000Y-61595000D03*
X119888000Y-59055000D03*
X117348000Y-59055000D03*
X119888000Y-56515000D03*
X117348000Y-56515000D03*
X119888000Y-53975000D03*
X117348000Y-53975000D03*
X119888000Y-51435000D03*
D11*
X117348000Y-51435000D03*
D19*
X83058000Y-47752000D03*
X83312000Y-62230000D03*
X91548999Y-61976000D03*
X91548999Y-58420000D03*
X91548999Y-42164000D03*
X89154000Y-42164000D03*
X91694000Y-25908000D03*
X113538000Y-25908000D03*
X187198000Y-25908000D03*
X157060001Y-25819999D03*
X132080000Y-63246000D03*
X131572000Y-85344000D03*
X126238000Y-85344000D03*
X171615999Y-25819999D03*
X141224000Y-85344000D03*
X90678000Y-96774000D03*
X171938001Y-80029999D03*
X192258001Y-80029999D03*
X93897991Y-62230000D03*
X82804000Y-97282000D03*
X82804000Y-110998000D03*
X147828000Y-63500000D03*
X181102000Y-30480000D03*
X181356000Y-54610000D03*
X142748000Y-25908000D03*
X45466000Y-25908000D03*
X69342000Y-62230000D03*
X106426000Y-25908000D03*
X109728000Y-25908000D03*
X132080000Y-25908000D03*
X68237999Y-45300001D03*
X113538000Y-105918000D03*
X113755000Y-55880000D03*
X86785199Y-54503001D03*
X113030000Y-82550000D03*
X163830000Y-82550000D03*
X163830000Y-76200000D03*
X48124001Y-46482000D03*
X48124001Y-38354000D03*
X122676777Y-61454062D03*
X122682000Y-66294000D03*
X118618000Y-68580000D03*
X127254000Y-58928000D03*
X127000000Y-43180000D03*
X115658000Y-59182000D03*
X115570000Y-45720000D03*
X128995000Y-57150000D03*
X128995000Y-48260000D03*
X118618000Y-52832000D03*
X122174000Y-53848000D03*
X122174000Y-55880000D03*
X123661000Y-55118000D03*
X122594000Y-51562000D03*
X122936000Y-60452000D03*
X121412000Y-50546000D03*
X121915582Y-64511581D03*
X196887000Y-49530000D03*
X196850000Y-59436000D03*
X188722000Y-40640000D03*
X192278000Y-62230000D03*
X149098000Y-73660000D03*
X141732000Y-73660000D03*
X138807997Y-73660000D03*
X135890000Y-73660000D03*
X135890000Y-68072000D03*
X146558000Y-76200000D03*
X149352000Y-43180000D03*
X137377000Y-54356000D03*
X137377000Y-45757000D03*
X143137999Y-50546000D03*
X143137999Y-48260000D03*
X142412999Y-49276000D03*
X143002000Y-53340000D03*
X146299347Y-48825999D03*
X146304000Y-45212000D03*
X141732000Y-45212000D03*
X150114000Y-46736000D03*
X150114000Y-61380000D03*
X144018000Y-61468000D03*
X143257249Y-58570171D03*
X136652000Y-46990000D03*
X136652000Y-60960000D03*
X196342000Y-58420000D03*
X76200000Y-63246000D03*
X71628000Y-52070000D03*
X101600000Y-65278000D03*
X101600000Y-55880000D03*
X101854000Y-68580000D03*
X129794000Y-68834000D03*
X129794000Y-71120000D03*
X151384000Y-71374000D03*
X151384000Y-38100000D03*
X74713000Y-108712000D03*
X74422000Y-65786000D03*
X95504000Y-70612000D03*
X99822000Y-70612000D03*
X123190000Y-70358000D03*
X123444000Y-78232000D03*
X166878000Y-78232000D03*
X188976000Y-78232000D03*
X189484000Y-105410000D03*
X166624000Y-105410000D03*
X75438000Y-118872000D03*
X75184000Y-68072000D03*
X96266000Y-68072000D03*
X97028000Y-39370000D03*
X122174000Y-71628000D03*
X122682000Y-78994000D03*
X166900652Y-97767348D03*
X188214000Y-78994000D03*
X188722000Y-97790000D03*
X166302503Y-79074159D03*
X76708000Y-116078000D03*
X76454000Y-69088000D03*
X120904000Y-74168000D03*
X120904000Y-79793000D03*
X165571000Y-79756000D03*
X165608000Y-95250000D03*
X89662000Y-77978000D03*
X89299001Y-81788000D03*
X104140000Y-80518000D03*
X107064003Y-80518000D03*
X148844000Y-80518000D03*
X149352000Y-92710000D03*
X90424000Y-80772000D03*
X90061001Y-84582000D03*
X104140000Y-82550000D03*
X106963870Y-82538052D03*
X148082000Y-83058000D03*
X148262000Y-95250000D03*
X91186000Y-83312000D03*
X90969000Y-86614000D03*
X100621000Y-85598000D03*
X100584000Y-84328000D03*
X147537000Y-84074000D03*
X147574000Y-97790000D03*
X77978000Y-105918000D03*
X77978000Y-120396000D03*
X115316000Y-120396000D03*
X115099000Y-102870000D03*
X115316000Y-115604001D03*
X121666000Y-102870000D03*
X121666000Y-76200000D03*
X108458000Y-76127999D03*
X108458000Y-33020000D03*
X162052000Y-75946000D03*
X161798000Y-27940000D03*
X91694000Y-85598000D03*
X91694000Y-88138000D03*
X101346000Y-88138000D03*
X101346000Y-81788000D03*
X146812000Y-81788000D03*
X146812000Y-100330000D03*
X167894000Y-100838000D03*
X170717870Y-100849948D03*
X109474000Y-102616000D03*
X109474000Y-100330000D03*
X170942000Y-112776000D03*
X167894000Y-112776000D03*
X147865000Y-112776000D03*
X147574000Y-103886000D03*
X121158000Y-103886000D03*
X120904000Y-100330000D03*
X129540000Y-103886000D03*
X129286000Y-73660000D03*
X113030000Y-72898000D03*
X112884999Y-35560000D03*
X166624000Y-74676000D03*
X166878000Y-27940000D03*
X87884000Y-119470000D03*
X150692051Y-119426701D03*
X151130000Y-102870000D03*
X171958000Y-102108000D03*
X173486653Y-102874653D03*
X77253000Y-101092000D03*
X77216000Y-64770000D03*
X90424000Y-64770000D03*
X90678000Y-35560000D03*
X123698000Y-36576000D03*
X162814000Y-36068000D03*
X163068000Y-110490000D03*
X162814000Y-81026000D03*
X186436000Y-81026000D03*
X186907000Y-110490000D03*
X87376000Y-117602000D03*
X149860000Y-118872000D03*
X150114000Y-105410000D03*
X77978000Y-98552000D03*
X77978000Y-104648000D03*
X120650000Y-105410000D03*
X120904000Y-118110000D03*
X111760000Y-104648000D03*
X122428000Y-30480000D03*
X122428000Y-27940000D03*
X162196999Y-119524999D03*
X161327000Y-30334001D03*
X94622991Y-93472000D03*
X94742000Y-67310000D03*
X109183000Y-67310000D03*
X94996000Y-116930000D03*
X149352000Y-117348000D03*
X149352000Y-107950000D03*
X109474000Y-46990000D03*
X133858000Y-46990000D03*
X135636000Y-44450000D03*
X135636000Y-40640000D03*
X93897991Y-95758000D03*
X94234000Y-114046000D03*
X148590000Y-114046000D03*
X148590000Y-110490000D03*
X148590000Y-122682000D03*
X174244000Y-122682000D03*
X174244000Y-110490000D03*
X93980000Y-66548000D03*
X107696000Y-66548000D03*
X107696000Y-53340000D03*
X113792000Y-53340000D03*
X113792000Y-38100000D03*
X137922000Y-38100000D03*
X142240000Y-38100000D03*
X167386000Y-38100000D03*
X167386000Y-45720000D03*
X78740000Y-93218000D03*
X78414001Y-64008000D03*
X89916000Y-63754000D03*
X89916000Y-33020000D03*
X78740000Y-112522000D03*
X79539000Y-90932000D03*
X79139001Y-31496000D03*
X79539000Y-115279000D03*
X80264000Y-88138000D03*
X80301000Y-107950000D03*
X118618000Y-120650000D03*
X79901001Y-28702000D03*
X147066000Y-27395000D03*
X147066000Y-30480000D03*
X93218000Y-103378000D03*
X93218000Y-60960000D03*
X103886000Y-60960000D03*
X103886000Y-44450000D03*
X133350000Y-44450000D03*
X133350000Y-35560000D03*
X151892000Y-35560000D03*
X152146000Y-45720000D03*
X81026000Y-85344000D03*
X81026000Y-109728000D03*
X80772000Y-27940000D03*
X137414000Y-26924000D03*
X165862000Y-26670000D03*
X160926999Y-109364999D03*
X161036000Y-118110000D03*
X186182000Y-109474000D03*
X186182000Y-118110000D03*
X165862000Y-33020000D03*
X81788000Y-82804000D03*
X81534000Y-62992000D03*
X110998000Y-67310000D03*
X156464000Y-67564000D03*
X99314000Y-78994000D03*
X118618000Y-79756000D03*
X118618000Y-101346000D03*
X115824000Y-77724000D03*
X116078000Y-106680000D03*
X82550000Y-75692000D03*
X82550000Y-91948000D03*
X135708001Y-91948000D03*
X114300000Y-116332000D03*
X114300000Y-85090000D03*
X187706000Y-86106000D03*
X187706000Y-90170000D03*
X83312000Y-72898000D03*
X83312000Y-89662000D03*
X134874000Y-89154000D03*
X92456000Y-118872000D03*
X92456000Y-40894000D03*
X164846000Y-41656000D03*
X164846000Y-48260000D03*
X164592000Y-102870000D03*
X84074000Y-70612000D03*
X84074000Y-99568000D03*
X126297687Y-70410104D03*
X122428000Y-69596000D03*
X97536000Y-68072000D03*
X97608001Y-53340000D03*
X104902000Y-45720000D03*
X104902000Y-65532000D03*
X169075653Y-65024000D03*
X152146000Y-60960000D03*
X152400000Y-72136000D03*
X114046000Y-70866000D03*
X113792000Y-64770000D03*
X100838000Y-64262000D03*
X100838000Y-43180000D03*
X109982000Y-72898000D03*
X128270000Y-35560000D03*
X128524000Y-74676000D03*
X153416000Y-72898000D03*
X153416000Y-40640000D03*
X185420000Y-73660000D03*
X185762000Y-64770000D03*
X184150000Y-71120000D03*
X184062000Y-48260000D03*
X167625653Y-68580000D03*
X167386000Y-52070000D03*
X185762000Y-52070000D03*
X119634000Y-78486000D03*
X119888000Y-81280000D03*
X168350653Y-79756000D03*
X168402000Y-40640000D03*
X183425000Y-63500000D03*
X183388000Y-43180000D03*
X182300001Y-55880000D03*
X182372000Y-40640000D03*
X114808000Y-81063000D03*
X115062000Y-87630000D03*
X101854000Y-93218000D03*
X102616000Y-49530000D03*
X163830000Y-94560001D03*
X163830000Y-107950000D03*
X89154000Y-53086000D03*
X88826001Y-94234000D03*
X101854000Y-94488000D03*
X101854000Y-103378000D03*
X119380000Y-103886000D03*
X119763109Y-120769804D03*
X168017997Y-120650000D03*
X171512338Y-120587662D03*
X187706000Y-119380000D03*
X187960000Y-107950000D03*
X145796000Y-92710000D03*
X145796000Y-88900000D03*
X157674272Y-88900415D03*
X157674272Y-90110272D03*
X143002000Y-90170000D03*
X143263759Y-87531355D03*
X142328000Y-87884000D03*
X142240000Y-85090000D03*
X128524000Y-100330000D03*
X128524000Y-96520000D03*
X161471999Y-96520000D03*
X161471999Y-81821154D03*
X176530000Y-81788000D03*
X132516359Y-103270001D03*
X135230815Y-103144563D03*
X132080000Y-105410000D03*
X135636000Y-107950000D03*
X137668000Y-107950000D03*
X137668000Y-111252000D03*
X130302000Y-110490000D03*
X130302000Y-100330000D03*
X139192000Y-110236000D03*
X139196653Y-106929347D03*
X155956000Y-106680000D03*
X156210000Y-113719999D03*
X173482000Y-113792000D03*
X173482000Y-106680000D03*
X190754000Y-106680000D03*
X191008000Y-92710000D03*
X167386000Y-103886000D03*
X170942000Y-103886000D03*
X190209000Y-104140000D03*
X190246000Y-85090000D03*
X156210000Y-101346000D03*
X156210000Y-90823001D03*
X145034000Y-113030000D03*
X145034000Y-84582000D03*
X160274000Y-84670000D03*
X160274000Y-88900000D03*
X131572000Y-97790000D03*
X131572000Y-95250000D03*
X90678000Y-98298000D03*
X98044000Y-113284000D03*
X127508000Y-113030000D03*
X128658010Y-76322012D03*
X134620000Y-76200000D03*
X134620000Y-69850000D03*
X145288000Y-69850000D03*
X145288000Y-62484000D03*
X160528000Y-62230000D03*
X160528000Y-50800000D03*
X123444000Y-49530000D03*
X107442000Y-49530000D03*
X107442000Y-38100000D03*
X114554000Y-49530000D03*
X86614000Y-38100000D03*
X84074000Y-50038000D03*
X158745347Y-120654653D03*
X175006000Y-120650000D03*
X136652000Y-97790000D03*
X136144000Y-113030000D03*
X122936000Y-113284000D03*
X107442000Y-29210000D03*
X112014000Y-29210000D03*
X93980000Y-37846000D03*
X158496000Y-83820000D03*
X157226000Y-50800000D03*
X184912000Y-50800000D03*
X177038000Y-50800000D03*
X175514000Y-83820000D03*
X170688000Y-83820000D03*
X184912000Y-57150000D03*
X184912000Y-68580000D03*
X178308000Y-68580000D03*
X188976000Y-68580000D03*
X189230000Y-73660000D03*
X184912000Y-41910000D03*
X84074000Y-53848000D03*
X69850000Y-53086000D03*
X194818000Y-61468000D03*
D20*
X82931000Y-47625000D02*
X83058000Y-47752000D01*
X77978000Y-47625000D02*
X82931000Y-47625000D01*
X91294999Y-62230000D02*
X91548999Y-61976000D01*
X83312000Y-62230000D02*
X91294999Y-62230000D01*
X91548999Y-58420000D02*
X95758000Y-58420000D01*
X91548999Y-42164000D02*
X89154000Y-42164000D01*
X91694000Y-25908000D02*
X70358000Y-25908000D01*
X70358000Y-25908000D02*
X70358000Y-29972000D01*
X113538000Y-25908000D02*
X113626001Y-25819999D01*
X187109999Y-25819999D02*
X187198000Y-25908000D01*
X171615999Y-25819999D02*
X187109999Y-25819999D01*
X132334000Y-63500000D02*
X132080000Y-63246000D01*
X140208000Y-63500000D02*
X132334000Y-63500000D01*
X131572000Y-85344000D02*
X126238000Y-85344000D01*
X157060001Y-25819999D02*
X171615999Y-25819999D01*
X141224000Y-85344000D02*
X131572000Y-85344000D01*
X72281999Y-97173999D02*
X70993000Y-95885000D01*
X90678000Y-96774000D02*
X90278001Y-97173999D01*
X171938001Y-80029999D02*
X192258001Y-80029999D01*
X93643991Y-61976000D02*
X93897991Y-62230000D01*
X91548999Y-61976000D02*
X93643991Y-61976000D01*
X82912001Y-97173999D02*
X82804000Y-97282000D01*
X83203999Y-97173999D02*
X82912001Y-97173999D01*
X90278001Y-97173999D02*
X83203999Y-97173999D01*
X83203999Y-97173999D02*
X72281999Y-97173999D01*
X86106000Y-110998000D02*
X86233000Y-111125000D01*
X82804000Y-110998000D02*
X86106000Y-110998000D01*
X70358000Y-37592000D02*
X70358000Y-29972000D01*
X131083999Y-62249999D02*
X132080000Y-63246000D01*
X121090081Y-64135000D02*
X122975082Y-62249999D01*
X122975082Y-62249999D02*
X131083999Y-62249999D01*
X119888000Y-64135000D02*
X121090081Y-64135000D01*
X140208000Y-63500000D02*
X147828000Y-63500000D01*
X181102000Y-30480000D02*
X187198000Y-30480000D01*
X181356000Y-54610000D02*
X187198000Y-54610000D01*
X142659999Y-25819999D02*
X142748000Y-25908000D01*
X142659999Y-25819999D02*
X157060001Y-25819999D01*
X70358000Y-25908000D02*
X45466000Y-25908000D01*
X81953999Y-62141999D02*
X82042000Y-62230000D01*
X81125999Y-62141999D02*
X81953999Y-62141999D01*
X82042000Y-62230000D02*
X83312000Y-62230000D01*
X81037998Y-62230000D02*
X81125999Y-62141999D01*
X69342000Y-62230000D02*
X81037998Y-62230000D01*
X106426000Y-25908000D02*
X108966000Y-25908000D01*
X91694000Y-25908000D02*
X106426000Y-25908000D01*
X109728000Y-25908000D02*
X113538000Y-25908000D01*
X108966000Y-25908000D02*
X109728000Y-25908000D01*
X113538000Y-25908000D02*
X132080000Y-25908000D01*
X132080000Y-25908000D02*
X142748000Y-25908000D01*
X68822997Y-45884999D02*
X68237999Y-45300001D01*
X77178001Y-45884999D02*
X68822997Y-45884999D01*
X77978000Y-45085000D02*
X77178001Y-45884999D01*
D21*
X113411000Y-106045000D02*
X113538000Y-105918000D01*
X86233000Y-106045000D02*
X113411000Y-106045000D01*
X113755000Y-55880000D02*
X110998000Y-55880000D01*
X109621001Y-54503001D02*
X86785199Y-54503001D01*
X110998000Y-55880000D02*
X109621001Y-54503001D01*
X156363002Y-82550000D02*
X163830000Y-82550000D01*
X155238001Y-81424999D02*
X156363002Y-82550000D01*
X152209999Y-82332999D02*
X153117999Y-81424999D01*
X147733999Y-82332999D02*
X152209999Y-82332999D01*
X147459008Y-82607990D02*
X147733999Y-82332999D01*
X142510589Y-82607990D02*
X147459008Y-82607990D01*
X113030000Y-82550000D02*
X113544979Y-83064979D01*
X142053600Y-83064979D02*
X142510589Y-82607990D01*
X153117999Y-81424999D02*
X155238001Y-81424999D01*
X113544979Y-83064979D02*
X142053600Y-83064979D01*
X163830000Y-76200000D02*
X170688000Y-76200000D01*
X84201000Y-46482000D02*
X48124001Y-46482000D01*
X85598000Y-45085000D02*
X84201000Y-46482000D01*
X48124001Y-38354000D02*
X45974000Y-38354000D01*
X122535839Y-61595000D02*
X122676777Y-61454062D01*
X119888000Y-61595000D02*
X122535839Y-61595000D01*
X124714000Y-66294000D02*
X124968000Y-66040000D01*
X122682000Y-66294000D02*
X124714000Y-66294000D01*
X124168001Y-70320001D02*
X124968000Y-71120000D01*
X124168001Y-70081413D02*
X124168001Y-70320001D01*
X122666588Y-68580000D02*
X124168001Y-70081413D01*
X118618000Y-68580000D02*
X122666588Y-68580000D01*
X126451000Y-59545001D02*
X127068001Y-58928000D01*
X121090081Y-59055000D02*
X121580082Y-59545001D01*
X121580082Y-59545001D02*
X126451000Y-59545001D01*
X119888000Y-59055000D02*
X121090081Y-59055000D01*
X127000000Y-43180000D02*
X124968000Y-43180000D01*
X115785000Y-59055000D02*
X115658000Y-59182000D01*
X117348000Y-59055000D02*
X115785000Y-59055000D01*
X115570000Y-45720000D02*
X124968000Y-45720000D01*
X121725081Y-57150000D02*
X128995000Y-57150000D01*
X121090081Y-56515000D02*
X121725081Y-57150000D01*
X119888000Y-56515000D02*
X121090081Y-56515000D01*
X128995000Y-48260000D02*
X124968000Y-48260000D01*
X123157999Y-52610001D02*
X124968000Y-50800000D01*
X118839999Y-52610001D02*
X123157999Y-52610001D01*
X118618000Y-52832000D02*
X118839999Y-52610001D01*
X122047000Y-53975000D02*
X122174000Y-53848000D01*
X119888000Y-53975000D02*
X122047000Y-53975000D01*
X122174000Y-55880000D02*
X124968000Y-55880000D01*
X123628999Y-55150001D02*
X123661000Y-55118000D01*
X118523001Y-55150001D02*
X123628999Y-55150001D01*
X117348000Y-53975000D02*
X118523001Y-55150001D01*
X122467000Y-51435000D02*
X122594000Y-51562000D01*
X119888000Y-51435000D02*
X122467000Y-51435000D01*
X124460000Y-60452000D02*
X124968000Y-60960000D01*
X122936000Y-60452000D02*
X124460000Y-60452000D01*
X117423001Y-50259999D02*
X121125999Y-50259999D01*
X117348000Y-50335000D02*
X117423001Y-50259999D01*
X121125999Y-50259999D02*
X121412000Y-50546000D01*
X117348000Y-51435000D02*
X117348000Y-50335000D01*
X122927163Y-63500000D02*
X124968000Y-63500000D01*
X121915582Y-64511581D02*
X122927163Y-63500000D01*
X180848000Y-49530000D02*
X179578000Y-48260000D01*
X196887000Y-49530000D02*
X180848000Y-49530000D01*
X193101406Y-44608000D02*
X194056000Y-44608000D01*
X193088405Y-44594999D02*
X193101406Y-44608000D01*
X180703001Y-44594999D02*
X193088405Y-44594999D01*
X179578000Y-45720000D02*
X180703001Y-44594999D01*
X196596000Y-59690000D02*
X196850000Y-59436000D01*
X187198000Y-59690000D02*
X196596000Y-59690000D01*
X188754000Y-40608000D02*
X188722000Y-40640000D01*
X194056000Y-40608000D02*
X188754000Y-40608000D01*
X195381001Y-37933001D02*
X196056000Y-38608000D01*
X194748001Y-37300001D02*
X195381001Y-37933001D01*
X187997999Y-37300001D02*
X194748001Y-37300001D01*
X187198000Y-38100000D02*
X187997999Y-37300001D01*
X192278000Y-62230000D02*
X187198000Y-62230000D01*
X149098000Y-73660000D02*
X141732000Y-73660000D01*
X138807997Y-73660000D02*
X135890000Y-73660000D01*
X125476000Y-68072000D02*
X124968000Y-68580000D01*
X135890000Y-68072000D02*
X125476000Y-68072000D01*
X146558000Y-76200000D02*
X140208000Y-76200000D01*
X149352000Y-43180000D02*
X140208000Y-43180000D01*
X137486001Y-54465001D02*
X137377000Y-54356000D01*
X144085919Y-54356000D02*
X143976918Y-54465001D01*
X143976918Y-54465001D02*
X137486001Y-54465001D01*
X145288000Y-54356000D02*
X144085919Y-54356000D01*
X140171000Y-45757000D02*
X140208000Y-45720000D01*
X137377000Y-45757000D02*
X140171000Y-45757000D01*
X146558000Y-50546000D02*
X143137999Y-50546000D01*
X147828000Y-51816000D02*
X146558000Y-50546000D01*
X143137999Y-48260000D02*
X140208000Y-48260000D01*
X141224000Y-51816000D02*
X140208000Y-50800000D01*
X145288000Y-51816000D02*
X141224000Y-51816000D01*
X144723999Y-48100999D02*
X143548998Y-49276000D01*
X143548998Y-49276000D02*
X142412999Y-49276000D01*
X146652999Y-48100999D02*
X144723999Y-48100999D01*
X147828000Y-49276000D02*
X146652999Y-48100999D01*
X143002000Y-53340000D02*
X140208000Y-53340000D01*
X145849346Y-49276000D02*
X146299347Y-48825999D01*
X145288000Y-49276000D02*
X145849346Y-49276000D01*
X146304000Y-45212000D02*
X141732000Y-45212000D01*
X147828000Y-46736000D02*
X150114000Y-46736000D01*
X144106000Y-61380000D02*
X144018000Y-61468000D01*
X150114000Y-61380000D02*
X144106000Y-61380000D01*
X140358171Y-58570171D02*
X140208000Y-58420000D01*
X143257249Y-58570171D02*
X140358171Y-58570171D01*
X143934000Y-46990000D02*
X136652000Y-46990000D01*
X144188000Y-46736000D02*
X143934000Y-46990000D01*
X145288000Y-46736000D02*
X144188000Y-46736000D01*
X136652000Y-60960000D02*
X140208000Y-60960000D01*
X196342000Y-58420000D02*
X170688000Y-58420000D01*
X76112001Y-63333999D02*
X76200000Y-63246000D01*
X46823999Y-63333999D02*
X76112001Y-63333999D01*
X45974000Y-62484000D02*
X46823999Y-63333999D01*
X71792999Y-51905001D02*
X71628000Y-52070000D01*
X77178001Y-51905001D02*
X71792999Y-51905001D01*
X77978000Y-52705000D02*
X77178001Y-51905001D01*
X101200001Y-65677999D02*
X101600000Y-65278000D01*
X101600000Y-55880000D02*
X95758000Y-55880000D01*
X123302998Y-68580000D02*
X124427999Y-69705001D01*
X129794000Y-71120000D02*
X140208000Y-71120000D01*
X140208000Y-71120000D02*
X151130000Y-71120000D01*
X151130000Y-71120000D02*
X151384000Y-71374000D01*
X151384000Y-38100000D02*
X155448000Y-38100000D01*
X127000000Y-68834000D02*
X129794000Y-68834000D01*
X126128999Y-69705001D02*
X127000000Y-68834000D01*
X124427999Y-69705001D02*
X126128999Y-69705001D01*
X102616000Y-67818000D02*
X101854000Y-68580000D01*
X115570000Y-68580000D02*
X108458000Y-68580000D01*
X116534989Y-67615011D02*
X115570000Y-68580000D01*
X108458000Y-68580000D02*
X107696000Y-67818000D01*
X122338009Y-67615011D02*
X116534989Y-67615011D01*
X107696000Y-67818000D02*
X102616000Y-67818000D01*
X124427999Y-69705001D02*
X122338009Y-67615011D01*
X74586000Y-108585000D02*
X74713000Y-108712000D01*
X70993000Y-108585000D02*
X74586000Y-108585000D01*
X74422000Y-65786000D02*
X101200001Y-65677999D01*
X95377000Y-70485000D02*
X95504000Y-70612000D01*
X86233000Y-70485000D02*
X95377000Y-70485000D01*
X123444000Y-78232000D02*
X166878000Y-78232000D01*
X166878000Y-78232000D02*
X188976000Y-78232000D01*
X189484000Y-105410000D02*
X193548000Y-105410000D01*
X103744998Y-70612000D02*
X99822000Y-70612000D01*
X166624000Y-105410000D02*
X169418000Y-105410000D01*
X117964001Y-69958001D02*
X118364000Y-70358000D01*
X118364000Y-70358000D02*
X123190000Y-70358000D01*
X113138001Y-69958001D02*
X113138001Y-69995999D01*
X117964001Y-69958001D02*
X113138001Y-69958001D01*
X113138001Y-69995999D02*
X112522000Y-70612000D01*
X105123999Y-69232999D02*
X103744998Y-70612000D01*
X106204001Y-69232999D02*
X105123999Y-69232999D01*
X107583002Y-70612000D02*
X106204001Y-69232999D01*
X112522000Y-70612000D02*
X107583002Y-70612000D01*
X75311000Y-118745000D02*
X75438000Y-118872000D01*
X70993000Y-118745000D02*
X75311000Y-118745000D01*
X75184000Y-68072000D02*
X96266000Y-68072000D01*
X138938000Y-39370000D02*
X140208000Y-38100000D01*
X97028000Y-39370000D02*
X138938000Y-39370000D01*
X169273001Y-39514999D02*
X170688000Y-38100000D01*
X141622999Y-39514999D02*
X169273001Y-39514999D01*
X140208000Y-38100000D02*
X141622999Y-39514999D01*
X122029001Y-71772999D02*
X122174000Y-71628000D01*
X87485001Y-71772999D02*
X122029001Y-71772999D01*
X86233000Y-73025000D02*
X87485001Y-71772999D01*
X122682000Y-78994000D02*
X166222344Y-78994000D01*
X169395348Y-97767348D02*
X169418000Y-97790000D01*
X166900652Y-97767348D02*
X169395348Y-97767348D01*
X188133841Y-79074159D02*
X188214000Y-78994000D01*
X188722000Y-97790000D02*
X193548000Y-97790000D01*
X166222344Y-78994000D02*
X166302503Y-79074159D01*
X187596999Y-96664999D02*
X188322001Y-97390001D01*
X177767999Y-96664999D02*
X187596999Y-96664999D01*
X177404998Y-97028000D02*
X177767999Y-96664999D01*
X188322001Y-97390001D02*
X188722000Y-97790000D01*
X171311370Y-97028000D02*
X177404998Y-97028000D01*
X170549370Y-97790000D02*
X171311370Y-97028000D01*
X169418000Y-97790000D02*
X170549370Y-97790000D01*
X76581000Y-116205000D02*
X76708000Y-116078000D01*
X70993000Y-116205000D02*
X76581000Y-116205000D01*
X98044000Y-69308000D02*
X98044000Y-70358000D01*
X97824000Y-69088000D02*
X98044000Y-69308000D01*
X76454000Y-69088000D02*
X97824000Y-69088000D01*
X87630000Y-74168000D02*
X120904000Y-74168000D01*
X86233000Y-75565000D02*
X87630000Y-74168000D01*
X165534000Y-79793000D02*
X165571000Y-79756000D01*
X120904000Y-79793000D02*
X165534000Y-79793000D01*
X165608000Y-95250000D02*
X169418000Y-95250000D01*
X177767999Y-94124999D02*
X192422999Y-94124999D01*
X192422999Y-94124999D02*
X193548000Y-95250000D01*
X176642998Y-95250000D02*
X177767999Y-94124999D01*
X169418000Y-95250000D02*
X176642998Y-95250000D01*
X89535000Y-78105000D02*
X89662000Y-77978000D01*
X86233000Y-78105000D02*
X89535000Y-78105000D01*
X96774000Y-81788000D02*
X98044000Y-80518000D01*
X89299001Y-81788000D02*
X96774000Y-81788000D01*
X98044000Y-80518000D02*
X104140000Y-80518000D01*
X149352000Y-92710000D02*
X154178000Y-92710000D01*
X176530000Y-92710000D02*
X178308000Y-92710000D01*
X175404999Y-93835001D02*
X176530000Y-92710000D01*
X155303001Y-93835001D02*
X175404999Y-93835001D01*
X154178000Y-92710000D02*
X155303001Y-93835001D01*
X115570000Y-80518000D02*
X148844000Y-80518000D01*
X114808000Y-79756000D02*
X115570000Y-80518000D01*
X113284000Y-79756000D02*
X114808000Y-79756000D01*
X112522000Y-80518000D02*
X113284000Y-79756000D01*
X107064003Y-80518000D02*
X112522000Y-80518000D01*
X90297000Y-80645000D02*
X90424000Y-80772000D01*
X86233000Y-80645000D02*
X90297000Y-80645000D01*
X96520000Y-84582000D02*
X98044000Y-83058000D01*
X90061001Y-84582000D02*
X96520000Y-84582000D01*
X103632000Y-83058000D02*
X104140000Y-82550000D01*
X98044000Y-83058000D02*
X103632000Y-83058000D01*
X106963870Y-82538052D02*
X107483818Y-83058000D01*
X148262000Y-95250000D02*
X154178000Y-95250000D01*
X107483818Y-83099818D02*
X107898989Y-83514989D01*
X107483818Y-83058000D02*
X107483818Y-83099818D01*
X107898989Y-83514989D02*
X142240000Y-83514989D01*
X142696989Y-83058000D02*
X143256000Y-83058000D01*
X142240000Y-83514989D02*
X142696989Y-83058000D01*
X143256000Y-83058000D02*
X148082000Y-83058000D01*
X155309370Y-95250000D02*
X154178000Y-95250000D01*
X164556998Y-95285002D02*
X155344372Y-95285002D01*
X173444001Y-96049999D02*
X172974000Y-96520000D01*
X172974000Y-96520000D02*
X165791996Y-96520000D01*
X155344372Y-95285002D02*
X155309370Y-95250000D01*
X177508001Y-96049999D02*
X173444001Y-96049999D01*
X165791996Y-96520000D02*
X164556998Y-95285002D01*
X178308000Y-95250000D02*
X177508001Y-96049999D01*
X91059000Y-83185000D02*
X91186000Y-83312000D01*
X86233000Y-83185000D02*
X91059000Y-83185000D01*
X96628001Y-87013999D02*
X98044000Y-85598000D01*
X91368999Y-87013999D02*
X96628001Y-87013999D01*
X90969000Y-86614000D02*
X91368999Y-87013999D01*
X98044000Y-85598000D02*
X100621000Y-85598000D01*
X147574000Y-97790000D02*
X154178000Y-97790000D01*
X178308000Y-97790000D02*
X174369590Y-97790000D01*
X165897998Y-97790000D02*
X154178000Y-97790000D01*
X167022999Y-98915001D02*
X165897998Y-97790000D01*
X173244589Y-98915001D02*
X167022999Y-98915001D01*
X174369590Y-97790000D02*
X173244589Y-98915001D01*
X147029000Y-83566000D02*
X147537000Y-84074000D01*
X143256000Y-83566000D02*
X147029000Y-83566000D01*
X106422003Y-83964999D02*
X142857001Y-83964999D01*
X106059002Y-84328000D02*
X106422003Y-83964999D01*
X142857001Y-83964999D02*
X143256000Y-83566000D01*
X100584000Y-84328000D02*
X106059002Y-84328000D01*
X77851000Y-106045000D02*
X77978000Y-105918000D01*
X70993000Y-106045000D02*
X77851000Y-106045000D01*
X77978000Y-120396000D02*
X115316000Y-120396000D01*
X115099000Y-102870000D02*
X117348000Y-102870000D01*
X115350001Y-115570000D02*
X115316000Y-115604001D01*
X154178000Y-115570000D02*
X115350001Y-115570000D01*
X117348000Y-102870000D02*
X121666000Y-102870000D01*
X121666000Y-76200000D02*
X124968000Y-76200000D01*
X108530001Y-76200000D02*
X108458000Y-76127999D01*
X121666000Y-76200000D02*
X108530001Y-76200000D01*
X108458000Y-33020000D02*
X110998000Y-33020000D01*
X160672999Y-77325001D02*
X162052000Y-75946000D01*
X126093001Y-77325001D02*
X160672999Y-77325001D01*
X124968000Y-76200000D02*
X126093001Y-77325001D01*
X161798000Y-27940000D02*
X155448000Y-27940000D01*
X178308000Y-115570000D02*
X178308000Y-115824000D01*
X173083001Y-116984999D02*
X174498000Y-115570000D01*
X155592999Y-116984999D02*
X173083001Y-116984999D01*
X174498000Y-115570000D02*
X178308000Y-115570000D01*
X154178000Y-115570000D02*
X155592999Y-116984999D01*
X91567000Y-85725000D02*
X91694000Y-85598000D01*
X86233000Y-85725000D02*
X91567000Y-85725000D01*
X91694000Y-88138000D02*
X98044000Y-88138000D01*
X98044000Y-88138000D02*
X101346000Y-88138000D01*
X146812000Y-100330000D02*
X154178000Y-100330000D01*
X118872000Y-81788000D02*
X119380000Y-82296000D01*
X101346000Y-81788000D02*
X118872000Y-81788000D01*
X119380000Y-82296000D02*
X120396000Y-82296000D01*
X120396000Y-82296000D02*
X120904000Y-81788000D01*
X120904000Y-81788000D02*
X146812000Y-81788000D01*
X167386000Y-100330000D02*
X167894000Y-100838000D01*
X154178000Y-100330000D02*
X167386000Y-100330000D01*
X171237818Y-100330000D02*
X178308000Y-100330000D01*
X170717870Y-100849948D02*
X171237818Y-100330000D01*
X109237999Y-102379999D02*
X109474000Y-102616000D01*
X72118001Y-102379999D02*
X109237999Y-102379999D01*
X70993000Y-103505000D02*
X72118001Y-102379999D01*
X109474000Y-100330000D02*
X117348000Y-100330000D01*
X171196000Y-113030000D02*
X170942000Y-112776000D01*
X178308000Y-113030000D02*
X171196000Y-113030000D01*
X154432000Y-112776000D02*
X154178000Y-113030000D01*
X167894000Y-112776000D02*
X154432000Y-112776000D01*
X148119000Y-113030000D02*
X147865000Y-112776000D01*
X154178000Y-113030000D02*
X148119000Y-113030000D01*
X121267001Y-103995001D02*
X121158000Y-103886000D01*
X147008315Y-103886000D02*
X146899314Y-103995001D01*
X147574000Y-103886000D02*
X147008315Y-103886000D01*
X120904000Y-100330000D02*
X117348000Y-100330000D01*
X129649001Y-103995001D02*
X129540000Y-103886000D01*
X129649001Y-103995001D02*
X121267001Y-103995001D01*
X129286000Y-73660000D02*
X124968000Y-73660000D01*
X124168001Y-72860001D02*
X113067999Y-72860001D01*
X113067999Y-72860001D02*
X113030000Y-72898000D01*
X124968000Y-73660000D02*
X124168001Y-72860001D01*
X112884999Y-35560000D02*
X110998000Y-35560000D01*
X166514999Y-74785001D02*
X166624000Y-74676000D01*
X130411001Y-74785001D02*
X166514999Y-74785001D01*
X129286000Y-73660000D02*
X130411001Y-74785001D01*
X166878000Y-27940000D02*
X170688000Y-27940000D01*
X146899314Y-103995001D02*
X131681001Y-103995001D01*
X131681001Y-103995001D02*
X131935001Y-103995001D01*
X131681001Y-103995001D02*
X129649001Y-103995001D01*
X150521751Y-119597001D02*
X150692051Y-119426701D01*
X88449685Y-119470000D02*
X88576686Y-119597001D01*
X88576686Y-119597001D02*
X150521751Y-119597001D01*
X87884000Y-119470000D02*
X88449685Y-119470000D01*
X151130000Y-102870000D02*
X154178000Y-102870000D01*
X178303347Y-102874653D02*
X178308000Y-102870000D01*
X173486653Y-102874653D02*
X178303347Y-102874653D01*
X171958000Y-102108000D02*
X171594999Y-101744999D01*
X171594999Y-101744999D02*
X157081001Y-101744999D01*
X157081001Y-101744999D02*
X155956000Y-102870000D01*
X155956000Y-102870000D02*
X154178000Y-102870000D01*
X77126000Y-100965000D02*
X77253000Y-101092000D01*
X70993000Y-100965000D02*
X77126000Y-100965000D01*
X77216000Y-64770000D02*
X90424000Y-64770000D01*
X90678000Y-35560000D02*
X95758000Y-35560000D01*
X154322999Y-36685001D02*
X155448000Y-35560000D01*
X95758000Y-35560000D02*
X96883001Y-36685001D01*
X123807001Y-36685001D02*
X123698000Y-36576000D01*
X123842999Y-36685001D02*
X123807001Y-36685001D01*
X96883001Y-36685001D02*
X123842999Y-36685001D01*
X123842999Y-36685001D02*
X154322999Y-36685001D01*
X162306000Y-35560000D02*
X162814000Y-36068000D01*
X155448000Y-35560000D02*
X162306000Y-35560000D01*
X163068000Y-110490000D02*
X169418000Y-110490000D01*
X186907000Y-110490000D02*
X193548000Y-110490000D01*
X171450000Y-81026000D02*
X186436000Y-81026000D01*
X170942000Y-80518000D02*
X171450000Y-81026000D01*
X167132000Y-80518000D02*
X170942000Y-80518000D01*
X166624000Y-81026000D02*
X167132000Y-80518000D01*
X162814000Y-81026000D02*
X166624000Y-81026000D01*
X95864998Y-118872000D02*
X149860000Y-118872000D01*
X94594998Y-117602000D02*
X95864998Y-118872000D01*
X87376000Y-117602000D02*
X94594998Y-117602000D01*
X150114000Y-105410000D02*
X154178000Y-105410000D01*
X154178000Y-105410000D02*
X165354000Y-105410000D01*
X165354000Y-105410000D02*
X166079001Y-104684999D01*
X171083002Y-105410000D02*
X178308000Y-105410000D01*
X168800999Y-104284999D02*
X169958001Y-104284999D01*
X168437998Y-104648000D02*
X168800999Y-104284999D01*
X169958001Y-104284999D02*
X171083002Y-105410000D01*
X166116000Y-104648000D02*
X168437998Y-104648000D01*
X165354000Y-105410000D02*
X166116000Y-104648000D01*
X77851000Y-98425000D02*
X77978000Y-98552000D01*
X70993000Y-98425000D02*
X77851000Y-98425000D01*
X116586000Y-104648000D02*
X117348000Y-105410000D01*
X117348000Y-105410000D02*
X120650000Y-105410000D01*
X120904000Y-118110000D02*
X154178000Y-118110000D01*
X77978000Y-104648000D02*
X111760000Y-104648000D01*
X111760000Y-104648000D02*
X116586000Y-104648000D01*
X110998000Y-30480000D02*
X122428000Y-30480000D01*
X122428000Y-27940000D02*
X124968000Y-27940000D01*
X162196999Y-119524999D02*
X162052000Y-119380000D01*
X170542001Y-30334001D02*
X170688000Y-30480000D01*
X161327000Y-30334001D02*
X170542001Y-30334001D01*
X159258000Y-118110000D02*
X160672999Y-119524999D01*
X160672999Y-119524999D02*
X162196999Y-119524999D01*
X154178000Y-118110000D02*
X159258000Y-118110000D01*
X172466000Y-118110000D02*
X178308000Y-118110000D01*
X171051001Y-119524999D02*
X172466000Y-118110000D01*
X162196999Y-119524999D02*
X171051001Y-119524999D01*
X94495991Y-93345000D02*
X94622991Y-93472000D01*
X86233000Y-93345000D02*
X94495991Y-93345000D01*
X94622991Y-67310000D02*
X109183000Y-67310000D01*
X95414000Y-117348000D02*
X149352000Y-117348000D01*
X94996000Y-116930000D02*
X95414000Y-117348000D01*
X149352000Y-107950000D02*
X154178000Y-107950000D01*
X109474000Y-46990000D02*
X133858000Y-46990000D01*
X169418000Y-44450000D02*
X170688000Y-43180000D01*
X135636000Y-44450000D02*
X169418000Y-44450000D01*
X124968000Y-40640000D02*
X135636000Y-40640000D01*
X171086999Y-106824999D02*
X172212000Y-107950000D01*
X157335001Y-106824999D02*
X171086999Y-106824999D01*
X156210000Y-107950000D02*
X157335001Y-106824999D01*
X172212000Y-107950000D02*
X174498000Y-107950000D01*
X174498000Y-107950000D02*
X178308000Y-107950000D01*
X154178000Y-107950000D02*
X156210000Y-107950000D01*
X93770991Y-95885000D02*
X93897991Y-95758000D01*
X86233000Y-95885000D02*
X93770991Y-95885000D01*
X123842999Y-114155001D02*
X124968000Y-113030000D01*
X94908686Y-114155001D02*
X123842999Y-114155001D01*
X94799685Y-114046000D02*
X94908686Y-114155001D01*
X94234000Y-114046000D02*
X94799685Y-114046000D01*
X148480999Y-114155001D02*
X148590000Y-114046000D01*
X126093001Y-114155001D02*
X148480999Y-114155001D01*
X124968000Y-113030000D02*
X126093001Y-114155001D01*
X148590000Y-110490000D02*
X154178000Y-110490000D01*
X148590000Y-122682000D02*
X174244000Y-122682000D01*
X174244000Y-110490000D02*
X178308000Y-110490000D01*
X107550999Y-66402999D02*
X107696000Y-66548000D01*
X93980000Y-66402999D02*
X107550999Y-66402999D01*
X107696000Y-53340000D02*
X110998000Y-53340000D01*
X110998000Y-53340000D02*
X113792000Y-53340000D01*
X113792000Y-38100000D02*
X124968000Y-38100000D01*
X124968000Y-38100000D02*
X137922000Y-38100000D01*
X154907999Y-36974999D02*
X166260999Y-36974999D01*
X166260999Y-36974999D02*
X167386000Y-38100000D01*
X142965001Y-37374999D02*
X154507999Y-37374999D01*
X154507999Y-37374999D02*
X154907999Y-36974999D01*
X142240000Y-38100000D02*
X142965001Y-37374999D01*
X167386000Y-45720000D02*
X170688000Y-45720000D01*
X78613000Y-93345000D02*
X78740000Y-93218000D01*
X70993000Y-93345000D02*
X78613000Y-93345000D01*
X89662000Y-64008000D02*
X89916000Y-63754000D01*
X78414001Y-64008000D02*
X89662000Y-64008000D01*
X89916000Y-33020000D02*
X95758000Y-33020000D01*
X123842999Y-34145001D02*
X124968000Y-33020000D01*
X96883001Y-34145001D02*
X123842999Y-34145001D01*
X95758000Y-33020000D02*
X96883001Y-34145001D01*
X169273001Y-34145001D02*
X170688000Y-35560000D01*
X126093001Y-34145001D02*
X169273001Y-34145001D01*
X124968000Y-33020000D02*
X126093001Y-34145001D01*
X170543001Y-111904999D02*
X169418000Y-113030000D01*
X192422999Y-111904999D02*
X170543001Y-111904999D01*
X193548000Y-113030000D02*
X192422999Y-111904999D01*
X115570000Y-112522000D02*
X78740000Y-112522000D01*
X137319999Y-111977001D02*
X140627409Y-111977001D01*
X168292999Y-111904999D02*
X168618001Y-112230001D01*
X140627409Y-111977001D02*
X140699411Y-111904999D01*
X137247997Y-111904999D02*
X137319999Y-111977001D01*
X116187001Y-111904999D02*
X137247997Y-111904999D01*
X168618001Y-112230001D02*
X169418000Y-113030000D01*
X140699411Y-111904999D02*
X168292999Y-111904999D01*
X115570000Y-112522000D02*
X116187001Y-111904999D01*
X79412000Y-90805000D02*
X79539000Y-90932000D01*
X70993000Y-90805000D02*
X79412000Y-90805000D01*
X94742000Y-31496000D02*
X95758000Y-30480000D01*
X79139001Y-31496000D02*
X94742000Y-31496000D01*
X138793001Y-31605001D02*
X140208000Y-33020000D01*
X96883001Y-31605001D02*
X138793001Y-31605001D01*
X95758000Y-30480000D02*
X96883001Y-31605001D01*
X140208000Y-33020000D02*
X155448000Y-33020000D01*
X168292999Y-114444999D02*
X169418000Y-115570000D01*
X153637999Y-114444999D02*
X168292999Y-114444999D01*
X153203997Y-114879001D02*
X153637999Y-114444999D01*
X79938999Y-114879001D02*
X153203997Y-114879001D01*
X79539000Y-115279000D02*
X79938999Y-114879001D01*
X172974000Y-115570000D02*
X169418000Y-115570000D01*
X174099001Y-114444999D02*
X172974000Y-115570000D01*
X192422999Y-114444999D02*
X174099001Y-114444999D01*
X193548000Y-115570000D02*
X192422999Y-114444999D01*
X80137000Y-88265000D02*
X80264000Y-88138000D01*
X70993000Y-88265000D02*
X80137000Y-88265000D01*
X115726629Y-107459999D02*
X116216630Y-107950000D01*
X80791001Y-107459999D02*
X115726629Y-107459999D01*
X116216630Y-107950000D02*
X117348000Y-107950000D01*
X80301000Y-107950000D02*
X80791001Y-107459999D01*
X168292999Y-121775001D02*
X169418000Y-120650000D01*
X119743001Y-121775001D02*
X168292999Y-121775001D01*
X118618000Y-120650000D02*
X119743001Y-121775001D01*
X192422999Y-121775001D02*
X193548000Y-120650000D01*
X171674371Y-121775001D02*
X192422999Y-121775001D01*
X170549370Y-120650000D02*
X171674371Y-121775001D01*
X169418000Y-120650000D02*
X170549370Y-120650000D01*
X139082999Y-29065001D02*
X140208000Y-27940000D01*
X112129370Y-27940000D02*
X113254371Y-29065001D01*
X113254371Y-29065001D02*
X139082999Y-29065001D01*
X110998000Y-27940000D02*
X112129370Y-27940000D01*
X146521000Y-27940000D02*
X147066000Y-27395000D01*
X140208000Y-27940000D02*
X146521000Y-27940000D01*
X147066000Y-30480000D02*
X155448000Y-30480000D01*
X94697999Y-29065001D02*
X97934999Y-29065001D01*
X99060000Y-27940000D02*
X110998000Y-27940000D01*
X97934999Y-29065001D02*
X99060000Y-27940000D01*
X94334998Y-28702000D02*
X94697999Y-29065001D01*
X79901001Y-28702000D02*
X94334998Y-28702000D01*
X93091000Y-103505000D02*
X93218000Y-103378000D01*
X86233000Y-103505000D02*
X93091000Y-103505000D01*
X93218000Y-60960000D02*
X95758000Y-60960000D01*
X95758000Y-60960000D02*
X103886000Y-60960000D01*
X103886000Y-44450000D02*
X133350000Y-44450000D01*
X133350000Y-35560000D02*
X140208000Y-35560000D01*
X140208000Y-35560000D02*
X151892000Y-35560000D01*
X152146000Y-45720000D02*
X155448000Y-45720000D01*
X80645000Y-85725000D02*
X81026000Y-85344000D01*
X70993000Y-85725000D02*
X80645000Y-85725000D01*
X116586000Y-109728000D02*
X117348000Y-110490000D01*
X81026000Y-109728000D02*
X116586000Y-109728000D01*
X80772000Y-27940000D02*
X95758000Y-27940000D01*
X98078000Y-26670000D02*
X137414000Y-26670000D01*
X96808000Y-27940000D02*
X98078000Y-26670000D01*
X95758000Y-27940000D02*
X96808000Y-27940000D01*
X137414000Y-26670000D02*
X165862000Y-26670000D01*
X117348000Y-110490000D02*
X118473001Y-109364999D01*
X118473001Y-109364999D02*
X160926999Y-109364999D01*
X161036000Y-118110000D02*
X169418000Y-118110000D01*
X186072999Y-109364999D02*
X186182000Y-109474000D01*
X160926999Y-109364999D02*
X186072999Y-109364999D01*
X186182000Y-118110000D02*
X193548000Y-118110000D01*
X165862000Y-33020000D02*
X170688000Y-33020000D01*
X81407000Y-83185000D02*
X81788000Y-82804000D01*
X70993000Y-83185000D02*
X81407000Y-83185000D01*
X108966000Y-62992000D02*
X110998000Y-60960000D01*
X81534000Y-62992000D02*
X108966000Y-62992000D01*
X139082999Y-67165001D02*
X140208000Y-66040000D01*
X111142999Y-67165001D02*
X139082999Y-67165001D01*
X110998000Y-67310000D02*
X111142999Y-67165001D01*
X156065001Y-67165001D02*
X156464000Y-67564000D01*
X141333001Y-67165001D02*
X156065001Y-67165001D01*
X140208000Y-66040000D02*
X141333001Y-67165001D01*
X98915001Y-79392999D02*
X99314000Y-78994000D01*
X72245001Y-79392999D02*
X98915001Y-79392999D01*
X70993000Y-80645000D02*
X72245001Y-79392999D01*
X117965001Y-79103001D02*
X118618000Y-79756000D01*
X99879685Y-78994000D02*
X99988686Y-79103001D01*
X99988686Y-79103001D02*
X117965001Y-79103001D01*
X99314000Y-78994000D02*
X99879685Y-78994000D01*
X139700000Y-100330000D02*
X141478000Y-100330000D01*
X138574999Y-101455001D02*
X139700000Y-100330000D01*
X119292686Y-101455001D02*
X138574999Y-101455001D01*
X119183685Y-101346000D02*
X119292686Y-101455001D01*
X118618000Y-101346000D02*
X119183685Y-101346000D01*
X70993000Y-78105000D02*
X72136000Y-76962000D01*
X97028000Y-76962000D02*
X98044000Y-77978000D01*
X72136000Y-76962000D02*
X97028000Y-76962000D01*
X114952999Y-76852999D02*
X115824000Y-77724000D01*
X99169001Y-76852999D02*
X114952999Y-76852999D01*
X98044000Y-77978000D02*
X99169001Y-76852999D01*
X137922000Y-106680000D02*
X139192000Y-107950000D01*
X116078000Y-106680000D02*
X137922000Y-106680000D01*
X139192000Y-107950000D02*
X141478000Y-107950000D01*
X82423000Y-75565000D02*
X82550000Y-75692000D01*
X70993000Y-75565000D02*
X82423000Y-75565000D01*
X116586000Y-91948000D02*
X117348000Y-92710000D01*
X82550000Y-91948000D02*
X116586000Y-91948000D01*
X135345000Y-91584999D02*
X135708001Y-91948000D01*
X118473001Y-91584999D02*
X135345000Y-91584999D01*
X117348000Y-92710000D02*
X118473001Y-91584999D01*
X168256001Y-91548001D02*
X169418000Y-92710000D01*
X136108000Y-91548001D02*
X168256001Y-91548001D01*
X135708001Y-91948000D02*
X136108000Y-91548001D01*
X114173000Y-116205000D02*
X114300000Y-116332000D01*
X86233000Y-116205000D02*
X114173000Y-116205000D01*
X114300000Y-85090000D02*
X117348000Y-85090000D01*
X187596999Y-86215001D02*
X187706000Y-86106000D01*
X117423001Y-86215001D02*
X187596999Y-86215001D01*
X117348000Y-86140000D02*
X117423001Y-86215001D01*
X117348000Y-85090000D02*
X117348000Y-86140000D01*
X187706000Y-90170000D02*
X193548000Y-90170000D01*
X83185000Y-73025000D02*
X83312000Y-72898000D01*
X70993000Y-73025000D02*
X83185000Y-73025000D01*
X83986686Y-89552999D02*
X115599629Y-89552999D01*
X116216630Y-90170000D02*
X117348000Y-90170000D01*
X115599629Y-89552999D02*
X116216630Y-90170000D01*
X83877685Y-89662000D02*
X83986686Y-89552999D01*
X83312000Y-89662000D02*
X83877685Y-89662000D01*
X117348000Y-90170000D02*
X118473001Y-89044999D01*
X144162999Y-89044999D02*
X145288000Y-90170000D01*
X118473001Y-89044999D02*
X144162999Y-89044999D01*
X145288000Y-90170000D02*
X154178000Y-90170000D01*
X92329000Y-118745000D02*
X92456000Y-118872000D01*
X86233000Y-118745000D02*
X92329000Y-118745000D01*
X95504000Y-40894000D02*
X95758000Y-40640000D01*
X92456000Y-40894000D02*
X95504000Y-40894000D01*
X139082999Y-41765001D02*
X140208000Y-40640000D01*
X96883001Y-41765001D02*
X139082999Y-41765001D01*
X95758000Y-40640000D02*
X96883001Y-41765001D01*
X141333001Y-41765001D02*
X164736999Y-41765001D01*
X164736999Y-41765001D02*
X164846000Y-41656000D01*
X140208000Y-40640000D02*
X141333001Y-41765001D01*
X164846000Y-48260000D02*
X170688000Y-48260000D01*
X164592000Y-102870000D02*
X169418000Y-102870000D01*
X173591001Y-101744999D02*
X172466000Y-102870000D01*
X172466000Y-102870000D02*
X169418000Y-102870000D01*
X192422999Y-101744999D02*
X173591001Y-101744999D01*
X193548000Y-102870000D02*
X192422999Y-101744999D01*
X83947000Y-70485000D02*
X84074000Y-70612000D01*
X70993000Y-70485000D02*
X83947000Y-70485000D01*
X192422999Y-99204999D02*
X173591001Y-99204999D01*
X193548000Y-100330000D02*
X192422999Y-99204999D01*
X168618001Y-99530001D02*
X169418000Y-100330000D01*
X168439999Y-99530001D02*
X168618001Y-99530001D01*
X168402000Y-99568000D02*
X168439999Y-99530001D01*
X84074000Y-99568000D02*
X116444998Y-99568000D01*
X116807999Y-99204999D02*
X166676587Y-99204999D01*
X167039588Y-99568000D02*
X168402000Y-99568000D01*
X166676587Y-99204999D02*
X167039588Y-99568000D01*
X116444998Y-99568000D02*
X116807999Y-99204999D01*
X173228000Y-99568000D02*
X170434000Y-99568000D01*
X173591001Y-99204999D02*
X173228000Y-99568000D01*
X170396001Y-99530001D02*
X170217999Y-99530001D01*
X170217999Y-99530001D02*
X169418000Y-100330000D01*
X170434000Y-99568000D02*
X170396001Y-99530001D01*
X130904001Y-68797001D02*
X129290898Y-70410104D01*
X129290898Y-70410104D02*
X126297687Y-70410104D01*
X138859629Y-68797001D02*
X130904001Y-68797001D01*
X139076630Y-68580000D02*
X138859629Y-68797001D01*
X140208000Y-68580000D02*
X139076630Y-68580000D01*
X102202001Y-69305001D02*
X99531001Y-69305001D01*
X107509600Y-68268010D02*
X103238992Y-68268010D01*
X103238992Y-68268010D02*
X102202001Y-69305001D01*
X108583590Y-69342000D02*
X107509600Y-68268010D01*
X122428000Y-69596000D02*
X118238410Y-69596000D01*
X118238410Y-69596000D02*
X117984410Y-69342000D01*
X117984410Y-69342000D02*
X108583590Y-69342000D01*
X98298000Y-68072000D02*
X97536000Y-68072000D01*
X99531001Y-69305001D02*
X98298000Y-68072000D01*
X97608001Y-53340000D02*
X95758000Y-53340000D01*
X95758000Y-45720000D02*
X104902000Y-45720000D01*
X168966652Y-64914999D02*
X169075653Y-65024000D01*
X124427999Y-64914999D02*
X168966652Y-64914999D01*
X123810998Y-65532000D02*
X124427999Y-64914999D01*
X104902000Y-65532000D02*
X123810998Y-65532000D01*
X155448000Y-58420000D02*
X155448000Y-60960000D01*
X155448000Y-60960000D02*
X152146000Y-60960000D01*
X122624998Y-70866000D02*
X114046000Y-70866000D01*
X151725314Y-72245001D02*
X124003999Y-72245001D01*
X151834315Y-72136000D02*
X151725314Y-72245001D01*
X124003999Y-72245001D02*
X122624998Y-70866000D01*
X152400000Y-72136000D02*
X151834315Y-72136000D01*
X113284000Y-64262000D02*
X100838000Y-64262000D01*
X113792000Y-64770000D02*
X113284000Y-64262000D01*
X100838000Y-43180000D02*
X95758000Y-43180000D01*
X105664000Y-72898000D02*
X109982000Y-72898000D01*
X106795370Y-75438000D02*
X107158371Y-75074999D01*
X105664000Y-75438000D02*
X106795370Y-75438000D01*
X128270000Y-35560000D02*
X124968000Y-35560000D01*
X107158371Y-75074999D02*
X126890999Y-75074999D01*
X128125001Y-75074999D02*
X128524000Y-74676000D01*
X126890999Y-75074999D02*
X128125001Y-75074999D01*
X140970000Y-72898000D02*
X153416000Y-72898000D01*
X140208000Y-73660000D02*
X140970000Y-72898000D01*
X153416000Y-40640000D02*
X155448000Y-40640000D01*
X155448000Y-73660000D02*
X166878000Y-73660000D01*
X166878000Y-73660000D02*
X168148000Y-74930000D01*
X168148000Y-74930000D02*
X173990000Y-74930000D01*
X173990000Y-74930000D02*
X175260000Y-73660000D01*
X175260000Y-73660000D02*
X185420000Y-73660000D01*
X185762000Y-64770000D02*
X187198000Y-64770000D01*
X155448000Y-71120000D02*
X156579370Y-71120000D01*
X156579370Y-71120000D02*
X163576000Y-71120000D01*
X164701001Y-72245001D02*
X174607001Y-72245001D01*
X163576000Y-71120000D02*
X164701001Y-72245001D01*
X175732002Y-71120000D02*
X184150000Y-71120000D01*
X174607001Y-72245001D02*
X175732002Y-71120000D01*
X184062000Y-48260000D02*
X187198000Y-48260000D01*
X155448000Y-68580000D02*
X167625653Y-68580000D01*
X167386000Y-52070000D02*
X185762000Y-52070000D01*
X186072999Y-66184999D02*
X186398001Y-66510001D01*
X186398001Y-66510001D02*
X187198000Y-67310000D01*
X179037999Y-66184999D02*
X186072999Y-66184999D01*
X178057997Y-67165001D02*
X179037999Y-66184999D01*
X170147999Y-67165001D02*
X178057997Y-67165001D01*
X169022998Y-66040000D02*
X170147999Y-67165001D01*
X155448000Y-66040000D02*
X169022998Y-66040000D01*
X107303370Y-78486000D02*
X119634000Y-78486000D01*
X106795370Y-77978000D02*
X107303370Y-78486000D01*
X105664000Y-77978000D02*
X106795370Y-77978000D01*
X168402000Y-40640000D02*
X170688000Y-40640000D01*
X167386000Y-79756000D02*
X168350653Y-79756000D01*
X166333001Y-80481001D02*
X167058002Y-79756000D01*
X165222999Y-80481001D02*
X166333001Y-80481001D01*
X164985008Y-80243010D02*
X165222999Y-80481001D01*
X150191992Y-80243010D02*
X164985008Y-80243010D01*
X167058002Y-79756000D02*
X167386000Y-79756000D01*
X149192001Y-81243001D02*
X150191992Y-80243010D01*
X148495999Y-81243001D02*
X149192001Y-81243001D01*
X148221008Y-80968010D02*
X148495999Y-81243001D01*
X120765675Y-80968010D02*
X148221008Y-80968010D01*
X120453685Y-81280000D02*
X120765675Y-80968010D01*
X119888000Y-81280000D02*
X120453685Y-81280000D01*
X172353002Y-63500000D02*
X183425000Y-63500000D01*
X155448000Y-63500000D02*
X169022998Y-63500000D01*
X169022998Y-63500000D02*
X170147999Y-64625001D01*
X171228001Y-64625001D02*
X172353002Y-63500000D01*
X170147999Y-64625001D02*
X171228001Y-64625001D01*
X183388000Y-43180000D02*
X187198000Y-43180000D01*
X172353002Y-55880000D02*
X182300001Y-55880000D01*
X171228001Y-57005001D02*
X172353002Y-55880000D01*
X156573001Y-57005001D02*
X171228001Y-57005001D01*
X155448000Y-55880000D02*
X156573001Y-57005001D01*
X182372000Y-40640000D02*
X187198000Y-40640000D01*
X114553001Y-81317999D02*
X114808000Y-81063000D01*
X106463999Y-81317999D02*
X114553001Y-81317999D01*
X105664000Y-80518000D02*
X106463999Y-81317999D01*
X115062000Y-87630000D02*
X117348000Y-87630000D01*
X105664000Y-93218000D02*
X101854000Y-93218000D01*
X86233000Y-49530000D02*
X85598000Y-50165000D01*
X102616000Y-49530000D02*
X86233000Y-49530000D01*
X155153003Y-94560001D02*
X163830000Y-94560001D01*
X154718001Y-94124999D02*
X155153003Y-94560001D01*
X107297001Y-94124999D02*
X154718001Y-94124999D01*
X105664000Y-95758000D02*
X107297001Y-94124999D01*
X163830000Y-107950000D02*
X169418000Y-107950000D01*
X88773000Y-52705000D02*
X89154000Y-53086000D01*
X85598000Y-52705000D02*
X88773000Y-52705000D01*
X89645686Y-94488000D02*
X101854000Y-94488000D01*
X89391686Y-94234000D02*
X89645686Y-94488000D01*
X88826001Y-94234000D02*
X89391686Y-94234000D01*
X119270999Y-103995001D02*
X119380000Y-103886000D01*
X115150999Y-103995001D02*
X119270999Y-103995001D01*
X114533998Y-103378000D02*
X115150999Y-103995001D01*
X101854000Y-103378000D02*
X114533998Y-103378000D01*
X187960000Y-107950000D02*
X193548000Y-107950000D01*
X159766000Y-120650000D02*
X168017997Y-120650000D01*
X158640999Y-119524999D02*
X159766000Y-120650000D01*
X151666755Y-119524999D02*
X158640999Y-119524999D01*
X150421950Y-120769804D02*
X151666755Y-119524999D01*
X119763109Y-120769804D02*
X150421950Y-120769804D01*
X172720000Y-119380000D02*
X187706000Y-119380000D01*
X171512338Y-120587662D02*
X172720000Y-119380000D01*
X124968000Y-92710000D02*
X145796000Y-92710000D01*
X157673857Y-88900000D02*
X157674272Y-88900415D01*
X145796000Y-88900000D02*
X157673857Y-88900000D01*
X169358272Y-90110272D02*
X169418000Y-90170000D01*
X157674272Y-90110272D02*
X169358272Y-90110272D01*
X124968000Y-90170000D02*
X143002000Y-90170000D01*
X154079355Y-87531355D02*
X154178000Y-87630000D01*
X143263759Y-87531355D02*
X154079355Y-87531355D01*
X142074000Y-87630000D02*
X142328000Y-87884000D01*
X124968000Y-87630000D02*
X142074000Y-87630000D01*
X143930991Y-85764991D02*
X143256000Y-85090000D01*
X143256000Y-85090000D02*
X142240000Y-85090000D01*
X148931009Y-85764991D02*
X143930991Y-85764991D01*
X149606000Y-85090000D02*
X148931009Y-85764991D01*
X154178000Y-85090000D02*
X149606000Y-85090000D01*
X124968000Y-100330000D02*
X128524000Y-100330000D01*
X128524000Y-96520000D02*
X152400000Y-96520000D01*
X152400000Y-96520000D02*
X161471999Y-96520000D01*
X161471999Y-81821154D02*
X167606846Y-81821154D01*
X168877999Y-81424999D02*
X169958001Y-81424999D01*
X168481844Y-81821154D02*
X168877999Y-81424999D01*
X167606846Y-81821154D02*
X168481844Y-81821154D01*
X170321002Y-81788000D02*
X176530000Y-81788000D01*
X169958001Y-81424999D02*
X170321002Y-81788000D01*
X132116358Y-102870000D02*
X132516359Y-103270001D01*
X124968000Y-102870000D02*
X132116358Y-102870000D01*
X141203437Y-103144563D02*
X141478000Y-102870000D01*
X135230815Y-103144563D02*
X141203437Y-103144563D01*
X124968000Y-105410000D02*
X132080000Y-105410000D01*
X135636000Y-107950000D02*
X137668000Y-107950000D01*
X141478000Y-110490000D02*
X140678001Y-111289999D01*
X140640002Y-111252000D02*
X137668000Y-111252000D01*
X140678001Y-111289999D02*
X140640002Y-111252000D01*
X124968000Y-107950000D02*
X133858000Y-107950000D01*
X124968000Y-110490000D02*
X130302000Y-110490000D01*
X130302000Y-100330000D02*
X133858000Y-100330000D01*
X138938000Y-110490000D02*
X139192000Y-110236000D01*
X133858000Y-110490000D02*
X138938000Y-110490000D01*
X140011685Y-106680000D02*
X155956000Y-106680000D01*
X139762338Y-106929347D02*
X140011685Y-106680000D01*
X139196653Y-106929347D02*
X139762338Y-106929347D01*
X156210000Y-113719999D02*
X168075999Y-113719999D01*
X168148000Y-113792000D02*
X168075999Y-113719999D01*
X173118999Y-114155001D02*
X173482000Y-113792000D01*
X168877999Y-114155001D02*
X173118999Y-114155001D01*
X168514998Y-113792000D02*
X168877999Y-114155001D01*
X168148000Y-113792000D02*
X168514998Y-113792000D01*
X173482000Y-106680000D02*
X190754000Y-106680000D01*
X191008000Y-92710000D02*
X193548000Y-92710000D01*
X167276999Y-103995001D02*
X167386000Y-103886000D01*
X150455997Y-103995001D02*
X167276999Y-103995001D01*
X149040998Y-105410000D02*
X150455997Y-103995001D01*
X141478000Y-105410000D02*
X149040998Y-105410000D01*
X171761685Y-104140000D02*
X190209000Y-104140000D01*
X171507685Y-103886000D02*
X171761685Y-104140000D01*
X170942000Y-103886000D02*
X171507685Y-103886000D01*
X190246000Y-85090000D02*
X193548000Y-85090000D01*
X177508001Y-90969999D02*
X178308000Y-90170000D01*
X177182999Y-91295001D02*
X177508001Y-90969999D01*
X168877999Y-91295001D02*
X177182999Y-91295001D01*
X168680989Y-91097991D02*
X168877999Y-91295001D01*
X157050675Y-91097991D02*
X168680989Y-91097991D01*
X156775685Y-90823001D02*
X157050675Y-91097991D01*
X156210000Y-90823001D02*
X156775685Y-90823001D01*
X139065000Y-102235000D02*
X134493000Y-102235000D01*
X139844999Y-101455001D02*
X139065000Y-102235000D01*
X134493000Y-102235000D02*
X133858000Y-102870000D01*
X156100999Y-101455001D02*
X139844999Y-101455001D01*
X156210000Y-101346000D02*
X156100999Y-101455001D01*
X141478000Y-113030000D02*
X145034000Y-113030000D01*
X155423002Y-84670000D02*
X160274000Y-84670000D01*
X148719003Y-83964999D02*
X154718001Y-83964999D01*
X145433999Y-84981999D02*
X147702003Y-84981999D01*
X147702003Y-84981999D02*
X148719003Y-83964999D01*
X154718001Y-83964999D02*
X155423002Y-84670000D01*
X145034000Y-84582000D02*
X145433999Y-84981999D01*
X160274000Y-88900000D02*
X173482000Y-88900000D01*
X174752000Y-87630000D02*
X178308000Y-87630000D01*
X173482000Y-88900000D02*
X174752000Y-87630000D01*
X124968000Y-97790000D02*
X131572000Y-97790000D01*
X131572000Y-95250000D02*
X133858000Y-95250000D01*
D20*
X98044000Y-98298000D02*
X90678000Y-98298000D01*
X86360000Y-98298000D02*
X86233000Y-98425000D01*
X90678000Y-98298000D02*
X86360000Y-98298000D01*
X117094000Y-113284000D02*
X117348000Y-113030000D01*
X98044000Y-113284000D02*
X117094000Y-113284000D01*
X133858000Y-113030000D02*
X127508000Y-113030000D01*
X134497988Y-76322012D02*
X134620000Y-76200000D01*
X128658010Y-76322012D02*
X134497988Y-76322012D01*
X134620000Y-69850000D02*
X145288000Y-69850000D01*
X145853685Y-62484000D02*
X146107685Y-62230000D01*
X146107685Y-62230000D02*
X160528000Y-62230000D01*
X145288000Y-62484000D02*
X145853685Y-62484000D01*
X160528000Y-50800000D02*
X170688000Y-50800000D01*
X123444000Y-49530000D02*
X114554000Y-49530000D01*
X114554000Y-49530000D02*
X107442000Y-49530000D01*
X86106000Y-38100000D02*
X85598000Y-37592000D01*
X87122000Y-38100000D02*
X86614000Y-38100000D01*
X87122000Y-38100000D02*
X86106000Y-38100000D01*
X78105000Y-50038000D02*
X77978000Y-50165000D01*
X84074000Y-50038000D02*
X78105000Y-50038000D01*
X154182653Y-120654653D02*
X154178000Y-120650000D01*
X158745347Y-120654653D02*
X154182653Y-120654653D01*
X170688000Y-50800000D02*
X172974000Y-50800000D01*
D21*
X175006000Y-120650000D02*
X178308000Y-120650000D01*
D20*
X141478000Y-97790000D02*
X136652000Y-97790000D01*
X136144000Y-113030000D02*
X133858000Y-113030000D01*
X117602000Y-113284000D02*
X117348000Y-113030000D01*
X122936000Y-113284000D02*
X117602000Y-113284000D01*
X107442000Y-29210000D02*
X112014000Y-29210000D01*
X107442000Y-38100000D02*
X95758000Y-38100000D01*
X93726000Y-38100000D02*
X93980000Y-37846000D01*
X95758000Y-38100000D02*
X93726000Y-38100000D01*
X93726000Y-38100000D02*
X87122000Y-38100000D01*
X171704000Y-83820000D02*
X173990000Y-83820000D01*
X157226000Y-50800000D02*
X160528000Y-50800000D01*
X172974000Y-50800000D02*
X175006000Y-50800000D01*
X177038000Y-50800000D02*
X184912000Y-50800000D01*
X175006000Y-50800000D02*
X177038000Y-50800000D01*
X175514000Y-83820000D02*
X173990000Y-83820000D01*
X170688000Y-83820000D02*
X171704000Y-83820000D01*
X158496000Y-83820000D02*
X170688000Y-83820000D01*
X184912000Y-57150000D02*
X187198000Y-57150000D01*
X184912000Y-68580000D02*
X178308000Y-68580000D01*
X184912000Y-68580000D02*
X188976000Y-68580000D01*
X189230000Y-73660000D02*
X196088000Y-73660000D01*
X184931999Y-41929999D02*
X184912000Y-41910000D01*
X193377999Y-41929999D02*
X184931999Y-41929999D01*
X194056000Y-42608000D02*
X193377999Y-41929999D01*
X75926001Y-53955001D02*
X83966999Y-53955001D01*
X83966999Y-53955001D02*
X84074000Y-53848000D01*
X75057000Y-53086000D02*
X75926001Y-53955001D01*
X69850000Y-53086000D02*
X75057000Y-53086000D01*
X45974000Y-53086000D02*
X69850000Y-53086000D01*
D21*
X194454999Y-61104999D02*
X194818000Y-61468000D01*
X173083001Y-61104999D02*
X194454999Y-61104999D01*
X170688000Y-63500000D02*
X173083001Y-61104999D01*
M02*
