M48
; DRILL file {KiCad (5.1.5-0-10_14)} date 2020 April 20, Monday 09:39:34
; FORMAT={-:-/ absolute / inch / decimal}
; #@! TF.CreationDate,2020-04-20T09:39:34+02:00
; #@! TF.GenerationSoftware,Kicad,Pcbnew,(5.1.5-0-10_14)
; #@! TF.FileFunction,Plated,1,2,PTH
FMAT,2
INCH
T1C0.0157
T2C0.0295
T3C0.0315
T4C0.0394
%
G90
G05
T1
X1.79Y-1.02
X1.8946Y-1.51
X1.8946Y-1.83
X2.6865Y-1.7835
X2.73Y-2.45
X2.75Y-2.09
X2.82Y-2.05
X2.93Y-2.59
X2.9415Y-4.28
X2.96Y-2.68
X2.97Y-4.68
X3.0Y-2.49
X3.01Y-2.72
X3.02Y-4.57
X3.04Y-2.55
X3.0415Y-3.98
X3.07Y-3.88
X3.07Y-4.12
X3.07Y-4.17
X3.07Y-4.74
X3.0872Y-2.52
X3.1Y-3.67
X3.1Y-4.43
X3.1157Y-1.24
X3.1315Y-3.58
X3.1315Y-4.5385
X3.1457Y-1.13
X3.16Y-3.47
X3.1615Y-4.25
X3.18Y-1.1
X3.19Y-3.36
X3.19Y-4.32
X3.21Y-2.48
X3.22Y-3.26
X3.25Y-2.98
X3.25Y-3.62
X3.26Y-3.83
X3.26Y-4.37
X3.27Y-1.88
X3.28Y-2.45
X3.28Y-2.87
X3.28Y-3.53
X3.31Y-1.97
X3.31Y-2.12
X3.31Y-2.78
X3.31Y-3.92
X3.41Y-1.5
X3.4167Y-2.1458
X3.44Y-4.63
X3.46Y-4.7035
X3.4971Y-3.71
X3.51Y-1.66
X3.51Y-2.09
X3.5157Y-3.22
X3.53Y-3.07
X3.54Y-1.3
X3.54Y-2.51
X3.5457Y-3.33
X3.56Y-2.55
X3.56Y-3.18
X3.57Y-1.4
X3.57Y-3.81
X3.57Y-3.87
X3.5815Y-3.41
X3.59Y-3.28
X3.6043Y-1.66
X3.6043Y-2.3
X3.6043Y-2.44
X3.61Y-1.02
X3.61Y-3.37
X3.61Y-3.47
X3.64Y-1.61
X3.64Y-4.68
X3.67Y-2.4
X3.67Y-4.07
X3.6968Y-2.45
X3.6968Y-3.77
X3.7Y-1.49
X3.7Y-2.62
X3.71Y-4.49
X3.7253Y-3.68
X3.73Y-2.65
X3.74Y-4.6035
X3.76Y-2.78
X3.79Y-2.68
X3.82Y-1.55
X3.84Y-2.68
X3.8428Y-2.1
X3.86Y-4.46
X3.91Y-3.11
X3.93Y-2.78
X3.96Y-3.32
X3.9615Y-3.37
X3.97Y-1.7
X3.97Y-2.53
X3.99Y-3.22
X3.99Y-3.47
X4.0Y-2.2
X4.0Y-2.57
X4.01Y-2.7
X4.01Y-3.67
X4.01Y-3.72
X4.01Y-4.07
X4.04Y-1.95
X4.09Y-1.75
X4.09Y-2.4
X4.1Y-3.17
X4.1Y-3.25
X4.13Y-1.8
X4.13Y-2.58
X4.19Y-1.02
X4.2112Y-3.2495
X4.2151Y-3.17
X4.23Y-1.15
X4.23Y-1.5
X4.23Y-1.95
X4.24Y-2.1
X4.24Y-2.62
X4.27Y-1.3
X4.27Y-2.9972
X4.2985Y-2.65
X4.31Y-1.85
X4.31Y-3.95
X4.31Y-4.04
X4.32Y-1.02
X4.33Y-2.87
X4.37Y-2.65
X4.4Y-4.12
X4.41Y-1.15
X4.4443Y-1.4
X4.45Y-2.87
X4.45Y-3.25
X4.47Y-1.02
X4.47Y-4.17
X4.4785Y-2.2
X4.48Y-1.5
X4.48Y-2.1
X4.48Y-2.55
X4.49Y-2.79
X4.5Y-3.35
X4.5Y-4.58
X4.51Y-1.95
X4.52Y-3.1915
X4.53Y-3.45
X4.5315Y-4.05
X4.54Y-4.5513
X4.54Y-4.74
X4.55Y-1.8
X4.5535Y-2.33
X4.56Y-3.06
X4.57Y-4.2
X4.67Y-2.08
X4.67Y-2.7
X4.67Y-3.14
X4.67Y-3.99
X4.67Y-4.75
X4.7Y-4.09
X4.71Y-3.09
X4.7151Y-4.7547
X4.72Y-3.2
X4.75Y-4.15
X4.76Y-2.92
X4.76Y-3.1415
X4.76Y-3.95
X4.76Y-4.65
X4.77Y-4.09
X4.78Y-1.99
X4.79Y-3.0
X4.79Y-4.05
X4.7998Y-2.5398
X4.81Y-2.12
X4.81Y-2.2
X4.81Y-2.82
X4.82Y-1.1
X4.82Y-1.2
X4.82Y-2.74
X4.8265Y-2.03
X4.8298Y-2.4195
X4.83Y-2.61
X4.83Y-3.11
X4.84Y-2.38
X4.84Y-4.46
X4.85Y-2.77
X4.86Y-1.95
X4.86Y-3.08
X4.8685Y-2.17
X4.87Y-1.44
X4.97Y-3.36
X4.9723Y-2.7721
X5.0Y-1.7
X5.01Y-2.32
X5.02Y-4.45
X5.05Y-1.4
X5.06Y-2.94
X5.06Y-3.8
X5.06Y-3.95
X5.0653Y-3.0048
X5.0785Y-1.9
X5.0785Y-2.25
X5.09Y-2.9
X5.1Y-4.09
X5.11Y-2.71
X5.11Y-2.8
X5.13Y-3.95
X5.13Y-4.35
X5.18Y-3.36
X5.18Y-3.75
X5.18Y-3.85
X5.2Y-1.02
X5.2Y-2.49
X5.2Y-4.15
X5.2172Y-4.0657
X5.25Y-1.4
X5.25Y-1.75
X5.27Y-1.85
X5.3Y-2.75
X5.3Y-3.0
X5.31Y-3.51
X5.324Y-4.0608
X5.34Y-1.6
X5.34Y-1.75
X5.34Y-4.25
X5.3428Y-3.62
X5.35Y-2.68
X5.35Y-2.9
X5.36Y-4.45
X5.38Y-1.85
X5.38Y-2.4
X5.38Y-3.85
X5.4085Y-1.8015
X5.4085Y-2.14
X5.41Y-1.06
X5.42Y-4.25
X5.42Y-4.38
X5.43Y-1.5
X5.4649Y-2.9
X5.48Y-4.34
X5.4802Y-4.2098
X5.56Y-3.36
X5.58Y-1.78
X5.58Y-2.9
X5.6Y-1.5
X5.6Y-3.35
X5.6035Y-3.46
X5.6068Y-1.94
X5.62Y-1.02
X5.63Y-2.1
X5.63Y-3.55
X5.6354Y-1.9
X5.6354Y-1.99
X5.64Y-2.3059
X5.6403Y-3.4461
X5.67Y-2.42
X5.71Y-3.33
X5.71Y-4.45
X5.72Y-2.46
X5.72Y-2.75
X5.74Y-3.5
X5.74Y-3.65
X5.7598Y-1.9223
X5.76Y-1.78
X5.77Y-3.0
X5.78Y-3.22
X5.78Y-3.95
X5.79Y-1.0785
X5.79Y-1.2
X5.8085Y-3.31
X5.81Y-3.85
X5.81Y-4.09
X5.82Y-2.5
X5.8215Y-4.44
X5.83Y-3.27
X5.8371Y-3.75
X5.85Y-4.35
X5.85Y-4.49
X5.85Y-4.83
X5.86Y-3.17
X5.87Y-2.9
X5.88Y-1.7
X5.88Y-3.65
X5.88Y-4.25
X5.88Y-4.62
X5.9Y-4.68
X5.91Y-1.84
X5.91Y-2.4165
X5.91Y-4.15
X5.9328Y-4.7018
X5.95Y-4.05
X5.96Y-1.5
X5.96Y-2.81
X5.98Y-1.4
X5.99Y-1.8
X5.99Y-2.4
X6.0Y-2.84
X6.04Y-1.6
X6.04Y-2.87
X6.14Y-4.2
X6.15Y-3.5757
X6.15Y-3.99
X6.15Y-4.4772
X6.16Y-2.66
X6.1835Y-1.0165
X6.19Y-2.0
X6.2076Y-3.5
X6.2076Y-3.5476
X6.24Y-3.3
X6.2498Y-4.7502
X6.31Y-3.3335
X6.31Y-3.5
X6.32Y-2.0
X6.32Y-2.45
X6.3357Y-4.3057
X6.34Y-4.65
X6.3515Y-1.1943
X6.3572Y-3.2213
X6.3572Y-3.8
X6.37Y-1.1
X6.38Y-2.99
X6.3857Y-4.7057
X6.41Y-1.42
X6.41Y-3.19
X6.42Y-4.35
X6.45Y-3.0
X6.45Y-3.25
X6.45Y-3.7228
X6.45Y-4.25
X6.48Y-4.05
X6.49Y-1.64
X6.49Y-1.9
X6.5185Y-3.14
X6.52Y-3.75
X6.53Y-1.05
X6.53Y-1.3
X6.5473Y-3.1132
X6.56Y-2.94
X6.56Y-4.15
X6.57Y-1.1
X6.57Y-3.08
X6.5709Y-3.8491
X6.59Y-1.5
X6.59Y-1.8
X6.59Y-2.05
X6.59Y-4.09
X6.5994Y-2.7
X6.61Y-3.97
X6.61Y-4.44
X6.6149Y-4.75
X6.628Y-3.14
X6.63Y-1.6
X6.6565Y-2.56
X6.72Y-3.3
X6.7212Y-3.9705
X6.73Y-4.09
X6.73Y-4.44
X6.7525Y-4.7475
X6.7565Y-1.0165
X6.7692Y-3.1508
X6.77Y-4.02
X6.83Y-4.2
X6.83Y-4.48
X6.8302Y-4.0502
X6.86Y-4.35
X6.86Y-4.83
X6.89Y-4.75
X6.91Y-3.3
X6.95Y-3.22
X6.97Y-2.0
X7.02Y-2.7
X7.13Y-1.2
X7.14Y-2.15
X7.1772Y-2.2
X7.18Y-1.6
X7.22Y-1.7
X7.2215Y-2.5
X7.2465Y-1.9
X7.25Y-2.8
X7.28Y-1.65
X7.28Y-2.0
X7.28Y-2.25
X7.28Y-2.7
X7.3Y-2.9
X7.3135Y-2.05
X7.3135Y-2.55
X7.33Y-4.31
X7.33Y-4.65
X7.34Y-3.19
X7.3585Y-4.35
X7.37Y-1.02
X7.39Y-3.39
X7.39Y-3.55
X7.39Y-4.7
X7.4Y-4.25
X7.41Y-3.11
X7.43Y-1.6
X7.43Y-3.85
X7.44Y-2.7
X7.44Y-3.08
X7.45Y-2.9
X7.46Y-4.15
X7.4885Y-4.1
X7.49Y-3.35
X7.51Y-4.2
X7.52Y-3.65
X7.5692Y-3.1508
X7.57Y-2.45
X7.67Y-2.42
X7.73Y-2.3
X7.75Y-2.34
X7.7515Y-1.95
T2
X2.77Y-1.7
X2.82Y-1.75
X2.87Y-1.7
T3
X7.07Y-1.2
X7.07Y-1.3
X7.07Y-1.4
X7.07Y-1.5
X7.07Y-1.6
X7.07Y-1.7
X7.07Y-1.8
X7.07Y-1.9
X7.37Y-1.2
X7.37Y-1.3
X7.37Y-1.4
X7.37Y-1.5
X7.37Y-1.6
X7.37Y-1.7
X7.37Y-1.8
X7.37Y-1.9
X3.07Y-1.675
X3.07Y-1.775
X3.07Y-1.875
X3.07Y-1.975
X3.07Y-2.075
X3.07Y-2.175
X3.07Y-2.275
X3.07Y-2.375
X3.37Y-1.675
X3.37Y-1.775
X3.37Y-1.875
X3.37Y-1.975
X3.37Y-2.075
X3.37Y-2.175
X3.37Y-2.275
X3.37Y-2.375
X4.62Y-3.35
X4.62Y-3.45
X4.62Y-3.55
X4.62Y-3.65
X4.62Y-3.75
X4.62Y-3.85
X4.62Y-3.95
X4.62Y-4.05
X4.62Y-4.15
X4.62Y-4.25
X4.62Y-4.35
X4.62Y-4.45
X4.92Y-3.35
X4.92Y-3.45
X4.92Y-3.55
X4.92Y-3.65
X4.92Y-3.75
X4.92Y-3.85
X4.92Y-3.95
X4.92Y-4.05
X4.92Y-4.15
X4.92Y-4.25
X4.92Y-4.35
X4.92Y-4.45
X2.77Y-1.18
X2.77Y-1.48
X3.37Y-1.18
X3.37Y-1.48
X7.64Y-1.52
X7.64Y-1.5987
X7.64Y-1.6775
X7.64Y-1.7562
X7.64Y-1.835
X7.7187Y-1.52
X7.7187Y-1.5987
X7.7187Y-1.6775
X7.7187Y-1.7562
X7.7187Y-1.835
X3.77Y-1.1
X3.77Y-1.2
X3.77Y-1.3
X3.77Y-1.4
X3.77Y-1.5
X3.77Y-1.6
X3.77Y-1.7
X3.77Y-1.8
X3.77Y-1.9
X3.77Y-2.0
X3.77Y-2.1
X3.77Y-2.2
X3.77Y-2.3
X3.77Y-2.4
X4.37Y-1.1
X4.37Y-1.2
X4.37Y-1.3
X4.37Y-1.4
X4.37Y-1.5
X4.37Y-1.6
X4.37Y-1.7
X4.37Y-1.8
X4.37Y-1.9
X4.37Y-2.0
X4.37Y-2.1
X4.37Y-2.2
X4.37Y-2.3
X4.37Y-2.4
X5.27Y-3.75
X5.27Y-3.85
X5.27Y-3.95
X5.27Y-4.05
X5.27Y-4.15
X5.27Y-4.25
X5.27Y-4.35
X5.27Y-4.45
X5.57Y-3.75
X5.57Y-3.85
X5.57Y-3.95
X5.57Y-4.05
X5.57Y-4.15
X5.57Y-4.25
X5.57Y-4.35
X5.57Y-4.45
X6.07Y-3.25
X6.07Y-3.35
X6.07Y-3.45
X6.07Y-3.55
X6.07Y-3.65
X6.07Y-3.75
X6.07Y-3.85
X6.07Y-3.95
X6.07Y-4.05
X6.07Y-4.15
X6.07Y-4.25
X6.07Y-4.35
X6.07Y-4.45
X6.07Y-4.55
X6.07Y-4.65
X6.07Y-4.75
X6.67Y-3.25
X6.67Y-3.35
X6.67Y-3.45
X6.67Y-3.55
X6.67Y-3.65
X6.67Y-3.75
X6.67Y-3.85
X6.67Y-3.95
X6.67Y-4.05
X6.67Y-4.15
X6.67Y-4.25
X6.67Y-4.35
X6.67Y-4.45
X6.67Y-4.55
X6.67Y-4.65
X6.67Y-4.75
X2.795Y-2.775
X2.795Y-2.875
X2.795Y-2.975
X2.795Y-3.075
X2.795Y-3.175
X2.795Y-3.275
X2.795Y-3.375
X2.795Y-3.475
X2.795Y-3.575
X2.795Y-3.675
X2.795Y-3.775
X2.795Y-3.875
X2.795Y-3.975
X2.795Y-4.075
X2.795Y-4.175
X2.795Y-4.275
X2.795Y-4.375
X2.795Y-4.475
X2.795Y-4.575
X2.795Y-4.675
X3.395Y-2.775
X3.395Y-2.875
X3.395Y-2.975
X3.395Y-3.075
X3.395Y-3.175
X3.395Y-3.275
X3.395Y-3.375
X3.395Y-3.475
X3.395Y-3.575
X3.395Y-3.675
X3.395Y-3.775
X3.395Y-3.875
X3.395Y-3.975
X3.395Y-4.075
X3.395Y-4.175
X3.395Y-4.275
X3.395Y-4.375
X3.395Y-4.475
X3.395Y-4.575
X3.395Y-4.675
X6.12Y-1.1
X6.12Y-1.2
X6.12Y-1.3
X6.12Y-1.4
X6.12Y-1.5
X6.12Y-1.6
X6.12Y-1.7
X6.12Y-1.8
X6.12Y-1.9
X6.12Y-2.0
X6.12Y-2.1
X6.12Y-2.2
X6.12Y-2.3
X6.12Y-2.4
X6.12Y-2.5
X6.12Y-2.6
X6.12Y-2.7
X6.12Y-2.8
X6.12Y-2.9
X6.12Y-3.0
X6.72Y-1.1
X6.72Y-1.2
X6.72Y-1.3
X6.72Y-1.4
X6.72Y-1.5
X6.72Y-1.6
X6.72Y-1.7
X6.72Y-1.8
X6.72Y-1.9
X6.72Y-2.0
X6.72Y-2.1
X6.72Y-2.2
X6.72Y-2.3
X6.72Y-2.4
X6.72Y-2.5
X6.72Y-2.6
X6.72Y-2.7
X6.72Y-2.8
X6.72Y-2.9
X6.72Y-3.0
X3.86Y-2.77
X3.86Y-2.87
X3.86Y-2.97
X3.86Y-3.07
X3.86Y-3.17
X3.86Y-3.27
X3.86Y-3.37
X3.86Y-3.47
X3.86Y-3.57
X3.86Y-3.67
X3.86Y-3.77
X3.86Y-3.87
X4.16Y-2.77
X4.16Y-2.87
X4.16Y-2.97
X4.16Y-3.07
X4.16Y-3.17
X4.16Y-3.27
X4.16Y-3.37
X4.16Y-3.47
X4.16Y-3.57
X4.16Y-3.67
X4.16Y-3.77
X4.16Y-3.87
X4.92Y-1.1
X4.92Y-1.2
X4.92Y-1.3
X4.92Y-1.4
X4.92Y-1.5
X4.92Y-1.6
X4.92Y-1.7
X4.92Y-1.8
X4.92Y-1.9
X4.92Y-2.0
X4.92Y-2.1
X4.92Y-2.2
X4.92Y-2.3
X4.92Y-2.4
X4.92Y-2.5
X4.92Y-2.6
X4.92Y-2.7
X4.92Y-2.8
X4.92Y-2.9
X4.92Y-3.0
X5.52Y-1.1
X5.52Y-1.2
X5.52Y-1.3
X5.52Y-1.4
X5.52Y-1.5
X5.52Y-1.6
X5.52Y-1.7
X5.52Y-1.8
X5.52Y-1.9
X5.52Y-2.0
X5.52Y-2.1
X5.52Y-2.2
X5.52Y-2.3
X5.52Y-2.4
X5.52Y-2.5
X5.52Y-2.6
X5.52Y-2.7
X5.52Y-2.8
X5.52Y-2.9
X5.52Y-3.0
X7.07Y-2.15
X7.07Y-2.25
X7.07Y-2.35
X7.07Y-2.45
X7.07Y-2.55
X7.07Y-2.65
X7.07Y-2.75
X7.07Y-2.85
X7.37Y-2.15
X7.37Y-2.25
X7.37Y-2.35
X7.37Y-2.45
X7.37Y-2.55
X7.37Y-2.65
X7.37Y-2.75
X7.37Y-2.85
X7.02Y-3.25
X7.02Y-3.35
X7.02Y-3.45
X7.02Y-3.55
X7.02Y-3.65
X7.02Y-3.75
X7.02Y-3.85
X7.02Y-3.95
X7.02Y-4.05
X7.02Y-4.15
X7.02Y-4.25
X7.02Y-4.35
X7.02Y-4.45
X7.02Y-4.55
X7.02Y-4.65
X7.02Y-4.75
X7.62Y-3.25
X7.62Y-3.35
X7.62Y-3.45
X7.62Y-3.55
X7.62Y-3.65
X7.62Y-3.75
X7.62Y-3.85
X7.62Y-3.95
X7.62Y-4.05
X7.62Y-4.15
X7.62Y-4.25
X7.62Y-4.35
X7.62Y-4.45
X7.62Y-4.55
X7.62Y-4.65
X7.62Y-4.75
T4
X1.81Y-1.51
X1.81Y-1.61
X7.72Y-2.7
X7.72Y-2.8
X7.72Y-2.9
X4.62Y-2.025
X4.62Y-2.125
X4.62Y-2.225
X4.62Y-2.325
X4.62Y-2.425
X4.62Y-2.525
X4.72Y-2.025
X4.72Y-2.125
X4.72Y-2.225
X4.72Y-2.325
X4.72Y-2.425
X4.72Y-2.525
X1.81Y-1.99
X1.81Y-2.09
X5.72Y-1.84
X5.72Y-1.94
X5.72Y-2.04
X5.72Y-2.14
X5.72Y-2.24
X5.72Y-2.34
X5.82Y-1.84
X5.82Y-1.94
X5.82Y-2.04
X5.82Y-2.14
X5.82Y-2.24
X5.82Y-2.34
X1.81Y-2.46
X1.81Y-2.56
T0
M30
