G04 #@! TF.GenerationSoftware,KiCad,Pcbnew,(5.1.5-0)*
G04 #@! TF.CreationDate,2020-04-20T15:28:22+02:00*
G04 #@! TF.ProjectId,sinope,73696e6f-7065-42e6-9b69-6361645f7063,rev?*
G04 #@! TF.SameCoordinates,Original*
G04 #@! TF.FileFunction,Copper,L1,Top*
G04 #@! TF.FilePolarity,Positive*
%FSLAX46Y46*%
G04 Gerber Fmt 4.6, Leading zero omitted, Abs format (unit mm)*
G04 Created by KiCad (PCBNEW (5.1.5-0)) date 2020-04-20 15:28:22*
%MOMM*%
%LPD*%
G04 APERTURE LIST*
%ADD10O,1.600000X1.600000*%
%ADD11R,1.600000X1.600000*%
%ADD12O,1.700000X1.700000*%
%ADD13R,1.700000X1.700000*%
%ADD14O,1.350000X1.350000*%
%ADD15R,1.350000X1.350000*%
%ADD16C,0.100000*%
%ADD17C,1.600000*%
%ADD18R,1.300000X1.300000*%
%ADD19C,1.300000*%
%ADD20C,0.800000*%
%ADD21C,0.500000*%
%ADD22C,0.250000*%
%ADD23C,0.200000*%
G04 APERTURE END LIST*
D10*
X169418000Y-82550000D03*
X154178000Y-120650000D03*
X169418000Y-85090000D03*
X154178000Y-118110000D03*
X169418000Y-87630000D03*
X154178000Y-115570000D03*
X169418000Y-90170000D03*
X154178000Y-113030000D03*
X169418000Y-92710000D03*
X154178000Y-110490000D03*
X169418000Y-95250000D03*
X154178000Y-107950000D03*
X169418000Y-97790000D03*
X154178000Y-105410000D03*
X169418000Y-100330000D03*
X154178000Y-102870000D03*
X169418000Y-102870000D03*
X154178000Y-100330000D03*
X169418000Y-105410000D03*
X154178000Y-97790000D03*
X169418000Y-107950000D03*
X154178000Y-95250000D03*
X169418000Y-110490000D03*
X154178000Y-92710000D03*
X169418000Y-113030000D03*
X154178000Y-90170000D03*
X169418000Y-115570000D03*
X154178000Y-87630000D03*
X169418000Y-118110000D03*
X154178000Y-85090000D03*
X169418000Y-120650000D03*
D11*
X154178000Y-82550000D03*
D10*
X193548000Y-82550000D03*
X178308000Y-120650000D03*
X193548000Y-85090000D03*
X178308000Y-118110000D03*
X193548000Y-87630000D03*
X178308000Y-115570000D03*
X193548000Y-90170000D03*
X178308000Y-113030000D03*
X193548000Y-92710000D03*
X178308000Y-110490000D03*
X193548000Y-95250000D03*
X178308000Y-107950000D03*
X193548000Y-97790000D03*
X178308000Y-105410000D03*
X193548000Y-100330000D03*
X178308000Y-102870000D03*
X193548000Y-102870000D03*
X178308000Y-100330000D03*
X193548000Y-105410000D03*
X178308000Y-97790000D03*
X193548000Y-107950000D03*
X178308000Y-95250000D03*
X193548000Y-110490000D03*
X178308000Y-92710000D03*
X193548000Y-113030000D03*
X178308000Y-90170000D03*
X193548000Y-115570000D03*
X178308000Y-87630000D03*
X193548000Y-118110000D03*
X178308000Y-85090000D03*
X193548000Y-120650000D03*
D11*
X178308000Y-82550000D03*
D10*
X187198000Y-54610000D03*
X179578000Y-72390000D03*
X187198000Y-57150000D03*
X179578000Y-69850000D03*
X187198000Y-59690000D03*
X179578000Y-67310000D03*
X187198000Y-62230000D03*
X179578000Y-64770000D03*
X187198000Y-64770000D03*
X179578000Y-62230000D03*
X187198000Y-67310000D03*
X179578000Y-59690000D03*
X187198000Y-69850000D03*
X179578000Y-57150000D03*
X187198000Y-72390000D03*
D11*
X179578000Y-54610000D03*
D12*
X172720000Y-92710000D03*
X172720000Y-90170000D03*
D13*
X172720000Y-87630000D03*
D12*
X175260000Y-92710000D03*
X175260000Y-90170000D03*
D13*
X175260000Y-87630000D03*
D12*
X52578000Y-125984000D03*
X52578000Y-123444000D03*
X52578000Y-120904000D03*
X52578000Y-118364000D03*
X52578000Y-115824000D03*
X52578000Y-113284000D03*
X52578000Y-110744000D03*
X52578000Y-108204000D03*
X52578000Y-105664000D03*
X52578000Y-103124000D03*
X52578000Y-100584000D03*
X52578000Y-98044000D03*
X52578000Y-95504000D03*
X52578000Y-92964000D03*
X52578000Y-90424000D03*
X52578000Y-87884000D03*
X52578000Y-85344000D03*
X52578000Y-82804000D03*
X52578000Y-80264000D03*
X52578000Y-77724000D03*
X52578000Y-75184000D03*
X52578000Y-72644000D03*
X52578000Y-70104000D03*
X52578000Y-67564000D03*
X52578000Y-65024000D03*
X52578000Y-62484000D03*
X52578000Y-59944000D03*
X52578000Y-57404000D03*
X52578000Y-54864000D03*
X52578000Y-52324000D03*
X52578000Y-49784000D03*
X52578000Y-47244000D03*
X52578000Y-44704000D03*
X52578000Y-42164000D03*
X52578000Y-39624000D03*
X52578000Y-37084000D03*
X52578000Y-34544000D03*
X52578000Y-32004000D03*
X52578000Y-29464000D03*
D13*
X52578000Y-26924000D03*
D12*
X44196000Y-38354000D03*
D13*
X44196000Y-40894000D03*
D14*
X43974000Y-87504000D03*
X45974000Y-87504000D03*
X43974000Y-89504000D03*
X45974000Y-89504000D03*
X43974000Y-91504000D03*
X45974000Y-91504000D03*
X43974000Y-93504000D03*
X45974000Y-93504000D03*
X43974000Y-95504000D03*
D15*
X45974000Y-95504000D03*
D10*
X187198000Y-30480000D03*
X179578000Y-48260000D03*
X187198000Y-33020000D03*
X179578000Y-45720000D03*
X187198000Y-35560000D03*
X179578000Y-43180000D03*
X187198000Y-38100000D03*
X179578000Y-40640000D03*
X187198000Y-40640000D03*
X179578000Y-38100000D03*
X187198000Y-43180000D03*
X179578000Y-35560000D03*
X187198000Y-45720000D03*
X179578000Y-33020000D03*
X187198000Y-48260000D03*
D11*
X179578000Y-30480000D03*
G04 #@! TA.AperFunction,SMDPad,CuDef*
D16*
G36*
X177518142Y-37692174D02*
G01*
X177541803Y-37695684D01*
X177565007Y-37701496D01*
X177587529Y-37709554D01*
X177609153Y-37719782D01*
X177629670Y-37732079D01*
X177648883Y-37746329D01*
X177666607Y-37762393D01*
X177682671Y-37780117D01*
X177696921Y-37799330D01*
X177709218Y-37819847D01*
X177719446Y-37841471D01*
X177727504Y-37863993D01*
X177733316Y-37887197D01*
X177736826Y-37910858D01*
X177738000Y-37934750D01*
X177738000Y-38422250D01*
X177736826Y-38446142D01*
X177733316Y-38469803D01*
X177727504Y-38493007D01*
X177719446Y-38515529D01*
X177709218Y-38537153D01*
X177696921Y-38557670D01*
X177682671Y-38576883D01*
X177666607Y-38594607D01*
X177648883Y-38610671D01*
X177629670Y-38624921D01*
X177609153Y-38637218D01*
X177587529Y-38647446D01*
X177565007Y-38655504D01*
X177541803Y-38661316D01*
X177518142Y-38664826D01*
X177494250Y-38666000D01*
X176581750Y-38666000D01*
X176557858Y-38664826D01*
X176534197Y-38661316D01*
X176510993Y-38655504D01*
X176488471Y-38647446D01*
X176466847Y-38637218D01*
X176446330Y-38624921D01*
X176427117Y-38610671D01*
X176409393Y-38594607D01*
X176393329Y-38576883D01*
X176379079Y-38557670D01*
X176366782Y-38537153D01*
X176356554Y-38515529D01*
X176348496Y-38493007D01*
X176342684Y-38469803D01*
X176339174Y-38446142D01*
X176338000Y-38422250D01*
X176338000Y-37934750D01*
X176339174Y-37910858D01*
X176342684Y-37887197D01*
X176348496Y-37863993D01*
X176356554Y-37841471D01*
X176366782Y-37819847D01*
X176379079Y-37799330D01*
X176393329Y-37780117D01*
X176409393Y-37762393D01*
X176427117Y-37746329D01*
X176446330Y-37732079D01*
X176466847Y-37719782D01*
X176488471Y-37709554D01*
X176510993Y-37701496D01*
X176534197Y-37695684D01*
X176557858Y-37692174D01*
X176581750Y-37691000D01*
X177494250Y-37691000D01*
X177518142Y-37692174D01*
G37*
G04 #@! TD.AperFunction*
G04 #@! TA.AperFunction,SMDPad,CuDef*
G36*
X177518142Y-39567174D02*
G01*
X177541803Y-39570684D01*
X177565007Y-39576496D01*
X177587529Y-39584554D01*
X177609153Y-39594782D01*
X177629670Y-39607079D01*
X177648883Y-39621329D01*
X177666607Y-39637393D01*
X177682671Y-39655117D01*
X177696921Y-39674330D01*
X177709218Y-39694847D01*
X177719446Y-39716471D01*
X177727504Y-39738993D01*
X177733316Y-39762197D01*
X177736826Y-39785858D01*
X177738000Y-39809750D01*
X177738000Y-40297250D01*
X177736826Y-40321142D01*
X177733316Y-40344803D01*
X177727504Y-40368007D01*
X177719446Y-40390529D01*
X177709218Y-40412153D01*
X177696921Y-40432670D01*
X177682671Y-40451883D01*
X177666607Y-40469607D01*
X177648883Y-40485671D01*
X177629670Y-40499921D01*
X177609153Y-40512218D01*
X177587529Y-40522446D01*
X177565007Y-40530504D01*
X177541803Y-40536316D01*
X177518142Y-40539826D01*
X177494250Y-40541000D01*
X176581750Y-40541000D01*
X176557858Y-40539826D01*
X176534197Y-40536316D01*
X176510993Y-40530504D01*
X176488471Y-40522446D01*
X176466847Y-40512218D01*
X176446330Y-40499921D01*
X176427117Y-40485671D01*
X176409393Y-40469607D01*
X176393329Y-40451883D01*
X176379079Y-40432670D01*
X176366782Y-40412153D01*
X176356554Y-40390529D01*
X176348496Y-40368007D01*
X176342684Y-40344803D01*
X176339174Y-40321142D01*
X176338000Y-40297250D01*
X176338000Y-39809750D01*
X176339174Y-39785858D01*
X176342684Y-39762197D01*
X176348496Y-39738993D01*
X176356554Y-39716471D01*
X176366782Y-39694847D01*
X176379079Y-39674330D01*
X176393329Y-39655117D01*
X176409393Y-39637393D01*
X176427117Y-39621329D01*
X176446330Y-39607079D01*
X176466847Y-39594782D01*
X176488471Y-39584554D01*
X176510993Y-39576496D01*
X176534197Y-39570684D01*
X176557858Y-39567174D01*
X176581750Y-39566000D01*
X177494250Y-39566000D01*
X177518142Y-39567174D01*
G37*
G04 #@! TD.AperFunction*
G04 #@! TA.AperFunction,SMDPad,CuDef*
G36*
X172692142Y-84017174D02*
G01*
X172715803Y-84020684D01*
X172739007Y-84026496D01*
X172761529Y-84034554D01*
X172783153Y-84044782D01*
X172803670Y-84057079D01*
X172822883Y-84071329D01*
X172840607Y-84087393D01*
X172856671Y-84105117D01*
X172870921Y-84124330D01*
X172883218Y-84144847D01*
X172893446Y-84166471D01*
X172901504Y-84188993D01*
X172907316Y-84212197D01*
X172910826Y-84235858D01*
X172912000Y-84259750D01*
X172912000Y-84747250D01*
X172910826Y-84771142D01*
X172907316Y-84794803D01*
X172901504Y-84818007D01*
X172893446Y-84840529D01*
X172883218Y-84862153D01*
X172870921Y-84882670D01*
X172856671Y-84901883D01*
X172840607Y-84919607D01*
X172822883Y-84935671D01*
X172803670Y-84949921D01*
X172783153Y-84962218D01*
X172761529Y-84972446D01*
X172739007Y-84980504D01*
X172715803Y-84986316D01*
X172692142Y-84989826D01*
X172668250Y-84991000D01*
X171755750Y-84991000D01*
X171731858Y-84989826D01*
X171708197Y-84986316D01*
X171684993Y-84980504D01*
X171662471Y-84972446D01*
X171640847Y-84962218D01*
X171620330Y-84949921D01*
X171601117Y-84935671D01*
X171583393Y-84919607D01*
X171567329Y-84901883D01*
X171553079Y-84882670D01*
X171540782Y-84862153D01*
X171530554Y-84840529D01*
X171522496Y-84818007D01*
X171516684Y-84794803D01*
X171513174Y-84771142D01*
X171512000Y-84747250D01*
X171512000Y-84259750D01*
X171513174Y-84235858D01*
X171516684Y-84212197D01*
X171522496Y-84188993D01*
X171530554Y-84166471D01*
X171540782Y-84144847D01*
X171553079Y-84124330D01*
X171567329Y-84105117D01*
X171583393Y-84087393D01*
X171601117Y-84071329D01*
X171620330Y-84057079D01*
X171640847Y-84044782D01*
X171662471Y-84034554D01*
X171684993Y-84026496D01*
X171708197Y-84020684D01*
X171731858Y-84017174D01*
X171755750Y-84016000D01*
X172668250Y-84016000D01*
X172692142Y-84017174D01*
G37*
G04 #@! TD.AperFunction*
G04 #@! TA.AperFunction,SMDPad,CuDef*
G36*
X172692142Y-82142174D02*
G01*
X172715803Y-82145684D01*
X172739007Y-82151496D01*
X172761529Y-82159554D01*
X172783153Y-82169782D01*
X172803670Y-82182079D01*
X172822883Y-82196329D01*
X172840607Y-82212393D01*
X172856671Y-82230117D01*
X172870921Y-82249330D01*
X172883218Y-82269847D01*
X172893446Y-82291471D01*
X172901504Y-82313993D01*
X172907316Y-82337197D01*
X172910826Y-82360858D01*
X172912000Y-82384750D01*
X172912000Y-82872250D01*
X172910826Y-82896142D01*
X172907316Y-82919803D01*
X172901504Y-82943007D01*
X172893446Y-82965529D01*
X172883218Y-82987153D01*
X172870921Y-83007670D01*
X172856671Y-83026883D01*
X172840607Y-83044607D01*
X172822883Y-83060671D01*
X172803670Y-83074921D01*
X172783153Y-83087218D01*
X172761529Y-83097446D01*
X172739007Y-83105504D01*
X172715803Y-83111316D01*
X172692142Y-83114826D01*
X172668250Y-83116000D01*
X171755750Y-83116000D01*
X171731858Y-83114826D01*
X171708197Y-83111316D01*
X171684993Y-83105504D01*
X171662471Y-83097446D01*
X171640847Y-83087218D01*
X171620330Y-83074921D01*
X171601117Y-83060671D01*
X171583393Y-83044607D01*
X171567329Y-83026883D01*
X171553079Y-83007670D01*
X171540782Y-82987153D01*
X171530554Y-82965529D01*
X171522496Y-82943007D01*
X171516684Y-82919803D01*
X171513174Y-82896142D01*
X171512000Y-82872250D01*
X171512000Y-82384750D01*
X171513174Y-82360858D01*
X171516684Y-82337197D01*
X171522496Y-82313993D01*
X171530554Y-82291471D01*
X171540782Y-82269847D01*
X171553079Y-82249330D01*
X171567329Y-82230117D01*
X171583393Y-82212393D01*
X171601117Y-82196329D01*
X171620330Y-82182079D01*
X171640847Y-82169782D01*
X171662471Y-82159554D01*
X171684993Y-82151496D01*
X171708197Y-82145684D01*
X171731858Y-82142174D01*
X171755750Y-82141000D01*
X172668250Y-82141000D01*
X172692142Y-82142174D01*
G37*
G04 #@! TD.AperFunction*
D12*
X147828000Y-59436000D03*
X145288000Y-59436000D03*
X147828000Y-56896000D03*
X145288000Y-56896000D03*
X147828000Y-54356000D03*
X145288000Y-54356000D03*
X147828000Y-51816000D03*
X145288000Y-51816000D03*
X147828000Y-49276000D03*
X145288000Y-49276000D03*
X147828000Y-46736000D03*
D13*
X145288000Y-46736000D03*
D10*
X170688000Y-27940000D03*
X155448000Y-76200000D03*
X170688000Y-30480000D03*
X155448000Y-73660000D03*
X170688000Y-33020000D03*
X155448000Y-71120000D03*
X170688000Y-35560000D03*
X155448000Y-68580000D03*
X170688000Y-38100000D03*
X155448000Y-66040000D03*
X170688000Y-40640000D03*
X155448000Y-63500000D03*
X170688000Y-43180000D03*
X155448000Y-60960000D03*
X170688000Y-45720000D03*
X155448000Y-58420000D03*
X170688000Y-48260000D03*
X155448000Y-55880000D03*
X170688000Y-50800000D03*
X155448000Y-53340000D03*
X170688000Y-53340000D03*
X155448000Y-50800000D03*
X170688000Y-55880000D03*
X155448000Y-48260000D03*
X170688000Y-58420000D03*
X155448000Y-45720000D03*
X170688000Y-60960000D03*
X155448000Y-43180000D03*
X170688000Y-63500000D03*
X155448000Y-40640000D03*
X170688000Y-66040000D03*
X155448000Y-38100000D03*
X170688000Y-68580000D03*
X155448000Y-35560000D03*
X170688000Y-71120000D03*
X155448000Y-33020000D03*
X170688000Y-73660000D03*
X155448000Y-30480000D03*
X170688000Y-76200000D03*
D11*
X155448000Y-27940000D03*
D10*
X86233000Y-70485000D03*
X70993000Y-118745000D03*
X86233000Y-73025000D03*
X70993000Y-116205000D03*
X86233000Y-75565000D03*
X70993000Y-113665000D03*
X86233000Y-78105000D03*
X70993000Y-111125000D03*
X86233000Y-80645000D03*
X70993000Y-108585000D03*
X86233000Y-83185000D03*
X70993000Y-106045000D03*
X86233000Y-85725000D03*
X70993000Y-103505000D03*
X86233000Y-88265000D03*
X70993000Y-100965000D03*
X86233000Y-90805000D03*
X70993000Y-98425000D03*
X86233000Y-93345000D03*
X70993000Y-95885000D03*
X86233000Y-95885000D03*
X70993000Y-93345000D03*
X86233000Y-98425000D03*
X70993000Y-90805000D03*
X86233000Y-100965000D03*
X70993000Y-88265000D03*
X86233000Y-103505000D03*
X70993000Y-85725000D03*
X86233000Y-106045000D03*
X70993000Y-83185000D03*
X86233000Y-108585000D03*
X70993000Y-80645000D03*
X86233000Y-111125000D03*
X70993000Y-78105000D03*
X86233000Y-113665000D03*
X70993000Y-75565000D03*
X86233000Y-116205000D03*
X70993000Y-73025000D03*
X86233000Y-118745000D03*
D11*
X70993000Y-70485000D03*
D10*
X140208000Y-27940000D03*
X124968000Y-76200000D03*
X140208000Y-30480000D03*
X124968000Y-73660000D03*
X140208000Y-33020000D03*
X124968000Y-71120000D03*
X140208000Y-35560000D03*
X124968000Y-68580000D03*
X140208000Y-38100000D03*
X124968000Y-66040000D03*
X140208000Y-40640000D03*
X124968000Y-63500000D03*
X140208000Y-43180000D03*
X124968000Y-60960000D03*
X140208000Y-45720000D03*
X124968000Y-58420000D03*
X140208000Y-48260000D03*
X124968000Y-55880000D03*
X140208000Y-50800000D03*
X124968000Y-53340000D03*
X140208000Y-53340000D03*
X124968000Y-50800000D03*
X140208000Y-55880000D03*
X124968000Y-48260000D03*
X140208000Y-58420000D03*
X124968000Y-45720000D03*
X140208000Y-60960000D03*
X124968000Y-43180000D03*
X140208000Y-63500000D03*
X124968000Y-40640000D03*
X140208000Y-66040000D03*
X124968000Y-38100000D03*
X140208000Y-68580000D03*
X124968000Y-35560000D03*
X140208000Y-71120000D03*
X124968000Y-33020000D03*
X140208000Y-73660000D03*
X124968000Y-30480000D03*
X140208000Y-76200000D03*
D11*
X124968000Y-27940000D03*
D10*
X85598000Y-42545000D03*
X77978000Y-60325000D03*
X85598000Y-45085000D03*
X77978000Y-57785000D03*
X85598000Y-47625000D03*
X77978000Y-55245000D03*
X85598000Y-50165000D03*
X77978000Y-52705000D03*
X85598000Y-52705000D03*
X77978000Y-50165000D03*
X85598000Y-55245000D03*
X77978000Y-47625000D03*
X85598000Y-57785000D03*
X77978000Y-45085000D03*
X85598000Y-60325000D03*
D11*
X77978000Y-42545000D03*
D12*
X44196000Y-76200000D03*
X44196000Y-78740000D03*
D13*
X44196000Y-81280000D03*
D17*
X85598000Y-37592000D03*
X85598000Y-29972000D03*
X70358000Y-29972000D03*
D11*
X70358000Y-37592000D03*
D10*
X141478000Y-95250000D03*
X133858000Y-113030000D03*
X141478000Y-97790000D03*
X133858000Y-110490000D03*
X141478000Y-100330000D03*
X133858000Y-107950000D03*
X141478000Y-102870000D03*
X133858000Y-105410000D03*
X141478000Y-105410000D03*
X133858000Y-102870000D03*
X141478000Y-107950000D03*
X133858000Y-100330000D03*
X141478000Y-110490000D03*
X133858000Y-97790000D03*
X141478000Y-113030000D03*
D11*
X133858000Y-95250000D03*
D10*
X124968000Y-85090000D03*
X117348000Y-113030000D03*
X124968000Y-87630000D03*
X117348000Y-110490000D03*
X124968000Y-90170000D03*
X117348000Y-107950000D03*
X124968000Y-92710000D03*
X117348000Y-105410000D03*
X124968000Y-95250000D03*
X117348000Y-102870000D03*
X124968000Y-97790000D03*
X117348000Y-100330000D03*
X124968000Y-100330000D03*
X117348000Y-97790000D03*
X124968000Y-102870000D03*
X117348000Y-95250000D03*
X124968000Y-105410000D03*
X117348000Y-92710000D03*
X124968000Y-107950000D03*
X117348000Y-90170000D03*
X124968000Y-110490000D03*
X117348000Y-87630000D03*
X124968000Y-113030000D03*
D11*
X117348000Y-85090000D03*
D10*
X105664000Y-70358000D03*
X98044000Y-98298000D03*
X105664000Y-72898000D03*
X98044000Y-95758000D03*
X105664000Y-75438000D03*
X98044000Y-93218000D03*
X105664000Y-77978000D03*
X98044000Y-90678000D03*
X105664000Y-80518000D03*
X98044000Y-88138000D03*
X105664000Y-83058000D03*
X98044000Y-85598000D03*
X105664000Y-85598000D03*
X98044000Y-83058000D03*
X105664000Y-88138000D03*
X98044000Y-80518000D03*
X105664000Y-90678000D03*
X98044000Y-77978000D03*
X105664000Y-93218000D03*
X98044000Y-75438000D03*
X105664000Y-95758000D03*
X98044000Y-72898000D03*
X105664000Y-98298000D03*
D11*
X98044000Y-70358000D03*
D10*
X110998000Y-27940000D03*
X95758000Y-60960000D03*
X110998000Y-30480000D03*
X95758000Y-58420000D03*
X110998000Y-33020000D03*
X95758000Y-55880000D03*
X110998000Y-35560000D03*
X95758000Y-53340000D03*
X110998000Y-38100000D03*
X95758000Y-50800000D03*
X110998000Y-40640000D03*
X95758000Y-48260000D03*
X110998000Y-43180000D03*
X95758000Y-45720000D03*
X110998000Y-45720000D03*
X95758000Y-43180000D03*
X110998000Y-48260000D03*
X95758000Y-40640000D03*
X110998000Y-50800000D03*
X95758000Y-38100000D03*
X110998000Y-53340000D03*
X95758000Y-35560000D03*
X110998000Y-55880000D03*
X95758000Y-33020000D03*
X110998000Y-58420000D03*
X95758000Y-30480000D03*
X110998000Y-60960000D03*
D11*
X95758000Y-27940000D03*
G04 #@! TA.AperFunction,SMDPad,CuDef*
D16*
G36*
X44168142Y-34233174D02*
G01*
X44191803Y-34236684D01*
X44215007Y-34242496D01*
X44237529Y-34250554D01*
X44259153Y-34260782D01*
X44279670Y-34273079D01*
X44298883Y-34287329D01*
X44316607Y-34303393D01*
X44332671Y-34321117D01*
X44346921Y-34340330D01*
X44359218Y-34360847D01*
X44369446Y-34382471D01*
X44377504Y-34404993D01*
X44383316Y-34428197D01*
X44386826Y-34451858D01*
X44388000Y-34475750D01*
X44388000Y-34963250D01*
X44386826Y-34987142D01*
X44383316Y-35010803D01*
X44377504Y-35034007D01*
X44369446Y-35056529D01*
X44359218Y-35078153D01*
X44346921Y-35098670D01*
X44332671Y-35117883D01*
X44316607Y-35135607D01*
X44298883Y-35151671D01*
X44279670Y-35165921D01*
X44259153Y-35178218D01*
X44237529Y-35188446D01*
X44215007Y-35196504D01*
X44191803Y-35202316D01*
X44168142Y-35205826D01*
X44144250Y-35207000D01*
X43231750Y-35207000D01*
X43207858Y-35205826D01*
X43184197Y-35202316D01*
X43160993Y-35196504D01*
X43138471Y-35188446D01*
X43116847Y-35178218D01*
X43096330Y-35165921D01*
X43077117Y-35151671D01*
X43059393Y-35135607D01*
X43043329Y-35117883D01*
X43029079Y-35098670D01*
X43016782Y-35078153D01*
X43006554Y-35056529D01*
X42998496Y-35034007D01*
X42992684Y-35010803D01*
X42989174Y-34987142D01*
X42988000Y-34963250D01*
X42988000Y-34475750D01*
X42989174Y-34451858D01*
X42992684Y-34428197D01*
X42998496Y-34404993D01*
X43006554Y-34382471D01*
X43016782Y-34360847D01*
X43029079Y-34340330D01*
X43043329Y-34321117D01*
X43059393Y-34303393D01*
X43077117Y-34287329D01*
X43096330Y-34273079D01*
X43116847Y-34260782D01*
X43138471Y-34250554D01*
X43160993Y-34242496D01*
X43184197Y-34236684D01*
X43207858Y-34233174D01*
X43231750Y-34232000D01*
X44144250Y-34232000D01*
X44168142Y-34233174D01*
G37*
G04 #@! TD.AperFunction*
G04 #@! TA.AperFunction,SMDPad,CuDef*
G36*
X44168142Y-32358174D02*
G01*
X44191803Y-32361684D01*
X44215007Y-32367496D01*
X44237529Y-32375554D01*
X44259153Y-32385782D01*
X44279670Y-32398079D01*
X44298883Y-32412329D01*
X44316607Y-32428393D01*
X44332671Y-32446117D01*
X44346921Y-32465330D01*
X44359218Y-32485847D01*
X44369446Y-32507471D01*
X44377504Y-32529993D01*
X44383316Y-32553197D01*
X44386826Y-32576858D01*
X44388000Y-32600750D01*
X44388000Y-33088250D01*
X44386826Y-33112142D01*
X44383316Y-33135803D01*
X44377504Y-33159007D01*
X44369446Y-33181529D01*
X44359218Y-33203153D01*
X44346921Y-33223670D01*
X44332671Y-33242883D01*
X44316607Y-33260607D01*
X44298883Y-33276671D01*
X44279670Y-33290921D01*
X44259153Y-33303218D01*
X44237529Y-33313446D01*
X44215007Y-33321504D01*
X44191803Y-33327316D01*
X44168142Y-33330826D01*
X44144250Y-33332000D01*
X43231750Y-33332000D01*
X43207858Y-33330826D01*
X43184197Y-33327316D01*
X43160993Y-33321504D01*
X43138471Y-33313446D01*
X43116847Y-33303218D01*
X43096330Y-33290921D01*
X43077117Y-33276671D01*
X43059393Y-33260607D01*
X43043329Y-33242883D01*
X43029079Y-33223670D01*
X43016782Y-33203153D01*
X43006554Y-33181529D01*
X42998496Y-33159007D01*
X42992684Y-33135803D01*
X42989174Y-33112142D01*
X42988000Y-33088250D01*
X42988000Y-32600750D01*
X42989174Y-32576858D01*
X42992684Y-32553197D01*
X42998496Y-32529993D01*
X43006554Y-32507471D01*
X43016782Y-32485847D01*
X43029079Y-32465330D01*
X43043329Y-32446117D01*
X43059393Y-32428393D01*
X43077117Y-32412329D01*
X43096330Y-32398079D01*
X43116847Y-32385782D01*
X43138471Y-32375554D01*
X43160993Y-32367496D01*
X43184197Y-32361684D01*
X43207858Y-32358174D01*
X43231750Y-32357000D01*
X44144250Y-32357000D01*
X44168142Y-32358174D01*
G37*
G04 #@! TD.AperFunction*
G04 #@! TA.AperFunction,SMDPad,CuDef*
G36*
X71212142Y-65087174D02*
G01*
X71235803Y-65090684D01*
X71259007Y-65096496D01*
X71281529Y-65104554D01*
X71303153Y-65114782D01*
X71323670Y-65127079D01*
X71342883Y-65141329D01*
X71360607Y-65157393D01*
X71376671Y-65175117D01*
X71390921Y-65194330D01*
X71403218Y-65214847D01*
X71413446Y-65236471D01*
X71421504Y-65258993D01*
X71427316Y-65282197D01*
X71430826Y-65305858D01*
X71432000Y-65329750D01*
X71432000Y-66242250D01*
X71430826Y-66266142D01*
X71427316Y-66289803D01*
X71421504Y-66313007D01*
X71413446Y-66335529D01*
X71403218Y-66357153D01*
X71390921Y-66377670D01*
X71376671Y-66396883D01*
X71360607Y-66414607D01*
X71342883Y-66430671D01*
X71323670Y-66444921D01*
X71303153Y-66457218D01*
X71281529Y-66467446D01*
X71259007Y-66475504D01*
X71235803Y-66481316D01*
X71212142Y-66484826D01*
X71188250Y-66486000D01*
X70700750Y-66486000D01*
X70676858Y-66484826D01*
X70653197Y-66481316D01*
X70629993Y-66475504D01*
X70607471Y-66467446D01*
X70585847Y-66457218D01*
X70565330Y-66444921D01*
X70546117Y-66430671D01*
X70528393Y-66414607D01*
X70512329Y-66396883D01*
X70498079Y-66377670D01*
X70485782Y-66357153D01*
X70475554Y-66335529D01*
X70467496Y-66313007D01*
X70461684Y-66289803D01*
X70458174Y-66266142D01*
X70457000Y-66242250D01*
X70457000Y-65329750D01*
X70458174Y-65305858D01*
X70461684Y-65282197D01*
X70467496Y-65258993D01*
X70475554Y-65236471D01*
X70485782Y-65214847D01*
X70498079Y-65194330D01*
X70512329Y-65175117D01*
X70528393Y-65157393D01*
X70546117Y-65141329D01*
X70565330Y-65127079D01*
X70585847Y-65114782D01*
X70607471Y-65104554D01*
X70629993Y-65096496D01*
X70653197Y-65090684D01*
X70676858Y-65087174D01*
X70700750Y-65086000D01*
X71188250Y-65086000D01*
X71212142Y-65087174D01*
G37*
G04 #@! TD.AperFunction*
G04 #@! TA.AperFunction,SMDPad,CuDef*
G36*
X73087142Y-65087174D02*
G01*
X73110803Y-65090684D01*
X73134007Y-65096496D01*
X73156529Y-65104554D01*
X73178153Y-65114782D01*
X73198670Y-65127079D01*
X73217883Y-65141329D01*
X73235607Y-65157393D01*
X73251671Y-65175117D01*
X73265921Y-65194330D01*
X73278218Y-65214847D01*
X73288446Y-65236471D01*
X73296504Y-65258993D01*
X73302316Y-65282197D01*
X73305826Y-65305858D01*
X73307000Y-65329750D01*
X73307000Y-66242250D01*
X73305826Y-66266142D01*
X73302316Y-66289803D01*
X73296504Y-66313007D01*
X73288446Y-66335529D01*
X73278218Y-66357153D01*
X73265921Y-66377670D01*
X73251671Y-66396883D01*
X73235607Y-66414607D01*
X73217883Y-66430671D01*
X73198670Y-66444921D01*
X73178153Y-66457218D01*
X73156529Y-66467446D01*
X73134007Y-66475504D01*
X73110803Y-66481316D01*
X73087142Y-66484826D01*
X73063250Y-66486000D01*
X72575750Y-66486000D01*
X72551858Y-66484826D01*
X72528197Y-66481316D01*
X72504993Y-66475504D01*
X72482471Y-66467446D01*
X72460847Y-66457218D01*
X72440330Y-66444921D01*
X72421117Y-66430671D01*
X72403393Y-66414607D01*
X72387329Y-66396883D01*
X72373079Y-66377670D01*
X72360782Y-66357153D01*
X72350554Y-66335529D01*
X72342496Y-66313007D01*
X72336684Y-66289803D01*
X72333174Y-66266142D01*
X72332000Y-66242250D01*
X72332000Y-65329750D01*
X72333174Y-65305858D01*
X72336684Y-65282197D01*
X72342496Y-65258993D01*
X72350554Y-65236471D01*
X72360782Y-65214847D01*
X72373079Y-65194330D01*
X72387329Y-65175117D01*
X72403393Y-65157393D01*
X72421117Y-65141329D01*
X72440330Y-65127079D01*
X72460847Y-65114782D01*
X72482471Y-65104554D01*
X72504993Y-65096496D01*
X72528197Y-65090684D01*
X72551858Y-65087174D01*
X72575750Y-65086000D01*
X73063250Y-65086000D01*
X73087142Y-65087174D01*
G37*
G04 #@! TD.AperFunction*
D18*
X72898000Y-43180000D03*
D19*
X70358000Y-43180000D03*
X71628000Y-44450000D03*
D12*
X44196000Y-50546000D03*
D13*
X44196000Y-53086000D03*
D12*
X44196000Y-62484000D03*
D13*
X44196000Y-65024000D03*
D12*
X119888000Y-64135000D03*
X117348000Y-64135000D03*
X119888000Y-61595000D03*
X117348000Y-61595000D03*
X119888000Y-59055000D03*
X117348000Y-59055000D03*
X119888000Y-56515000D03*
X117348000Y-56515000D03*
X119888000Y-53975000D03*
X117348000Y-53975000D03*
X119888000Y-51435000D03*
D13*
X117348000Y-51435000D03*
G04 #@! TA.AperFunction,SMDPad,CuDef*
D16*
G36*
X44168142Y-28548174D02*
G01*
X44191803Y-28551684D01*
X44215007Y-28557496D01*
X44237529Y-28565554D01*
X44259153Y-28575782D01*
X44279670Y-28588079D01*
X44298883Y-28602329D01*
X44316607Y-28618393D01*
X44332671Y-28636117D01*
X44346921Y-28655330D01*
X44359218Y-28675847D01*
X44369446Y-28697471D01*
X44377504Y-28719993D01*
X44383316Y-28743197D01*
X44386826Y-28766858D01*
X44388000Y-28790750D01*
X44388000Y-29278250D01*
X44386826Y-29302142D01*
X44383316Y-29325803D01*
X44377504Y-29349007D01*
X44369446Y-29371529D01*
X44359218Y-29393153D01*
X44346921Y-29413670D01*
X44332671Y-29432883D01*
X44316607Y-29450607D01*
X44298883Y-29466671D01*
X44279670Y-29480921D01*
X44259153Y-29493218D01*
X44237529Y-29503446D01*
X44215007Y-29511504D01*
X44191803Y-29517316D01*
X44168142Y-29520826D01*
X44144250Y-29522000D01*
X43231750Y-29522000D01*
X43207858Y-29520826D01*
X43184197Y-29517316D01*
X43160993Y-29511504D01*
X43138471Y-29503446D01*
X43116847Y-29493218D01*
X43096330Y-29480921D01*
X43077117Y-29466671D01*
X43059393Y-29450607D01*
X43043329Y-29432883D01*
X43029079Y-29413670D01*
X43016782Y-29393153D01*
X43006554Y-29371529D01*
X42998496Y-29349007D01*
X42992684Y-29325803D01*
X42989174Y-29302142D01*
X42988000Y-29278250D01*
X42988000Y-28790750D01*
X42989174Y-28766858D01*
X42992684Y-28743197D01*
X42998496Y-28719993D01*
X43006554Y-28697471D01*
X43016782Y-28675847D01*
X43029079Y-28655330D01*
X43043329Y-28636117D01*
X43059393Y-28618393D01*
X43077117Y-28602329D01*
X43096330Y-28588079D01*
X43116847Y-28575782D01*
X43138471Y-28565554D01*
X43160993Y-28557496D01*
X43184197Y-28551684D01*
X43207858Y-28548174D01*
X43231750Y-28547000D01*
X44144250Y-28547000D01*
X44168142Y-28548174D01*
G37*
G04 #@! TD.AperFunction*
G04 #@! TA.AperFunction,SMDPad,CuDef*
G36*
X44168142Y-30423174D02*
G01*
X44191803Y-30426684D01*
X44215007Y-30432496D01*
X44237529Y-30440554D01*
X44259153Y-30450782D01*
X44279670Y-30463079D01*
X44298883Y-30477329D01*
X44316607Y-30493393D01*
X44332671Y-30511117D01*
X44346921Y-30530330D01*
X44359218Y-30550847D01*
X44369446Y-30572471D01*
X44377504Y-30594993D01*
X44383316Y-30618197D01*
X44386826Y-30641858D01*
X44388000Y-30665750D01*
X44388000Y-31153250D01*
X44386826Y-31177142D01*
X44383316Y-31200803D01*
X44377504Y-31224007D01*
X44369446Y-31246529D01*
X44359218Y-31268153D01*
X44346921Y-31288670D01*
X44332671Y-31307883D01*
X44316607Y-31325607D01*
X44298883Y-31341671D01*
X44279670Y-31355921D01*
X44259153Y-31368218D01*
X44237529Y-31378446D01*
X44215007Y-31386504D01*
X44191803Y-31392316D01*
X44168142Y-31395826D01*
X44144250Y-31397000D01*
X43231750Y-31397000D01*
X43207858Y-31395826D01*
X43184197Y-31392316D01*
X43160993Y-31386504D01*
X43138471Y-31378446D01*
X43116847Y-31368218D01*
X43096330Y-31355921D01*
X43077117Y-31341671D01*
X43059393Y-31325607D01*
X43043329Y-31307883D01*
X43029079Y-31288670D01*
X43016782Y-31268153D01*
X43006554Y-31246529D01*
X42998496Y-31224007D01*
X42992684Y-31200803D01*
X42989174Y-31177142D01*
X42988000Y-31153250D01*
X42988000Y-30665750D01*
X42989174Y-30641858D01*
X42992684Y-30618197D01*
X42998496Y-30594993D01*
X43006554Y-30572471D01*
X43016782Y-30550847D01*
X43029079Y-30530330D01*
X43043329Y-30511117D01*
X43059393Y-30493393D01*
X43077117Y-30477329D01*
X43096330Y-30463079D01*
X43116847Y-30450782D01*
X43138471Y-30440554D01*
X43160993Y-30432496D01*
X43184197Y-30426684D01*
X43207858Y-30423174D01*
X43231750Y-30422000D01*
X44144250Y-30422000D01*
X44168142Y-30423174D01*
G37*
G04 #@! TD.AperFunction*
G04 #@! TA.AperFunction,SMDPad,CuDef*
G36*
X88364142Y-58109174D02*
G01*
X88387803Y-58112684D01*
X88411007Y-58118496D01*
X88433529Y-58126554D01*
X88455153Y-58136782D01*
X88475670Y-58149079D01*
X88494883Y-58163329D01*
X88512607Y-58179393D01*
X88528671Y-58197117D01*
X88542921Y-58216330D01*
X88555218Y-58236847D01*
X88565446Y-58258471D01*
X88573504Y-58280993D01*
X88579316Y-58304197D01*
X88582826Y-58327858D01*
X88584000Y-58351750D01*
X88584000Y-58839250D01*
X88582826Y-58863142D01*
X88579316Y-58886803D01*
X88573504Y-58910007D01*
X88565446Y-58932529D01*
X88555218Y-58954153D01*
X88542921Y-58974670D01*
X88528671Y-58993883D01*
X88512607Y-59011607D01*
X88494883Y-59027671D01*
X88475670Y-59041921D01*
X88455153Y-59054218D01*
X88433529Y-59064446D01*
X88411007Y-59072504D01*
X88387803Y-59078316D01*
X88364142Y-59081826D01*
X88340250Y-59083000D01*
X87427750Y-59083000D01*
X87403858Y-59081826D01*
X87380197Y-59078316D01*
X87356993Y-59072504D01*
X87334471Y-59064446D01*
X87312847Y-59054218D01*
X87292330Y-59041921D01*
X87273117Y-59027671D01*
X87255393Y-59011607D01*
X87239329Y-58993883D01*
X87225079Y-58974670D01*
X87212782Y-58954153D01*
X87202554Y-58932529D01*
X87194496Y-58910007D01*
X87188684Y-58886803D01*
X87185174Y-58863142D01*
X87184000Y-58839250D01*
X87184000Y-58351750D01*
X87185174Y-58327858D01*
X87188684Y-58304197D01*
X87194496Y-58280993D01*
X87202554Y-58258471D01*
X87212782Y-58236847D01*
X87225079Y-58216330D01*
X87239329Y-58197117D01*
X87255393Y-58179393D01*
X87273117Y-58163329D01*
X87292330Y-58149079D01*
X87312847Y-58136782D01*
X87334471Y-58126554D01*
X87356993Y-58118496D01*
X87380197Y-58112684D01*
X87403858Y-58109174D01*
X87427750Y-58108000D01*
X88340250Y-58108000D01*
X88364142Y-58109174D01*
G37*
G04 #@! TD.AperFunction*
G04 #@! TA.AperFunction,SMDPad,CuDef*
G36*
X88364142Y-56234174D02*
G01*
X88387803Y-56237684D01*
X88411007Y-56243496D01*
X88433529Y-56251554D01*
X88455153Y-56261782D01*
X88475670Y-56274079D01*
X88494883Y-56288329D01*
X88512607Y-56304393D01*
X88528671Y-56322117D01*
X88542921Y-56341330D01*
X88555218Y-56361847D01*
X88565446Y-56383471D01*
X88573504Y-56405993D01*
X88579316Y-56429197D01*
X88582826Y-56452858D01*
X88584000Y-56476750D01*
X88584000Y-56964250D01*
X88582826Y-56988142D01*
X88579316Y-57011803D01*
X88573504Y-57035007D01*
X88565446Y-57057529D01*
X88555218Y-57079153D01*
X88542921Y-57099670D01*
X88528671Y-57118883D01*
X88512607Y-57136607D01*
X88494883Y-57152671D01*
X88475670Y-57166921D01*
X88455153Y-57179218D01*
X88433529Y-57189446D01*
X88411007Y-57197504D01*
X88387803Y-57203316D01*
X88364142Y-57206826D01*
X88340250Y-57208000D01*
X87427750Y-57208000D01*
X87403858Y-57206826D01*
X87380197Y-57203316D01*
X87356993Y-57197504D01*
X87334471Y-57189446D01*
X87312847Y-57179218D01*
X87292330Y-57166921D01*
X87273117Y-57152671D01*
X87255393Y-57136607D01*
X87239329Y-57118883D01*
X87225079Y-57099670D01*
X87212782Y-57079153D01*
X87202554Y-57057529D01*
X87194496Y-57035007D01*
X87188684Y-57011803D01*
X87185174Y-56988142D01*
X87184000Y-56964250D01*
X87184000Y-56476750D01*
X87185174Y-56452858D01*
X87188684Y-56429197D01*
X87194496Y-56405993D01*
X87202554Y-56383471D01*
X87212782Y-56361847D01*
X87225079Y-56341330D01*
X87239329Y-56322117D01*
X87255393Y-56304393D01*
X87273117Y-56288329D01*
X87292330Y-56274079D01*
X87312847Y-56261782D01*
X87334471Y-56251554D01*
X87356993Y-56243496D01*
X87380197Y-56237684D01*
X87403858Y-56234174D01*
X87427750Y-56233000D01*
X88340250Y-56233000D01*
X88364142Y-56234174D01*
G37*
G04 #@! TD.AperFunction*
G04 #@! TA.AperFunction,SMDPad,CuDef*
G36*
X144498142Y-96717174D02*
G01*
X144521803Y-96720684D01*
X144545007Y-96726496D01*
X144567529Y-96734554D01*
X144589153Y-96744782D01*
X144609670Y-96757079D01*
X144628883Y-96771329D01*
X144646607Y-96787393D01*
X144662671Y-96805117D01*
X144676921Y-96824330D01*
X144689218Y-96844847D01*
X144699446Y-96866471D01*
X144707504Y-96888993D01*
X144713316Y-96912197D01*
X144716826Y-96935858D01*
X144718000Y-96959750D01*
X144718000Y-97447250D01*
X144716826Y-97471142D01*
X144713316Y-97494803D01*
X144707504Y-97518007D01*
X144699446Y-97540529D01*
X144689218Y-97562153D01*
X144676921Y-97582670D01*
X144662671Y-97601883D01*
X144646607Y-97619607D01*
X144628883Y-97635671D01*
X144609670Y-97649921D01*
X144589153Y-97662218D01*
X144567529Y-97672446D01*
X144545007Y-97680504D01*
X144521803Y-97686316D01*
X144498142Y-97689826D01*
X144474250Y-97691000D01*
X143561750Y-97691000D01*
X143537858Y-97689826D01*
X143514197Y-97686316D01*
X143490993Y-97680504D01*
X143468471Y-97672446D01*
X143446847Y-97662218D01*
X143426330Y-97649921D01*
X143407117Y-97635671D01*
X143389393Y-97619607D01*
X143373329Y-97601883D01*
X143359079Y-97582670D01*
X143346782Y-97562153D01*
X143336554Y-97540529D01*
X143328496Y-97518007D01*
X143322684Y-97494803D01*
X143319174Y-97471142D01*
X143318000Y-97447250D01*
X143318000Y-96959750D01*
X143319174Y-96935858D01*
X143322684Y-96912197D01*
X143328496Y-96888993D01*
X143336554Y-96866471D01*
X143346782Y-96844847D01*
X143359079Y-96824330D01*
X143373329Y-96805117D01*
X143389393Y-96787393D01*
X143407117Y-96771329D01*
X143426330Y-96757079D01*
X143446847Y-96744782D01*
X143468471Y-96734554D01*
X143490993Y-96726496D01*
X143514197Y-96720684D01*
X143537858Y-96717174D01*
X143561750Y-96716000D01*
X144474250Y-96716000D01*
X144498142Y-96717174D01*
G37*
G04 #@! TD.AperFunction*
G04 #@! TA.AperFunction,SMDPad,CuDef*
G36*
X144498142Y-94842174D02*
G01*
X144521803Y-94845684D01*
X144545007Y-94851496D01*
X144567529Y-94859554D01*
X144589153Y-94869782D01*
X144609670Y-94882079D01*
X144628883Y-94896329D01*
X144646607Y-94912393D01*
X144662671Y-94930117D01*
X144676921Y-94949330D01*
X144689218Y-94969847D01*
X144699446Y-94991471D01*
X144707504Y-95013993D01*
X144713316Y-95037197D01*
X144716826Y-95060858D01*
X144718000Y-95084750D01*
X144718000Y-95572250D01*
X144716826Y-95596142D01*
X144713316Y-95619803D01*
X144707504Y-95643007D01*
X144699446Y-95665529D01*
X144689218Y-95687153D01*
X144676921Y-95707670D01*
X144662671Y-95726883D01*
X144646607Y-95744607D01*
X144628883Y-95760671D01*
X144609670Y-95774921D01*
X144589153Y-95787218D01*
X144567529Y-95797446D01*
X144545007Y-95805504D01*
X144521803Y-95811316D01*
X144498142Y-95814826D01*
X144474250Y-95816000D01*
X143561750Y-95816000D01*
X143537858Y-95814826D01*
X143514197Y-95811316D01*
X143490993Y-95805504D01*
X143468471Y-95797446D01*
X143446847Y-95787218D01*
X143426330Y-95774921D01*
X143407117Y-95760671D01*
X143389393Y-95744607D01*
X143373329Y-95726883D01*
X143359079Y-95707670D01*
X143346782Y-95687153D01*
X143336554Y-95665529D01*
X143328496Y-95643007D01*
X143322684Y-95619803D01*
X143319174Y-95596142D01*
X143318000Y-95572250D01*
X143318000Y-95084750D01*
X143319174Y-95060858D01*
X143322684Y-95037197D01*
X143328496Y-95013993D01*
X143336554Y-94991471D01*
X143346782Y-94969847D01*
X143359079Y-94949330D01*
X143373329Y-94930117D01*
X143389393Y-94912393D01*
X143407117Y-94896329D01*
X143426330Y-94882079D01*
X143446847Y-94869782D01*
X143468471Y-94859554D01*
X143490993Y-94851496D01*
X143514197Y-94845684D01*
X143537858Y-94842174D01*
X143561750Y-94841000D01*
X144474250Y-94841000D01*
X144498142Y-94842174D01*
G37*
G04 #@! TD.AperFunction*
G04 #@! TA.AperFunction,SMDPad,CuDef*
G36*
X181702142Y-78803174D02*
G01*
X181725803Y-78806684D01*
X181749007Y-78812496D01*
X181771529Y-78820554D01*
X181793153Y-78830782D01*
X181813670Y-78843079D01*
X181832883Y-78857329D01*
X181850607Y-78873393D01*
X181866671Y-78891117D01*
X181880921Y-78910330D01*
X181893218Y-78930847D01*
X181903446Y-78952471D01*
X181911504Y-78974993D01*
X181917316Y-78998197D01*
X181920826Y-79021858D01*
X181922000Y-79045750D01*
X181922000Y-79958250D01*
X181920826Y-79982142D01*
X181917316Y-80005803D01*
X181911504Y-80029007D01*
X181903446Y-80051529D01*
X181893218Y-80073153D01*
X181880921Y-80093670D01*
X181866671Y-80112883D01*
X181850607Y-80130607D01*
X181832883Y-80146671D01*
X181813670Y-80160921D01*
X181793153Y-80173218D01*
X181771529Y-80183446D01*
X181749007Y-80191504D01*
X181725803Y-80197316D01*
X181702142Y-80200826D01*
X181678250Y-80202000D01*
X181190750Y-80202000D01*
X181166858Y-80200826D01*
X181143197Y-80197316D01*
X181119993Y-80191504D01*
X181097471Y-80183446D01*
X181075847Y-80173218D01*
X181055330Y-80160921D01*
X181036117Y-80146671D01*
X181018393Y-80130607D01*
X181002329Y-80112883D01*
X180988079Y-80093670D01*
X180975782Y-80073153D01*
X180965554Y-80051529D01*
X180957496Y-80029007D01*
X180951684Y-80005803D01*
X180948174Y-79982142D01*
X180947000Y-79958250D01*
X180947000Y-79045750D01*
X180948174Y-79021858D01*
X180951684Y-78998197D01*
X180957496Y-78974993D01*
X180965554Y-78952471D01*
X180975782Y-78930847D01*
X180988079Y-78910330D01*
X181002329Y-78891117D01*
X181018393Y-78873393D01*
X181036117Y-78857329D01*
X181055330Y-78843079D01*
X181075847Y-78830782D01*
X181097471Y-78820554D01*
X181119993Y-78812496D01*
X181143197Y-78806684D01*
X181166858Y-78803174D01*
X181190750Y-78802000D01*
X181678250Y-78802000D01*
X181702142Y-78803174D01*
G37*
G04 #@! TD.AperFunction*
G04 #@! TA.AperFunction,SMDPad,CuDef*
G36*
X183577142Y-78803174D02*
G01*
X183600803Y-78806684D01*
X183624007Y-78812496D01*
X183646529Y-78820554D01*
X183668153Y-78830782D01*
X183688670Y-78843079D01*
X183707883Y-78857329D01*
X183725607Y-78873393D01*
X183741671Y-78891117D01*
X183755921Y-78910330D01*
X183768218Y-78930847D01*
X183778446Y-78952471D01*
X183786504Y-78974993D01*
X183792316Y-78998197D01*
X183795826Y-79021858D01*
X183797000Y-79045750D01*
X183797000Y-79958250D01*
X183795826Y-79982142D01*
X183792316Y-80005803D01*
X183786504Y-80029007D01*
X183778446Y-80051529D01*
X183768218Y-80073153D01*
X183755921Y-80093670D01*
X183741671Y-80112883D01*
X183725607Y-80130607D01*
X183707883Y-80146671D01*
X183688670Y-80160921D01*
X183668153Y-80173218D01*
X183646529Y-80183446D01*
X183624007Y-80191504D01*
X183600803Y-80197316D01*
X183577142Y-80200826D01*
X183553250Y-80202000D01*
X183065750Y-80202000D01*
X183041858Y-80200826D01*
X183018197Y-80197316D01*
X182994993Y-80191504D01*
X182972471Y-80183446D01*
X182950847Y-80173218D01*
X182930330Y-80160921D01*
X182911117Y-80146671D01*
X182893393Y-80130607D01*
X182877329Y-80112883D01*
X182863079Y-80093670D01*
X182850782Y-80073153D01*
X182840554Y-80051529D01*
X182832496Y-80029007D01*
X182826684Y-80005803D01*
X182823174Y-79982142D01*
X182822000Y-79958250D01*
X182822000Y-79045750D01*
X182823174Y-79021858D01*
X182826684Y-78998197D01*
X182832496Y-78974993D01*
X182840554Y-78952471D01*
X182850782Y-78930847D01*
X182863079Y-78910330D01*
X182877329Y-78891117D01*
X182893393Y-78873393D01*
X182911117Y-78857329D01*
X182930330Y-78843079D01*
X182950847Y-78830782D01*
X182972471Y-78820554D01*
X182994993Y-78812496D01*
X183018197Y-78806684D01*
X183041858Y-78803174D01*
X183065750Y-78802000D01*
X183553250Y-78802000D01*
X183577142Y-78803174D01*
G37*
G04 #@! TD.AperFunction*
G04 #@! TA.AperFunction,SMDPad,CuDef*
G36*
X127988142Y-86811174D02*
G01*
X128011803Y-86814684D01*
X128035007Y-86820496D01*
X128057529Y-86828554D01*
X128079153Y-86838782D01*
X128099670Y-86851079D01*
X128118883Y-86865329D01*
X128136607Y-86881393D01*
X128152671Y-86899117D01*
X128166921Y-86918330D01*
X128179218Y-86938847D01*
X128189446Y-86960471D01*
X128197504Y-86982993D01*
X128203316Y-87006197D01*
X128206826Y-87029858D01*
X128208000Y-87053750D01*
X128208000Y-87541250D01*
X128206826Y-87565142D01*
X128203316Y-87588803D01*
X128197504Y-87612007D01*
X128189446Y-87634529D01*
X128179218Y-87656153D01*
X128166921Y-87676670D01*
X128152671Y-87695883D01*
X128136607Y-87713607D01*
X128118883Y-87729671D01*
X128099670Y-87743921D01*
X128079153Y-87756218D01*
X128057529Y-87766446D01*
X128035007Y-87774504D01*
X128011803Y-87780316D01*
X127988142Y-87783826D01*
X127964250Y-87785000D01*
X127051750Y-87785000D01*
X127027858Y-87783826D01*
X127004197Y-87780316D01*
X126980993Y-87774504D01*
X126958471Y-87766446D01*
X126936847Y-87756218D01*
X126916330Y-87743921D01*
X126897117Y-87729671D01*
X126879393Y-87713607D01*
X126863329Y-87695883D01*
X126849079Y-87676670D01*
X126836782Y-87656153D01*
X126826554Y-87634529D01*
X126818496Y-87612007D01*
X126812684Y-87588803D01*
X126809174Y-87565142D01*
X126808000Y-87541250D01*
X126808000Y-87053750D01*
X126809174Y-87029858D01*
X126812684Y-87006197D01*
X126818496Y-86982993D01*
X126826554Y-86960471D01*
X126836782Y-86938847D01*
X126849079Y-86918330D01*
X126863329Y-86899117D01*
X126879393Y-86881393D01*
X126897117Y-86865329D01*
X126916330Y-86851079D01*
X126936847Y-86838782D01*
X126958471Y-86828554D01*
X126980993Y-86820496D01*
X127004197Y-86814684D01*
X127027858Y-86811174D01*
X127051750Y-86810000D01*
X127964250Y-86810000D01*
X127988142Y-86811174D01*
G37*
G04 #@! TD.AperFunction*
G04 #@! TA.AperFunction,SMDPad,CuDef*
G36*
X127988142Y-84936174D02*
G01*
X128011803Y-84939684D01*
X128035007Y-84945496D01*
X128057529Y-84953554D01*
X128079153Y-84963782D01*
X128099670Y-84976079D01*
X128118883Y-84990329D01*
X128136607Y-85006393D01*
X128152671Y-85024117D01*
X128166921Y-85043330D01*
X128179218Y-85063847D01*
X128189446Y-85085471D01*
X128197504Y-85107993D01*
X128203316Y-85131197D01*
X128206826Y-85154858D01*
X128208000Y-85178750D01*
X128208000Y-85666250D01*
X128206826Y-85690142D01*
X128203316Y-85713803D01*
X128197504Y-85737007D01*
X128189446Y-85759529D01*
X128179218Y-85781153D01*
X128166921Y-85801670D01*
X128152671Y-85820883D01*
X128136607Y-85838607D01*
X128118883Y-85854671D01*
X128099670Y-85868921D01*
X128079153Y-85881218D01*
X128057529Y-85891446D01*
X128035007Y-85899504D01*
X128011803Y-85905316D01*
X127988142Y-85908826D01*
X127964250Y-85910000D01*
X127051750Y-85910000D01*
X127027858Y-85908826D01*
X127004197Y-85905316D01*
X126980993Y-85899504D01*
X126958471Y-85891446D01*
X126936847Y-85881218D01*
X126916330Y-85868921D01*
X126897117Y-85854671D01*
X126879393Y-85838607D01*
X126863329Y-85820883D01*
X126849079Y-85801670D01*
X126836782Y-85781153D01*
X126826554Y-85759529D01*
X126818496Y-85737007D01*
X126812684Y-85713803D01*
X126809174Y-85690142D01*
X126808000Y-85666250D01*
X126808000Y-85178750D01*
X126809174Y-85154858D01*
X126812684Y-85131197D01*
X126818496Y-85107993D01*
X126826554Y-85085471D01*
X126836782Y-85063847D01*
X126849079Y-85043330D01*
X126863329Y-85024117D01*
X126879393Y-85006393D01*
X126897117Y-84990329D01*
X126916330Y-84976079D01*
X126936847Y-84963782D01*
X126958471Y-84953554D01*
X126980993Y-84945496D01*
X127004197Y-84939684D01*
X127027858Y-84936174D01*
X127051750Y-84935000D01*
X127964250Y-84935000D01*
X127988142Y-84936174D01*
G37*
G04 #@! TD.AperFunction*
G04 #@! TA.AperFunction,SMDPad,CuDef*
G36*
X88618142Y-43631174D02*
G01*
X88641803Y-43634684D01*
X88665007Y-43640496D01*
X88687529Y-43648554D01*
X88709153Y-43658782D01*
X88729670Y-43671079D01*
X88748883Y-43685329D01*
X88766607Y-43701393D01*
X88782671Y-43719117D01*
X88796921Y-43738330D01*
X88809218Y-43758847D01*
X88819446Y-43780471D01*
X88827504Y-43802993D01*
X88833316Y-43826197D01*
X88836826Y-43849858D01*
X88838000Y-43873750D01*
X88838000Y-44361250D01*
X88836826Y-44385142D01*
X88833316Y-44408803D01*
X88827504Y-44432007D01*
X88819446Y-44454529D01*
X88809218Y-44476153D01*
X88796921Y-44496670D01*
X88782671Y-44515883D01*
X88766607Y-44533607D01*
X88748883Y-44549671D01*
X88729670Y-44563921D01*
X88709153Y-44576218D01*
X88687529Y-44586446D01*
X88665007Y-44594504D01*
X88641803Y-44600316D01*
X88618142Y-44603826D01*
X88594250Y-44605000D01*
X87681750Y-44605000D01*
X87657858Y-44603826D01*
X87634197Y-44600316D01*
X87610993Y-44594504D01*
X87588471Y-44586446D01*
X87566847Y-44576218D01*
X87546330Y-44563921D01*
X87527117Y-44549671D01*
X87509393Y-44533607D01*
X87493329Y-44515883D01*
X87479079Y-44496670D01*
X87466782Y-44476153D01*
X87456554Y-44454529D01*
X87448496Y-44432007D01*
X87442684Y-44408803D01*
X87439174Y-44385142D01*
X87438000Y-44361250D01*
X87438000Y-43873750D01*
X87439174Y-43849858D01*
X87442684Y-43826197D01*
X87448496Y-43802993D01*
X87456554Y-43780471D01*
X87466782Y-43758847D01*
X87479079Y-43738330D01*
X87493329Y-43719117D01*
X87509393Y-43701393D01*
X87527117Y-43685329D01*
X87546330Y-43671079D01*
X87566847Y-43658782D01*
X87588471Y-43648554D01*
X87610993Y-43640496D01*
X87634197Y-43634684D01*
X87657858Y-43631174D01*
X87681750Y-43630000D01*
X88594250Y-43630000D01*
X88618142Y-43631174D01*
G37*
G04 #@! TD.AperFunction*
G04 #@! TA.AperFunction,SMDPad,CuDef*
G36*
X88618142Y-41756174D02*
G01*
X88641803Y-41759684D01*
X88665007Y-41765496D01*
X88687529Y-41773554D01*
X88709153Y-41783782D01*
X88729670Y-41796079D01*
X88748883Y-41810329D01*
X88766607Y-41826393D01*
X88782671Y-41844117D01*
X88796921Y-41863330D01*
X88809218Y-41883847D01*
X88819446Y-41905471D01*
X88827504Y-41927993D01*
X88833316Y-41951197D01*
X88836826Y-41974858D01*
X88838000Y-41998750D01*
X88838000Y-42486250D01*
X88836826Y-42510142D01*
X88833316Y-42533803D01*
X88827504Y-42557007D01*
X88819446Y-42579529D01*
X88809218Y-42601153D01*
X88796921Y-42621670D01*
X88782671Y-42640883D01*
X88766607Y-42658607D01*
X88748883Y-42674671D01*
X88729670Y-42688921D01*
X88709153Y-42701218D01*
X88687529Y-42711446D01*
X88665007Y-42719504D01*
X88641803Y-42725316D01*
X88618142Y-42728826D01*
X88594250Y-42730000D01*
X87681750Y-42730000D01*
X87657858Y-42728826D01*
X87634197Y-42725316D01*
X87610993Y-42719504D01*
X87588471Y-42711446D01*
X87566847Y-42701218D01*
X87546330Y-42688921D01*
X87527117Y-42674671D01*
X87509393Y-42658607D01*
X87493329Y-42640883D01*
X87479079Y-42621670D01*
X87466782Y-42601153D01*
X87456554Y-42579529D01*
X87448496Y-42557007D01*
X87442684Y-42533803D01*
X87439174Y-42510142D01*
X87438000Y-42486250D01*
X87438000Y-41998750D01*
X87439174Y-41974858D01*
X87442684Y-41951197D01*
X87448496Y-41927993D01*
X87456554Y-41905471D01*
X87466782Y-41883847D01*
X87479079Y-41863330D01*
X87493329Y-41844117D01*
X87509393Y-41826393D01*
X87527117Y-41810329D01*
X87546330Y-41796079D01*
X87566847Y-41783782D01*
X87588471Y-41773554D01*
X87610993Y-41765496D01*
X87634197Y-41759684D01*
X87657858Y-41756174D01*
X87681750Y-41755000D01*
X88594250Y-41755000D01*
X88618142Y-41756174D01*
G37*
G04 #@! TD.AperFunction*
G04 #@! TA.AperFunction,SMDPad,CuDef*
G36*
X70330142Y-50156674D02*
G01*
X70353803Y-50160184D01*
X70377007Y-50165996D01*
X70399529Y-50174054D01*
X70421153Y-50184282D01*
X70441670Y-50196579D01*
X70460883Y-50210829D01*
X70478607Y-50226893D01*
X70494671Y-50244617D01*
X70508921Y-50263830D01*
X70521218Y-50284347D01*
X70531446Y-50305971D01*
X70539504Y-50328493D01*
X70545316Y-50351697D01*
X70548826Y-50375358D01*
X70550000Y-50399250D01*
X70550000Y-50886750D01*
X70548826Y-50910642D01*
X70545316Y-50934303D01*
X70539504Y-50957507D01*
X70531446Y-50980029D01*
X70521218Y-51001653D01*
X70508921Y-51022170D01*
X70494671Y-51041383D01*
X70478607Y-51059107D01*
X70460883Y-51075171D01*
X70441670Y-51089421D01*
X70421153Y-51101718D01*
X70399529Y-51111946D01*
X70377007Y-51120004D01*
X70353803Y-51125816D01*
X70330142Y-51129326D01*
X70306250Y-51130500D01*
X69393750Y-51130500D01*
X69369858Y-51129326D01*
X69346197Y-51125816D01*
X69322993Y-51120004D01*
X69300471Y-51111946D01*
X69278847Y-51101718D01*
X69258330Y-51089421D01*
X69239117Y-51075171D01*
X69221393Y-51059107D01*
X69205329Y-51041383D01*
X69191079Y-51022170D01*
X69178782Y-51001653D01*
X69168554Y-50980029D01*
X69160496Y-50957507D01*
X69154684Y-50934303D01*
X69151174Y-50910642D01*
X69150000Y-50886750D01*
X69150000Y-50399250D01*
X69151174Y-50375358D01*
X69154684Y-50351697D01*
X69160496Y-50328493D01*
X69168554Y-50305971D01*
X69178782Y-50284347D01*
X69191079Y-50263830D01*
X69205329Y-50244617D01*
X69221393Y-50226893D01*
X69239117Y-50210829D01*
X69258330Y-50196579D01*
X69278847Y-50184282D01*
X69300471Y-50174054D01*
X69322993Y-50165996D01*
X69346197Y-50160184D01*
X69369858Y-50156674D01*
X69393750Y-50155500D01*
X70306250Y-50155500D01*
X70330142Y-50156674D01*
G37*
G04 #@! TD.AperFunction*
G04 #@! TA.AperFunction,SMDPad,CuDef*
G36*
X70330142Y-48281674D02*
G01*
X70353803Y-48285184D01*
X70377007Y-48290996D01*
X70399529Y-48299054D01*
X70421153Y-48309282D01*
X70441670Y-48321579D01*
X70460883Y-48335829D01*
X70478607Y-48351893D01*
X70494671Y-48369617D01*
X70508921Y-48388830D01*
X70521218Y-48409347D01*
X70531446Y-48430971D01*
X70539504Y-48453493D01*
X70545316Y-48476697D01*
X70548826Y-48500358D01*
X70550000Y-48524250D01*
X70550000Y-49011750D01*
X70548826Y-49035642D01*
X70545316Y-49059303D01*
X70539504Y-49082507D01*
X70531446Y-49105029D01*
X70521218Y-49126653D01*
X70508921Y-49147170D01*
X70494671Y-49166383D01*
X70478607Y-49184107D01*
X70460883Y-49200171D01*
X70441670Y-49214421D01*
X70421153Y-49226718D01*
X70399529Y-49236946D01*
X70377007Y-49245004D01*
X70353803Y-49250816D01*
X70330142Y-49254326D01*
X70306250Y-49255500D01*
X69393750Y-49255500D01*
X69369858Y-49254326D01*
X69346197Y-49250816D01*
X69322993Y-49245004D01*
X69300471Y-49236946D01*
X69278847Y-49226718D01*
X69258330Y-49214421D01*
X69239117Y-49200171D01*
X69221393Y-49184107D01*
X69205329Y-49166383D01*
X69191079Y-49147170D01*
X69178782Y-49126653D01*
X69168554Y-49105029D01*
X69160496Y-49082507D01*
X69154684Y-49059303D01*
X69151174Y-49035642D01*
X69150000Y-49011750D01*
X69150000Y-48524250D01*
X69151174Y-48500358D01*
X69154684Y-48476697D01*
X69160496Y-48453493D01*
X69168554Y-48430971D01*
X69178782Y-48409347D01*
X69191079Y-48388830D01*
X69205329Y-48369617D01*
X69221393Y-48351893D01*
X69239117Y-48335829D01*
X69258330Y-48321579D01*
X69278847Y-48309282D01*
X69300471Y-48299054D01*
X69322993Y-48290996D01*
X69346197Y-48285184D01*
X69369858Y-48281674D01*
X69393750Y-48280500D01*
X70306250Y-48280500D01*
X70330142Y-48281674D01*
G37*
G04 #@! TD.AperFunction*
G04 #@! TA.AperFunction,SMDPad,CuDef*
G36*
X89888142Y-98241174D02*
G01*
X89911803Y-98244684D01*
X89935007Y-98250496D01*
X89957529Y-98258554D01*
X89979153Y-98268782D01*
X89999670Y-98281079D01*
X90018883Y-98295329D01*
X90036607Y-98311393D01*
X90052671Y-98329117D01*
X90066921Y-98348330D01*
X90079218Y-98368847D01*
X90089446Y-98390471D01*
X90097504Y-98412993D01*
X90103316Y-98436197D01*
X90106826Y-98459858D01*
X90108000Y-98483750D01*
X90108000Y-98971250D01*
X90106826Y-98995142D01*
X90103316Y-99018803D01*
X90097504Y-99042007D01*
X90089446Y-99064529D01*
X90079218Y-99086153D01*
X90066921Y-99106670D01*
X90052671Y-99125883D01*
X90036607Y-99143607D01*
X90018883Y-99159671D01*
X89999670Y-99173921D01*
X89979153Y-99186218D01*
X89957529Y-99196446D01*
X89935007Y-99204504D01*
X89911803Y-99210316D01*
X89888142Y-99213826D01*
X89864250Y-99215000D01*
X88951750Y-99215000D01*
X88927858Y-99213826D01*
X88904197Y-99210316D01*
X88880993Y-99204504D01*
X88858471Y-99196446D01*
X88836847Y-99186218D01*
X88816330Y-99173921D01*
X88797117Y-99159671D01*
X88779393Y-99143607D01*
X88763329Y-99125883D01*
X88749079Y-99106670D01*
X88736782Y-99086153D01*
X88726554Y-99064529D01*
X88718496Y-99042007D01*
X88712684Y-99018803D01*
X88709174Y-98995142D01*
X88708000Y-98971250D01*
X88708000Y-98483750D01*
X88709174Y-98459858D01*
X88712684Y-98436197D01*
X88718496Y-98412993D01*
X88726554Y-98390471D01*
X88736782Y-98368847D01*
X88749079Y-98348330D01*
X88763329Y-98329117D01*
X88779393Y-98311393D01*
X88797117Y-98295329D01*
X88816330Y-98281079D01*
X88836847Y-98268782D01*
X88858471Y-98258554D01*
X88880993Y-98250496D01*
X88904197Y-98244684D01*
X88927858Y-98241174D01*
X88951750Y-98240000D01*
X89864250Y-98240000D01*
X89888142Y-98241174D01*
G37*
G04 #@! TD.AperFunction*
G04 #@! TA.AperFunction,SMDPad,CuDef*
G36*
X89888142Y-96366174D02*
G01*
X89911803Y-96369684D01*
X89935007Y-96375496D01*
X89957529Y-96383554D01*
X89979153Y-96393782D01*
X89999670Y-96406079D01*
X90018883Y-96420329D01*
X90036607Y-96436393D01*
X90052671Y-96454117D01*
X90066921Y-96473330D01*
X90079218Y-96493847D01*
X90089446Y-96515471D01*
X90097504Y-96537993D01*
X90103316Y-96561197D01*
X90106826Y-96584858D01*
X90108000Y-96608750D01*
X90108000Y-97096250D01*
X90106826Y-97120142D01*
X90103316Y-97143803D01*
X90097504Y-97167007D01*
X90089446Y-97189529D01*
X90079218Y-97211153D01*
X90066921Y-97231670D01*
X90052671Y-97250883D01*
X90036607Y-97268607D01*
X90018883Y-97284671D01*
X89999670Y-97298921D01*
X89979153Y-97311218D01*
X89957529Y-97321446D01*
X89935007Y-97329504D01*
X89911803Y-97335316D01*
X89888142Y-97338826D01*
X89864250Y-97340000D01*
X88951750Y-97340000D01*
X88927858Y-97338826D01*
X88904197Y-97335316D01*
X88880993Y-97329504D01*
X88858471Y-97321446D01*
X88836847Y-97311218D01*
X88816330Y-97298921D01*
X88797117Y-97284671D01*
X88779393Y-97268607D01*
X88763329Y-97250883D01*
X88749079Y-97231670D01*
X88736782Y-97211153D01*
X88726554Y-97189529D01*
X88718496Y-97167007D01*
X88712684Y-97143803D01*
X88709174Y-97120142D01*
X88708000Y-97096250D01*
X88708000Y-96608750D01*
X88709174Y-96584858D01*
X88712684Y-96561197D01*
X88718496Y-96537993D01*
X88726554Y-96515471D01*
X88736782Y-96493847D01*
X88749079Y-96473330D01*
X88763329Y-96454117D01*
X88779393Y-96436393D01*
X88797117Y-96420329D01*
X88816330Y-96406079D01*
X88836847Y-96393782D01*
X88858471Y-96383554D01*
X88880993Y-96375496D01*
X88904197Y-96369684D01*
X88927858Y-96366174D01*
X88951750Y-96365000D01*
X89864250Y-96365000D01*
X89888142Y-96366174D01*
G37*
G04 #@! TD.AperFunction*
G04 #@! TA.AperFunction,SMDPad,CuDef*
G36*
X190218142Y-56077174D02*
G01*
X190241803Y-56080684D01*
X190265007Y-56086496D01*
X190287529Y-56094554D01*
X190309153Y-56104782D01*
X190329670Y-56117079D01*
X190348883Y-56131329D01*
X190366607Y-56147393D01*
X190382671Y-56165117D01*
X190396921Y-56184330D01*
X190409218Y-56204847D01*
X190419446Y-56226471D01*
X190427504Y-56248993D01*
X190433316Y-56272197D01*
X190436826Y-56295858D01*
X190438000Y-56319750D01*
X190438000Y-56807250D01*
X190436826Y-56831142D01*
X190433316Y-56854803D01*
X190427504Y-56878007D01*
X190419446Y-56900529D01*
X190409218Y-56922153D01*
X190396921Y-56942670D01*
X190382671Y-56961883D01*
X190366607Y-56979607D01*
X190348883Y-56995671D01*
X190329670Y-57009921D01*
X190309153Y-57022218D01*
X190287529Y-57032446D01*
X190265007Y-57040504D01*
X190241803Y-57046316D01*
X190218142Y-57049826D01*
X190194250Y-57051000D01*
X189281750Y-57051000D01*
X189257858Y-57049826D01*
X189234197Y-57046316D01*
X189210993Y-57040504D01*
X189188471Y-57032446D01*
X189166847Y-57022218D01*
X189146330Y-57009921D01*
X189127117Y-56995671D01*
X189109393Y-56979607D01*
X189093329Y-56961883D01*
X189079079Y-56942670D01*
X189066782Y-56922153D01*
X189056554Y-56900529D01*
X189048496Y-56878007D01*
X189042684Y-56854803D01*
X189039174Y-56831142D01*
X189038000Y-56807250D01*
X189038000Y-56319750D01*
X189039174Y-56295858D01*
X189042684Y-56272197D01*
X189048496Y-56248993D01*
X189056554Y-56226471D01*
X189066782Y-56204847D01*
X189079079Y-56184330D01*
X189093329Y-56165117D01*
X189109393Y-56147393D01*
X189127117Y-56131329D01*
X189146330Y-56117079D01*
X189166847Y-56104782D01*
X189188471Y-56094554D01*
X189210993Y-56086496D01*
X189234197Y-56080684D01*
X189257858Y-56077174D01*
X189281750Y-56076000D01*
X190194250Y-56076000D01*
X190218142Y-56077174D01*
G37*
G04 #@! TD.AperFunction*
G04 #@! TA.AperFunction,SMDPad,CuDef*
G36*
X190218142Y-54202174D02*
G01*
X190241803Y-54205684D01*
X190265007Y-54211496D01*
X190287529Y-54219554D01*
X190309153Y-54229782D01*
X190329670Y-54242079D01*
X190348883Y-54256329D01*
X190366607Y-54272393D01*
X190382671Y-54290117D01*
X190396921Y-54309330D01*
X190409218Y-54329847D01*
X190419446Y-54351471D01*
X190427504Y-54373993D01*
X190433316Y-54397197D01*
X190436826Y-54420858D01*
X190438000Y-54444750D01*
X190438000Y-54932250D01*
X190436826Y-54956142D01*
X190433316Y-54979803D01*
X190427504Y-55003007D01*
X190419446Y-55025529D01*
X190409218Y-55047153D01*
X190396921Y-55067670D01*
X190382671Y-55086883D01*
X190366607Y-55104607D01*
X190348883Y-55120671D01*
X190329670Y-55134921D01*
X190309153Y-55147218D01*
X190287529Y-55157446D01*
X190265007Y-55165504D01*
X190241803Y-55171316D01*
X190218142Y-55174826D01*
X190194250Y-55176000D01*
X189281750Y-55176000D01*
X189257858Y-55174826D01*
X189234197Y-55171316D01*
X189210993Y-55165504D01*
X189188471Y-55157446D01*
X189166847Y-55147218D01*
X189146330Y-55134921D01*
X189127117Y-55120671D01*
X189109393Y-55104607D01*
X189093329Y-55086883D01*
X189079079Y-55067670D01*
X189066782Y-55047153D01*
X189056554Y-55025529D01*
X189048496Y-55003007D01*
X189042684Y-54979803D01*
X189039174Y-54956142D01*
X189038000Y-54932250D01*
X189038000Y-54444750D01*
X189039174Y-54420858D01*
X189042684Y-54397197D01*
X189048496Y-54373993D01*
X189056554Y-54351471D01*
X189066782Y-54329847D01*
X189079079Y-54309330D01*
X189093329Y-54290117D01*
X189109393Y-54272393D01*
X189127117Y-54256329D01*
X189146330Y-54242079D01*
X189166847Y-54229782D01*
X189188471Y-54219554D01*
X189210993Y-54211496D01*
X189234197Y-54205684D01*
X189257858Y-54202174D01*
X189281750Y-54201000D01*
X190194250Y-54201000D01*
X190218142Y-54202174D01*
G37*
G04 #@! TD.AperFunction*
G04 #@! TA.AperFunction,SMDPad,CuDef*
G36*
X177518142Y-61743674D02*
G01*
X177541803Y-61747184D01*
X177565007Y-61752996D01*
X177587529Y-61761054D01*
X177609153Y-61771282D01*
X177629670Y-61783579D01*
X177648883Y-61797829D01*
X177666607Y-61813893D01*
X177682671Y-61831617D01*
X177696921Y-61850830D01*
X177709218Y-61871347D01*
X177719446Y-61892971D01*
X177727504Y-61915493D01*
X177733316Y-61938697D01*
X177736826Y-61962358D01*
X177738000Y-61986250D01*
X177738000Y-62473750D01*
X177736826Y-62497642D01*
X177733316Y-62521303D01*
X177727504Y-62544507D01*
X177719446Y-62567029D01*
X177709218Y-62588653D01*
X177696921Y-62609170D01*
X177682671Y-62628383D01*
X177666607Y-62646107D01*
X177648883Y-62662171D01*
X177629670Y-62676421D01*
X177609153Y-62688718D01*
X177587529Y-62698946D01*
X177565007Y-62707004D01*
X177541803Y-62712816D01*
X177518142Y-62716326D01*
X177494250Y-62717500D01*
X176581750Y-62717500D01*
X176557858Y-62716326D01*
X176534197Y-62712816D01*
X176510993Y-62707004D01*
X176488471Y-62698946D01*
X176466847Y-62688718D01*
X176446330Y-62676421D01*
X176427117Y-62662171D01*
X176409393Y-62646107D01*
X176393329Y-62628383D01*
X176379079Y-62609170D01*
X176366782Y-62588653D01*
X176356554Y-62567029D01*
X176348496Y-62544507D01*
X176342684Y-62521303D01*
X176339174Y-62497642D01*
X176338000Y-62473750D01*
X176338000Y-61986250D01*
X176339174Y-61962358D01*
X176342684Y-61938697D01*
X176348496Y-61915493D01*
X176356554Y-61892971D01*
X176366782Y-61871347D01*
X176379079Y-61850830D01*
X176393329Y-61831617D01*
X176409393Y-61813893D01*
X176427117Y-61797829D01*
X176446330Y-61783579D01*
X176466847Y-61771282D01*
X176488471Y-61761054D01*
X176510993Y-61752996D01*
X176534197Y-61747184D01*
X176557858Y-61743674D01*
X176581750Y-61742500D01*
X177494250Y-61742500D01*
X177518142Y-61743674D01*
G37*
G04 #@! TD.AperFunction*
G04 #@! TA.AperFunction,SMDPad,CuDef*
G36*
X177518142Y-63618674D02*
G01*
X177541803Y-63622184D01*
X177565007Y-63627996D01*
X177587529Y-63636054D01*
X177609153Y-63646282D01*
X177629670Y-63658579D01*
X177648883Y-63672829D01*
X177666607Y-63688893D01*
X177682671Y-63706617D01*
X177696921Y-63725830D01*
X177709218Y-63746347D01*
X177719446Y-63767971D01*
X177727504Y-63790493D01*
X177733316Y-63813697D01*
X177736826Y-63837358D01*
X177738000Y-63861250D01*
X177738000Y-64348750D01*
X177736826Y-64372642D01*
X177733316Y-64396303D01*
X177727504Y-64419507D01*
X177719446Y-64442029D01*
X177709218Y-64463653D01*
X177696921Y-64484170D01*
X177682671Y-64503383D01*
X177666607Y-64521107D01*
X177648883Y-64537171D01*
X177629670Y-64551421D01*
X177609153Y-64563718D01*
X177587529Y-64573946D01*
X177565007Y-64582004D01*
X177541803Y-64587816D01*
X177518142Y-64591326D01*
X177494250Y-64592500D01*
X176581750Y-64592500D01*
X176557858Y-64591326D01*
X176534197Y-64587816D01*
X176510993Y-64582004D01*
X176488471Y-64573946D01*
X176466847Y-64563718D01*
X176446330Y-64551421D01*
X176427117Y-64537171D01*
X176409393Y-64521107D01*
X176393329Y-64503383D01*
X176379079Y-64484170D01*
X176366782Y-64463653D01*
X176356554Y-64442029D01*
X176348496Y-64419507D01*
X176342684Y-64396303D01*
X176339174Y-64372642D01*
X176338000Y-64348750D01*
X176338000Y-63861250D01*
X176339174Y-63837358D01*
X176342684Y-63813697D01*
X176348496Y-63790493D01*
X176356554Y-63767971D01*
X176366782Y-63746347D01*
X176379079Y-63725830D01*
X176393329Y-63706617D01*
X176409393Y-63688893D01*
X176427117Y-63672829D01*
X176446330Y-63658579D01*
X176466847Y-63646282D01*
X176488471Y-63636054D01*
X176510993Y-63627996D01*
X176534197Y-63622184D01*
X176557858Y-63618674D01*
X176581750Y-63617500D01*
X177494250Y-63617500D01*
X177518142Y-63618674D01*
G37*
G04 #@! TD.AperFunction*
G04 #@! TA.AperFunction,SMDPad,CuDef*
G36*
X143228142Y-29661174D02*
G01*
X143251803Y-29664684D01*
X143275007Y-29670496D01*
X143297529Y-29678554D01*
X143319153Y-29688782D01*
X143339670Y-29701079D01*
X143358883Y-29715329D01*
X143376607Y-29731393D01*
X143392671Y-29749117D01*
X143406921Y-29768330D01*
X143419218Y-29788847D01*
X143429446Y-29810471D01*
X143437504Y-29832993D01*
X143443316Y-29856197D01*
X143446826Y-29879858D01*
X143448000Y-29903750D01*
X143448000Y-30391250D01*
X143446826Y-30415142D01*
X143443316Y-30438803D01*
X143437504Y-30462007D01*
X143429446Y-30484529D01*
X143419218Y-30506153D01*
X143406921Y-30526670D01*
X143392671Y-30545883D01*
X143376607Y-30563607D01*
X143358883Y-30579671D01*
X143339670Y-30593921D01*
X143319153Y-30606218D01*
X143297529Y-30616446D01*
X143275007Y-30624504D01*
X143251803Y-30630316D01*
X143228142Y-30633826D01*
X143204250Y-30635000D01*
X142291750Y-30635000D01*
X142267858Y-30633826D01*
X142244197Y-30630316D01*
X142220993Y-30624504D01*
X142198471Y-30616446D01*
X142176847Y-30606218D01*
X142156330Y-30593921D01*
X142137117Y-30579671D01*
X142119393Y-30563607D01*
X142103329Y-30545883D01*
X142089079Y-30526670D01*
X142076782Y-30506153D01*
X142066554Y-30484529D01*
X142058496Y-30462007D01*
X142052684Y-30438803D01*
X142049174Y-30415142D01*
X142048000Y-30391250D01*
X142048000Y-29903750D01*
X142049174Y-29879858D01*
X142052684Y-29856197D01*
X142058496Y-29832993D01*
X142066554Y-29810471D01*
X142076782Y-29788847D01*
X142089079Y-29768330D01*
X142103329Y-29749117D01*
X142119393Y-29731393D01*
X142137117Y-29715329D01*
X142156330Y-29701079D01*
X142176847Y-29688782D01*
X142198471Y-29678554D01*
X142220993Y-29670496D01*
X142244197Y-29664684D01*
X142267858Y-29661174D01*
X142291750Y-29660000D01*
X143204250Y-29660000D01*
X143228142Y-29661174D01*
G37*
G04 #@! TD.AperFunction*
G04 #@! TA.AperFunction,SMDPad,CuDef*
G36*
X143228142Y-27786174D02*
G01*
X143251803Y-27789684D01*
X143275007Y-27795496D01*
X143297529Y-27803554D01*
X143319153Y-27813782D01*
X143339670Y-27826079D01*
X143358883Y-27840329D01*
X143376607Y-27856393D01*
X143392671Y-27874117D01*
X143406921Y-27893330D01*
X143419218Y-27913847D01*
X143429446Y-27935471D01*
X143437504Y-27957993D01*
X143443316Y-27981197D01*
X143446826Y-28004858D01*
X143448000Y-28028750D01*
X143448000Y-28516250D01*
X143446826Y-28540142D01*
X143443316Y-28563803D01*
X143437504Y-28587007D01*
X143429446Y-28609529D01*
X143419218Y-28631153D01*
X143406921Y-28651670D01*
X143392671Y-28670883D01*
X143376607Y-28688607D01*
X143358883Y-28704671D01*
X143339670Y-28718921D01*
X143319153Y-28731218D01*
X143297529Y-28741446D01*
X143275007Y-28749504D01*
X143251803Y-28755316D01*
X143228142Y-28758826D01*
X143204250Y-28760000D01*
X142291750Y-28760000D01*
X142267858Y-28758826D01*
X142244197Y-28755316D01*
X142220993Y-28749504D01*
X142198471Y-28741446D01*
X142176847Y-28731218D01*
X142156330Y-28718921D01*
X142137117Y-28704671D01*
X142119393Y-28688607D01*
X142103329Y-28670883D01*
X142089079Y-28651670D01*
X142076782Y-28631153D01*
X142066554Y-28609529D01*
X142058496Y-28587007D01*
X142052684Y-28563803D01*
X142049174Y-28540142D01*
X142048000Y-28516250D01*
X142048000Y-28028750D01*
X142049174Y-28004858D01*
X142052684Y-27981197D01*
X142058496Y-27957993D01*
X142066554Y-27935471D01*
X142076782Y-27913847D01*
X142089079Y-27893330D01*
X142103329Y-27874117D01*
X142119393Y-27856393D01*
X142137117Y-27840329D01*
X142156330Y-27826079D01*
X142176847Y-27813782D01*
X142198471Y-27803554D01*
X142220993Y-27795496D01*
X142244197Y-27789684D01*
X142267858Y-27786174D01*
X142291750Y-27785000D01*
X143204250Y-27785000D01*
X143228142Y-27786174D01*
G37*
G04 #@! TD.AperFunction*
G04 #@! TA.AperFunction,SMDPad,CuDef*
G36*
X153642142Y-49981174D02*
G01*
X153665803Y-49984684D01*
X153689007Y-49990496D01*
X153711529Y-49998554D01*
X153733153Y-50008782D01*
X153753670Y-50021079D01*
X153772883Y-50035329D01*
X153790607Y-50051393D01*
X153806671Y-50069117D01*
X153820921Y-50088330D01*
X153833218Y-50108847D01*
X153843446Y-50130471D01*
X153851504Y-50152993D01*
X153857316Y-50176197D01*
X153860826Y-50199858D01*
X153862000Y-50223750D01*
X153862000Y-50711250D01*
X153860826Y-50735142D01*
X153857316Y-50758803D01*
X153851504Y-50782007D01*
X153843446Y-50804529D01*
X153833218Y-50826153D01*
X153820921Y-50846670D01*
X153806671Y-50865883D01*
X153790607Y-50883607D01*
X153772883Y-50899671D01*
X153753670Y-50913921D01*
X153733153Y-50926218D01*
X153711529Y-50936446D01*
X153689007Y-50944504D01*
X153665803Y-50950316D01*
X153642142Y-50953826D01*
X153618250Y-50955000D01*
X152705750Y-50955000D01*
X152681858Y-50953826D01*
X152658197Y-50950316D01*
X152634993Y-50944504D01*
X152612471Y-50936446D01*
X152590847Y-50926218D01*
X152570330Y-50913921D01*
X152551117Y-50899671D01*
X152533393Y-50883607D01*
X152517329Y-50865883D01*
X152503079Y-50846670D01*
X152490782Y-50826153D01*
X152480554Y-50804529D01*
X152472496Y-50782007D01*
X152466684Y-50758803D01*
X152463174Y-50735142D01*
X152462000Y-50711250D01*
X152462000Y-50223750D01*
X152463174Y-50199858D01*
X152466684Y-50176197D01*
X152472496Y-50152993D01*
X152480554Y-50130471D01*
X152490782Y-50108847D01*
X152503079Y-50088330D01*
X152517329Y-50069117D01*
X152533393Y-50051393D01*
X152551117Y-50035329D01*
X152570330Y-50021079D01*
X152590847Y-50008782D01*
X152612471Y-49998554D01*
X152634993Y-49990496D01*
X152658197Y-49984684D01*
X152681858Y-49981174D01*
X152705750Y-49980000D01*
X153618250Y-49980000D01*
X153642142Y-49981174D01*
G37*
G04 #@! TD.AperFunction*
G04 #@! TA.AperFunction,SMDPad,CuDef*
G36*
X153642142Y-48106174D02*
G01*
X153665803Y-48109684D01*
X153689007Y-48115496D01*
X153711529Y-48123554D01*
X153733153Y-48133782D01*
X153753670Y-48146079D01*
X153772883Y-48160329D01*
X153790607Y-48176393D01*
X153806671Y-48194117D01*
X153820921Y-48213330D01*
X153833218Y-48233847D01*
X153843446Y-48255471D01*
X153851504Y-48277993D01*
X153857316Y-48301197D01*
X153860826Y-48324858D01*
X153862000Y-48348750D01*
X153862000Y-48836250D01*
X153860826Y-48860142D01*
X153857316Y-48883803D01*
X153851504Y-48907007D01*
X153843446Y-48929529D01*
X153833218Y-48951153D01*
X153820921Y-48971670D01*
X153806671Y-48990883D01*
X153790607Y-49008607D01*
X153772883Y-49024671D01*
X153753670Y-49038921D01*
X153733153Y-49051218D01*
X153711529Y-49061446D01*
X153689007Y-49069504D01*
X153665803Y-49075316D01*
X153642142Y-49078826D01*
X153618250Y-49080000D01*
X152705750Y-49080000D01*
X152681858Y-49078826D01*
X152658197Y-49075316D01*
X152634993Y-49069504D01*
X152612471Y-49061446D01*
X152590847Y-49051218D01*
X152570330Y-49038921D01*
X152551117Y-49024671D01*
X152533393Y-49008607D01*
X152517329Y-48990883D01*
X152503079Y-48971670D01*
X152490782Y-48951153D01*
X152480554Y-48929529D01*
X152472496Y-48907007D01*
X152466684Y-48883803D01*
X152463174Y-48860142D01*
X152462000Y-48836250D01*
X152462000Y-48348750D01*
X152463174Y-48324858D01*
X152466684Y-48301197D01*
X152472496Y-48277993D01*
X152480554Y-48255471D01*
X152490782Y-48233847D01*
X152503079Y-48213330D01*
X152517329Y-48194117D01*
X152533393Y-48176393D01*
X152551117Y-48160329D01*
X152570330Y-48146079D01*
X152590847Y-48133782D01*
X152612471Y-48123554D01*
X152634993Y-48115496D01*
X152658197Y-48109684D01*
X152681858Y-48106174D01*
X152705750Y-48105000D01*
X153618250Y-48105000D01*
X153642142Y-48106174D01*
G37*
G04 #@! TD.AperFunction*
G04 #@! TA.AperFunction,SMDPad,CuDef*
G36*
X114018142Y-29661174D02*
G01*
X114041803Y-29664684D01*
X114065007Y-29670496D01*
X114087529Y-29678554D01*
X114109153Y-29688782D01*
X114129670Y-29701079D01*
X114148883Y-29715329D01*
X114166607Y-29731393D01*
X114182671Y-29749117D01*
X114196921Y-29768330D01*
X114209218Y-29788847D01*
X114219446Y-29810471D01*
X114227504Y-29832993D01*
X114233316Y-29856197D01*
X114236826Y-29879858D01*
X114238000Y-29903750D01*
X114238000Y-30391250D01*
X114236826Y-30415142D01*
X114233316Y-30438803D01*
X114227504Y-30462007D01*
X114219446Y-30484529D01*
X114209218Y-30506153D01*
X114196921Y-30526670D01*
X114182671Y-30545883D01*
X114166607Y-30563607D01*
X114148883Y-30579671D01*
X114129670Y-30593921D01*
X114109153Y-30606218D01*
X114087529Y-30616446D01*
X114065007Y-30624504D01*
X114041803Y-30630316D01*
X114018142Y-30633826D01*
X113994250Y-30635000D01*
X113081750Y-30635000D01*
X113057858Y-30633826D01*
X113034197Y-30630316D01*
X113010993Y-30624504D01*
X112988471Y-30616446D01*
X112966847Y-30606218D01*
X112946330Y-30593921D01*
X112927117Y-30579671D01*
X112909393Y-30563607D01*
X112893329Y-30545883D01*
X112879079Y-30526670D01*
X112866782Y-30506153D01*
X112856554Y-30484529D01*
X112848496Y-30462007D01*
X112842684Y-30438803D01*
X112839174Y-30415142D01*
X112838000Y-30391250D01*
X112838000Y-29903750D01*
X112839174Y-29879858D01*
X112842684Y-29856197D01*
X112848496Y-29832993D01*
X112856554Y-29810471D01*
X112866782Y-29788847D01*
X112879079Y-29768330D01*
X112893329Y-29749117D01*
X112909393Y-29731393D01*
X112927117Y-29715329D01*
X112946330Y-29701079D01*
X112966847Y-29688782D01*
X112988471Y-29678554D01*
X113010993Y-29670496D01*
X113034197Y-29664684D01*
X113057858Y-29661174D01*
X113081750Y-29660000D01*
X113994250Y-29660000D01*
X114018142Y-29661174D01*
G37*
G04 #@! TD.AperFunction*
G04 #@! TA.AperFunction,SMDPad,CuDef*
G36*
X114018142Y-27786174D02*
G01*
X114041803Y-27789684D01*
X114065007Y-27795496D01*
X114087529Y-27803554D01*
X114109153Y-27813782D01*
X114129670Y-27826079D01*
X114148883Y-27840329D01*
X114166607Y-27856393D01*
X114182671Y-27874117D01*
X114196921Y-27893330D01*
X114209218Y-27913847D01*
X114219446Y-27935471D01*
X114227504Y-27957993D01*
X114233316Y-27981197D01*
X114236826Y-28004858D01*
X114238000Y-28028750D01*
X114238000Y-28516250D01*
X114236826Y-28540142D01*
X114233316Y-28563803D01*
X114227504Y-28587007D01*
X114219446Y-28609529D01*
X114209218Y-28631153D01*
X114196921Y-28651670D01*
X114182671Y-28670883D01*
X114166607Y-28688607D01*
X114148883Y-28704671D01*
X114129670Y-28718921D01*
X114109153Y-28731218D01*
X114087529Y-28741446D01*
X114065007Y-28749504D01*
X114041803Y-28755316D01*
X114018142Y-28758826D01*
X113994250Y-28760000D01*
X113081750Y-28760000D01*
X113057858Y-28758826D01*
X113034197Y-28755316D01*
X113010993Y-28749504D01*
X112988471Y-28741446D01*
X112966847Y-28731218D01*
X112946330Y-28718921D01*
X112927117Y-28704671D01*
X112909393Y-28688607D01*
X112893329Y-28670883D01*
X112879079Y-28651670D01*
X112866782Y-28631153D01*
X112856554Y-28609529D01*
X112848496Y-28587007D01*
X112842684Y-28563803D01*
X112839174Y-28540142D01*
X112838000Y-28516250D01*
X112838000Y-28028750D01*
X112839174Y-28004858D01*
X112842684Y-27981197D01*
X112848496Y-27957993D01*
X112856554Y-27935471D01*
X112866782Y-27913847D01*
X112879079Y-27893330D01*
X112893329Y-27874117D01*
X112909393Y-27856393D01*
X112927117Y-27840329D01*
X112946330Y-27826079D01*
X112966847Y-27813782D01*
X112988471Y-27803554D01*
X113010993Y-27795496D01*
X113034197Y-27789684D01*
X113057858Y-27786174D01*
X113081750Y-27785000D01*
X113994250Y-27785000D01*
X114018142Y-27786174D01*
G37*
G04 #@! TD.AperFunction*
G04 #@! TA.AperFunction,SMDPad,CuDef*
G36*
X177518142Y-66902174D02*
G01*
X177541803Y-66905684D01*
X177565007Y-66911496D01*
X177587529Y-66919554D01*
X177609153Y-66929782D01*
X177629670Y-66942079D01*
X177648883Y-66956329D01*
X177666607Y-66972393D01*
X177682671Y-66990117D01*
X177696921Y-67009330D01*
X177709218Y-67029847D01*
X177719446Y-67051471D01*
X177727504Y-67073993D01*
X177733316Y-67097197D01*
X177736826Y-67120858D01*
X177738000Y-67144750D01*
X177738000Y-67632250D01*
X177736826Y-67656142D01*
X177733316Y-67679803D01*
X177727504Y-67703007D01*
X177719446Y-67725529D01*
X177709218Y-67747153D01*
X177696921Y-67767670D01*
X177682671Y-67786883D01*
X177666607Y-67804607D01*
X177648883Y-67820671D01*
X177629670Y-67834921D01*
X177609153Y-67847218D01*
X177587529Y-67857446D01*
X177565007Y-67865504D01*
X177541803Y-67871316D01*
X177518142Y-67874826D01*
X177494250Y-67876000D01*
X176581750Y-67876000D01*
X176557858Y-67874826D01*
X176534197Y-67871316D01*
X176510993Y-67865504D01*
X176488471Y-67857446D01*
X176466847Y-67847218D01*
X176446330Y-67834921D01*
X176427117Y-67820671D01*
X176409393Y-67804607D01*
X176393329Y-67786883D01*
X176379079Y-67767670D01*
X176366782Y-67747153D01*
X176356554Y-67725529D01*
X176348496Y-67703007D01*
X176342684Y-67679803D01*
X176339174Y-67656142D01*
X176338000Y-67632250D01*
X176338000Y-67144750D01*
X176339174Y-67120858D01*
X176342684Y-67097197D01*
X176348496Y-67073993D01*
X176356554Y-67051471D01*
X176366782Y-67029847D01*
X176379079Y-67009330D01*
X176393329Y-66990117D01*
X176409393Y-66972393D01*
X176427117Y-66956329D01*
X176446330Y-66942079D01*
X176466847Y-66929782D01*
X176488471Y-66919554D01*
X176510993Y-66911496D01*
X176534197Y-66905684D01*
X176557858Y-66902174D01*
X176581750Y-66901000D01*
X177494250Y-66901000D01*
X177518142Y-66902174D01*
G37*
G04 #@! TD.AperFunction*
G04 #@! TA.AperFunction,SMDPad,CuDef*
G36*
X177518142Y-68777174D02*
G01*
X177541803Y-68780684D01*
X177565007Y-68786496D01*
X177587529Y-68794554D01*
X177609153Y-68804782D01*
X177629670Y-68817079D01*
X177648883Y-68831329D01*
X177666607Y-68847393D01*
X177682671Y-68865117D01*
X177696921Y-68884330D01*
X177709218Y-68904847D01*
X177719446Y-68926471D01*
X177727504Y-68948993D01*
X177733316Y-68972197D01*
X177736826Y-68995858D01*
X177738000Y-69019750D01*
X177738000Y-69507250D01*
X177736826Y-69531142D01*
X177733316Y-69554803D01*
X177727504Y-69578007D01*
X177719446Y-69600529D01*
X177709218Y-69622153D01*
X177696921Y-69642670D01*
X177682671Y-69661883D01*
X177666607Y-69679607D01*
X177648883Y-69695671D01*
X177629670Y-69709921D01*
X177609153Y-69722218D01*
X177587529Y-69732446D01*
X177565007Y-69740504D01*
X177541803Y-69746316D01*
X177518142Y-69749826D01*
X177494250Y-69751000D01*
X176581750Y-69751000D01*
X176557858Y-69749826D01*
X176534197Y-69746316D01*
X176510993Y-69740504D01*
X176488471Y-69732446D01*
X176466847Y-69722218D01*
X176446330Y-69709921D01*
X176427117Y-69695671D01*
X176409393Y-69679607D01*
X176393329Y-69661883D01*
X176379079Y-69642670D01*
X176366782Y-69622153D01*
X176356554Y-69600529D01*
X176348496Y-69578007D01*
X176342684Y-69554803D01*
X176339174Y-69531142D01*
X176338000Y-69507250D01*
X176338000Y-69019750D01*
X176339174Y-68995858D01*
X176342684Y-68972197D01*
X176348496Y-68948993D01*
X176356554Y-68926471D01*
X176366782Y-68904847D01*
X176379079Y-68884330D01*
X176393329Y-68865117D01*
X176409393Y-68847393D01*
X176427117Y-68831329D01*
X176446330Y-68817079D01*
X176466847Y-68804782D01*
X176488471Y-68794554D01*
X176510993Y-68786496D01*
X176534197Y-68780684D01*
X176557858Y-68777174D01*
X176581750Y-68776000D01*
X177494250Y-68776000D01*
X177518142Y-68777174D01*
G37*
G04 #@! TD.AperFunction*
G04 #@! TA.AperFunction,SMDPad,CuDef*
G36*
X177518142Y-56077174D02*
G01*
X177541803Y-56080684D01*
X177565007Y-56086496D01*
X177587529Y-56094554D01*
X177609153Y-56104782D01*
X177629670Y-56117079D01*
X177648883Y-56131329D01*
X177666607Y-56147393D01*
X177682671Y-56165117D01*
X177696921Y-56184330D01*
X177709218Y-56204847D01*
X177719446Y-56226471D01*
X177727504Y-56248993D01*
X177733316Y-56272197D01*
X177736826Y-56295858D01*
X177738000Y-56319750D01*
X177738000Y-56807250D01*
X177736826Y-56831142D01*
X177733316Y-56854803D01*
X177727504Y-56878007D01*
X177719446Y-56900529D01*
X177709218Y-56922153D01*
X177696921Y-56942670D01*
X177682671Y-56961883D01*
X177666607Y-56979607D01*
X177648883Y-56995671D01*
X177629670Y-57009921D01*
X177609153Y-57022218D01*
X177587529Y-57032446D01*
X177565007Y-57040504D01*
X177541803Y-57046316D01*
X177518142Y-57049826D01*
X177494250Y-57051000D01*
X176581750Y-57051000D01*
X176557858Y-57049826D01*
X176534197Y-57046316D01*
X176510993Y-57040504D01*
X176488471Y-57032446D01*
X176466847Y-57022218D01*
X176446330Y-57009921D01*
X176427117Y-56995671D01*
X176409393Y-56979607D01*
X176393329Y-56961883D01*
X176379079Y-56942670D01*
X176366782Y-56922153D01*
X176356554Y-56900529D01*
X176348496Y-56878007D01*
X176342684Y-56854803D01*
X176339174Y-56831142D01*
X176338000Y-56807250D01*
X176338000Y-56319750D01*
X176339174Y-56295858D01*
X176342684Y-56272197D01*
X176348496Y-56248993D01*
X176356554Y-56226471D01*
X176366782Y-56204847D01*
X176379079Y-56184330D01*
X176393329Y-56165117D01*
X176409393Y-56147393D01*
X176427117Y-56131329D01*
X176446330Y-56117079D01*
X176466847Y-56104782D01*
X176488471Y-56094554D01*
X176510993Y-56086496D01*
X176534197Y-56080684D01*
X176557858Y-56077174D01*
X176581750Y-56076000D01*
X177494250Y-56076000D01*
X177518142Y-56077174D01*
G37*
G04 #@! TD.AperFunction*
G04 #@! TA.AperFunction,SMDPad,CuDef*
G36*
X177518142Y-54202174D02*
G01*
X177541803Y-54205684D01*
X177565007Y-54211496D01*
X177587529Y-54219554D01*
X177609153Y-54229782D01*
X177629670Y-54242079D01*
X177648883Y-54256329D01*
X177666607Y-54272393D01*
X177682671Y-54290117D01*
X177696921Y-54309330D01*
X177709218Y-54329847D01*
X177719446Y-54351471D01*
X177727504Y-54373993D01*
X177733316Y-54397197D01*
X177736826Y-54420858D01*
X177738000Y-54444750D01*
X177738000Y-54932250D01*
X177736826Y-54956142D01*
X177733316Y-54979803D01*
X177727504Y-55003007D01*
X177719446Y-55025529D01*
X177709218Y-55047153D01*
X177696921Y-55067670D01*
X177682671Y-55086883D01*
X177666607Y-55104607D01*
X177648883Y-55120671D01*
X177629670Y-55134921D01*
X177609153Y-55147218D01*
X177587529Y-55157446D01*
X177565007Y-55165504D01*
X177541803Y-55171316D01*
X177518142Y-55174826D01*
X177494250Y-55176000D01*
X176581750Y-55176000D01*
X176557858Y-55174826D01*
X176534197Y-55171316D01*
X176510993Y-55165504D01*
X176488471Y-55157446D01*
X176466847Y-55147218D01*
X176446330Y-55134921D01*
X176427117Y-55120671D01*
X176409393Y-55104607D01*
X176393329Y-55086883D01*
X176379079Y-55067670D01*
X176366782Y-55047153D01*
X176356554Y-55025529D01*
X176348496Y-55003007D01*
X176342684Y-54979803D01*
X176339174Y-54956142D01*
X176338000Y-54932250D01*
X176338000Y-54444750D01*
X176339174Y-54420858D01*
X176342684Y-54397197D01*
X176348496Y-54373993D01*
X176356554Y-54351471D01*
X176366782Y-54329847D01*
X176379079Y-54309330D01*
X176393329Y-54290117D01*
X176409393Y-54272393D01*
X176427117Y-54256329D01*
X176446330Y-54242079D01*
X176466847Y-54229782D01*
X176488471Y-54219554D01*
X176510993Y-54211496D01*
X176534197Y-54205684D01*
X176557858Y-54202174D01*
X176581750Y-54201000D01*
X177494250Y-54201000D01*
X177518142Y-54202174D01*
G37*
G04 #@! TD.AperFunction*
G04 #@! TA.AperFunction,SMDPad,CuDef*
G36*
X177518142Y-59887174D02*
G01*
X177541803Y-59890684D01*
X177565007Y-59896496D01*
X177587529Y-59904554D01*
X177609153Y-59914782D01*
X177629670Y-59927079D01*
X177648883Y-59941329D01*
X177666607Y-59957393D01*
X177682671Y-59975117D01*
X177696921Y-59994330D01*
X177709218Y-60014847D01*
X177719446Y-60036471D01*
X177727504Y-60058993D01*
X177733316Y-60082197D01*
X177736826Y-60105858D01*
X177738000Y-60129750D01*
X177738000Y-60617250D01*
X177736826Y-60641142D01*
X177733316Y-60664803D01*
X177727504Y-60688007D01*
X177719446Y-60710529D01*
X177709218Y-60732153D01*
X177696921Y-60752670D01*
X177682671Y-60771883D01*
X177666607Y-60789607D01*
X177648883Y-60805671D01*
X177629670Y-60819921D01*
X177609153Y-60832218D01*
X177587529Y-60842446D01*
X177565007Y-60850504D01*
X177541803Y-60856316D01*
X177518142Y-60859826D01*
X177494250Y-60861000D01*
X176581750Y-60861000D01*
X176557858Y-60859826D01*
X176534197Y-60856316D01*
X176510993Y-60850504D01*
X176488471Y-60842446D01*
X176466847Y-60832218D01*
X176446330Y-60819921D01*
X176427117Y-60805671D01*
X176409393Y-60789607D01*
X176393329Y-60771883D01*
X176379079Y-60752670D01*
X176366782Y-60732153D01*
X176356554Y-60710529D01*
X176348496Y-60688007D01*
X176342684Y-60664803D01*
X176339174Y-60641142D01*
X176338000Y-60617250D01*
X176338000Y-60129750D01*
X176339174Y-60105858D01*
X176342684Y-60082197D01*
X176348496Y-60058993D01*
X176356554Y-60036471D01*
X176366782Y-60014847D01*
X176379079Y-59994330D01*
X176393329Y-59975117D01*
X176409393Y-59957393D01*
X176427117Y-59941329D01*
X176446330Y-59927079D01*
X176466847Y-59914782D01*
X176488471Y-59904554D01*
X176510993Y-59896496D01*
X176534197Y-59890684D01*
X176557858Y-59887174D01*
X176581750Y-59886000D01*
X177494250Y-59886000D01*
X177518142Y-59887174D01*
G37*
G04 #@! TD.AperFunction*
G04 #@! TA.AperFunction,SMDPad,CuDef*
G36*
X177518142Y-58012174D02*
G01*
X177541803Y-58015684D01*
X177565007Y-58021496D01*
X177587529Y-58029554D01*
X177609153Y-58039782D01*
X177629670Y-58052079D01*
X177648883Y-58066329D01*
X177666607Y-58082393D01*
X177682671Y-58100117D01*
X177696921Y-58119330D01*
X177709218Y-58139847D01*
X177719446Y-58161471D01*
X177727504Y-58183993D01*
X177733316Y-58207197D01*
X177736826Y-58230858D01*
X177738000Y-58254750D01*
X177738000Y-58742250D01*
X177736826Y-58766142D01*
X177733316Y-58789803D01*
X177727504Y-58813007D01*
X177719446Y-58835529D01*
X177709218Y-58857153D01*
X177696921Y-58877670D01*
X177682671Y-58896883D01*
X177666607Y-58914607D01*
X177648883Y-58930671D01*
X177629670Y-58944921D01*
X177609153Y-58957218D01*
X177587529Y-58967446D01*
X177565007Y-58975504D01*
X177541803Y-58981316D01*
X177518142Y-58984826D01*
X177494250Y-58986000D01*
X176581750Y-58986000D01*
X176557858Y-58984826D01*
X176534197Y-58981316D01*
X176510993Y-58975504D01*
X176488471Y-58967446D01*
X176466847Y-58957218D01*
X176446330Y-58944921D01*
X176427117Y-58930671D01*
X176409393Y-58914607D01*
X176393329Y-58896883D01*
X176379079Y-58877670D01*
X176366782Y-58857153D01*
X176356554Y-58835529D01*
X176348496Y-58813007D01*
X176342684Y-58789803D01*
X176339174Y-58766142D01*
X176338000Y-58742250D01*
X176338000Y-58254750D01*
X176339174Y-58230858D01*
X176342684Y-58207197D01*
X176348496Y-58183993D01*
X176356554Y-58161471D01*
X176366782Y-58139847D01*
X176379079Y-58119330D01*
X176393329Y-58100117D01*
X176409393Y-58082393D01*
X176427117Y-58066329D01*
X176446330Y-58052079D01*
X176466847Y-58039782D01*
X176488471Y-58029554D01*
X176510993Y-58021496D01*
X176534197Y-58015684D01*
X176557858Y-58012174D01*
X176581750Y-58011000D01*
X177494250Y-58011000D01*
X177518142Y-58012174D01*
G37*
G04 #@! TD.AperFunction*
G04 #@! TA.AperFunction,SMDPad,CuDef*
G36*
X190218142Y-31947174D02*
G01*
X190241803Y-31950684D01*
X190265007Y-31956496D01*
X190287529Y-31964554D01*
X190309153Y-31974782D01*
X190329670Y-31987079D01*
X190348883Y-32001329D01*
X190366607Y-32017393D01*
X190382671Y-32035117D01*
X190396921Y-32054330D01*
X190409218Y-32074847D01*
X190419446Y-32096471D01*
X190427504Y-32118993D01*
X190433316Y-32142197D01*
X190436826Y-32165858D01*
X190438000Y-32189750D01*
X190438000Y-32677250D01*
X190436826Y-32701142D01*
X190433316Y-32724803D01*
X190427504Y-32748007D01*
X190419446Y-32770529D01*
X190409218Y-32792153D01*
X190396921Y-32812670D01*
X190382671Y-32831883D01*
X190366607Y-32849607D01*
X190348883Y-32865671D01*
X190329670Y-32879921D01*
X190309153Y-32892218D01*
X190287529Y-32902446D01*
X190265007Y-32910504D01*
X190241803Y-32916316D01*
X190218142Y-32919826D01*
X190194250Y-32921000D01*
X189281750Y-32921000D01*
X189257858Y-32919826D01*
X189234197Y-32916316D01*
X189210993Y-32910504D01*
X189188471Y-32902446D01*
X189166847Y-32892218D01*
X189146330Y-32879921D01*
X189127117Y-32865671D01*
X189109393Y-32849607D01*
X189093329Y-32831883D01*
X189079079Y-32812670D01*
X189066782Y-32792153D01*
X189056554Y-32770529D01*
X189048496Y-32748007D01*
X189042684Y-32724803D01*
X189039174Y-32701142D01*
X189038000Y-32677250D01*
X189038000Y-32189750D01*
X189039174Y-32165858D01*
X189042684Y-32142197D01*
X189048496Y-32118993D01*
X189056554Y-32096471D01*
X189066782Y-32074847D01*
X189079079Y-32054330D01*
X189093329Y-32035117D01*
X189109393Y-32017393D01*
X189127117Y-32001329D01*
X189146330Y-31987079D01*
X189166847Y-31974782D01*
X189188471Y-31964554D01*
X189210993Y-31956496D01*
X189234197Y-31950684D01*
X189257858Y-31947174D01*
X189281750Y-31946000D01*
X190194250Y-31946000D01*
X190218142Y-31947174D01*
G37*
G04 #@! TD.AperFunction*
G04 #@! TA.AperFunction,SMDPad,CuDef*
G36*
X190218142Y-30072174D02*
G01*
X190241803Y-30075684D01*
X190265007Y-30081496D01*
X190287529Y-30089554D01*
X190309153Y-30099782D01*
X190329670Y-30112079D01*
X190348883Y-30126329D01*
X190366607Y-30142393D01*
X190382671Y-30160117D01*
X190396921Y-30179330D01*
X190409218Y-30199847D01*
X190419446Y-30221471D01*
X190427504Y-30243993D01*
X190433316Y-30267197D01*
X190436826Y-30290858D01*
X190438000Y-30314750D01*
X190438000Y-30802250D01*
X190436826Y-30826142D01*
X190433316Y-30849803D01*
X190427504Y-30873007D01*
X190419446Y-30895529D01*
X190409218Y-30917153D01*
X190396921Y-30937670D01*
X190382671Y-30956883D01*
X190366607Y-30974607D01*
X190348883Y-30990671D01*
X190329670Y-31004921D01*
X190309153Y-31017218D01*
X190287529Y-31027446D01*
X190265007Y-31035504D01*
X190241803Y-31041316D01*
X190218142Y-31044826D01*
X190194250Y-31046000D01*
X189281750Y-31046000D01*
X189257858Y-31044826D01*
X189234197Y-31041316D01*
X189210993Y-31035504D01*
X189188471Y-31027446D01*
X189166847Y-31017218D01*
X189146330Y-31004921D01*
X189127117Y-30990671D01*
X189109393Y-30974607D01*
X189093329Y-30956883D01*
X189079079Y-30937670D01*
X189066782Y-30917153D01*
X189056554Y-30895529D01*
X189048496Y-30873007D01*
X189042684Y-30849803D01*
X189039174Y-30826142D01*
X189038000Y-30802250D01*
X189038000Y-30314750D01*
X189039174Y-30290858D01*
X189042684Y-30267197D01*
X189048496Y-30243993D01*
X189056554Y-30221471D01*
X189066782Y-30199847D01*
X189079079Y-30179330D01*
X189093329Y-30160117D01*
X189109393Y-30142393D01*
X189127117Y-30126329D01*
X189146330Y-30112079D01*
X189166847Y-30099782D01*
X189188471Y-30089554D01*
X189210993Y-30081496D01*
X189234197Y-30075684D01*
X189257858Y-30072174D01*
X189281750Y-30071000D01*
X190194250Y-30071000D01*
X190218142Y-30072174D01*
G37*
G04 #@! TD.AperFunction*
G04 #@! TA.AperFunction,SMDPad,CuDef*
G36*
X177518142Y-42772174D02*
G01*
X177541803Y-42775684D01*
X177565007Y-42781496D01*
X177587529Y-42789554D01*
X177609153Y-42799782D01*
X177629670Y-42812079D01*
X177648883Y-42826329D01*
X177666607Y-42842393D01*
X177682671Y-42860117D01*
X177696921Y-42879330D01*
X177709218Y-42899847D01*
X177719446Y-42921471D01*
X177727504Y-42943993D01*
X177733316Y-42967197D01*
X177736826Y-42990858D01*
X177738000Y-43014750D01*
X177738000Y-43502250D01*
X177736826Y-43526142D01*
X177733316Y-43549803D01*
X177727504Y-43573007D01*
X177719446Y-43595529D01*
X177709218Y-43617153D01*
X177696921Y-43637670D01*
X177682671Y-43656883D01*
X177666607Y-43674607D01*
X177648883Y-43690671D01*
X177629670Y-43704921D01*
X177609153Y-43717218D01*
X177587529Y-43727446D01*
X177565007Y-43735504D01*
X177541803Y-43741316D01*
X177518142Y-43744826D01*
X177494250Y-43746000D01*
X176581750Y-43746000D01*
X176557858Y-43744826D01*
X176534197Y-43741316D01*
X176510993Y-43735504D01*
X176488471Y-43727446D01*
X176466847Y-43717218D01*
X176446330Y-43704921D01*
X176427117Y-43690671D01*
X176409393Y-43674607D01*
X176393329Y-43656883D01*
X176379079Y-43637670D01*
X176366782Y-43617153D01*
X176356554Y-43595529D01*
X176348496Y-43573007D01*
X176342684Y-43549803D01*
X176339174Y-43526142D01*
X176338000Y-43502250D01*
X176338000Y-43014750D01*
X176339174Y-42990858D01*
X176342684Y-42967197D01*
X176348496Y-42943993D01*
X176356554Y-42921471D01*
X176366782Y-42899847D01*
X176379079Y-42879330D01*
X176393329Y-42860117D01*
X176409393Y-42842393D01*
X176427117Y-42826329D01*
X176446330Y-42812079D01*
X176466847Y-42799782D01*
X176488471Y-42789554D01*
X176510993Y-42781496D01*
X176534197Y-42775684D01*
X176557858Y-42772174D01*
X176581750Y-42771000D01*
X177494250Y-42771000D01*
X177518142Y-42772174D01*
G37*
G04 #@! TD.AperFunction*
G04 #@! TA.AperFunction,SMDPad,CuDef*
G36*
X177518142Y-44647174D02*
G01*
X177541803Y-44650684D01*
X177565007Y-44656496D01*
X177587529Y-44664554D01*
X177609153Y-44674782D01*
X177629670Y-44687079D01*
X177648883Y-44701329D01*
X177666607Y-44717393D01*
X177682671Y-44735117D01*
X177696921Y-44754330D01*
X177709218Y-44774847D01*
X177719446Y-44796471D01*
X177727504Y-44818993D01*
X177733316Y-44842197D01*
X177736826Y-44865858D01*
X177738000Y-44889750D01*
X177738000Y-45377250D01*
X177736826Y-45401142D01*
X177733316Y-45424803D01*
X177727504Y-45448007D01*
X177719446Y-45470529D01*
X177709218Y-45492153D01*
X177696921Y-45512670D01*
X177682671Y-45531883D01*
X177666607Y-45549607D01*
X177648883Y-45565671D01*
X177629670Y-45579921D01*
X177609153Y-45592218D01*
X177587529Y-45602446D01*
X177565007Y-45610504D01*
X177541803Y-45616316D01*
X177518142Y-45619826D01*
X177494250Y-45621000D01*
X176581750Y-45621000D01*
X176557858Y-45619826D01*
X176534197Y-45616316D01*
X176510993Y-45610504D01*
X176488471Y-45602446D01*
X176466847Y-45592218D01*
X176446330Y-45579921D01*
X176427117Y-45565671D01*
X176409393Y-45549607D01*
X176393329Y-45531883D01*
X176379079Y-45512670D01*
X176366782Y-45492153D01*
X176356554Y-45470529D01*
X176348496Y-45448007D01*
X176342684Y-45424803D01*
X176339174Y-45401142D01*
X176338000Y-45377250D01*
X176338000Y-44889750D01*
X176339174Y-44865858D01*
X176342684Y-44842197D01*
X176348496Y-44818993D01*
X176356554Y-44796471D01*
X176366782Y-44774847D01*
X176379079Y-44754330D01*
X176393329Y-44735117D01*
X176409393Y-44717393D01*
X176427117Y-44701329D01*
X176446330Y-44687079D01*
X176466847Y-44674782D01*
X176488471Y-44664554D01*
X176510993Y-44656496D01*
X176534197Y-44650684D01*
X176557858Y-44647174D01*
X176581750Y-44646000D01*
X177494250Y-44646000D01*
X177518142Y-44647174D01*
G37*
G04 #@! TD.AperFunction*
G04 #@! TA.AperFunction,SMDPad,CuDef*
G36*
X177518142Y-31947174D02*
G01*
X177541803Y-31950684D01*
X177565007Y-31956496D01*
X177587529Y-31964554D01*
X177609153Y-31974782D01*
X177629670Y-31987079D01*
X177648883Y-32001329D01*
X177666607Y-32017393D01*
X177682671Y-32035117D01*
X177696921Y-32054330D01*
X177709218Y-32074847D01*
X177719446Y-32096471D01*
X177727504Y-32118993D01*
X177733316Y-32142197D01*
X177736826Y-32165858D01*
X177738000Y-32189750D01*
X177738000Y-32677250D01*
X177736826Y-32701142D01*
X177733316Y-32724803D01*
X177727504Y-32748007D01*
X177719446Y-32770529D01*
X177709218Y-32792153D01*
X177696921Y-32812670D01*
X177682671Y-32831883D01*
X177666607Y-32849607D01*
X177648883Y-32865671D01*
X177629670Y-32879921D01*
X177609153Y-32892218D01*
X177587529Y-32902446D01*
X177565007Y-32910504D01*
X177541803Y-32916316D01*
X177518142Y-32919826D01*
X177494250Y-32921000D01*
X176581750Y-32921000D01*
X176557858Y-32919826D01*
X176534197Y-32916316D01*
X176510993Y-32910504D01*
X176488471Y-32902446D01*
X176466847Y-32892218D01*
X176446330Y-32879921D01*
X176427117Y-32865671D01*
X176409393Y-32849607D01*
X176393329Y-32831883D01*
X176379079Y-32812670D01*
X176366782Y-32792153D01*
X176356554Y-32770529D01*
X176348496Y-32748007D01*
X176342684Y-32724803D01*
X176339174Y-32701142D01*
X176338000Y-32677250D01*
X176338000Y-32189750D01*
X176339174Y-32165858D01*
X176342684Y-32142197D01*
X176348496Y-32118993D01*
X176356554Y-32096471D01*
X176366782Y-32074847D01*
X176379079Y-32054330D01*
X176393329Y-32035117D01*
X176409393Y-32017393D01*
X176427117Y-32001329D01*
X176446330Y-31987079D01*
X176466847Y-31974782D01*
X176488471Y-31964554D01*
X176510993Y-31956496D01*
X176534197Y-31950684D01*
X176557858Y-31947174D01*
X176581750Y-31946000D01*
X177494250Y-31946000D01*
X177518142Y-31947174D01*
G37*
G04 #@! TD.AperFunction*
G04 #@! TA.AperFunction,SMDPad,CuDef*
G36*
X177518142Y-30072174D02*
G01*
X177541803Y-30075684D01*
X177565007Y-30081496D01*
X177587529Y-30089554D01*
X177609153Y-30099782D01*
X177629670Y-30112079D01*
X177648883Y-30126329D01*
X177666607Y-30142393D01*
X177682671Y-30160117D01*
X177696921Y-30179330D01*
X177709218Y-30199847D01*
X177719446Y-30221471D01*
X177727504Y-30243993D01*
X177733316Y-30267197D01*
X177736826Y-30290858D01*
X177738000Y-30314750D01*
X177738000Y-30802250D01*
X177736826Y-30826142D01*
X177733316Y-30849803D01*
X177727504Y-30873007D01*
X177719446Y-30895529D01*
X177709218Y-30917153D01*
X177696921Y-30937670D01*
X177682671Y-30956883D01*
X177666607Y-30974607D01*
X177648883Y-30990671D01*
X177629670Y-31004921D01*
X177609153Y-31017218D01*
X177587529Y-31027446D01*
X177565007Y-31035504D01*
X177541803Y-31041316D01*
X177518142Y-31044826D01*
X177494250Y-31046000D01*
X176581750Y-31046000D01*
X176557858Y-31044826D01*
X176534197Y-31041316D01*
X176510993Y-31035504D01*
X176488471Y-31027446D01*
X176466847Y-31017218D01*
X176446330Y-31004921D01*
X176427117Y-30990671D01*
X176409393Y-30974607D01*
X176393329Y-30956883D01*
X176379079Y-30937670D01*
X176366782Y-30917153D01*
X176356554Y-30895529D01*
X176348496Y-30873007D01*
X176342684Y-30849803D01*
X176339174Y-30826142D01*
X176338000Y-30802250D01*
X176338000Y-30314750D01*
X176339174Y-30290858D01*
X176342684Y-30267197D01*
X176348496Y-30243993D01*
X176356554Y-30221471D01*
X176366782Y-30199847D01*
X176379079Y-30179330D01*
X176393329Y-30160117D01*
X176409393Y-30142393D01*
X176427117Y-30126329D01*
X176446330Y-30112079D01*
X176466847Y-30099782D01*
X176488471Y-30089554D01*
X176510993Y-30081496D01*
X176534197Y-30075684D01*
X176557858Y-30072174D01*
X176581750Y-30071000D01*
X177494250Y-30071000D01*
X177518142Y-30072174D01*
G37*
G04 #@! TD.AperFunction*
G04 #@! TA.AperFunction,SMDPad,CuDef*
G36*
X177518142Y-35757174D02*
G01*
X177541803Y-35760684D01*
X177565007Y-35766496D01*
X177587529Y-35774554D01*
X177609153Y-35784782D01*
X177629670Y-35797079D01*
X177648883Y-35811329D01*
X177666607Y-35827393D01*
X177682671Y-35845117D01*
X177696921Y-35864330D01*
X177709218Y-35884847D01*
X177719446Y-35906471D01*
X177727504Y-35928993D01*
X177733316Y-35952197D01*
X177736826Y-35975858D01*
X177738000Y-35999750D01*
X177738000Y-36487250D01*
X177736826Y-36511142D01*
X177733316Y-36534803D01*
X177727504Y-36558007D01*
X177719446Y-36580529D01*
X177709218Y-36602153D01*
X177696921Y-36622670D01*
X177682671Y-36641883D01*
X177666607Y-36659607D01*
X177648883Y-36675671D01*
X177629670Y-36689921D01*
X177609153Y-36702218D01*
X177587529Y-36712446D01*
X177565007Y-36720504D01*
X177541803Y-36726316D01*
X177518142Y-36729826D01*
X177494250Y-36731000D01*
X176581750Y-36731000D01*
X176557858Y-36729826D01*
X176534197Y-36726316D01*
X176510993Y-36720504D01*
X176488471Y-36712446D01*
X176466847Y-36702218D01*
X176446330Y-36689921D01*
X176427117Y-36675671D01*
X176409393Y-36659607D01*
X176393329Y-36641883D01*
X176379079Y-36622670D01*
X176366782Y-36602153D01*
X176356554Y-36580529D01*
X176348496Y-36558007D01*
X176342684Y-36534803D01*
X176339174Y-36511142D01*
X176338000Y-36487250D01*
X176338000Y-35999750D01*
X176339174Y-35975858D01*
X176342684Y-35952197D01*
X176348496Y-35928993D01*
X176356554Y-35906471D01*
X176366782Y-35884847D01*
X176379079Y-35864330D01*
X176393329Y-35845117D01*
X176409393Y-35827393D01*
X176427117Y-35811329D01*
X176446330Y-35797079D01*
X176466847Y-35784782D01*
X176488471Y-35774554D01*
X176510993Y-35766496D01*
X176534197Y-35760684D01*
X176557858Y-35757174D01*
X176581750Y-35756000D01*
X177494250Y-35756000D01*
X177518142Y-35757174D01*
G37*
G04 #@! TD.AperFunction*
G04 #@! TA.AperFunction,SMDPad,CuDef*
G36*
X177518142Y-33882174D02*
G01*
X177541803Y-33885684D01*
X177565007Y-33891496D01*
X177587529Y-33899554D01*
X177609153Y-33909782D01*
X177629670Y-33922079D01*
X177648883Y-33936329D01*
X177666607Y-33952393D01*
X177682671Y-33970117D01*
X177696921Y-33989330D01*
X177709218Y-34009847D01*
X177719446Y-34031471D01*
X177727504Y-34053993D01*
X177733316Y-34077197D01*
X177736826Y-34100858D01*
X177738000Y-34124750D01*
X177738000Y-34612250D01*
X177736826Y-34636142D01*
X177733316Y-34659803D01*
X177727504Y-34683007D01*
X177719446Y-34705529D01*
X177709218Y-34727153D01*
X177696921Y-34747670D01*
X177682671Y-34766883D01*
X177666607Y-34784607D01*
X177648883Y-34800671D01*
X177629670Y-34814921D01*
X177609153Y-34827218D01*
X177587529Y-34837446D01*
X177565007Y-34845504D01*
X177541803Y-34851316D01*
X177518142Y-34854826D01*
X177494250Y-34856000D01*
X176581750Y-34856000D01*
X176557858Y-34854826D01*
X176534197Y-34851316D01*
X176510993Y-34845504D01*
X176488471Y-34837446D01*
X176466847Y-34827218D01*
X176446330Y-34814921D01*
X176427117Y-34800671D01*
X176409393Y-34784607D01*
X176393329Y-34766883D01*
X176379079Y-34747670D01*
X176366782Y-34727153D01*
X176356554Y-34705529D01*
X176348496Y-34683007D01*
X176342684Y-34659803D01*
X176339174Y-34636142D01*
X176338000Y-34612250D01*
X176338000Y-34124750D01*
X176339174Y-34100858D01*
X176342684Y-34077197D01*
X176348496Y-34053993D01*
X176356554Y-34031471D01*
X176366782Y-34009847D01*
X176379079Y-33989330D01*
X176393329Y-33970117D01*
X176409393Y-33952393D01*
X176427117Y-33936329D01*
X176446330Y-33922079D01*
X176466847Y-33909782D01*
X176488471Y-33899554D01*
X176510993Y-33891496D01*
X176534197Y-33885684D01*
X176557858Y-33882174D01*
X176581750Y-33881000D01*
X177494250Y-33881000D01*
X177518142Y-33882174D01*
G37*
G04 #@! TD.AperFunction*
G04 #@! TA.AperFunction,SMDPad,CuDef*
G36*
X94253143Y-63776175D02*
G01*
X94276804Y-63779685D01*
X94300008Y-63785497D01*
X94322530Y-63793555D01*
X94344154Y-63803783D01*
X94364671Y-63816080D01*
X94383884Y-63830330D01*
X94401608Y-63846394D01*
X94417672Y-63864118D01*
X94431922Y-63883331D01*
X94444219Y-63903848D01*
X94454447Y-63925472D01*
X94462505Y-63947994D01*
X94468317Y-63971198D01*
X94471827Y-63994859D01*
X94473001Y-64018751D01*
X94473001Y-64931251D01*
X94471827Y-64955143D01*
X94468317Y-64978804D01*
X94462505Y-65002008D01*
X94454447Y-65024530D01*
X94444219Y-65046154D01*
X94431922Y-65066671D01*
X94417672Y-65085884D01*
X94401608Y-65103608D01*
X94383884Y-65119672D01*
X94364671Y-65133922D01*
X94344154Y-65146219D01*
X94322530Y-65156447D01*
X94300008Y-65164505D01*
X94276804Y-65170317D01*
X94253143Y-65173827D01*
X94229251Y-65175001D01*
X93741751Y-65175001D01*
X93717859Y-65173827D01*
X93694198Y-65170317D01*
X93670994Y-65164505D01*
X93648472Y-65156447D01*
X93626848Y-65146219D01*
X93606331Y-65133922D01*
X93587118Y-65119672D01*
X93569394Y-65103608D01*
X93553330Y-65085884D01*
X93539080Y-65066671D01*
X93526783Y-65046154D01*
X93516555Y-65024530D01*
X93508497Y-65002008D01*
X93502685Y-64978804D01*
X93499175Y-64955143D01*
X93498001Y-64931251D01*
X93498001Y-64018751D01*
X93499175Y-63994859D01*
X93502685Y-63971198D01*
X93508497Y-63947994D01*
X93516555Y-63925472D01*
X93526783Y-63903848D01*
X93539080Y-63883331D01*
X93553330Y-63864118D01*
X93569394Y-63846394D01*
X93587118Y-63830330D01*
X93606331Y-63816080D01*
X93626848Y-63803783D01*
X93648472Y-63793555D01*
X93670994Y-63785497D01*
X93694198Y-63779685D01*
X93717859Y-63776175D01*
X93741751Y-63775001D01*
X94229251Y-63775001D01*
X94253143Y-63776175D01*
G37*
G04 #@! TD.AperFunction*
G04 #@! TA.AperFunction,SMDPad,CuDef*
G36*
X96128143Y-63776175D02*
G01*
X96151804Y-63779685D01*
X96175008Y-63785497D01*
X96197530Y-63793555D01*
X96219154Y-63803783D01*
X96239671Y-63816080D01*
X96258884Y-63830330D01*
X96276608Y-63846394D01*
X96292672Y-63864118D01*
X96306922Y-63883331D01*
X96319219Y-63903848D01*
X96329447Y-63925472D01*
X96337505Y-63947994D01*
X96343317Y-63971198D01*
X96346827Y-63994859D01*
X96348001Y-64018751D01*
X96348001Y-64931251D01*
X96346827Y-64955143D01*
X96343317Y-64978804D01*
X96337505Y-65002008D01*
X96329447Y-65024530D01*
X96319219Y-65046154D01*
X96306922Y-65066671D01*
X96292672Y-65085884D01*
X96276608Y-65103608D01*
X96258884Y-65119672D01*
X96239671Y-65133922D01*
X96219154Y-65146219D01*
X96197530Y-65156447D01*
X96175008Y-65164505D01*
X96151804Y-65170317D01*
X96128143Y-65173827D01*
X96104251Y-65175001D01*
X95616751Y-65175001D01*
X95592859Y-65173827D01*
X95569198Y-65170317D01*
X95545994Y-65164505D01*
X95523472Y-65156447D01*
X95501848Y-65146219D01*
X95481331Y-65133922D01*
X95462118Y-65119672D01*
X95444394Y-65103608D01*
X95428330Y-65085884D01*
X95414080Y-65066671D01*
X95401783Y-65046154D01*
X95391555Y-65024530D01*
X95383497Y-65002008D01*
X95377685Y-64978804D01*
X95374175Y-64955143D01*
X95373001Y-64931251D01*
X95373001Y-64018751D01*
X95374175Y-63994859D01*
X95377685Y-63971198D01*
X95383497Y-63947994D01*
X95391555Y-63925472D01*
X95401783Y-63903848D01*
X95414080Y-63883331D01*
X95428330Y-63864118D01*
X95444394Y-63846394D01*
X95462118Y-63830330D01*
X95481331Y-63816080D01*
X95501848Y-63803783D01*
X95523472Y-63793555D01*
X95545994Y-63785497D01*
X95569198Y-63779685D01*
X95592859Y-63776175D01*
X95616751Y-63775001D01*
X96104251Y-63775001D01*
X96128143Y-63776175D01*
G37*
G04 #@! TD.AperFunction*
D20*
X83058000Y-47752000D03*
X83312000Y-62230000D03*
X91548999Y-61976000D03*
X91548999Y-58420000D03*
X91548999Y-42164000D03*
X89154000Y-42164000D03*
X91694000Y-25908000D03*
X113538000Y-25908000D03*
X187198000Y-25908000D03*
X157060001Y-25819999D03*
X132080000Y-63246000D03*
X131572000Y-85344000D03*
X126238000Y-85344000D03*
X171615999Y-25819999D03*
X141224000Y-85344000D03*
X90678000Y-96774000D03*
X171938001Y-80029999D03*
X93897991Y-62230000D03*
X82804000Y-97282000D03*
X82804000Y-110998000D03*
X147828000Y-63500000D03*
X181102000Y-30480000D03*
X181356000Y-54610000D03*
X142748000Y-25908000D03*
X43688000Y-25908000D03*
X69342000Y-62230000D03*
X106426000Y-25908000D03*
X109728000Y-25908000D03*
X132080000Y-25908000D03*
X69151916Y-68302665D03*
X47207000Y-50546000D03*
X47244000Y-70104000D03*
X68237999Y-45300001D03*
X183388000Y-82550000D03*
X69088000Y-122174000D03*
X194133989Y-122350011D03*
X113538000Y-105918000D03*
X113755000Y-55880000D03*
X86785199Y-54503001D03*
X113030000Y-82550000D03*
X163830000Y-82550000D03*
X163830000Y-76200000D03*
X46346001Y-46482000D03*
X46346001Y-38354000D03*
X46482000Y-75184000D03*
X122676777Y-61454062D03*
X122682000Y-66294000D03*
X118618000Y-68580000D03*
X127254000Y-58928000D03*
X127000000Y-43180000D03*
X115658000Y-59182000D03*
X115570000Y-45720000D03*
X128995000Y-57150000D03*
X128995000Y-48260000D03*
X118618000Y-52832000D03*
X122174000Y-53848000D03*
X122174000Y-55880000D03*
X123661000Y-55118000D03*
X122594000Y-51562000D03*
X122936000Y-60452000D03*
X121412000Y-50546000D03*
X121915582Y-64511581D03*
X49758174Y-124739826D03*
X183845200Y-47040800D03*
X182854600Y-126224069D03*
X49022000Y-89662000D03*
X49784000Y-122174000D03*
X61468000Y-122428000D03*
X62226405Y-125286813D03*
X194114306Y-125024039D03*
X198120000Y-45720000D03*
X60290839Y-125677272D03*
X192024000Y-125824059D03*
X191262000Y-59690000D03*
X49530000Y-93472000D03*
X50546000Y-119634000D03*
X62160785Y-119634000D03*
X62237681Y-124286875D03*
X197358000Y-123952000D03*
X197358000Y-35560000D03*
X48656309Y-96843960D03*
X61190670Y-125241029D03*
X193170318Y-125424049D03*
X192278000Y-38100000D03*
X49907999Y-95504000D03*
X50546000Y-117094000D03*
X62608000Y-117094000D03*
X64428204Y-124224019D03*
X196220535Y-124025303D03*
X196596000Y-62230000D03*
X149098000Y-73660000D03*
X141732000Y-73660000D03*
X138807997Y-73660000D03*
X135890000Y-73660000D03*
X135890000Y-68072000D03*
X146558000Y-76200000D03*
X149352000Y-43180000D03*
X137377000Y-54356000D03*
X137377000Y-45757000D03*
X143137999Y-50546000D03*
X143137999Y-48260000D03*
X142412999Y-49276000D03*
X143002000Y-53340000D03*
X146299347Y-48825999D03*
X146304000Y-45212000D03*
X141732000Y-45212000D03*
X150114000Y-46736000D03*
X150114000Y-61380000D03*
X144018000Y-61468000D03*
X143257249Y-58570171D03*
X136652000Y-46990000D03*
X136652000Y-60960000D03*
X76200000Y-63246000D03*
X71628000Y-52070000D03*
X101600000Y-65278000D03*
X101600000Y-55880000D03*
X101854000Y-68580000D03*
X129794000Y-68834000D03*
X129794000Y-71120000D03*
X151384000Y-71374000D03*
X151384000Y-38100000D03*
X74713000Y-108712000D03*
X74422000Y-65786000D03*
X74419249Y-78667999D03*
X95504000Y-70612000D03*
X99822000Y-70612000D03*
X123190000Y-70358000D03*
X123444000Y-78232000D03*
X166878000Y-78232000D03*
X188976000Y-78232000D03*
X189484000Y-105410000D03*
X166624000Y-105410000D03*
X65566999Y-69342000D03*
X65532000Y-39624000D03*
X75438000Y-118872000D03*
X75184000Y-68072000D03*
X96266000Y-68072000D03*
X97028000Y-39370000D03*
X75438000Y-91694000D03*
X122174000Y-71628000D03*
X122682000Y-78994000D03*
X166900652Y-97767348D03*
X188214000Y-78994000D03*
X188722000Y-97790000D03*
X166302503Y-79074159D03*
X64841999Y-72136000D03*
X64516000Y-42164000D03*
X76708000Y-116078000D03*
X76200000Y-69088000D03*
X76454000Y-82042000D03*
X120904000Y-74168000D03*
X120904000Y-79793000D03*
X165571000Y-79756000D03*
X165608000Y-95250000D03*
X72898000Y-76200000D03*
X69342000Y-76454000D03*
X64116999Y-76454000D03*
X64008000Y-44704000D03*
X89662000Y-77978000D03*
X89299001Y-81788000D03*
X104140000Y-80518000D03*
X107064003Y-80518000D03*
X148844000Y-80518000D03*
X149352000Y-92710000D03*
X72644000Y-77978000D03*
X69088000Y-78232000D03*
X62992000Y-78232000D03*
X63315000Y-47752000D03*
X90424000Y-80772000D03*
X90061001Y-84582000D03*
X104140000Y-82550000D03*
X106963870Y-82538052D03*
X148082000Y-83058000D03*
X148262000Y-95250000D03*
X72390000Y-81026000D03*
X69596000Y-81026000D03*
X58891000Y-81026000D03*
X58928000Y-49784000D03*
X91186000Y-83312000D03*
X90969000Y-86614000D03*
X100621000Y-85598000D03*
X100584000Y-84328000D03*
X147537000Y-84074000D03*
X147574000Y-97790000D03*
X73152000Y-84074000D03*
X69769179Y-83864901D03*
X58614724Y-84037000D03*
X58166000Y-52236000D03*
X77978000Y-105918000D03*
X77978000Y-120396000D03*
X115316000Y-120396000D03*
X115099000Y-102870000D03*
X115316000Y-115604001D03*
X121666000Y-102870000D03*
X121666000Y-76200000D03*
X108458000Y-76127999D03*
X108458000Y-33020000D03*
X162052000Y-75946000D03*
X161798000Y-27940000D03*
X67310000Y-95504000D03*
X67310000Y-106172000D03*
X91694000Y-85598000D03*
X91694000Y-88138000D03*
X101346000Y-88138000D03*
X101346000Y-81788000D03*
X146812000Y-81788000D03*
X146812000Y-100330000D03*
X167894000Y-100838000D03*
X170717870Y-100849948D03*
X57150000Y-54864000D03*
X57658000Y-84328000D03*
X109474000Y-102616000D03*
X109474000Y-100330000D03*
X170942000Y-112776000D03*
X167894000Y-112776000D03*
X147865000Y-112776000D03*
X147574000Y-103886000D03*
X121158000Y-103886000D03*
X120904000Y-100330000D03*
X129540000Y-103886000D03*
X129286000Y-73660000D03*
X113030000Y-72898000D03*
X112884999Y-35560000D03*
X166624000Y-74676000D03*
X166878000Y-27940000D03*
X66802000Y-92964000D03*
X66585000Y-103378000D03*
X87884000Y-119470000D03*
X150692051Y-119426701D03*
X151130000Y-102870000D03*
X171958000Y-102108000D03*
X173486653Y-102874653D03*
X56388000Y-57404000D03*
X56896000Y-86614000D03*
X77253000Y-101092000D03*
X77216000Y-64770000D03*
X90424000Y-64770000D03*
X90678000Y-35560000D03*
X123698000Y-36576000D03*
X162814000Y-36068000D03*
X163068000Y-110490000D03*
X162814000Y-81026000D03*
X186436000Y-81026000D03*
X186907000Y-110490000D03*
X77216000Y-109982000D03*
X87376000Y-117602000D03*
X149860000Y-118872000D03*
X150114000Y-105410000D03*
X55880000Y-59944000D03*
X55880000Y-89662000D03*
X77978000Y-98552000D03*
X77978000Y-104648000D03*
X120650000Y-105410000D03*
X120904000Y-118110000D03*
X111760000Y-104648000D03*
X122428000Y-30480000D03*
X122428000Y-27940000D03*
X162196999Y-119524999D03*
X161327000Y-30334001D03*
X94622991Y-93472000D03*
X94742000Y-67310000D03*
X109183000Y-67310000D03*
X94996000Y-116930000D03*
X149352000Y-117348000D03*
X149352000Y-107950000D03*
X109474000Y-46990000D03*
X133858000Y-46990000D03*
X135636000Y-44450000D03*
X135636000Y-40640000D03*
X53848000Y-62484000D03*
X53848000Y-94234000D03*
X93897991Y-95758000D03*
X94234000Y-114046000D03*
X148590000Y-114046000D03*
X148590000Y-110490000D03*
X174244000Y-110490000D03*
X93980000Y-66548000D03*
X107696000Y-66548000D03*
X107696000Y-53340000D03*
X113792000Y-53340000D03*
X113792000Y-38100000D03*
X137922000Y-38100000D03*
X142240000Y-38100000D03*
X167386000Y-38100000D03*
X167386000Y-45720000D03*
X148590000Y-116332000D03*
X168148000Y-117094000D03*
X170688000Y-117094000D03*
X174244000Y-116840000D03*
X78740000Y-93218000D03*
X78414001Y-64008000D03*
X89916000Y-63754000D03*
X89916000Y-33020000D03*
X78740000Y-112522000D03*
X78740000Y-107442000D03*
X79539000Y-90932000D03*
X79139001Y-31496000D03*
X79539000Y-115279000D03*
X79465000Y-103886000D03*
X80264000Y-88138000D03*
X80301000Y-107950000D03*
X118618000Y-120650000D03*
X79901001Y-28702000D03*
X147066000Y-27395000D03*
X147066000Y-30480000D03*
X80264000Y-99568000D03*
X93218000Y-103378000D03*
X93218000Y-60960000D03*
X103886000Y-60960000D03*
X103886000Y-44450000D03*
X133350000Y-44450000D03*
X133350000Y-35560000D03*
X151892000Y-35560000D03*
X152146000Y-45720000D03*
X93172991Y-72943009D03*
X81026000Y-85344000D03*
X81026000Y-109728000D03*
X80772000Y-27940000D03*
X165862000Y-26670000D03*
X160926999Y-109364999D03*
X161036000Y-118110000D03*
X186182000Y-109474000D03*
X186182000Y-118110000D03*
X165862000Y-33020000D03*
X81026000Y-101654999D03*
X81788000Y-82804000D03*
X81534000Y-62992000D03*
X110998000Y-67310000D03*
X156464000Y-67564000D03*
X54864000Y-77724000D03*
X54864000Y-83312000D03*
X99314000Y-78994000D03*
X118618000Y-79756000D03*
X118618000Y-101346000D03*
X59690000Y-80264000D03*
X59690000Y-26924000D03*
X115824000Y-77724000D03*
X116078000Y-106680000D03*
X60415000Y-29464000D03*
X60415000Y-77179000D03*
X82550000Y-75692000D03*
X82550000Y-91948000D03*
X135708001Y-91948000D03*
X61140000Y-75438000D03*
X61140000Y-32078000D03*
X114300000Y-116332000D03*
X114300000Y-85090000D03*
X187706000Y-90170000D03*
X65024000Y-85344000D03*
X64915001Y-115824000D03*
X150077000Y-84658200D03*
X150063200Y-69850000D03*
X173888011Y-70129400D03*
X173913800Y-75742800D03*
X187680600Y-75742800D03*
X83312000Y-72898000D03*
X83312000Y-89662000D03*
X134874000Y-89154000D03*
X61865000Y-72898000D03*
X61865000Y-34544000D03*
X92456000Y-118872000D03*
X92456000Y-40894000D03*
X164846000Y-41656000D03*
X164846000Y-48260000D03*
X66040000Y-87884000D03*
X65532000Y-117856000D03*
X173990000Y-49530000D03*
X172694600Y-101055000D03*
X84074000Y-70612000D03*
X84074000Y-99568000D03*
X62590000Y-70358000D03*
X62590000Y-37084000D03*
X126297687Y-70410104D03*
X122428000Y-69596000D03*
X97536000Y-68072000D03*
X97608001Y-53340000D03*
X104902000Y-45720000D03*
X104902000Y-65532000D03*
X169075653Y-65024000D03*
X152146000Y-60960000D03*
X152400000Y-72136000D03*
X114046000Y-70866000D03*
X113792000Y-64770000D03*
X100838000Y-64262000D03*
X100838000Y-43180000D03*
X109982000Y-72898000D03*
X128270000Y-35560000D03*
X128524000Y-74676000D03*
X153416000Y-72898000D03*
X153416000Y-40640000D03*
X185420000Y-73660000D03*
X185762000Y-64770000D03*
X184150000Y-71120000D03*
X184062000Y-48260000D03*
X167625653Y-68580000D03*
X167386000Y-52070000D03*
X185762000Y-52070000D03*
X119634000Y-78486000D03*
X119888000Y-81280000D03*
X168350653Y-79756000D03*
X168402000Y-40640000D03*
X114808000Y-81063000D03*
X115062000Y-87630000D03*
X101854000Y-93218000D03*
X102616000Y-49530000D03*
X163830000Y-94560001D03*
X163830000Y-107950000D03*
X89154000Y-53086000D03*
X88826001Y-94234000D03*
X101854000Y-94488000D03*
X101854000Y-103378000D03*
X119380000Y-103886000D03*
X119763109Y-120769804D03*
X168017997Y-120650000D03*
X171512338Y-120587662D03*
X187706000Y-119380000D03*
X187960000Y-107950000D03*
X145796000Y-92710000D03*
X145796000Y-88900000D03*
X157556200Y-88646001D03*
X157607000Y-90398600D03*
X143002000Y-90170000D03*
X143263759Y-87531355D03*
X155473400Y-89625000D03*
X152781000Y-88175000D03*
X128524000Y-100330000D03*
X128524000Y-96520000D03*
X161471999Y-96520000D03*
X161471999Y-81821154D03*
X176530000Y-81788000D03*
X132516359Y-103270001D03*
X135230815Y-103144563D03*
X132080000Y-105410000D03*
X135636000Y-107950000D03*
X137668000Y-107950000D03*
X137668000Y-111252000D03*
X130302000Y-110490000D03*
X130302000Y-100330000D03*
X139192000Y-110236000D03*
X139196653Y-106929347D03*
X155956000Y-106680000D03*
X156210000Y-113719999D03*
X173482000Y-113792000D03*
X173482000Y-106680000D03*
X190754000Y-106680000D03*
X191008000Y-92710000D03*
X167386000Y-103886000D03*
X170942000Y-103886000D03*
X190209000Y-104140000D03*
X190246000Y-85090000D03*
X144780000Y-101600000D03*
X144780000Y-86360000D03*
X180238400Y-86385400D03*
X180238400Y-90170000D03*
X141300200Y-126624079D03*
X183854603Y-126224069D03*
X183845200Y-87604600D03*
X131572000Y-97790000D03*
X131572000Y-95250000D03*
X90678000Y-98298000D03*
X98044000Y-113284000D03*
X127508000Y-113030000D03*
X128658010Y-76322012D03*
X134620000Y-76200000D03*
X134620000Y-69850000D03*
X145288000Y-69850000D03*
X145288000Y-62484000D03*
X160528000Y-62230000D03*
X160528000Y-50800000D03*
X123444000Y-49530000D03*
X107442000Y-49530000D03*
X107442000Y-38100000D03*
X114554000Y-49530000D03*
X86614000Y-38100000D03*
X84074000Y-50038000D03*
X158745347Y-120654653D03*
X136652000Y-97790000D03*
X136144000Y-113030000D03*
X122936000Y-113284000D03*
X107442000Y-29210000D03*
X112014000Y-29210000D03*
X93980000Y-37846000D03*
X158496000Y-83820000D03*
X157226000Y-50800000D03*
X184912000Y-50800000D03*
X177038000Y-50800000D03*
X175514000Y-83820000D03*
X170688000Y-83820000D03*
X184912000Y-57150000D03*
X184912000Y-68580000D03*
X178308000Y-68580000D03*
X84074000Y-53848000D03*
X69850000Y-53086000D03*
X66802000Y-67310000D03*
X66802000Y-53086000D03*
X175514000Y-79502000D03*
X180086000Y-79502000D03*
X181457600Y-120497600D03*
X50608000Y-78740000D03*
X51054000Y-114554000D03*
X63308000Y-114808000D03*
X63560786Y-123576429D03*
X195998242Y-123050321D03*
X195639562Y-76827550D03*
X173488001Y-76714112D03*
X173488001Y-62738000D03*
X183388000Y-43180000D03*
X182854600Y-63500000D03*
X182300001Y-55880000D03*
X182372000Y-40640000D03*
X51308000Y-76454000D03*
X51308000Y-112014000D03*
X64008000Y-112014000D03*
X64008000Y-122682000D03*
X195033626Y-122786655D03*
X195488000Y-77816000D03*
X172788001Y-77470000D03*
X172788001Y-58420000D03*
X171445735Y-89625000D03*
X167819049Y-87842667D03*
X156210000Y-87630000D03*
X156210000Y-85395000D03*
X176530000Y-101600000D03*
D21*
X83058000Y-61976000D02*
X83312000Y-62230000D01*
X83058000Y-47752000D02*
X83058000Y-61976000D01*
X91548999Y-61976000D02*
X91548999Y-58420000D01*
X91548999Y-58420000D02*
X91548999Y-42164000D01*
X88216500Y-42164000D02*
X88138000Y-42242500D01*
X89154000Y-42164000D02*
X88216500Y-42164000D01*
X73533000Y-43180000D02*
X72898000Y-43180000D01*
X91548999Y-26053001D02*
X91694000Y-25908000D01*
X91548999Y-42164000D02*
X91548999Y-26053001D01*
X113538000Y-25908000D02*
X113538000Y-28272500D01*
X157060001Y-46647999D02*
X157060001Y-25819999D01*
X155448000Y-48260000D02*
X157060001Y-46647999D01*
X132080000Y-63246000D02*
X132080000Y-25908000D01*
X132080000Y-84836000D02*
X131572000Y-85344000D01*
X132080000Y-63246000D02*
X132080000Y-84836000D01*
X127429500Y-85344000D02*
X127508000Y-85422500D01*
X126238000Y-85344000D02*
X127429500Y-85344000D01*
X125222000Y-85344000D02*
X124968000Y-85090000D01*
X126238000Y-85344000D02*
X125222000Y-85344000D01*
X171938001Y-26142001D02*
X171615999Y-25819999D01*
X171938001Y-80029999D02*
X171938001Y-26142001D01*
X141478000Y-85598000D02*
X141224000Y-85344000D01*
X141478000Y-95250000D02*
X141478000Y-85598000D01*
X141556500Y-95328500D02*
X141478000Y-95250000D01*
X144018000Y-95328500D02*
X141556500Y-95328500D01*
X90599500Y-96852500D02*
X90678000Y-96774000D01*
X89408000Y-96852500D02*
X90599500Y-96852500D01*
X93897991Y-64387491D02*
X93985501Y-64475001D01*
X93897991Y-62230000D02*
X93897991Y-64387491D01*
X82804000Y-97282000D02*
X82804000Y-110998000D01*
X147828000Y-63500000D02*
X147828000Y-59436000D01*
X169496500Y-82628500D02*
X169418000Y-82550000D01*
X172212000Y-82628500D02*
X169496500Y-82628500D01*
X171938001Y-82354501D02*
X172212000Y-82628500D01*
X171938001Y-80029999D02*
X171938001Y-82354501D01*
X187198000Y-25908000D02*
X187198000Y-30480000D01*
X153494500Y-48260000D02*
X153162000Y-48592500D01*
X155448000Y-48260000D02*
X153494500Y-48260000D01*
X189659500Y-30480000D02*
X189738000Y-30558500D01*
X187198000Y-30480000D02*
X189659500Y-30480000D01*
X189659500Y-54610000D02*
X189738000Y-54688500D01*
X187198000Y-54610000D02*
X189659500Y-54610000D01*
X178411498Y-36243500D02*
X178977999Y-36810001D01*
X177038000Y-36243500D02*
X178411498Y-36243500D01*
X180867999Y-30714001D02*
X181102000Y-30480000D01*
X180867999Y-36810001D02*
X180867999Y-30714001D01*
X181356000Y-59762002D02*
X181356000Y-54610000D01*
X180178001Y-60940001D02*
X181356000Y-59762002D01*
X177604501Y-60940001D02*
X180178001Y-60940001D01*
X177038000Y-60373500D02*
X177604501Y-60940001D01*
D22*
X70944500Y-65786000D02*
X69088000Y-65786000D01*
D21*
X181356000Y-37338000D02*
X180848000Y-36830000D01*
X181356000Y-54610000D02*
X181356000Y-37338000D01*
X180848000Y-36830000D02*
X180867999Y-36810001D01*
X178977999Y-36810001D02*
X180848000Y-36830000D01*
X142748000Y-28272500D02*
X142748000Y-25908000D01*
X43688000Y-25908000D02*
X43688000Y-29034500D01*
X71658000Y-37592000D02*
X70358000Y-37592000D01*
X72898000Y-38832000D02*
X71658000Y-37592000D01*
X72898000Y-43180000D02*
X72898000Y-38832000D01*
X45496001Y-27716001D02*
X43688000Y-25908000D01*
X44196000Y-50546000D02*
X45496001Y-49245999D01*
X45496001Y-38978001D02*
X45496001Y-27716001D01*
X45496001Y-49245999D02*
X45496001Y-38892001D01*
X106463999Y-25945999D02*
X106426000Y-25908000D01*
X105664000Y-70358000D02*
X106463999Y-69558001D01*
X106463999Y-69558001D02*
X106463999Y-25945999D01*
X109747999Y-25927999D02*
X109728000Y-25908000D01*
X110998000Y-38100000D02*
X109747999Y-36849999D01*
X109747999Y-36849999D02*
X109747999Y-25927999D01*
X69004888Y-65869112D02*
X69088000Y-65786000D01*
X70993000Y-95885000D02*
X69088000Y-93980000D01*
X69341787Y-62230213D02*
X69342000Y-62230000D01*
X69009317Y-62230213D02*
X69341787Y-62230213D01*
X69004888Y-65869112D02*
X69009317Y-62230213D01*
X69026764Y-86832802D02*
X69026764Y-88076764D01*
X69026764Y-88076764D02*
X69088000Y-88138000D01*
X69001926Y-68640037D02*
X67248010Y-70393952D01*
X69001926Y-68302665D02*
X69001926Y-68640037D01*
X67248010Y-85054048D02*
X69026764Y-86832802D01*
X69004888Y-65869112D02*
X69001926Y-68302665D01*
X67248010Y-70393952D02*
X67248010Y-85054048D01*
X69088000Y-93980000D02*
X69088000Y-88138000D01*
X47207000Y-70067000D02*
X47244000Y-70104000D01*
X47207000Y-50546000D02*
X47207000Y-70067000D01*
D22*
X178178990Y-31620990D02*
X179578000Y-33020000D01*
X176346160Y-31620990D02*
X178178990Y-31620990D01*
X176012990Y-31954160D02*
X176346160Y-31620990D01*
X176012990Y-33343490D02*
X176012990Y-31954160D01*
X177038000Y-34368500D02*
X176012990Y-33343490D01*
X179578000Y-34973500D02*
X179578000Y-35560000D01*
X177038000Y-32433500D02*
X179578000Y-34973500D01*
X179499500Y-30558500D02*
X179578000Y-30480000D01*
X177038000Y-30558500D02*
X179499500Y-30558500D01*
X179499500Y-43258500D02*
X179578000Y-43180000D01*
X177038000Y-43258500D02*
X179499500Y-43258500D01*
D21*
X193626500Y-82628500D02*
X193548000Y-82550000D01*
X68237999Y-45300001D02*
X70358000Y-43180000D01*
D22*
X68580000Y-48768000D02*
X68326000Y-48514000D01*
X69850000Y-48768000D02*
X68580000Y-48768000D01*
D21*
X68326000Y-48514000D02*
X68237999Y-45300001D01*
X194133989Y-122350011D02*
X194818000Y-121666000D01*
X66548000Y-85344000D02*
X68326000Y-87122000D01*
X66548000Y-70104000D02*
X66548000Y-85344000D01*
X68301916Y-68301916D02*
X68301916Y-68350084D01*
X68326000Y-48514000D02*
X68301916Y-68301916D01*
X68301916Y-68350084D02*
X66548000Y-70104000D01*
D22*
X193548000Y-87630000D02*
X194818000Y-87630000D01*
D21*
X194818000Y-87630000D02*
X194937990Y-83972384D01*
X194818000Y-121666000D02*
X194818000Y-87630000D01*
X194937990Y-83939990D02*
X193548000Y-82550000D01*
X194937990Y-83972384D02*
X194937990Y-83939990D01*
X183388000Y-79580500D02*
X183309500Y-79502000D01*
X183388000Y-82550000D02*
X183388000Y-79580500D01*
X68326000Y-121412000D02*
X69088000Y-122174000D01*
X68326000Y-120650000D02*
X68326000Y-121412000D01*
X68326000Y-87122000D02*
X68326000Y-120650000D01*
X68326000Y-120650000D02*
X68326000Y-120904000D01*
D22*
X179499500Y-38178500D02*
X179578000Y-38100000D01*
X177038000Y-38178500D02*
X179499500Y-38178500D01*
X178991500Y-40053500D02*
X179578000Y-40640000D01*
X177038000Y-40053500D02*
X178991500Y-40053500D01*
D21*
X178229500Y-58498500D02*
X179578000Y-57150000D01*
X177038000Y-58498500D02*
X178229500Y-58498500D01*
X178446630Y-59690000D02*
X179578000Y-59690000D01*
X176294374Y-59436000D02*
X178192630Y-59436000D01*
X178192630Y-59436000D02*
X178446630Y-59690000D01*
X175887990Y-59029616D02*
X176294374Y-59436000D01*
X175887990Y-57713510D02*
X175887990Y-59029616D01*
X177038000Y-56563500D02*
X175887990Y-57713510D01*
X179499500Y-54688500D02*
X179578000Y-54610000D01*
X177038000Y-54688500D02*
X179499500Y-54688500D01*
X179499500Y-67388500D02*
X179578000Y-67310000D01*
X177038000Y-67388500D02*
X179499500Y-67388500D01*
X177038000Y-62230000D02*
X179578000Y-62230000D01*
X178913000Y-64105000D02*
X179578000Y-64770000D01*
X177038000Y-64105000D02*
X178913000Y-64105000D01*
D22*
X114771001Y-64675999D02*
X113792000Y-63696998D01*
X114771001Y-72230001D02*
X114771001Y-64675999D01*
X113030000Y-73971002D02*
X114771001Y-72230001D01*
X113538000Y-105918000D02*
X113030000Y-105410000D01*
X113792000Y-63696998D02*
X113792000Y-55917000D01*
X113792000Y-55917000D02*
X113755000Y-55880000D01*
X86723001Y-46210001D02*
X85598000Y-45085000D01*
X86723001Y-54440803D02*
X86723001Y-46210001D01*
X86785199Y-54503001D02*
X86723001Y-54440803D01*
X113030000Y-105410000D02*
X113030000Y-82550000D01*
X113030000Y-82550000D02*
X113030000Y-73971002D01*
X163830000Y-82550000D02*
X163830000Y-76200000D01*
X46346001Y-46482000D02*
X46346001Y-38354000D01*
X87884000Y-55601802D02*
X86785199Y-54503001D01*
X87884000Y-56720500D02*
X87884000Y-55601802D01*
X46482000Y-46617999D02*
X46346001Y-46482000D01*
X46482000Y-75184000D02*
X46482000Y-46617999D01*
D21*
X43688000Y-30909500D02*
X43688000Y-32844500D01*
D22*
X122676777Y-66288777D02*
X122682000Y-66294000D01*
X122676777Y-61454062D02*
X122676777Y-66288777D01*
X118618000Y-62865000D02*
X118618000Y-68580000D01*
X117348000Y-61595000D02*
X118618000Y-62865000D01*
X127068001Y-43248001D02*
X127000000Y-43180000D01*
X127068001Y-58928000D02*
X127068001Y-43248001D01*
X115658000Y-45808000D02*
X115570000Y-45720000D01*
X115658000Y-59182000D02*
X115658000Y-45808000D01*
X128995000Y-57150000D02*
X128995000Y-48260000D01*
X118618000Y-55245000D02*
X118618000Y-52832000D01*
X117348000Y-56515000D02*
X118618000Y-55245000D01*
X122174000Y-53848000D02*
X122174000Y-55880000D01*
X123661000Y-57113000D02*
X124968000Y-58420000D01*
X123661000Y-55118000D02*
X123661000Y-57113000D01*
X122936000Y-52469685D02*
X122936000Y-60452000D01*
X122594000Y-52127685D02*
X122936000Y-52469685D01*
X122594000Y-51562000D02*
X122594000Y-52127685D01*
X121412000Y-64007999D02*
X121915582Y-64511581D01*
X121412000Y-50546000D02*
X121412000Y-64007999D01*
D23*
X48207939Y-123189591D02*
X49758174Y-124739826D01*
X48207939Y-98557637D02*
X48207939Y-123189591D01*
X47594273Y-97943971D02*
X48207939Y-98557637D01*
X43974000Y-89504000D02*
X42998999Y-90479001D01*
X44970969Y-97943971D02*
X47594273Y-97943971D01*
X42998999Y-95972001D02*
X44970969Y-97943971D01*
X42998999Y-90479001D02*
X42998999Y-95972001D01*
D22*
X182496990Y-125866459D02*
X182854600Y-126224069D01*
X182496990Y-71700008D02*
X182496990Y-125866459D01*
X183699990Y-70497008D02*
X182496990Y-71700008D01*
X183336999Y-48608001D02*
X183699990Y-48970992D01*
X183699990Y-48970992D02*
X183699990Y-70497008D01*
X183336999Y-47549001D02*
X183336999Y-48608001D01*
X183845200Y-47040800D02*
X183336999Y-47549001D01*
D23*
X48807988Y-89876012D02*
X48807988Y-96005690D01*
X48807988Y-96005690D02*
X49068299Y-96266000D01*
X49022000Y-89662000D02*
X48807988Y-89876012D01*
X49068299Y-96266000D02*
X49407969Y-96605670D01*
X49407969Y-121797969D02*
X49784000Y-122174000D01*
X49407969Y-96605670D02*
X49407969Y-121797969D01*
X61468000Y-124528408D02*
X62226405Y-125286813D01*
X61468000Y-122428000D02*
X61468000Y-124528408D01*
X198058001Y-123636001D02*
X197758010Y-123336010D01*
X198058001Y-124288001D02*
X198058001Y-123636001D01*
X197321963Y-125024039D02*
X198058001Y-124288001D01*
X194114306Y-125024039D02*
X197321963Y-125024039D01*
X197758010Y-46081990D02*
X198120000Y-45720000D01*
X197758010Y-123336010D02*
X197758010Y-46081990D01*
X44998999Y-95085997D02*
X44998999Y-96419001D01*
X43974000Y-94060998D02*
X44998999Y-95085997D01*
X44998999Y-96419001D02*
X46123959Y-97543961D01*
X43974000Y-93504000D02*
X43974000Y-94060998D01*
X46123959Y-97543961D02*
X47759961Y-97543961D01*
X47759961Y-97543961D02*
X48607949Y-98391949D01*
X59207568Y-124594001D02*
X60290839Y-125677272D01*
X48607949Y-122599650D02*
X50602300Y-124594001D01*
X50602300Y-124594001D02*
X59207568Y-124594001D01*
X48607949Y-98391949D02*
X48607949Y-122599650D01*
X191708001Y-124942375D02*
X191708001Y-60136001D01*
X191708001Y-60136001D02*
X191262000Y-59690000D01*
X192024000Y-125258374D02*
X191708001Y-124942375D01*
X192024000Y-125824059D02*
X192024000Y-125258374D01*
X49207998Y-93794002D02*
X49207998Y-95840001D01*
X49207998Y-95840001D02*
X49807979Y-96439982D01*
X49530000Y-93472000D02*
X49207998Y-93794002D01*
X49807979Y-118895979D02*
X50546000Y-119634000D01*
X49807979Y-96439982D02*
X49807979Y-118895979D01*
X62230000Y-119634000D02*
X62460775Y-119864775D01*
X62160785Y-119634000D02*
X62230000Y-119634000D01*
X62460775Y-124063781D02*
X62237681Y-124286875D01*
X62460775Y-119864775D02*
X62460775Y-124063781D01*
X197358000Y-35560000D02*
X197358000Y-123952000D01*
X48656309Y-96916309D02*
X49007959Y-97267959D01*
X48656309Y-96843960D02*
X48656309Y-96916309D01*
X49007959Y-97267959D02*
X49007959Y-122433961D01*
X52025999Y-122293999D02*
X53130001Y-122293999D01*
X49007959Y-122433961D02*
X49447999Y-122874001D01*
X51445997Y-122874001D02*
X52025999Y-122293999D01*
X49447999Y-122874001D02*
X51445997Y-122874001D01*
X53130001Y-122293999D02*
X53518002Y-122682000D01*
X53518002Y-122682000D02*
X60706000Y-122682000D01*
X60706000Y-124756359D02*
X61190670Y-125241029D01*
X60706000Y-122682000D02*
X60706000Y-124756359D01*
X192278000Y-124531731D02*
X192278000Y-38100000D01*
X193170318Y-125424049D02*
X192278000Y-124531731D01*
X50038000Y-95504000D02*
X50207989Y-95673989D01*
X49907999Y-95504000D02*
X50038000Y-95504000D01*
X50207989Y-116755989D02*
X50546000Y-117094000D01*
X50207989Y-95673989D02*
X50207989Y-116755989D01*
X62738000Y-117094000D02*
X62907990Y-117263990D01*
X62608000Y-117094000D02*
X62738000Y-117094000D01*
X63169310Y-124276430D02*
X64375793Y-124276430D01*
X62860785Y-123967905D02*
X63169310Y-124276430D01*
X64375793Y-124276430D02*
X64428204Y-124224019D01*
X62860785Y-117311195D02*
X62860785Y-123967905D01*
X62907990Y-117263990D02*
X62860785Y-117311195D01*
X196698243Y-123547595D02*
X196698243Y-122276243D01*
X196220535Y-124025303D02*
X196698243Y-123547595D01*
X196698243Y-122276243D02*
X196596000Y-122174000D01*
X196596000Y-122174000D02*
X196596000Y-62230000D01*
D22*
X149098000Y-58166000D02*
X149098000Y-73660000D01*
X147828000Y-56896000D02*
X149098000Y-58166000D01*
X141732000Y-73660000D02*
X141732000Y-73094315D01*
X138807997Y-73395001D02*
X138807997Y-73660000D01*
X139667999Y-72534999D02*
X138807997Y-73395001D01*
X141172684Y-72534999D02*
X139667999Y-72534999D01*
X141732000Y-73094315D02*
X141172684Y-72534999D01*
X135890000Y-73660000D02*
X135890000Y-68072000D01*
X146558000Y-58166000D02*
X146558000Y-76200000D01*
X145288000Y-56896000D02*
X146558000Y-58166000D01*
X149352000Y-52832000D02*
X149352000Y-43180000D01*
X147828000Y-54356000D02*
X149352000Y-52832000D01*
X137377000Y-54356000D02*
X137377000Y-45757000D01*
X143137999Y-50546000D02*
X143137999Y-48260000D01*
X142412998Y-50894001D02*
X143002000Y-51483003D01*
X142412999Y-49276000D02*
X142412998Y-50894001D01*
X143002000Y-51483003D02*
X143002000Y-53340000D01*
X146463001Y-45371001D02*
X146304000Y-45212000D01*
X146299347Y-48260314D02*
X146463001Y-48096660D01*
X146463001Y-48096660D02*
X146463001Y-45371001D01*
X146299347Y-48825999D02*
X146299347Y-48260314D01*
X141333001Y-54754999D02*
X140208000Y-55880000D01*
X141333001Y-49282996D02*
X141333001Y-54754999D01*
X141732000Y-48883997D02*
X141333001Y-49282996D01*
X141732000Y-45212000D02*
X141732000Y-48883997D01*
X150114000Y-46736000D02*
X150114000Y-61380000D01*
X143257249Y-60707249D02*
X143257249Y-58570171D01*
X144018000Y-61468000D02*
X143257249Y-60707249D01*
X136652000Y-46990000D02*
X136652000Y-60960000D01*
X76200000Y-43273000D02*
X76928000Y-42545000D01*
X76928000Y-42545000D02*
X77978000Y-42545000D01*
X76200000Y-63246000D02*
X76200000Y-43273000D01*
X71628000Y-52070000D02*
X71628000Y-44450000D01*
X101600000Y-65278000D02*
X101600000Y-55880000D01*
X101600000Y-68326000D02*
X101854000Y-68580000D01*
X101600000Y-65278000D02*
X101600000Y-68326000D01*
X129794000Y-68834000D02*
X129794000Y-71120000D01*
X151384000Y-71374000D02*
X151384000Y-38100000D01*
X74313001Y-65894999D02*
X74422000Y-65786000D01*
X74713000Y-108712000D02*
X74313001Y-108312001D01*
X72819500Y-65786000D02*
X74422000Y-65786000D01*
X74422000Y-78232000D02*
X74313001Y-65894999D01*
X74313001Y-108312001D02*
X74422000Y-78232000D01*
X97503999Y-74023001D02*
X98584001Y-74023001D01*
X99822000Y-72785002D02*
X99822000Y-70612000D01*
X98584001Y-74023001D02*
X99822000Y-72785002D01*
X95504000Y-72023002D02*
X97503999Y-74023001D01*
X95504000Y-70612000D02*
X95504000Y-72023002D01*
X123190000Y-77978000D02*
X123444000Y-78232000D01*
X123190000Y-70358000D02*
X123190000Y-77978000D01*
X189484000Y-78740000D02*
X189484000Y-105410000D01*
X188976000Y-78232000D02*
X189484000Y-78740000D01*
X65566999Y-39658999D02*
X65532000Y-39624000D01*
X65566999Y-69342000D02*
X65566999Y-39658999D01*
X167277999Y-78631999D02*
X166878000Y-78232000D01*
X167350662Y-87285748D02*
X167350662Y-78704662D01*
X166820010Y-87816400D02*
X167350662Y-87285748D01*
X167350662Y-78704662D02*
X167277999Y-78631999D01*
X166820010Y-92523600D02*
X166820010Y-87816400D01*
X167625653Y-93329243D02*
X166820010Y-92523600D01*
X167625653Y-99328347D02*
X167625653Y-93329243D01*
X166624000Y-100330000D02*
X167625653Y-99328347D01*
X166624000Y-105410000D02*
X166624000Y-100330000D01*
X96266000Y-71120000D02*
X98044000Y-72898000D01*
X96266000Y-68072000D02*
X96266000Y-71120000D01*
X96883001Y-51925001D02*
X95758000Y-50800000D01*
X96883001Y-67454999D02*
X96883001Y-51925001D01*
X96266000Y-68072000D02*
X96883001Y-67454999D01*
X97028000Y-49530000D02*
X97028000Y-39370000D01*
X95758000Y-50800000D02*
X97028000Y-49530000D01*
X75438000Y-118872000D02*
X75438000Y-91694000D01*
X75438000Y-68326000D02*
X75438000Y-91694000D01*
X75184000Y-68072000D02*
X75438000Y-68326000D01*
X122573999Y-78885999D02*
X122682000Y-78994000D01*
X122573999Y-72027999D02*
X122573999Y-78885999D01*
X122174000Y-71628000D02*
X122573999Y-72027999D01*
X166302503Y-79074159D02*
X166900652Y-79672308D01*
X188613999Y-97681999D02*
X188722000Y-97790000D01*
X188613999Y-79393999D02*
X188613999Y-97681999D01*
X188214000Y-78994000D02*
X188613999Y-79393999D01*
X64841999Y-42489999D02*
X64516000Y-42164000D01*
X64841999Y-72136000D02*
X64841999Y-42489999D01*
X166900652Y-93240652D02*
X166370000Y-92710000D01*
X166900652Y-93240652D02*
X166900652Y-97767348D01*
X166370000Y-92710000D02*
X166370000Y-87630000D01*
X166370000Y-87630000D02*
X166900652Y-87099348D01*
X166900652Y-79672308D02*
X166900652Y-87099348D01*
X76308001Y-69233999D02*
X76454000Y-69088000D01*
X76708000Y-116078000D02*
X76308001Y-115678001D01*
X76454000Y-82042000D02*
X76308001Y-69233999D01*
X76308001Y-115678001D02*
X76454000Y-82042000D01*
X120904000Y-74168000D02*
X120904000Y-79793000D01*
X165571000Y-95213000D02*
X165608000Y-95250000D01*
X165571000Y-79756000D02*
X165571000Y-95213000D01*
X69578001Y-76690001D02*
X69342000Y-76454000D01*
X72407999Y-76690001D02*
X69578001Y-76690001D01*
X72898000Y-76200000D02*
X72407999Y-76690001D01*
X64116999Y-44812999D02*
X64008000Y-44704000D01*
X64116999Y-76454000D02*
X64116999Y-44812999D01*
X89262001Y-81751000D02*
X89299001Y-81788000D01*
X89262001Y-78377999D02*
X89262001Y-81751000D01*
X89662000Y-77978000D02*
X89262001Y-78377999D01*
X107064003Y-80253001D02*
X107064003Y-80518000D01*
X106204001Y-79392999D02*
X107064003Y-80253001D01*
X104699316Y-79392999D02*
X106204001Y-79392999D01*
X104140000Y-79952315D02*
X104699316Y-79392999D01*
X104140000Y-80518000D02*
X104140000Y-79952315D01*
X149352000Y-81026000D02*
X149352000Y-92710000D01*
X148844000Y-80518000D02*
X149352000Y-81026000D01*
X70086001Y-79230001D02*
X69088000Y-78232000D01*
X71957684Y-79230001D02*
X70086001Y-79230001D01*
X72644000Y-78543685D02*
X71957684Y-79230001D01*
X72644000Y-77978000D02*
X72644000Y-78543685D01*
X63391999Y-47828999D02*
X63315000Y-47752000D01*
X63391999Y-77832001D02*
X63391999Y-47828999D01*
X62992000Y-78232000D02*
X63391999Y-77832001D01*
X90024001Y-84545000D02*
X90061001Y-84582000D01*
X90024001Y-81171999D02*
X90024001Y-84545000D01*
X90424000Y-80772000D02*
X90024001Y-81171999D01*
X106358817Y-81932999D02*
X106963870Y-82538052D01*
X104757001Y-81932999D02*
X106358817Y-81932999D01*
X104140000Y-82550000D02*
X104757001Y-81932999D01*
X148481999Y-95030001D02*
X148262000Y-95250000D01*
X148481999Y-83457999D02*
X148481999Y-95030001D01*
X148082000Y-83058000D02*
X148481999Y-83457999D01*
X70340001Y-81770001D02*
X69596000Y-81026000D01*
X71645999Y-81770001D02*
X70340001Y-81770001D01*
X72390000Y-81026000D02*
X71645999Y-81770001D01*
X58891000Y-49821000D02*
X58928000Y-49784000D01*
X58891000Y-81026000D02*
X58891000Y-49821000D01*
X90786001Y-86431001D02*
X90969000Y-86614000D01*
X90786001Y-83711999D02*
X90786001Y-86431001D01*
X91186000Y-83312000D02*
X90786001Y-83711999D01*
X100621000Y-84365000D02*
X100584000Y-84328000D01*
X100621000Y-85598000D02*
X100621000Y-84365000D01*
X147537000Y-97753000D02*
X147574000Y-97790000D01*
X147537000Y-84074000D02*
X147537000Y-97753000D01*
X70378277Y-84473999D02*
X69769179Y-83864901D01*
X72752001Y-84473999D02*
X70378277Y-84473999D01*
X73152000Y-84074000D02*
X72752001Y-84473999D01*
X58166000Y-83588276D02*
X58166000Y-52236000D01*
X58614724Y-84037000D02*
X58166000Y-83588276D01*
X77978000Y-105918000D02*
X77978000Y-120396000D01*
X115316000Y-103087000D02*
X115099000Y-102870000D01*
X115316000Y-120396000D02*
X115316000Y-103087000D01*
X121666000Y-102870000D02*
X121666000Y-76200000D01*
X108458000Y-76127999D02*
X108458000Y-33020000D01*
X162052000Y-28194000D02*
X161798000Y-27940000D01*
X162052000Y-75946000D02*
X162052000Y-28194000D01*
X67310000Y-95504000D02*
X67310000Y-106172000D01*
X91694000Y-85598000D02*
X91694000Y-88138000D01*
X98044000Y-88138000D02*
X98298000Y-87884000D01*
X101346000Y-88138000D02*
X101346000Y-81788000D01*
X146812000Y-81788000D02*
X146812000Y-100330000D01*
X168511001Y-101455001D02*
X170112817Y-101455001D01*
X170112817Y-101455001D02*
X170717870Y-100849948D01*
X167894000Y-100838000D02*
X168511001Y-101455001D01*
X57658000Y-55372000D02*
X57658000Y-84328000D01*
X57150000Y-54864000D02*
X57658000Y-55372000D01*
X109474000Y-102616000D02*
X109474000Y-100330000D01*
X168765001Y-111904999D02*
X167894000Y-112776000D01*
X170070999Y-111904999D02*
X168765001Y-111904999D01*
X170942000Y-112776000D02*
X170070999Y-111904999D01*
X147865000Y-104177000D02*
X147574000Y-103886000D01*
X147865000Y-112776000D02*
X147865000Y-104177000D01*
X120758001Y-103486001D02*
X120758001Y-100475999D01*
X120758001Y-100475999D02*
X120904000Y-100330000D01*
X121158000Y-103886000D02*
X120758001Y-103486001D01*
X129540000Y-73914000D02*
X129286000Y-73660000D01*
X129540000Y-103886000D02*
X129540000Y-73914000D01*
X166624000Y-28194000D02*
X166878000Y-27940000D01*
X166624000Y-74676000D02*
X166624000Y-28194000D01*
X113030000Y-35705001D02*
X112884999Y-35560000D01*
X113030000Y-72898000D02*
X113030000Y-35705001D01*
X66402001Y-93363999D02*
X66402001Y-103195001D01*
X66402001Y-103195001D02*
X66585000Y-103378000D01*
X66802000Y-92964000D02*
X66402001Y-93363999D01*
X88101001Y-119252999D02*
X87884000Y-119470000D01*
X88101001Y-90133001D02*
X88101001Y-119252999D01*
X86233000Y-88265000D02*
X88101001Y-90133001D01*
X151130000Y-118988752D02*
X151130000Y-102870000D01*
X150692051Y-119426701D02*
X151130000Y-118988752D01*
X172720000Y-102108000D02*
X173486653Y-102874653D01*
X171958000Y-102108000D02*
X172720000Y-102108000D01*
X56787999Y-86505999D02*
X56896000Y-86614000D01*
X56787999Y-57803999D02*
X56787999Y-86505999D01*
X56388000Y-57404000D02*
X56787999Y-57803999D01*
X90823999Y-35705999D02*
X90678000Y-35560000D01*
X90823999Y-64370001D02*
X90823999Y-35705999D01*
X90424000Y-64770000D02*
X90823999Y-64370001D01*
X123298001Y-32149999D02*
X124968000Y-30480000D01*
X123298001Y-36176001D02*
X123298001Y-32149999D01*
X123698000Y-36576000D02*
X123298001Y-36176001D01*
X162814000Y-110236000D02*
X163068000Y-110490000D01*
X162814000Y-36068000D02*
X162814000Y-81026000D01*
X162814000Y-81026000D02*
X162814000Y-110236000D01*
X186907000Y-81497000D02*
X186907000Y-110490000D01*
X186436000Y-81026000D02*
X186907000Y-81497000D01*
X77033001Y-101311999D02*
X77253000Y-101092000D01*
X77033001Y-109982000D02*
X77033001Y-101311999D01*
X77253000Y-101092000D02*
X77253000Y-80989000D01*
X77253000Y-64807000D02*
X77216000Y-64770000D01*
X77253000Y-80989000D02*
X77253000Y-64807000D01*
X77253000Y-80989000D02*
X77253000Y-81063000D01*
X87376000Y-91948000D02*
X87376000Y-117602000D01*
X86233000Y-90805000D02*
X87376000Y-91948000D01*
X150259999Y-105555999D02*
X150114000Y-105410000D01*
X150259999Y-118472001D02*
X150259999Y-105555999D01*
X149860000Y-118872000D02*
X150259999Y-118472001D01*
X55880000Y-59944000D02*
X55880000Y-89662000D01*
X77978000Y-98552000D02*
X77978000Y-104648000D01*
X120650000Y-105410000D02*
X120650000Y-117856000D01*
X120650000Y-117856000D02*
X120904000Y-118110000D01*
X112159999Y-31641999D02*
X110998000Y-30480000D01*
X112159999Y-104248001D02*
X112159999Y-31641999D01*
X111760000Y-104648000D02*
X112159999Y-104248001D01*
X122428000Y-30480000D02*
X122428000Y-27940000D01*
X161327000Y-80612002D02*
X161327000Y-30334001D01*
X162196999Y-81482001D02*
X161327000Y-80612002D01*
X162196999Y-119524999D02*
X162196999Y-81482001D01*
X94622991Y-93472000D02*
X94622991Y-67310000D01*
X109183000Y-52615000D02*
X110998000Y-50800000D01*
X109183000Y-67310000D02*
X109183000Y-52615000D01*
X95022990Y-116903010D02*
X94996000Y-116930000D01*
X95022990Y-93871999D02*
X95022990Y-116903010D01*
X94622991Y-93472000D02*
X95022990Y-93871999D01*
X149352000Y-117348000D02*
X149352000Y-107950000D01*
X109183000Y-47281000D02*
X109474000Y-46990000D01*
X109183000Y-52615000D02*
X109183000Y-47281000D01*
X133858000Y-46228000D02*
X135636000Y-44450000D01*
X133858000Y-46990000D02*
X133858000Y-46228000D01*
X135636000Y-40640000D02*
X135636000Y-44450000D01*
X53848000Y-62484000D02*
X53848000Y-94234000D01*
X94297990Y-96157999D02*
X94297990Y-113982010D01*
X94297990Y-113982010D02*
X94234000Y-114046000D01*
X93897991Y-95758000D02*
X94297990Y-96157999D01*
X148590000Y-114046000D02*
X148590000Y-110490000D01*
X107696000Y-66548000D02*
X107696000Y-53340000D01*
X113792000Y-53340000D02*
X113792000Y-38100000D01*
X141114999Y-39225001D02*
X142240000Y-38100000D01*
X139047001Y-39225001D02*
X141114999Y-39225001D01*
X137922000Y-38100000D02*
X139047001Y-39225001D01*
X167386000Y-38100000D02*
X167386000Y-45720000D01*
X93623001Y-93726000D02*
X93897991Y-94000990D01*
X93623001Y-92812999D02*
X93623001Y-93726000D01*
X93910126Y-92525874D02*
X93623001Y-92812999D01*
X93980000Y-73914000D02*
X93910126Y-92525874D01*
X94172981Y-73721019D02*
X93980000Y-73914000D01*
X93980000Y-66402999D02*
X93897991Y-66485008D01*
X94172981Y-72074981D02*
X94172981Y-73721019D01*
X93897991Y-66485008D02*
X93897991Y-71799991D01*
X93897991Y-94000990D02*
X93897991Y-95758000D01*
X93897991Y-71799991D02*
X94172981Y-72074981D01*
X148590000Y-114046000D02*
X148590000Y-116332000D01*
X168822686Y-116984999D02*
X170578999Y-116984999D01*
X168713685Y-117094000D02*
X168822686Y-116984999D01*
X170578999Y-116984999D02*
X170688000Y-117094000D01*
X168148000Y-117094000D02*
X168713685Y-117094000D01*
X174244000Y-116840000D02*
X174244000Y-110490000D01*
X78340001Y-92818001D02*
X78340001Y-64082000D01*
X78340001Y-64082000D02*
X78414001Y-64008000D01*
X78740000Y-93218000D02*
X78340001Y-92818001D01*
X89916000Y-63754000D02*
X89916000Y-33020000D01*
X78740000Y-93218000D02*
X78740000Y-107442000D01*
X78740000Y-107442000D02*
X78740000Y-112522000D01*
X79139001Y-90532001D02*
X79139001Y-31496000D01*
X79539000Y-90932000D02*
X79139001Y-90532001D01*
X79539000Y-90932000D02*
X79539000Y-115279000D01*
X80264000Y-107913000D02*
X80301000Y-107950000D01*
X118618000Y-109220000D02*
X118618000Y-120650000D01*
X117348000Y-107950000D02*
X118618000Y-109220000D01*
X79864001Y-28739000D02*
X79901001Y-28702000D01*
X79864001Y-87738001D02*
X79864001Y-28739000D01*
X80264000Y-88138000D02*
X79864001Y-87738001D01*
X147066000Y-27395000D02*
X147066000Y-30480000D01*
X80264000Y-99568000D02*
X80264000Y-107913000D01*
X80264000Y-88138000D02*
X80264000Y-99568000D01*
X93172991Y-61005009D02*
X93218000Y-60960000D01*
X93218000Y-102812315D02*
X93172991Y-102767306D01*
X93218000Y-103378000D02*
X93218000Y-102812315D01*
X103886000Y-60960000D02*
X103886000Y-44450000D01*
X133350000Y-44450000D02*
X133350000Y-35560000D01*
X152291999Y-45574001D02*
X152146000Y-45720000D01*
X152291999Y-35959999D02*
X152291999Y-45574001D01*
X151892000Y-35560000D02*
X152291999Y-35959999D01*
X52578000Y-72644000D02*
X52578000Y-72390000D01*
X93172991Y-72943009D02*
X93172991Y-61005009D01*
X93172991Y-102767306D02*
X93172991Y-72943009D01*
X81026000Y-85344000D02*
X81026000Y-109728000D01*
X80626001Y-28085999D02*
X80772000Y-27940000D01*
X80626001Y-84944001D02*
X80626001Y-28085999D01*
X81026000Y-85344000D02*
X80626001Y-84944001D01*
X165862000Y-26670000D02*
X165862000Y-33020000D01*
X160926999Y-118000999D02*
X161036000Y-118110000D01*
X160926999Y-109364999D02*
X160926999Y-118000999D01*
X186182000Y-109474000D02*
X186182000Y-118110000D01*
X81788000Y-63246000D02*
X81534000Y-62992000D01*
X81788000Y-82804000D02*
X81788000Y-63246000D01*
X81933999Y-62592001D02*
X81933999Y-30371999D01*
X81534000Y-62992000D02*
X81933999Y-62592001D01*
X82333998Y-29972000D02*
X85598000Y-29972000D01*
X81933999Y-30371999D02*
X82333998Y-29972000D01*
X110998000Y-60960000D02*
X110998000Y-67310000D01*
X156863999Y-74784001D02*
X155448000Y-76200000D01*
X156863999Y-67963999D02*
X156863999Y-74784001D01*
X156464000Y-67564000D02*
X156863999Y-67963999D01*
X54864000Y-77724000D02*
X54864000Y-83312000D01*
X99314000Y-76708000D02*
X98044000Y-75438000D01*
X99314000Y-78994000D02*
X99314000Y-76708000D01*
X118618000Y-79756000D02*
X118618000Y-96520000D01*
X118491000Y-101219000D02*
X118618000Y-101346000D01*
X118491000Y-96647000D02*
X118491000Y-101219000D01*
X118618000Y-96520000D02*
X118491000Y-96647000D01*
X118491000Y-96647000D02*
X117348000Y-97790000D01*
X59690000Y-80264000D02*
X59690000Y-26924000D01*
X115824000Y-93726000D02*
X117348000Y-95250000D01*
X115824000Y-77724000D02*
X115824000Y-93726000D01*
X115824000Y-106426000D02*
X116078000Y-106680000D01*
X115824000Y-93726000D02*
X115824000Y-106426000D01*
X60415000Y-77179000D02*
X60415000Y-29464000D01*
X82550000Y-75692000D02*
X82550000Y-91948000D01*
X135636000Y-105410000D02*
X133858000Y-105410000D01*
X135708001Y-97971999D02*
X135760997Y-97971999D01*
X135708001Y-91948000D02*
X135708001Y-97971999D01*
X135760997Y-97971999D02*
X136076990Y-98287992D01*
X136076990Y-104969010D02*
X135636000Y-105410000D01*
X136076990Y-98287992D02*
X136076990Y-104969010D01*
X61140000Y-75438000D02*
X61140000Y-32078000D01*
X114300000Y-116332000D02*
X114300000Y-85090000D01*
X187706000Y-86106000D02*
X187706000Y-90170000D01*
X65024000Y-115715001D02*
X64915001Y-115824000D01*
X65024000Y-85344000D02*
X65024000Y-115715001D01*
X150077000Y-69863800D02*
X150063200Y-69850000D01*
X150077000Y-84658200D02*
X150077000Y-69863800D01*
X173888011Y-75717011D02*
X173913800Y-75742800D01*
X173888011Y-70129400D02*
X173888011Y-75717011D01*
X187706000Y-85540315D02*
X187706000Y-86106000D01*
X187488999Y-78645999D02*
X187488999Y-85323314D01*
X187488999Y-85323314D02*
X187706000Y-85540315D01*
X187680600Y-78454398D02*
X187488999Y-78645999D01*
X187680600Y-75742800D02*
X187680600Y-78454398D01*
X83312000Y-72898000D02*
X83312000Y-89662000D01*
X134983001Y-89263001D02*
X134874000Y-89154000D01*
X134983001Y-96664999D02*
X134983001Y-89263001D01*
X133858000Y-97790000D02*
X134983001Y-96664999D01*
X61865000Y-72898000D02*
X61865000Y-34544000D01*
X164846000Y-41656000D02*
X164846000Y-48260000D01*
X65640001Y-117747999D02*
X65532000Y-117856000D01*
X65640001Y-88283999D02*
X65640001Y-117747999D01*
X66040000Y-87884000D02*
X65640001Y-88283999D01*
X92202000Y-73660000D02*
X92456000Y-73914000D01*
X92202000Y-72136000D02*
X92202000Y-73660000D01*
X92456000Y-73914000D02*
X92456000Y-118872000D01*
X92456000Y-71882000D02*
X92202000Y-72136000D01*
X92456000Y-40894000D02*
X92456000Y-71882000D01*
X174788999Y-50328999D02*
X173990000Y-49530000D01*
X174788999Y-86058999D02*
X174788999Y-50328999D01*
X175260000Y-86530000D02*
X174788999Y-86058999D01*
X175260000Y-87630000D02*
X175260000Y-86530000D01*
X173569999Y-91860001D02*
X172720000Y-92710000D01*
X173895001Y-91534999D02*
X173569999Y-91860001D01*
X173895001Y-87894999D02*
X173895001Y-91534999D01*
X174160000Y-87630000D02*
X173895001Y-87894999D01*
X175260000Y-87630000D02*
X174160000Y-87630000D01*
X172720000Y-101029600D02*
X172694600Y-101055000D01*
X172720000Y-92710000D02*
X172720000Y-101029600D01*
X84074000Y-70612000D02*
X84074000Y-99568000D01*
X62590000Y-70358000D02*
X62590000Y-37084000D01*
X124029000Y-69596000D02*
X122428000Y-69596000D01*
X124427999Y-69994999D02*
X124029000Y-69596000D01*
X125882582Y-69994999D02*
X124427999Y-69994999D01*
X126297687Y-70410104D02*
X125882582Y-69994999D01*
X97536000Y-68072000D02*
X97536000Y-53340000D01*
X97536000Y-53340000D02*
X97608001Y-53340000D01*
X104902000Y-45720000D02*
X104902000Y-65532000D01*
X169075653Y-62572347D02*
X170688000Y-60960000D01*
X169075653Y-65024000D02*
X169075653Y-62572347D01*
X152146000Y-71882000D02*
X152400000Y-72136000D01*
X152146000Y-60960000D02*
X152146000Y-71882000D01*
X114046000Y-65024000D02*
X113792000Y-64770000D01*
X114046000Y-70866000D02*
X114046000Y-65024000D01*
X100838000Y-64262000D02*
X100838000Y-43180000D01*
X109872999Y-59545001D02*
X110998000Y-58420000D01*
X109982000Y-61609002D02*
X109872999Y-61500001D01*
X109872999Y-61500001D02*
X109872999Y-59545001D01*
X109982000Y-72898000D02*
X109982000Y-61609002D01*
X128270000Y-74422000D02*
X128270000Y-74168000D01*
X128524000Y-74676000D02*
X128270000Y-74422000D01*
X128270000Y-74168000D02*
X128270000Y-35560000D01*
X128270000Y-74676000D02*
X128270000Y-74168000D01*
X152136990Y-48113160D02*
X153416000Y-46834150D01*
X153416000Y-46834150D02*
X153416000Y-40640000D01*
X152136990Y-50946840D02*
X152136990Y-48113160D01*
X153416000Y-52225850D02*
X152136990Y-50946840D01*
X153416000Y-72898000D02*
X153416000Y-52225850D01*
X185819999Y-64827999D02*
X185762000Y-64770000D01*
X185819999Y-73260001D02*
X185819999Y-64827999D01*
X185420000Y-73660000D02*
X185819999Y-73260001D01*
X184150000Y-48348000D02*
X184062000Y-48260000D01*
X184150000Y-71120000D02*
X184150000Y-48348000D01*
X167625653Y-52309653D02*
X167386000Y-52070000D01*
X167625653Y-68580000D02*
X167625653Y-52309653D01*
X185762000Y-45886000D02*
X185928000Y-45720000D01*
X185762000Y-52070000D02*
X185762000Y-45886000D01*
X185928000Y-45720000D02*
X187198000Y-45720000D01*
X119634000Y-81026000D02*
X119888000Y-81280000D01*
X119634000Y-78486000D02*
X119634000Y-81026000D01*
X168350653Y-40691347D02*
X168402000Y-40640000D01*
X168350653Y-79756000D02*
X168350653Y-40691347D01*
X115207999Y-87484001D02*
X115062000Y-87630000D01*
X115207999Y-81462999D02*
X115207999Y-87484001D01*
X114808000Y-81063000D02*
X115207999Y-81462999D01*
X102616000Y-92456000D02*
X102616000Y-49530000D01*
X101854000Y-93218000D02*
X102616000Y-92456000D01*
X163830000Y-94560001D02*
X163830000Y-107950000D01*
X101854000Y-94488000D02*
X101854000Y-103378000D01*
X119380000Y-120386695D02*
X119763109Y-120769804D01*
X119380000Y-103886000D02*
X119380000Y-120386695D01*
X168577313Y-121775001D02*
X170324999Y-121775001D01*
X170324999Y-121775001D02*
X171512338Y-120587662D01*
X168017997Y-121215685D02*
X168577313Y-121775001D01*
X168017997Y-120650000D02*
X168017997Y-121215685D01*
X187706000Y-108204000D02*
X187960000Y-107950000D01*
X187706000Y-119380000D02*
X187706000Y-108204000D01*
X89465990Y-53397990D02*
X89154000Y-53086000D01*
X88574000Y-62048000D02*
X89465990Y-61156010D01*
X89465990Y-61156010D02*
X89465990Y-53397990D01*
X88574000Y-93981999D02*
X88574000Y-62048000D01*
X88826001Y-94234000D02*
X88574000Y-93981999D01*
X145796000Y-92710000D02*
X145796000Y-88900000D01*
X157556200Y-90347800D02*
X157607000Y-90398600D01*
X157556200Y-88646001D02*
X157556200Y-90347800D01*
X143401999Y-87669595D02*
X143263759Y-87531355D01*
X143401999Y-89770001D02*
X143401999Y-87669595D01*
X143002000Y-90170000D02*
X143401999Y-89770001D01*
X154893399Y-89044999D02*
X155473400Y-89625000D01*
X152781000Y-88175000D02*
X153650999Y-89044999D01*
X153650999Y-89044999D02*
X154893399Y-89044999D01*
X128524000Y-100330000D02*
X128524000Y-96520000D01*
X161471999Y-96520000D02*
X161471999Y-81821154D01*
X176530000Y-83312000D02*
X178308000Y-85090000D01*
X176530000Y-81788000D02*
X176530000Y-83312000D01*
X134380377Y-103995001D02*
X135230815Y-103144563D01*
X133241359Y-103995001D02*
X134380377Y-103995001D01*
X132516359Y-103270001D02*
X133241359Y-103995001D01*
X134510999Y-106824999D02*
X135636000Y-107950000D01*
X133494999Y-106824999D02*
X134510999Y-106824999D01*
X132080000Y-105410000D02*
X133494999Y-106824999D01*
X137668000Y-107950000D02*
X137668000Y-111252000D01*
X130302000Y-110490000D02*
X130302000Y-100330000D01*
X139192000Y-106934000D02*
X139196653Y-106929347D01*
X139192000Y-110236000D02*
X139192000Y-106934000D01*
X155956000Y-113465999D02*
X156210000Y-113719999D01*
X155956000Y-106680000D02*
X155956000Y-113465999D01*
X173482000Y-113792000D02*
X173482000Y-106680000D01*
X191153999Y-106280001D02*
X191153999Y-92855999D01*
X191153999Y-92855999D02*
X191008000Y-92710000D01*
X190754000Y-106680000D02*
X191153999Y-106280001D01*
X170832999Y-103995001D02*
X170942000Y-103886000D01*
X167951685Y-103886000D02*
X168060686Y-103995001D01*
X168060686Y-103995001D02*
X170832999Y-103995001D01*
X167386000Y-103886000D02*
X167951685Y-103886000D01*
X190209000Y-85127000D02*
X190246000Y-85090000D01*
X190209000Y-104140000D02*
X190209000Y-85127000D01*
X144780000Y-101034315D02*
X145043010Y-100771305D01*
X145043010Y-86623010D02*
X144780000Y-86360000D01*
X144780000Y-101600000D02*
X144780000Y-101034315D01*
X145043010Y-100771305D02*
X145043010Y-86623010D01*
X180238400Y-86385400D02*
X180238400Y-90170000D01*
X141478000Y-126446279D02*
X141300200Y-126624079D01*
X141478000Y-113030000D02*
X141478000Y-126446279D01*
X183854603Y-87614003D02*
X183845200Y-87604600D01*
X183854603Y-126224069D02*
X183854603Y-87614003D01*
X131572000Y-97790000D02*
X131572000Y-95250000D01*
D21*
X89837500Y-98298000D02*
X89408000Y-98727500D01*
X90678000Y-98298000D02*
X89837500Y-98298000D01*
X98044000Y-98298000D02*
X98044000Y-113284000D01*
X126218001Y-54590001D02*
X124968000Y-53340000D01*
X128658010Y-85953616D02*
X128658010Y-76322012D01*
X127508000Y-87103626D02*
X128658010Y-85953616D01*
X127508000Y-87297500D02*
X127508000Y-87103626D01*
X134620000Y-76200000D02*
X134620000Y-69850000D01*
X143987999Y-31387499D02*
X142748000Y-30147500D01*
X143987999Y-58135999D02*
X143987999Y-31387499D01*
X145288000Y-59436000D02*
X143987999Y-58135999D01*
X145288000Y-62738000D02*
X145288000Y-62484000D01*
X145288000Y-69850000D02*
X145288000Y-62738000D01*
X145288000Y-62738000D02*
X145288000Y-59436000D01*
X160528000Y-62230000D02*
X160528000Y-50800000D01*
X123444000Y-51816000D02*
X123444000Y-49530000D01*
X124968000Y-53340000D02*
X123444000Y-51816000D01*
X107442000Y-49530000D02*
X107442000Y-38100000D01*
X115697000Y-64135000D02*
X117348000Y-64135000D01*
X114808000Y-63246000D02*
X115697000Y-64135000D01*
X114808000Y-50038000D02*
X114808000Y-63246000D01*
X114554000Y-49784000D02*
X114808000Y-50038000D01*
X114554000Y-49530000D02*
X114554000Y-49784000D01*
X86987990Y-42967490D02*
X88138000Y-44117500D01*
X86987990Y-38473990D02*
X86987990Y-42967490D01*
X86614000Y-38100000D02*
X86987990Y-38473990D01*
X85598000Y-37592000D02*
X84074000Y-39116000D01*
X84074000Y-39116000D02*
X84074000Y-50038000D01*
X84074000Y-58801000D02*
X85598000Y-60325000D01*
X160528000Y-62230000D02*
X158745347Y-64012653D01*
X142064500Y-97203500D02*
X141478000Y-97790000D01*
X144018000Y-97203500D02*
X142064500Y-97203500D01*
X136652000Y-112522000D02*
X136144000Y-113030000D01*
X127508000Y-111760000D02*
X124460000Y-111760000D01*
X124460000Y-111760000D02*
X122936000Y-113284000D01*
X127508000Y-113030000D02*
X127508000Y-111760000D01*
X127508000Y-111760000D02*
X127508000Y-87297500D01*
X107442000Y-38100000D02*
X107442000Y-29210000D01*
X112600500Y-29210000D02*
X113538000Y-30147500D01*
X112014000Y-29210000D02*
X112600500Y-29210000D01*
X93980000Y-37846000D02*
X94379999Y-38245999D01*
X94507999Y-61359999D02*
X94507999Y-61560001D01*
X94379999Y-61359999D02*
X94507999Y-61359999D01*
X94379999Y-38245999D02*
X94379999Y-61359999D01*
X95860501Y-62912503D02*
X95860501Y-64475001D01*
X94507999Y-61560001D02*
X95860501Y-62912503D01*
X128658010Y-76322012D02*
X127508000Y-74930000D01*
X158520583Y-88367417D02*
X158520583Y-87859417D01*
X158496000Y-84836000D02*
X158520583Y-88367417D01*
X158520583Y-88367417D02*
X158745347Y-120654653D01*
X158745347Y-64012653D02*
X158496000Y-80518000D01*
X127508000Y-74930000D02*
X127508000Y-67056000D01*
X127508000Y-67056000D02*
X126238000Y-65786000D01*
X126238000Y-65786000D02*
X126218001Y-54590001D01*
X126218001Y-65766001D02*
X126238000Y-65786000D01*
X158496000Y-80518000D02*
X158496000Y-83820000D01*
X158496000Y-83820000D02*
X158496000Y-84836000D01*
X154779501Y-49549999D02*
X155975999Y-49549999D01*
X153862000Y-50467500D02*
X154779501Y-49549999D01*
X153162000Y-50467500D02*
X153862000Y-50467500D01*
X155975999Y-49549999D02*
X157226000Y-50800000D01*
X189151500Y-33020000D02*
X189738000Y-32433500D01*
X187198000Y-33020000D02*
X189151500Y-33020000D01*
X184912000Y-35306000D02*
X187198000Y-33020000D01*
X184912000Y-50800000D02*
X184912000Y-57150000D01*
D22*
X177038000Y-45133500D02*
X177038000Y-50800000D01*
D21*
X171371500Y-84503500D02*
X170688000Y-83820000D01*
X172212000Y-84503500D02*
X171371500Y-84503500D01*
X184912000Y-57150000D02*
X184912000Y-68580000D01*
X177721500Y-68580000D02*
X177038000Y-69263500D01*
X178308000Y-68580000D02*
X177721500Y-68580000D01*
D22*
X136652000Y-105664000D02*
X136652000Y-105410000D01*
D21*
X136652000Y-105664000D02*
X136652000Y-112522000D01*
X136652000Y-97790000D02*
X136652000Y-105664000D01*
X184912000Y-50800000D02*
X184912000Y-35306000D01*
X44196000Y-53086000D02*
X42895999Y-51785999D01*
X42895999Y-43544001D02*
X44196000Y-42244000D01*
X44196000Y-42244000D02*
X44196000Y-40894000D01*
X42895999Y-51785999D02*
X42895999Y-43544001D01*
X42895999Y-35511501D02*
X43688000Y-34719500D01*
X42895999Y-43544001D02*
X42895999Y-35511501D01*
X42895999Y-63723999D02*
X44196000Y-65024000D01*
X42895999Y-51785999D02*
X42895999Y-63723999D01*
X84074000Y-53848000D02*
X84074000Y-58801000D01*
X84074000Y-50038000D02*
X84074000Y-53848000D01*
D22*
X69850000Y-50643000D02*
X69850000Y-53086000D01*
X86154500Y-60325000D02*
X85598000Y-60325000D01*
X87884000Y-58595500D02*
X86154500Y-60325000D01*
D21*
X189151500Y-57150000D02*
X189738000Y-56563500D01*
X187198000Y-57150000D02*
X189151500Y-57150000D01*
X66802000Y-67310000D02*
X66802000Y-53086000D01*
X175514000Y-83820000D02*
X175514000Y-79502000D01*
X180086000Y-79502000D02*
X181434500Y-79502000D01*
X42895999Y-79979999D02*
X44196000Y-81280000D01*
X42895999Y-63723999D02*
X42895999Y-79979999D01*
D23*
X44949001Y-83083001D02*
X44196000Y-82330000D01*
X45019406Y-91504000D02*
X44949001Y-91433595D01*
X44949001Y-91433595D02*
X44949001Y-83083001D01*
X45974000Y-91504000D02*
X45019406Y-91504000D01*
X44196000Y-82330000D02*
X44196000Y-81280000D01*
D21*
X181434500Y-120474500D02*
X181457600Y-120497600D01*
X181434500Y-79502000D02*
X181434500Y-120474500D01*
D23*
X50800000Y-78740000D02*
X50907990Y-78847990D01*
X50608000Y-78740000D02*
X50800000Y-78740000D01*
X50607999Y-114107999D02*
X51054000Y-114554000D01*
X50607999Y-79147981D02*
X50607999Y-114107999D01*
X50907990Y-78847990D02*
X50607999Y-79147981D01*
X63308000Y-114808000D02*
X63562000Y-115062000D01*
X63308000Y-123323643D02*
X63560786Y-123576429D01*
X63308000Y-114808000D02*
X63308000Y-123323643D01*
X195998242Y-123050321D02*
X195733627Y-122785706D01*
X196188001Y-77375989D02*
X195639562Y-76827550D01*
X196188001Y-122331332D02*
X196188001Y-77375989D01*
X195733627Y-122785706D02*
X196188001Y-122331332D01*
X173488001Y-76714112D02*
X173188011Y-76414122D01*
X173188011Y-63037990D02*
X173488001Y-62738000D01*
X173188011Y-76414122D02*
X173188011Y-63037990D01*
D22*
X183025001Y-43542999D02*
X183388000Y-43180000D01*
X183025001Y-63329599D02*
X182854600Y-63500000D01*
X183025002Y-55531999D02*
X182750011Y-55257008D01*
X183025002Y-56228001D02*
X183025002Y-55531999D01*
X182854600Y-56398403D02*
X183025002Y-56228001D01*
X182854600Y-63500000D02*
X182854600Y-56398403D01*
X182750011Y-43817989D02*
X183388000Y-43180000D01*
X182750011Y-55257008D02*
X182750011Y-43817989D01*
X182300001Y-40711999D02*
X182372000Y-40640000D01*
X182300001Y-55880000D02*
X182300001Y-40711999D01*
D23*
X51308000Y-76454000D02*
X51308000Y-112014000D01*
X64008000Y-112014000D02*
X64008000Y-122936000D01*
X195488000Y-122332281D02*
X195488000Y-77816000D01*
X195033626Y-122786655D02*
X195488000Y-122332281D01*
X172788001Y-77470000D02*
X172788001Y-58420000D01*
D22*
X168731383Y-88755001D02*
X167819049Y-87842667D01*
X170575736Y-88755001D02*
X168731383Y-88755001D01*
X156210000Y-87630000D02*
X156210000Y-85395000D01*
X171445735Y-89625000D02*
X170575736Y-88755001D01*
X176530000Y-91440000D02*
X175260000Y-90170000D01*
X176530000Y-101600000D02*
X176530000Y-91440000D01*
M02*
