G04 #@! TF.GenerationSoftware,KiCad,Pcbnew,(5.1.5-0)*
G04 #@! TF.CreationDate,2020-04-20T15:28:22+02:00*
G04 #@! TF.ProjectId,sinope,73696e6f-7065-42e6-9b69-6361645f7063,rev?*
G04 #@! TF.SameCoordinates,Original*
G04 #@! TF.FileFunction,Legend,Top*
G04 #@! TF.FilePolarity,Positive*
%FSLAX46Y46*%
G04 Gerber Fmt 4.6, Leading zero omitted, Abs format (unit mm)*
G04 Created by KiCad (PCBNEW (5.1.5-0)) date 2020-04-20 15:28:22*
%MOMM*%
%LPD*%
G04 APERTURE LIST*
%ADD10C,0.300000*%
%ADD11C,0.100000*%
%ADD12C,0.150000*%
%ADD13C,0.120000*%
G04 APERTURE END LIST*
D10*
X43459495Y-59375657D02*
X44983304Y-59375657D01*
X44221400Y-60137561D02*
X44221400Y-58613752D01*
D11*
X78576419Y-30642323D02*
X78576419Y-30832800D01*
X78528800Y-30928038D01*
X78433561Y-31023276D01*
X78243085Y-31070895D01*
X77909752Y-31070895D01*
X77719276Y-31023276D01*
X77624038Y-30928038D01*
X77576419Y-30832800D01*
X77576419Y-30642323D01*
X77624038Y-30547085D01*
X77719276Y-30451847D01*
X77909752Y-30404228D01*
X78243085Y-30404228D01*
X78433561Y-30451847D01*
X78528800Y-30547085D01*
X78576419Y-30642323D01*
X77624038Y-31451847D02*
X77576419Y-31547085D01*
X77576419Y-31737561D01*
X77624038Y-31832800D01*
X77719276Y-31880419D01*
X77766895Y-31880419D01*
X77862133Y-31832800D01*
X77909752Y-31737561D01*
X77909752Y-31594704D01*
X77957371Y-31499466D01*
X78052609Y-31451847D01*
X78100228Y-31451847D01*
X78195466Y-31499466D01*
X78243085Y-31594704D01*
X78243085Y-31737561D01*
X78195466Y-31832800D01*
X77624038Y-32737561D02*
X77576419Y-32642323D01*
X77576419Y-32451847D01*
X77624038Y-32356609D01*
X77671657Y-32308990D01*
X77766895Y-32261371D01*
X78052609Y-32261371D01*
X78147847Y-32308990D01*
X78195466Y-32356609D01*
X78243085Y-32451847D01*
X78243085Y-32642323D01*
X78195466Y-32737561D01*
X77576419Y-33166133D02*
X78243085Y-33166133D01*
X78576419Y-33166133D02*
X78528800Y-33118514D01*
X78481180Y-33166133D01*
X78528800Y-33213752D01*
X78576419Y-33166133D01*
X78481180Y-33166133D01*
X77576419Y-33785180D02*
X77624038Y-33689942D01*
X77719276Y-33642323D01*
X78576419Y-33642323D01*
X77576419Y-34308990D02*
X77624038Y-34213752D01*
X77719276Y-34166133D01*
X78576419Y-34166133D01*
X77576419Y-35118514D02*
X78100228Y-35118514D01*
X78195466Y-35070895D01*
X78243085Y-34975657D01*
X78243085Y-34785180D01*
X78195466Y-34689942D01*
X77624038Y-35118514D02*
X77576419Y-35023276D01*
X77576419Y-34785180D01*
X77624038Y-34689942D01*
X77719276Y-34642323D01*
X77814514Y-34642323D01*
X77909752Y-34689942D01*
X77957371Y-34785180D01*
X77957371Y-35023276D01*
X78004990Y-35118514D01*
X78243085Y-35451847D02*
X78243085Y-35832800D01*
X78576419Y-35594704D02*
X77719276Y-35594704D01*
X77624038Y-35642323D01*
X77576419Y-35737561D01*
X77576419Y-35832800D01*
X77576419Y-36308990D02*
X77624038Y-36213752D01*
X77671657Y-36166133D01*
X77766895Y-36118514D01*
X78052609Y-36118514D01*
X78147847Y-36166133D01*
X78195466Y-36213752D01*
X78243085Y-36308990D01*
X78243085Y-36451847D01*
X78195466Y-36547085D01*
X78147847Y-36594704D01*
X78052609Y-36642323D01*
X77766895Y-36642323D01*
X77671657Y-36594704D01*
X77624038Y-36547085D01*
X77576419Y-36451847D01*
X77576419Y-36308990D01*
X77576419Y-37070895D02*
X78243085Y-37070895D01*
X78052609Y-37070895D02*
X78147847Y-37118514D01*
X78195466Y-37166133D01*
X78243085Y-37261371D01*
X78243085Y-37356609D01*
X182935619Y-56096876D02*
X183411809Y-55763542D01*
X182935619Y-55525447D02*
X183935619Y-55525447D01*
X183935619Y-55906400D01*
X183888000Y-56001638D01*
X183840380Y-56049257D01*
X183745142Y-56096876D01*
X183602285Y-56096876D01*
X183507047Y-56049257D01*
X183459428Y-56001638D01*
X183411809Y-55906400D01*
X183411809Y-55525447D01*
X182983238Y-56477828D02*
X182935619Y-56620685D01*
X182935619Y-56858780D01*
X182983238Y-56954019D01*
X183030857Y-57001638D01*
X183126095Y-57049257D01*
X183221333Y-57049257D01*
X183316571Y-57001638D01*
X183364190Y-56954019D01*
X183411809Y-56858780D01*
X183459428Y-56668304D01*
X183507047Y-56573066D01*
X183554666Y-56525447D01*
X183649904Y-56477828D01*
X183745142Y-56477828D01*
X183840380Y-56525447D01*
X183888000Y-56573066D01*
X183935619Y-56668304D01*
X183935619Y-56906400D01*
X183888000Y-57049257D01*
X183840380Y-57430209D02*
X183888000Y-57477828D01*
X183935619Y-57573066D01*
X183935619Y-57811161D01*
X183888000Y-57906400D01*
X183840380Y-57954019D01*
X183745142Y-58001638D01*
X183649904Y-58001638D01*
X183507047Y-57954019D01*
X182935619Y-57382590D01*
X182935619Y-58001638D01*
X183935619Y-58334971D02*
X183935619Y-58954019D01*
X183554666Y-58620685D01*
X183554666Y-58763542D01*
X183507047Y-58858780D01*
X183459428Y-58906400D01*
X183364190Y-58954019D01*
X183126095Y-58954019D01*
X183030857Y-58906400D01*
X182983238Y-58858780D01*
X182935619Y-58763542D01*
X182935619Y-58477828D01*
X182983238Y-58382590D01*
X183030857Y-58334971D01*
X183840380Y-59334971D02*
X183888000Y-59382590D01*
X183935619Y-59477828D01*
X183935619Y-59715923D01*
X183888000Y-59811161D01*
X183840380Y-59858780D01*
X183745142Y-59906400D01*
X183649904Y-59906400D01*
X183507047Y-59858780D01*
X182935619Y-59287352D01*
X182935619Y-59906400D01*
X182935619Y-61573066D02*
X182935619Y-61096876D01*
X183935619Y-61096876D01*
X182983238Y-62287352D02*
X182935619Y-62192114D01*
X182935619Y-62001638D01*
X182983238Y-61906400D01*
X183078476Y-61858780D01*
X183459428Y-61858780D01*
X183554666Y-61906400D01*
X183602285Y-62001638D01*
X183602285Y-62192114D01*
X183554666Y-62287352D01*
X183459428Y-62334971D01*
X183364190Y-62334971D01*
X183268952Y-61858780D01*
X183602285Y-62668304D02*
X182935619Y-62906400D01*
X183602285Y-63144495D01*
X182983238Y-63906400D02*
X182935619Y-63811161D01*
X182935619Y-63620685D01*
X182983238Y-63525447D01*
X183078476Y-63477828D01*
X183459428Y-63477828D01*
X183554666Y-63525447D01*
X183602285Y-63620685D01*
X183602285Y-63811161D01*
X183554666Y-63906400D01*
X183459428Y-63954019D01*
X183364190Y-63954019D01*
X183268952Y-63477828D01*
X182935619Y-64525447D02*
X182983238Y-64430209D01*
X183078476Y-64382590D01*
X183935619Y-64382590D01*
X183030857Y-66239733D02*
X182983238Y-66192114D01*
X182935619Y-66049257D01*
X182935619Y-65954019D01*
X182983238Y-65811161D01*
X183078476Y-65715923D01*
X183173714Y-65668304D01*
X183364190Y-65620685D01*
X183507047Y-65620685D01*
X183697523Y-65668304D01*
X183792761Y-65715923D01*
X183888000Y-65811161D01*
X183935619Y-65954019D01*
X183935619Y-66049257D01*
X183888000Y-66192114D01*
X183840380Y-66239733D01*
X182935619Y-66811161D02*
X182983238Y-66715923D01*
X183030857Y-66668304D01*
X183126095Y-66620685D01*
X183411809Y-66620685D01*
X183507047Y-66668304D01*
X183554666Y-66715923D01*
X183602285Y-66811161D01*
X183602285Y-66954019D01*
X183554666Y-67049257D01*
X183507047Y-67096876D01*
X183411809Y-67144495D01*
X183126095Y-67144495D01*
X183030857Y-67096876D01*
X182983238Y-67049257D01*
X182935619Y-66954019D01*
X182935619Y-66811161D01*
X183602285Y-67573066D02*
X182935619Y-67573066D01*
X183507047Y-67573066D02*
X183554666Y-67620685D01*
X183602285Y-67715923D01*
X183602285Y-67858780D01*
X183554666Y-67954019D01*
X183459428Y-68001638D01*
X182935619Y-68001638D01*
X183602285Y-68382590D02*
X182935619Y-68620685D01*
X183602285Y-68858780D01*
X182983238Y-69620685D02*
X182935619Y-69525447D01*
X182935619Y-69334971D01*
X182983238Y-69239733D01*
X183078476Y-69192114D01*
X183459428Y-69192114D01*
X183554666Y-69239733D01*
X183602285Y-69334971D01*
X183602285Y-69525447D01*
X183554666Y-69620685D01*
X183459428Y-69668304D01*
X183364190Y-69668304D01*
X183268952Y-69192114D01*
X182935619Y-70096876D02*
X183602285Y-70096876D01*
X183411809Y-70096876D02*
X183507047Y-70144495D01*
X183554666Y-70192114D01*
X183602285Y-70287352D01*
X183602285Y-70382590D01*
X183602285Y-70573066D02*
X183602285Y-70954019D01*
X183935619Y-70715923D02*
X183078476Y-70715923D01*
X182983238Y-70763542D01*
X182935619Y-70858780D01*
X182935619Y-70954019D01*
X182983238Y-71668304D02*
X182935619Y-71573066D01*
X182935619Y-71382590D01*
X182983238Y-71287352D01*
X183078476Y-71239733D01*
X183459428Y-71239733D01*
X183554666Y-71287352D01*
X183602285Y-71382590D01*
X183602285Y-71573066D01*
X183554666Y-71668304D01*
X183459428Y-71715923D01*
X183364190Y-71715923D01*
X183268952Y-71239733D01*
X182935619Y-72144495D02*
X183602285Y-72144495D01*
X183411809Y-72144495D02*
X183507047Y-72192114D01*
X183554666Y-72239733D01*
X183602285Y-72334971D01*
X183602285Y-72430209D01*
X182910219Y-32119276D02*
X183386409Y-31785942D01*
X182910219Y-31547847D02*
X183910219Y-31547847D01*
X183910219Y-31928800D01*
X183862600Y-32024038D01*
X183814980Y-32071657D01*
X183719742Y-32119276D01*
X183576885Y-32119276D01*
X183481647Y-32071657D01*
X183434028Y-32024038D01*
X183386409Y-31928800D01*
X183386409Y-31547847D01*
X182957838Y-32500228D02*
X182910219Y-32643085D01*
X182910219Y-32881180D01*
X182957838Y-32976419D01*
X183005457Y-33024038D01*
X183100695Y-33071657D01*
X183195933Y-33071657D01*
X183291171Y-33024038D01*
X183338790Y-32976419D01*
X183386409Y-32881180D01*
X183434028Y-32690704D01*
X183481647Y-32595466D01*
X183529266Y-32547847D01*
X183624504Y-32500228D01*
X183719742Y-32500228D01*
X183814980Y-32547847D01*
X183862600Y-32595466D01*
X183910219Y-32690704D01*
X183910219Y-32928800D01*
X183862600Y-33071657D01*
X183814980Y-33452609D02*
X183862600Y-33500228D01*
X183910219Y-33595466D01*
X183910219Y-33833561D01*
X183862600Y-33928800D01*
X183814980Y-33976419D01*
X183719742Y-34024038D01*
X183624504Y-34024038D01*
X183481647Y-33976419D01*
X182910219Y-33404990D01*
X182910219Y-34024038D01*
X183910219Y-34357371D02*
X183910219Y-34976419D01*
X183529266Y-34643085D01*
X183529266Y-34785942D01*
X183481647Y-34881180D01*
X183434028Y-34928800D01*
X183338790Y-34976419D01*
X183100695Y-34976419D01*
X183005457Y-34928800D01*
X182957838Y-34881180D01*
X182910219Y-34785942D01*
X182910219Y-34500228D01*
X182957838Y-34404990D01*
X183005457Y-34357371D01*
X183814980Y-35357371D02*
X183862600Y-35404990D01*
X183910219Y-35500228D01*
X183910219Y-35738323D01*
X183862600Y-35833561D01*
X183814980Y-35881180D01*
X183719742Y-35928800D01*
X183624504Y-35928800D01*
X183481647Y-35881180D01*
X182910219Y-35309752D01*
X182910219Y-35928800D01*
X182910219Y-37595466D02*
X182910219Y-37119276D01*
X183910219Y-37119276D01*
X182957838Y-38309752D02*
X182910219Y-38214514D01*
X182910219Y-38024038D01*
X182957838Y-37928800D01*
X183053076Y-37881180D01*
X183434028Y-37881180D01*
X183529266Y-37928800D01*
X183576885Y-38024038D01*
X183576885Y-38214514D01*
X183529266Y-38309752D01*
X183434028Y-38357371D01*
X183338790Y-38357371D01*
X183243552Y-37881180D01*
X183576885Y-38690704D02*
X182910219Y-38928800D01*
X183576885Y-39166895D01*
X182957838Y-39928800D02*
X182910219Y-39833561D01*
X182910219Y-39643085D01*
X182957838Y-39547847D01*
X183053076Y-39500228D01*
X183434028Y-39500228D01*
X183529266Y-39547847D01*
X183576885Y-39643085D01*
X183576885Y-39833561D01*
X183529266Y-39928800D01*
X183434028Y-39976419D01*
X183338790Y-39976419D01*
X183243552Y-39500228D01*
X182910219Y-40547847D02*
X182957838Y-40452609D01*
X183053076Y-40404990D01*
X183910219Y-40404990D01*
X183005457Y-42262133D02*
X182957838Y-42214514D01*
X182910219Y-42071657D01*
X182910219Y-41976419D01*
X182957838Y-41833561D01*
X183053076Y-41738323D01*
X183148314Y-41690704D01*
X183338790Y-41643085D01*
X183481647Y-41643085D01*
X183672123Y-41690704D01*
X183767361Y-41738323D01*
X183862600Y-41833561D01*
X183910219Y-41976419D01*
X183910219Y-42071657D01*
X183862600Y-42214514D01*
X183814980Y-42262133D01*
X182910219Y-42833561D02*
X182957838Y-42738323D01*
X183005457Y-42690704D01*
X183100695Y-42643085D01*
X183386409Y-42643085D01*
X183481647Y-42690704D01*
X183529266Y-42738323D01*
X183576885Y-42833561D01*
X183576885Y-42976419D01*
X183529266Y-43071657D01*
X183481647Y-43119276D01*
X183386409Y-43166895D01*
X183100695Y-43166895D01*
X183005457Y-43119276D01*
X182957838Y-43071657D01*
X182910219Y-42976419D01*
X182910219Y-42833561D01*
X183576885Y-43595466D02*
X182910219Y-43595466D01*
X183481647Y-43595466D02*
X183529266Y-43643085D01*
X183576885Y-43738323D01*
X183576885Y-43881180D01*
X183529266Y-43976419D01*
X183434028Y-44024038D01*
X182910219Y-44024038D01*
X183576885Y-44404990D02*
X182910219Y-44643085D01*
X183576885Y-44881180D01*
X182957838Y-45643085D02*
X182910219Y-45547847D01*
X182910219Y-45357371D01*
X182957838Y-45262133D01*
X183053076Y-45214514D01*
X183434028Y-45214514D01*
X183529266Y-45262133D01*
X183576885Y-45357371D01*
X183576885Y-45547847D01*
X183529266Y-45643085D01*
X183434028Y-45690704D01*
X183338790Y-45690704D01*
X183243552Y-45214514D01*
X182910219Y-46119276D02*
X183576885Y-46119276D01*
X183386409Y-46119276D02*
X183481647Y-46166895D01*
X183529266Y-46214514D01*
X183576885Y-46309752D01*
X183576885Y-46404990D01*
X183576885Y-46595466D02*
X183576885Y-46976419D01*
X183910219Y-46738323D02*
X183053076Y-46738323D01*
X182957838Y-46785942D01*
X182910219Y-46881180D01*
X182910219Y-46976419D01*
X182957838Y-47690704D02*
X182910219Y-47595466D01*
X182910219Y-47404990D01*
X182957838Y-47309752D01*
X183053076Y-47262133D01*
X183434028Y-47262133D01*
X183529266Y-47309752D01*
X183576885Y-47404990D01*
X183576885Y-47595466D01*
X183529266Y-47690704D01*
X183434028Y-47738323D01*
X183338790Y-47738323D01*
X183243552Y-47262133D01*
X182910219Y-48166895D02*
X183576885Y-48166895D01*
X183386409Y-48166895D02*
X183481647Y-48214514D01*
X183529266Y-48262133D01*
X183576885Y-48357371D01*
X183576885Y-48452609D01*
D10*
X100949238Y-78023009D02*
X102949238Y-78023009D01*
X102949238Y-79356342D02*
X102949238Y-79737295D01*
X102854000Y-79927771D01*
X102663523Y-80118247D01*
X102282571Y-80213485D01*
X101615904Y-80213485D01*
X101234952Y-80118247D01*
X101044476Y-79927771D01*
X100949238Y-79737295D01*
X100949238Y-79356342D01*
X101044476Y-79165866D01*
X101234952Y-78975390D01*
X101615904Y-78880152D01*
X102282571Y-78880152D01*
X102663523Y-78975390D01*
X102854000Y-79165866D01*
X102949238Y-79356342D01*
X102854000Y-83642057D02*
X102949238Y-83451580D01*
X102949238Y-83165866D01*
X102854000Y-82880152D01*
X102663523Y-82689676D01*
X102473047Y-82594438D01*
X102092095Y-82499200D01*
X101806380Y-82499200D01*
X101425428Y-82594438D01*
X101234952Y-82689676D01*
X101044476Y-82880152D01*
X100949238Y-83165866D01*
X100949238Y-83356342D01*
X101044476Y-83642057D01*
X101139714Y-83737295D01*
X101806380Y-83737295D01*
X101806380Y-83356342D01*
X101520666Y-84499200D02*
X101520666Y-85451580D01*
X100949238Y-84308723D02*
X102949238Y-84975390D01*
X100949238Y-85642057D01*
X100949238Y-87261104D02*
X100949238Y-86308723D01*
X102949238Y-86308723D01*
D11*
X81284819Y-45777828D02*
X82284819Y-45777828D01*
X82284819Y-46158780D01*
X82237200Y-46254019D01*
X82189580Y-46301638D01*
X82094342Y-46349257D01*
X81951485Y-46349257D01*
X81856247Y-46301638D01*
X81808628Y-46254019D01*
X81761009Y-46158780D01*
X81761009Y-45777828D01*
X82284819Y-46682590D02*
X81284819Y-46920685D01*
X81999104Y-47111161D01*
X81284819Y-47301638D01*
X82284819Y-47539733D01*
X81284819Y-48492114D02*
X81761009Y-48158780D01*
X81284819Y-47920685D02*
X82284819Y-47920685D01*
X82284819Y-48301638D01*
X82237200Y-48396876D01*
X82189580Y-48444495D01*
X82094342Y-48492114D01*
X81951485Y-48492114D01*
X81856247Y-48444495D01*
X81808628Y-48396876D01*
X81761009Y-48301638D01*
X81761009Y-47920685D01*
X81380057Y-50254019D02*
X81332438Y-50206400D01*
X81284819Y-50063542D01*
X81284819Y-49968304D01*
X81332438Y-49825447D01*
X81427676Y-49730209D01*
X81522914Y-49682590D01*
X81713390Y-49634971D01*
X81856247Y-49634971D01*
X82046723Y-49682590D01*
X82141961Y-49730209D01*
X82237200Y-49825447D01*
X82284819Y-49968304D01*
X82284819Y-50063542D01*
X82237200Y-50206400D01*
X82189580Y-50254019D01*
X81284819Y-50825447D02*
X81332438Y-50730209D01*
X81380057Y-50682590D01*
X81475295Y-50634971D01*
X81761009Y-50634971D01*
X81856247Y-50682590D01*
X81903866Y-50730209D01*
X81951485Y-50825447D01*
X81951485Y-50968304D01*
X81903866Y-51063542D01*
X81856247Y-51111161D01*
X81761009Y-51158780D01*
X81475295Y-51158780D01*
X81380057Y-51111161D01*
X81332438Y-51063542D01*
X81284819Y-50968304D01*
X81284819Y-50825447D01*
X81951485Y-51587352D02*
X81284819Y-51587352D01*
X81856247Y-51587352D02*
X81903866Y-51634971D01*
X81951485Y-51730209D01*
X81951485Y-51873066D01*
X81903866Y-51968304D01*
X81808628Y-52015923D01*
X81284819Y-52015923D01*
X81951485Y-52349257D02*
X81951485Y-52730209D01*
X82284819Y-52492114D02*
X81427676Y-52492114D01*
X81332438Y-52539733D01*
X81284819Y-52634971D01*
X81284819Y-52730209D01*
X81284819Y-53063542D02*
X81951485Y-53063542D01*
X81761009Y-53063542D02*
X81856247Y-53111161D01*
X81903866Y-53158780D01*
X81951485Y-53254019D01*
X81951485Y-53349257D01*
X81284819Y-53825447D02*
X81332438Y-53730209D01*
X81380057Y-53682590D01*
X81475295Y-53634971D01*
X81761009Y-53634971D01*
X81856247Y-53682590D01*
X81903866Y-53730209D01*
X81951485Y-53825447D01*
X81951485Y-53968304D01*
X81903866Y-54063542D01*
X81856247Y-54111161D01*
X81761009Y-54158780D01*
X81475295Y-54158780D01*
X81380057Y-54111161D01*
X81332438Y-54063542D01*
X81284819Y-53968304D01*
X81284819Y-53825447D01*
X81284819Y-54730209D02*
X81332438Y-54634971D01*
X81427676Y-54587352D01*
X82284819Y-54587352D01*
X81284819Y-55254019D02*
X81332438Y-55158780D01*
X81427676Y-55111161D01*
X82284819Y-55111161D01*
X81332438Y-56015923D02*
X81284819Y-55920685D01*
X81284819Y-55730209D01*
X81332438Y-55634971D01*
X81427676Y-55587352D01*
X81808628Y-55587352D01*
X81903866Y-55634971D01*
X81951485Y-55730209D01*
X81951485Y-55920685D01*
X81903866Y-56015923D01*
X81808628Y-56063542D01*
X81713390Y-56063542D01*
X81618152Y-55587352D01*
X81284819Y-56492114D02*
X81951485Y-56492114D01*
X81761009Y-56492114D02*
X81856247Y-56539733D01*
X81903866Y-56587352D01*
X81951485Y-56682590D01*
X81951485Y-56777828D01*
D10*
X120202438Y-89428180D02*
X122202438Y-89428180D01*
X120773866Y-90094847D01*
X122202438Y-90761514D01*
X120202438Y-90761514D01*
X121250057Y-91713895D02*
X121250057Y-92380561D01*
X120202438Y-92666276D02*
X120202438Y-91713895D01*
X122202438Y-91713895D01*
X122202438Y-92666276D01*
X120202438Y-93523419D02*
X122202438Y-93523419D01*
X120773866Y-94190085D01*
X122202438Y-94856752D01*
X120202438Y-94856752D01*
X122202438Y-96190085D02*
X122202438Y-96571038D01*
X122107200Y-96761514D01*
X121916723Y-96951990D01*
X121535771Y-97047228D01*
X120869104Y-97047228D01*
X120488152Y-96951990D01*
X120297676Y-96761514D01*
X120202438Y-96571038D01*
X120202438Y-96190085D01*
X120297676Y-95999609D01*
X120488152Y-95809133D01*
X120869104Y-95713895D01*
X121535771Y-95713895D01*
X121916723Y-95809133D01*
X122107200Y-95999609D01*
X122202438Y-96190085D01*
X120202438Y-99047228D02*
X121154819Y-98380561D01*
X120202438Y-97904371D02*
X122202438Y-97904371D01*
X122202438Y-98666276D01*
X122107200Y-98856752D01*
X122011961Y-98951990D01*
X121821485Y-99047228D01*
X121535771Y-99047228D01*
X121345295Y-98951990D01*
X121250057Y-98856752D01*
X121154819Y-98666276D01*
X121154819Y-97904371D01*
X121154819Y-100285323D02*
X120202438Y-100285323D01*
X122202438Y-99618657D02*
X121154819Y-100285323D01*
X122202438Y-100951990D01*
X122107200Y-104190085D02*
X122202438Y-103999609D01*
X122202438Y-103713895D01*
X122107200Y-103428180D01*
X121916723Y-103237704D01*
X121726247Y-103142466D01*
X121345295Y-103047228D01*
X121059580Y-103047228D01*
X120678628Y-103142466D01*
X120488152Y-103237704D01*
X120297676Y-103428180D01*
X120202438Y-103713895D01*
X120202438Y-103904371D01*
X120297676Y-104190085D01*
X120392914Y-104285323D01*
X121059580Y-104285323D01*
X121059580Y-103904371D01*
X120773866Y-105047228D02*
X120773866Y-105999609D01*
X120202438Y-104856752D02*
X122202438Y-105523419D01*
X120202438Y-106190085D01*
X120202438Y-107809133D02*
X120202438Y-106856752D01*
X122202438Y-106856752D01*
D11*
X137215619Y-99365419D02*
X137691809Y-99032085D01*
X137215619Y-98793990D02*
X138215619Y-98793990D01*
X138215619Y-99174942D01*
X138168000Y-99270180D01*
X138120380Y-99317800D01*
X138025142Y-99365419D01*
X137882285Y-99365419D01*
X137787047Y-99317800D01*
X137739428Y-99270180D01*
X137691809Y-99174942D01*
X137691809Y-98793990D01*
X137501333Y-99746371D02*
X137501333Y-100222561D01*
X137215619Y-99651133D02*
X138215619Y-99984466D01*
X137215619Y-100317800D01*
X137215619Y-100651133D02*
X138215619Y-100651133D01*
X137501333Y-100984466D01*
X138215619Y-101317800D01*
X137215619Y-101317800D01*
X137501333Y-102508276D02*
X137501333Y-102984466D01*
X137215619Y-102413038D02*
X138215619Y-102746371D01*
X137215619Y-103079704D01*
X137215619Y-103413038D02*
X138215619Y-103413038D01*
X138215619Y-103651133D01*
X138168000Y-103793990D01*
X138072761Y-103889228D01*
X137977523Y-103936847D01*
X137787047Y-103984466D01*
X137644190Y-103984466D01*
X137453714Y-103936847D01*
X137358476Y-103889228D01*
X137263238Y-103793990D01*
X137215619Y-103651133D01*
X137215619Y-103413038D01*
X137215619Y-104413038D02*
X138215619Y-104413038D01*
X138215619Y-104651133D01*
X138168000Y-104793990D01*
X138072761Y-104889228D01*
X137977523Y-104936847D01*
X137787047Y-104984466D01*
X137644190Y-104984466D01*
X137453714Y-104936847D01*
X137358476Y-104889228D01*
X137263238Y-104793990D01*
X137215619Y-104651133D01*
X137215619Y-104413038D01*
X137215619Y-105984466D02*
X137691809Y-105651133D01*
X137215619Y-105413038D02*
X138215619Y-105413038D01*
X138215619Y-105793990D01*
X138168000Y-105889228D01*
X138120380Y-105936847D01*
X138025142Y-105984466D01*
X137882285Y-105984466D01*
X137787047Y-105936847D01*
X137739428Y-105889228D01*
X137691809Y-105793990D01*
X137691809Y-105413038D01*
X137215619Y-107174942D02*
X138215619Y-107174942D01*
X137501333Y-107508276D01*
X138215619Y-107841609D01*
X137215619Y-107841609D01*
X138215619Y-108317800D02*
X137406095Y-108317800D01*
X137310857Y-108365419D01*
X137263238Y-108413038D01*
X137215619Y-108508276D01*
X137215619Y-108698752D01*
X137263238Y-108793990D01*
X137310857Y-108841609D01*
X137406095Y-108889228D01*
X138215619Y-108889228D01*
X138215619Y-109270180D02*
X137215619Y-109936847D01*
X138215619Y-109936847D02*
X137215619Y-109270180D01*
D10*
X185328038Y-100625447D02*
X186280419Y-99958780D01*
X185328038Y-99482590D02*
X187328038Y-99482590D01*
X187328038Y-100244495D01*
X187232800Y-100434971D01*
X187137561Y-100530209D01*
X186947085Y-100625447D01*
X186661371Y-100625447D01*
X186470895Y-100530209D01*
X186375657Y-100434971D01*
X186280419Y-100244495D01*
X186280419Y-99482590D01*
X185899466Y-101387352D02*
X185899466Y-102339733D01*
X185328038Y-101196876D02*
X187328038Y-101863542D01*
X185328038Y-102530209D01*
X185328038Y-103196876D02*
X187328038Y-103196876D01*
X185899466Y-103863542D01*
X187328038Y-104530209D01*
X185328038Y-104530209D01*
X160994838Y-100003171D02*
X161947219Y-99336504D01*
X160994838Y-98860314D02*
X162994838Y-98860314D01*
X162994838Y-99622219D01*
X162899600Y-99812695D01*
X162804361Y-99907933D01*
X162613885Y-100003171D01*
X162328171Y-100003171D01*
X162137695Y-99907933D01*
X162042457Y-99812695D01*
X161947219Y-99622219D01*
X161947219Y-98860314D01*
X162994838Y-101241266D02*
X162994838Y-101622219D01*
X162899600Y-101812695D01*
X162709123Y-102003171D01*
X162328171Y-102098409D01*
X161661504Y-102098409D01*
X161280552Y-102003171D01*
X161090076Y-101812695D01*
X160994838Y-101622219D01*
X160994838Y-101241266D01*
X161090076Y-101050790D01*
X161280552Y-100860314D01*
X161661504Y-100765076D01*
X162328171Y-100765076D01*
X162709123Y-100860314D01*
X162899600Y-101050790D01*
X162994838Y-101241266D01*
X160994838Y-102955552D02*
X162994838Y-102955552D01*
X161566266Y-103622219D01*
X162994838Y-104288885D01*
X160994838Y-104288885D01*
X163883838Y-45174733D02*
X163883838Y-46508066D01*
X161883838Y-45174733D01*
X161883838Y-46508066D01*
X163026695Y-47555685D02*
X163121933Y-47365209D01*
X163217171Y-47269971D01*
X163407647Y-47174733D01*
X163502885Y-47174733D01*
X163693361Y-47269971D01*
X163788600Y-47365209D01*
X163883838Y-47555685D01*
X163883838Y-47936638D01*
X163788600Y-48127114D01*
X163693361Y-48222352D01*
X163502885Y-48317590D01*
X163407647Y-48317590D01*
X163217171Y-48222352D01*
X163121933Y-48127114D01*
X163026695Y-47936638D01*
X163026695Y-47555685D01*
X162931457Y-47365209D01*
X162836219Y-47269971D01*
X162645742Y-47174733D01*
X162264790Y-47174733D01*
X162074314Y-47269971D01*
X161979076Y-47365209D01*
X161883838Y-47555685D01*
X161883838Y-47936638D01*
X161979076Y-48127114D01*
X162074314Y-48222352D01*
X162264790Y-48317590D01*
X162645742Y-48317590D01*
X162836219Y-48222352D01*
X162931457Y-48127114D01*
X163026695Y-47936638D01*
X163883838Y-49555685D02*
X163883838Y-49746161D01*
X163788600Y-49936638D01*
X163693361Y-50031876D01*
X163502885Y-50127114D01*
X163121933Y-50222352D01*
X162645742Y-50222352D01*
X162264790Y-50127114D01*
X162074314Y-50031876D01*
X161979076Y-49936638D01*
X161883838Y-49746161D01*
X161883838Y-49555685D01*
X161979076Y-49365209D01*
X162074314Y-49269971D01*
X162264790Y-49174733D01*
X162645742Y-49079495D01*
X163121933Y-49079495D01*
X163502885Y-49174733D01*
X163693361Y-49269971D01*
X163788600Y-49365209D01*
X163883838Y-49555685D01*
X162455266Y-50984257D02*
X162455266Y-51936638D01*
X161883838Y-50793780D02*
X163883838Y-51460447D01*
X161883838Y-52127114D01*
X161979076Y-54222352D02*
X161883838Y-54508066D01*
X161883838Y-54984257D01*
X161979076Y-55174733D01*
X162074314Y-55269971D01*
X162264790Y-55365209D01*
X162455266Y-55365209D01*
X162645742Y-55269971D01*
X162740980Y-55174733D01*
X162836219Y-54984257D01*
X162931457Y-54603304D01*
X163026695Y-54412828D01*
X163121933Y-54317590D01*
X163312409Y-54222352D01*
X163502885Y-54222352D01*
X163693361Y-54317590D01*
X163788600Y-54412828D01*
X163883838Y-54603304D01*
X163883838Y-55079495D01*
X163788600Y-55365209D01*
X161883838Y-56222352D02*
X163883838Y-56222352D01*
X163883838Y-57555685D02*
X163883838Y-57936638D01*
X163788600Y-58127114D01*
X163598123Y-58317590D01*
X163217171Y-58412828D01*
X162550504Y-58412828D01*
X162169552Y-58317590D01*
X161979076Y-58127114D01*
X161883838Y-57936638D01*
X161883838Y-57555685D01*
X161979076Y-57365209D01*
X162169552Y-57174733D01*
X162550504Y-57079495D01*
X163217171Y-57079495D01*
X163598123Y-57174733D01*
X163788600Y-57365209D01*
X163883838Y-57555685D01*
X133988038Y-44441314D02*
X133988038Y-45774647D01*
X131988038Y-44441314D01*
X131988038Y-45774647D01*
X133130895Y-46822266D02*
X133226133Y-46631790D01*
X133321371Y-46536552D01*
X133511847Y-46441314D01*
X133607085Y-46441314D01*
X133797561Y-46536552D01*
X133892800Y-46631790D01*
X133988038Y-46822266D01*
X133988038Y-47203219D01*
X133892800Y-47393695D01*
X133797561Y-47488933D01*
X133607085Y-47584171D01*
X133511847Y-47584171D01*
X133321371Y-47488933D01*
X133226133Y-47393695D01*
X133130895Y-47203219D01*
X133130895Y-46822266D01*
X133035657Y-46631790D01*
X132940419Y-46536552D01*
X132749942Y-46441314D01*
X132368990Y-46441314D01*
X132178514Y-46536552D01*
X132083276Y-46631790D01*
X131988038Y-46822266D01*
X131988038Y-47203219D01*
X132083276Y-47393695D01*
X132178514Y-47488933D01*
X132368990Y-47584171D01*
X132749942Y-47584171D01*
X132940419Y-47488933D01*
X133035657Y-47393695D01*
X133130895Y-47203219D01*
X133988038Y-48822266D02*
X133988038Y-49012742D01*
X133892800Y-49203219D01*
X133797561Y-49298457D01*
X133607085Y-49393695D01*
X133226133Y-49488933D01*
X132749942Y-49488933D01*
X132368990Y-49393695D01*
X132178514Y-49298457D01*
X132083276Y-49203219D01*
X131988038Y-49012742D01*
X131988038Y-48822266D01*
X132083276Y-48631790D01*
X132178514Y-48536552D01*
X132368990Y-48441314D01*
X132749942Y-48346076D01*
X133226133Y-48346076D01*
X133607085Y-48441314D01*
X133797561Y-48536552D01*
X133892800Y-48631790D01*
X133988038Y-48822266D01*
X132559466Y-50250838D02*
X132559466Y-51203219D01*
X131988038Y-50060361D02*
X133988038Y-50727028D01*
X131988038Y-51393695D01*
X131988038Y-53584171D02*
X133988038Y-53584171D01*
X133988038Y-54346076D01*
X133892800Y-54536552D01*
X133797561Y-54631790D01*
X133607085Y-54727028D01*
X133321371Y-54727028D01*
X133130895Y-54631790D01*
X133035657Y-54536552D01*
X132940419Y-54346076D01*
X132940419Y-53584171D01*
X131988038Y-55584171D02*
X133988038Y-55584171D01*
X133988038Y-56917504D02*
X133988038Y-57298457D01*
X133892800Y-57488933D01*
X133702323Y-57679409D01*
X133321371Y-57774647D01*
X132654704Y-57774647D01*
X132273752Y-57679409D01*
X132083276Y-57488933D01*
X131988038Y-57298457D01*
X131988038Y-56917504D01*
X132083276Y-56727028D01*
X132273752Y-56536552D01*
X132654704Y-56441314D01*
X133321371Y-56441314D01*
X133702323Y-56536552D01*
X133892800Y-56727028D01*
X133988038Y-56917504D01*
X104320838Y-36786419D02*
X104320838Y-38119752D01*
X102320838Y-36786419D01*
X102320838Y-38119752D01*
X103463695Y-39167371D02*
X103558933Y-38976895D01*
X103654171Y-38881657D01*
X103844647Y-38786419D01*
X103939885Y-38786419D01*
X104130361Y-38881657D01*
X104225600Y-38976895D01*
X104320838Y-39167371D01*
X104320838Y-39548323D01*
X104225600Y-39738800D01*
X104130361Y-39834038D01*
X103939885Y-39929276D01*
X103844647Y-39929276D01*
X103654171Y-39834038D01*
X103558933Y-39738800D01*
X103463695Y-39548323D01*
X103463695Y-39167371D01*
X103368457Y-38976895D01*
X103273219Y-38881657D01*
X103082742Y-38786419D01*
X102701790Y-38786419D01*
X102511314Y-38881657D01*
X102416076Y-38976895D01*
X102320838Y-39167371D01*
X102320838Y-39548323D01*
X102416076Y-39738800D01*
X102511314Y-39834038D01*
X102701790Y-39929276D01*
X103082742Y-39929276D01*
X103273219Y-39834038D01*
X103368457Y-39738800D01*
X103463695Y-39548323D01*
X104320838Y-41167371D02*
X104320838Y-41357847D01*
X104225600Y-41548323D01*
X104130361Y-41643561D01*
X103939885Y-41738800D01*
X103558933Y-41834038D01*
X103082742Y-41834038D01*
X102701790Y-41738800D01*
X102511314Y-41643561D01*
X102416076Y-41548323D01*
X102320838Y-41357847D01*
X102320838Y-41167371D01*
X102416076Y-40976895D01*
X102511314Y-40881657D01*
X102701790Y-40786419D01*
X103082742Y-40691180D01*
X103558933Y-40691180D01*
X103939885Y-40786419D01*
X104130361Y-40881657D01*
X104225600Y-40976895D01*
X104320838Y-41167371D01*
X102892266Y-42595942D02*
X102892266Y-43548323D01*
X102320838Y-42405466D02*
X104320838Y-43072133D01*
X102320838Y-43738800D01*
X102511314Y-47072133D02*
X102416076Y-46976895D01*
X102320838Y-46691180D01*
X102320838Y-46500704D01*
X102416076Y-46214990D01*
X102606552Y-46024514D01*
X102797028Y-45929276D01*
X103177980Y-45834038D01*
X103463695Y-45834038D01*
X103844647Y-45929276D01*
X104035123Y-46024514D01*
X104225600Y-46214990D01*
X104320838Y-46500704D01*
X104320838Y-46691180D01*
X104225600Y-46976895D01*
X104130361Y-47072133D01*
X104320838Y-47643561D02*
X104320838Y-48786419D01*
X102320838Y-48214990D02*
X104320838Y-48214990D01*
X102511314Y-50595942D02*
X102416076Y-50500704D01*
X102320838Y-50214990D01*
X102320838Y-50024514D01*
X102416076Y-49738800D01*
X102606552Y-49548323D01*
X102797028Y-49453085D01*
X103177980Y-49357847D01*
X103463695Y-49357847D01*
X103844647Y-49453085D01*
X104035123Y-49548323D01*
X104225600Y-49738800D01*
X104320838Y-50024514D01*
X104320838Y-50214990D01*
X104225600Y-50500704D01*
X104130361Y-50595942D01*
X79378038Y-86691104D02*
X79378038Y-88024438D01*
X77378038Y-86691104D01*
X77378038Y-88024438D01*
X78520895Y-89072057D02*
X78616133Y-88881580D01*
X78711371Y-88786342D01*
X78901847Y-88691104D01*
X78997085Y-88691104D01*
X79187561Y-88786342D01*
X79282800Y-88881580D01*
X79378038Y-89072057D01*
X79378038Y-89453009D01*
X79282800Y-89643485D01*
X79187561Y-89738723D01*
X78997085Y-89833961D01*
X78901847Y-89833961D01*
X78711371Y-89738723D01*
X78616133Y-89643485D01*
X78520895Y-89453009D01*
X78520895Y-89072057D01*
X78425657Y-88881580D01*
X78330419Y-88786342D01*
X78139942Y-88691104D01*
X77758990Y-88691104D01*
X77568514Y-88786342D01*
X77473276Y-88881580D01*
X77378038Y-89072057D01*
X77378038Y-89453009D01*
X77473276Y-89643485D01*
X77568514Y-89738723D01*
X77758990Y-89833961D01*
X78139942Y-89833961D01*
X78330419Y-89738723D01*
X78425657Y-89643485D01*
X78520895Y-89453009D01*
X79378038Y-91072057D02*
X79378038Y-91262533D01*
X79282800Y-91453009D01*
X79187561Y-91548247D01*
X78997085Y-91643485D01*
X78616133Y-91738723D01*
X78139942Y-91738723D01*
X77758990Y-91643485D01*
X77568514Y-91548247D01*
X77473276Y-91453009D01*
X77378038Y-91262533D01*
X77378038Y-91072057D01*
X77473276Y-90881580D01*
X77568514Y-90786342D01*
X77758990Y-90691104D01*
X78139942Y-90595866D01*
X78616133Y-90595866D01*
X78997085Y-90691104D01*
X79187561Y-90786342D01*
X79282800Y-90881580D01*
X79378038Y-91072057D01*
X77949466Y-92500628D02*
X77949466Y-93453009D01*
X77378038Y-92310152D02*
X79378038Y-92976819D01*
X77378038Y-93643485D01*
X77568514Y-96976819D02*
X77473276Y-96881580D01*
X77378038Y-96595866D01*
X77378038Y-96405390D01*
X77473276Y-96119676D01*
X77663752Y-95929200D01*
X77854228Y-95833961D01*
X78235180Y-95738723D01*
X78520895Y-95738723D01*
X78901847Y-95833961D01*
X79092323Y-95929200D01*
X79282800Y-96119676D01*
X79378038Y-96405390D01*
X79378038Y-96595866D01*
X79282800Y-96881580D01*
X79187561Y-96976819D01*
X77378038Y-97833961D02*
X79378038Y-97833961D01*
X79378038Y-98595866D01*
X79282800Y-98786342D01*
X79187561Y-98881580D01*
X78997085Y-98976819D01*
X78711371Y-98976819D01*
X78520895Y-98881580D01*
X78425657Y-98786342D01*
X78330419Y-98595866D01*
X78330419Y-97833961D01*
X79378038Y-99833961D02*
X77758990Y-99833961D01*
X77568514Y-99929200D01*
X77473276Y-100024438D01*
X77378038Y-100214914D01*
X77378038Y-100595866D01*
X77473276Y-100786342D01*
X77568514Y-100881580D01*
X77758990Y-100976819D01*
X79378038Y-100976819D01*
D12*
X174540419Y-96871404D02*
X174540419Y-96299976D01*
X174540419Y-96585690D02*
X175540419Y-96585690D01*
X175397561Y-96490452D01*
X175302323Y-96395214D01*
X175254704Y-96299976D01*
X174921371Y-97299976D02*
X174921371Y-98061880D01*
X175445180Y-98490452D02*
X175492800Y-98538071D01*
X175540419Y-98633309D01*
X175540419Y-98871404D01*
X175492800Y-98966642D01*
X175445180Y-99014261D01*
X175349942Y-99061880D01*
X175254704Y-99061880D01*
X175111847Y-99014261D01*
X174540419Y-98442833D01*
X174540419Y-99061880D01*
X175540419Y-100919023D02*
X175540419Y-101538071D01*
X175159466Y-101204738D01*
X175159466Y-101347595D01*
X175111847Y-101442833D01*
X175064228Y-101490452D01*
X174968990Y-101538071D01*
X174730895Y-101538071D01*
X174635657Y-101490452D01*
X174588038Y-101442833D01*
X174540419Y-101347595D01*
X174540419Y-101061880D01*
X174588038Y-100966642D01*
X174635657Y-100919023D01*
X175540419Y-103014261D02*
X174826133Y-103014261D01*
X174683276Y-102966642D01*
X174588038Y-102871404D01*
X174540419Y-102728547D01*
X174540419Y-102633309D01*
X175064228Y-103490452D02*
X175064228Y-103823785D01*
X174540419Y-103966642D02*
X174540419Y-103490452D01*
X175540419Y-103490452D01*
X175540419Y-103966642D01*
X174540419Y-104395214D02*
X175540419Y-104395214D01*
X175540419Y-104633309D01*
X175492800Y-104776166D01*
X175397561Y-104871404D01*
X175302323Y-104919023D01*
X175111847Y-104966642D01*
X174968990Y-104966642D01*
X174778514Y-104919023D01*
X174683276Y-104871404D01*
X174588038Y-104776166D01*
X174540419Y-104633309D01*
X174540419Y-104395214D01*
X175064228Y-105395214D02*
X175064228Y-105728547D01*
X174540419Y-105871404D02*
X174540419Y-105395214D01*
X175540419Y-105395214D01*
X175540419Y-105871404D01*
X174635657Y-106871404D02*
X174588038Y-106823785D01*
X174540419Y-106680928D01*
X174540419Y-106585690D01*
X174588038Y-106442833D01*
X174683276Y-106347595D01*
X174778514Y-106299976D01*
X174968990Y-106252357D01*
X175111847Y-106252357D01*
X175302323Y-106299976D01*
X175397561Y-106347595D01*
X175492800Y-106442833D01*
X175540419Y-106585690D01*
X175540419Y-106680928D01*
X175492800Y-106823785D01*
X175445180Y-106871404D01*
X174159466Y-108347595D02*
X174207085Y-108299976D01*
X174349942Y-108204738D01*
X174445180Y-108157119D01*
X174588038Y-108109500D01*
X174826133Y-108061880D01*
X175016609Y-108061880D01*
X175254704Y-108109500D01*
X175397561Y-108157119D01*
X175492800Y-108204738D01*
X175635657Y-108299976D01*
X175683276Y-108347595D01*
X175445180Y-108680928D02*
X175492800Y-108728547D01*
X175540419Y-108823785D01*
X175540419Y-109061880D01*
X175492800Y-109157119D01*
X175445180Y-109204738D01*
X175349942Y-109252357D01*
X175254704Y-109252357D01*
X175111847Y-109204738D01*
X174540419Y-108633309D01*
X174540419Y-109252357D01*
X175540419Y-109585690D02*
X175540419Y-110252357D01*
X174540419Y-109823785D01*
X174635657Y-111204738D02*
X174588038Y-111157119D01*
X174540419Y-111014261D01*
X174540419Y-110919023D01*
X174588038Y-110776166D01*
X174683276Y-110680928D01*
X174778514Y-110633309D01*
X174968990Y-110585690D01*
X175111847Y-110585690D01*
X175302323Y-110633309D01*
X175397561Y-110680928D01*
X175492800Y-110776166D01*
X175540419Y-110919023D01*
X175540419Y-111014261D01*
X175492800Y-111157119D01*
X175445180Y-111204738D01*
X175540419Y-111823785D02*
X175540419Y-111919023D01*
X175492800Y-112014261D01*
X175445180Y-112061880D01*
X175349942Y-112109500D01*
X175159466Y-112157119D01*
X174921371Y-112157119D01*
X174730895Y-112109500D01*
X174635657Y-112061880D01*
X174588038Y-112014261D01*
X174540419Y-111919023D01*
X174540419Y-111823785D01*
X174588038Y-111728547D01*
X174635657Y-111680928D01*
X174730895Y-111633309D01*
X174921371Y-111585690D01*
X175159466Y-111585690D01*
X175349942Y-111633309D01*
X175445180Y-111680928D01*
X175492800Y-111728547D01*
X175540419Y-111823785D01*
X174540419Y-113109500D02*
X174540419Y-112538071D01*
X174540419Y-112823785D02*
X175540419Y-112823785D01*
X175397561Y-112728547D01*
X175302323Y-112633309D01*
X175254704Y-112538071D01*
X175540419Y-113728547D02*
X175540419Y-113823785D01*
X175492800Y-113919023D01*
X175445180Y-113966642D01*
X175349942Y-114014261D01*
X175159466Y-114061880D01*
X174921371Y-114061880D01*
X174730895Y-114014261D01*
X174635657Y-113966642D01*
X174588038Y-113919023D01*
X174540419Y-113823785D01*
X174540419Y-113728547D01*
X174588038Y-113633309D01*
X174635657Y-113585690D01*
X174730895Y-113538071D01*
X174921371Y-113490452D01*
X175159466Y-113490452D01*
X175349942Y-113538071D01*
X175445180Y-113585690D01*
X175492800Y-113633309D01*
X175540419Y-113728547D01*
X174159466Y-114395214D02*
X174207085Y-114442833D01*
X174349942Y-114538071D01*
X174445180Y-114585690D01*
X174588038Y-114633309D01*
X174826133Y-114680928D01*
X175016609Y-114680928D01*
X175254704Y-114633309D01*
X175397561Y-114585690D01*
X175492800Y-114538071D01*
X175635657Y-114442833D01*
X175683276Y-114395214D01*
X172890419Y-96871404D02*
X172890419Y-96299976D01*
X172890419Y-96585690D02*
X173890419Y-96585690D01*
X173747561Y-96490452D01*
X173652323Y-96395214D01*
X173604704Y-96299976D01*
X173795180Y-98776166D02*
X173842800Y-98823785D01*
X173890419Y-98919023D01*
X173890419Y-99157119D01*
X173842800Y-99252357D01*
X173795180Y-99299976D01*
X173699942Y-99347595D01*
X173604704Y-99347595D01*
X173461847Y-99299976D01*
X172890419Y-98728547D01*
X172890419Y-99347595D01*
X173271371Y-99776166D02*
X173271371Y-100538071D01*
X173890419Y-100919023D02*
X173890419Y-101538071D01*
X173509466Y-101204738D01*
X173509466Y-101347595D01*
X173461847Y-101442833D01*
X173414228Y-101490452D01*
X173318990Y-101538071D01*
X173080895Y-101538071D01*
X172985657Y-101490452D01*
X172938038Y-101442833D01*
X172890419Y-101347595D01*
X172890419Y-101061880D01*
X172938038Y-100966642D01*
X172985657Y-100919023D01*
X173557085Y-102728547D02*
X172890419Y-102728547D01*
X173461847Y-102728547D02*
X173509466Y-102776166D01*
X173557085Y-102871404D01*
X173557085Y-103014261D01*
X173509466Y-103109500D01*
X173414228Y-103157119D01*
X172890419Y-103157119D01*
X172890419Y-103776166D02*
X172938038Y-103680928D01*
X172985657Y-103633309D01*
X173080895Y-103585690D01*
X173366609Y-103585690D01*
X173461847Y-103633309D01*
X173509466Y-103680928D01*
X173557085Y-103776166D01*
X173557085Y-103919023D01*
X173509466Y-104014261D01*
X173461847Y-104061880D01*
X173366609Y-104109500D01*
X173080895Y-104109500D01*
X172985657Y-104061880D01*
X172938038Y-104014261D01*
X172890419Y-103919023D01*
X172890419Y-103776166D01*
X173557085Y-104538071D02*
X172890419Y-104538071D01*
X173461847Y-104538071D02*
X173509466Y-104585690D01*
X173557085Y-104680928D01*
X173557085Y-104823785D01*
X173509466Y-104919023D01*
X173414228Y-104966642D01*
X172890419Y-104966642D01*
X173271371Y-105442833D02*
X173271371Y-106204738D01*
X173890419Y-106966642D02*
X173176133Y-106966642D01*
X173033276Y-106919023D01*
X172938038Y-106823785D01*
X172890419Y-106680928D01*
X172890419Y-106585690D01*
X172890419Y-107442833D02*
X173890419Y-107442833D01*
X173890419Y-107680928D01*
X173842800Y-107823785D01*
X173747561Y-107919023D01*
X173652323Y-107966642D01*
X173461847Y-108014261D01*
X173318990Y-108014261D01*
X173128514Y-107966642D01*
X173033276Y-107919023D01*
X172938038Y-107823785D01*
X172890419Y-107680928D01*
X172890419Y-107442833D01*
X173414228Y-108442833D02*
X173414228Y-108776166D01*
X172890419Y-108919023D02*
X172890419Y-108442833D01*
X173890419Y-108442833D01*
X173890419Y-108919023D01*
X172985657Y-109919023D02*
X172938038Y-109871404D01*
X172890419Y-109728547D01*
X172890419Y-109633309D01*
X172938038Y-109490452D01*
X173033276Y-109395214D01*
X173128514Y-109347595D01*
X173318990Y-109299976D01*
X173461847Y-109299976D01*
X173652323Y-109347595D01*
X173747561Y-109395214D01*
X173842800Y-109490452D01*
X173890419Y-109633309D01*
X173890419Y-109728547D01*
X173842800Y-109871404D01*
X173795180Y-109919023D01*
X46457238Y-102395976D02*
X46409619Y-102538833D01*
X46409619Y-102776928D01*
X46457238Y-102872166D01*
X46504857Y-102919785D01*
X46600095Y-102967404D01*
X46695333Y-102967404D01*
X46790571Y-102919785D01*
X46838190Y-102872166D01*
X46885809Y-102776928D01*
X46933428Y-102586452D01*
X46981047Y-102491214D01*
X47028666Y-102443595D01*
X47123904Y-102395976D01*
X47219142Y-102395976D01*
X47314380Y-102443595D01*
X47362000Y-102491214D01*
X47409619Y-102586452D01*
X47409619Y-102824547D01*
X47362000Y-102967404D01*
X46409619Y-103395976D02*
X47409619Y-103395976D01*
X46409619Y-103872166D02*
X47409619Y-103872166D01*
X46409619Y-104443595D01*
X47409619Y-104443595D01*
X47409619Y-105110261D02*
X47409619Y-105300738D01*
X47362000Y-105395976D01*
X47266761Y-105491214D01*
X47076285Y-105538833D01*
X46742952Y-105538833D01*
X46552476Y-105491214D01*
X46457238Y-105395976D01*
X46409619Y-105300738D01*
X46409619Y-105110261D01*
X46457238Y-105015023D01*
X46552476Y-104919785D01*
X46742952Y-104872166D01*
X47076285Y-104872166D01*
X47266761Y-104919785D01*
X47362000Y-105015023D01*
X47409619Y-105110261D01*
X46409619Y-105967404D02*
X47409619Y-105967404D01*
X47409619Y-106348357D01*
X47362000Y-106443595D01*
X47314380Y-106491214D01*
X47219142Y-106538833D01*
X47076285Y-106538833D01*
X46981047Y-106491214D01*
X46933428Y-106443595D01*
X46885809Y-106348357D01*
X46885809Y-105967404D01*
X46933428Y-106967404D02*
X46933428Y-107300738D01*
X46409619Y-107443595D02*
X46409619Y-106967404D01*
X47409619Y-106967404D01*
X47409619Y-107443595D01*
X47409619Y-108491214D02*
X46409619Y-108824547D01*
X47409619Y-109157880D01*
X46409619Y-110015023D02*
X46409619Y-109443595D01*
X46409619Y-109729309D02*
X47409619Y-109729309D01*
X47266761Y-109634071D01*
X47171523Y-109538833D01*
X47123904Y-109443595D01*
X46504857Y-110443595D02*
X46457238Y-110491214D01*
X46409619Y-110443595D01*
X46457238Y-110395976D01*
X46504857Y-110443595D01*
X46409619Y-110443595D01*
X47409619Y-111110261D02*
X47409619Y-111205500D01*
X47362000Y-111300738D01*
X47314380Y-111348357D01*
X47219142Y-111395976D01*
X47028666Y-111443595D01*
X46790571Y-111443595D01*
X46600095Y-111395976D01*
X46504857Y-111348357D01*
X46457238Y-111300738D01*
X46409619Y-111205500D01*
X46409619Y-111110261D01*
X46457238Y-111015023D01*
X46504857Y-110967404D01*
X46600095Y-110919785D01*
X46790571Y-110872166D01*
X47028666Y-110872166D01*
X47219142Y-110919785D01*
X47314380Y-110967404D01*
X47362000Y-111015023D01*
X47409619Y-111110261D01*
X44759619Y-102443595D02*
X45759619Y-102443595D01*
X45283428Y-102443595D02*
X45283428Y-103015023D01*
X44759619Y-103015023D02*
X45759619Y-103015023D01*
X44759619Y-103919785D02*
X45283428Y-103919785D01*
X45378666Y-103872166D01*
X45426285Y-103776928D01*
X45426285Y-103586452D01*
X45378666Y-103491214D01*
X44807238Y-103919785D02*
X44759619Y-103824547D01*
X44759619Y-103586452D01*
X44807238Y-103491214D01*
X44902476Y-103443595D01*
X44997714Y-103443595D01*
X45092952Y-103491214D01*
X45140571Y-103586452D01*
X45140571Y-103824547D01*
X45188190Y-103919785D01*
X45426285Y-104395976D02*
X44759619Y-104395976D01*
X45331047Y-104395976D02*
X45378666Y-104443595D01*
X45426285Y-104538833D01*
X45426285Y-104681690D01*
X45378666Y-104776928D01*
X45283428Y-104824547D01*
X44759619Y-104824547D01*
X44807238Y-105253119D02*
X44759619Y-105348357D01*
X44759619Y-105538833D01*
X44807238Y-105634071D01*
X44902476Y-105681690D01*
X44950095Y-105681690D01*
X45045333Y-105634071D01*
X45092952Y-105538833D01*
X45092952Y-105395976D01*
X45140571Y-105300738D01*
X45235809Y-105253119D01*
X45283428Y-105253119D01*
X45378666Y-105300738D01*
X45426285Y-105395976D01*
X45426285Y-105538833D01*
X45378666Y-105634071D01*
X44759619Y-106872166D02*
X45759619Y-106872166D01*
X45283428Y-106872166D02*
X45283428Y-107443595D01*
X44759619Y-107443595D02*
X45759619Y-107443595D01*
X45426285Y-108348357D02*
X44759619Y-108348357D01*
X45426285Y-107919785D02*
X44902476Y-107919785D01*
X44807238Y-107967404D01*
X44759619Y-108062642D01*
X44759619Y-108205500D01*
X44807238Y-108300738D01*
X44854857Y-108348357D01*
X45759619Y-107967404D02*
X45712000Y-108015023D01*
X45664380Y-107967404D01*
X45712000Y-107919785D01*
X45759619Y-107967404D01*
X45664380Y-107967404D01*
X45759619Y-108348357D02*
X45712000Y-108395976D01*
X45664380Y-108348357D01*
X45712000Y-108300738D01*
X45759619Y-108348357D01*
X45664380Y-108348357D01*
X44759619Y-108824547D02*
X45759619Y-108824547D01*
X45378666Y-108824547D02*
X45426285Y-108919785D01*
X45426285Y-109110261D01*
X45378666Y-109205500D01*
X45331047Y-109253119D01*
X45235809Y-109300738D01*
X44950095Y-109300738D01*
X44854857Y-109253119D01*
X44807238Y-109205500D01*
X44759619Y-109110261D01*
X44759619Y-108919785D01*
X44807238Y-108824547D01*
X45426285Y-109729309D02*
X44759619Y-109729309D01*
X45331047Y-109729309D02*
X45378666Y-109776928D01*
X45426285Y-109872166D01*
X45426285Y-110015023D01*
X45378666Y-110110261D01*
X45283428Y-110157880D01*
X44759619Y-110157880D01*
X44807238Y-111015023D02*
X44759619Y-110919785D01*
X44759619Y-110729309D01*
X44807238Y-110634071D01*
X44902476Y-110586452D01*
X45283428Y-110586452D01*
X45378666Y-110634071D01*
X45426285Y-110729309D01*
X45426285Y-110919785D01*
X45378666Y-111015023D01*
X45283428Y-111062642D01*
X45188190Y-111062642D01*
X45092952Y-110586452D01*
X44759619Y-111491214D02*
X45426285Y-111491214D01*
X45235809Y-111491214D02*
X45331047Y-111538833D01*
X45378666Y-111586452D01*
X45426285Y-111681690D01*
X45426285Y-111776928D01*
X44378666Y-113157880D02*
X44426285Y-113110261D01*
X44569142Y-113015023D01*
X44664380Y-112967404D01*
X44807238Y-112919785D01*
X45045333Y-112872166D01*
X45235809Y-112872166D01*
X45473904Y-112919785D01*
X45616761Y-112967404D01*
X45712000Y-113015023D01*
X45854857Y-113110261D01*
X45902476Y-113157880D01*
X45235809Y-114157880D02*
X45283428Y-114110261D01*
X45331047Y-114015023D01*
X45331047Y-113919785D01*
X45283428Y-113824547D01*
X45235809Y-113776928D01*
X45140571Y-113729309D01*
X45045333Y-113729309D01*
X44950095Y-113776928D01*
X44902476Y-113824547D01*
X44854857Y-113919785D01*
X44854857Y-114015023D01*
X44902476Y-114110261D01*
X44950095Y-114157880D01*
X45331047Y-114157880D02*
X44950095Y-114157880D01*
X44902476Y-114205500D01*
X44902476Y-114253119D01*
X44950095Y-114348357D01*
X45045333Y-114395976D01*
X45283428Y-114395976D01*
X45426285Y-114300738D01*
X45521523Y-114157880D01*
X45569142Y-113967404D01*
X45521523Y-113776928D01*
X45426285Y-113634071D01*
X45283428Y-113538833D01*
X45092952Y-113491214D01*
X44902476Y-113538833D01*
X44759619Y-113634071D01*
X44664380Y-113776928D01*
X44616761Y-113967404D01*
X44664380Y-114157880D01*
X44759619Y-114300738D01*
X44759619Y-114824547D02*
X45759619Y-114824547D01*
X44759619Y-115253119D02*
X45283428Y-115253119D01*
X45378666Y-115205500D01*
X45426285Y-115110261D01*
X45426285Y-114967404D01*
X45378666Y-114872166D01*
X45331047Y-114824547D01*
X44759619Y-116157880D02*
X45283428Y-116157880D01*
X45378666Y-116110261D01*
X45426285Y-116015023D01*
X45426285Y-115824547D01*
X45378666Y-115729309D01*
X44807238Y-116157880D02*
X44759619Y-116062642D01*
X44759619Y-115824547D01*
X44807238Y-115729309D01*
X44902476Y-115681690D01*
X44997714Y-115681690D01*
X45092952Y-115729309D01*
X45140571Y-115824547D01*
X45140571Y-116062642D01*
X45188190Y-116157880D01*
X45426285Y-116634071D02*
X44759619Y-116634071D01*
X45331047Y-116634071D02*
X45378666Y-116681690D01*
X45426285Y-116776928D01*
X45426285Y-116919785D01*
X45378666Y-117015023D01*
X45283428Y-117062642D01*
X44759619Y-117062642D01*
X44807238Y-117491214D02*
X44759619Y-117586452D01*
X44759619Y-117776928D01*
X44807238Y-117872166D01*
X44902476Y-117919785D01*
X44950095Y-117919785D01*
X45045333Y-117872166D01*
X45092952Y-117776928D01*
X45092952Y-117634071D01*
X45140571Y-117538833D01*
X45235809Y-117491214D01*
X45283428Y-117491214D01*
X45378666Y-117538833D01*
X45426285Y-117634071D01*
X45426285Y-117776928D01*
X45378666Y-117872166D01*
X44759619Y-118348357D02*
X45759619Y-118348357D01*
X44759619Y-118776928D02*
X45283428Y-118776928D01*
X45378666Y-118729309D01*
X45426285Y-118634071D01*
X45426285Y-118491214D01*
X45378666Y-118395976D01*
X45331047Y-118348357D01*
X45426285Y-119681690D02*
X44759619Y-119681690D01*
X45426285Y-119253119D02*
X44902476Y-119253119D01*
X44807238Y-119300738D01*
X44759619Y-119395976D01*
X44759619Y-119538833D01*
X44807238Y-119634071D01*
X44854857Y-119681690D01*
X44807238Y-120538833D02*
X44759619Y-120443595D01*
X44759619Y-120253119D01*
X44807238Y-120157880D01*
X44902476Y-120110261D01*
X45283428Y-120110261D01*
X45378666Y-120157880D01*
X45426285Y-120253119D01*
X45426285Y-120443595D01*
X45378666Y-120538833D01*
X45283428Y-120586452D01*
X45188190Y-120586452D01*
X45092952Y-120110261D01*
X44759619Y-121015023D02*
X45759619Y-121015023D01*
X45378666Y-121015023D02*
X45426285Y-121110261D01*
X45426285Y-121300738D01*
X45378666Y-121395976D01*
X45331047Y-121443595D01*
X45235809Y-121491214D01*
X44950095Y-121491214D01*
X44854857Y-121443595D01*
X44807238Y-121395976D01*
X44759619Y-121300738D01*
X44759619Y-121110261D01*
X44807238Y-121015023D01*
X45426285Y-121919785D02*
X44759619Y-121919785D01*
X45331047Y-121919785D02*
X45378666Y-121967404D01*
X45426285Y-122062642D01*
X45426285Y-122205500D01*
X45378666Y-122300738D01*
X45283428Y-122348357D01*
X44759619Y-122348357D01*
X44807238Y-123205500D02*
X44759619Y-123110261D01*
X44759619Y-122919785D01*
X44807238Y-122824547D01*
X44902476Y-122776928D01*
X45283428Y-122776928D01*
X45378666Y-122824547D01*
X45426285Y-122919785D01*
X45426285Y-123110261D01*
X45378666Y-123205500D01*
X45283428Y-123253119D01*
X45188190Y-123253119D01*
X45092952Y-122776928D01*
X44759619Y-123681690D02*
X45426285Y-123681690D01*
X45235809Y-123681690D02*
X45331047Y-123729309D01*
X45378666Y-123776928D01*
X45426285Y-123872166D01*
X45426285Y-123967404D01*
X44378666Y-124205500D02*
X44426285Y-124253119D01*
X44569142Y-124348357D01*
X44664380Y-124395976D01*
X44807238Y-124443595D01*
X45045333Y-124491214D01*
X45235809Y-124491214D01*
X45473904Y-124443595D01*
X45616761Y-124395976D01*
X45711999Y-124348357D01*
X45854857Y-124253119D01*
X45902476Y-124205500D01*
X43776285Y-102872166D02*
X42966761Y-102872166D01*
X42871523Y-102824547D01*
X42823904Y-102776928D01*
X42776285Y-102681690D01*
X42776285Y-102538833D01*
X42823904Y-102443595D01*
X43157238Y-102872166D02*
X43109619Y-102776928D01*
X43109619Y-102586452D01*
X43157238Y-102491214D01*
X43204857Y-102443595D01*
X43300095Y-102395976D01*
X43585809Y-102395976D01*
X43681047Y-102443595D01*
X43728666Y-102491214D01*
X43776285Y-102586452D01*
X43776285Y-102776928D01*
X43728666Y-102872166D01*
X43109619Y-103348357D02*
X43776285Y-103348357D01*
X44109619Y-103348357D02*
X44062000Y-103300738D01*
X44014380Y-103348357D01*
X44062000Y-103395976D01*
X44109619Y-103348357D01*
X44014380Y-103348357D01*
X43776285Y-103681690D02*
X43776285Y-104062642D01*
X44109619Y-103824547D02*
X43252476Y-103824547D01*
X43157238Y-103872166D01*
X43109619Y-103967404D01*
X43109619Y-104062642D01*
X43109619Y-104395976D02*
X44109619Y-104395976D01*
X43109619Y-104824547D02*
X43633428Y-104824547D01*
X43728666Y-104776928D01*
X43776285Y-104681690D01*
X43776285Y-104538833D01*
X43728666Y-104443595D01*
X43681047Y-104395976D01*
X43776285Y-105729309D02*
X43109619Y-105729309D01*
X43776285Y-105300738D02*
X43252476Y-105300738D01*
X43157238Y-105348357D01*
X43109619Y-105443595D01*
X43109619Y-105586452D01*
X43157238Y-105681690D01*
X43204857Y-105729309D01*
X43109619Y-106205500D02*
X44109619Y-106205500D01*
X43728666Y-106205500D02*
X43776285Y-106300738D01*
X43776285Y-106491214D01*
X43728666Y-106586452D01*
X43681047Y-106634071D01*
X43585809Y-106681690D01*
X43300095Y-106681690D01*
X43204857Y-106634071D01*
X43157238Y-106586452D01*
X43109619Y-106491214D01*
X43109619Y-106300738D01*
X43157238Y-106205500D01*
X43204857Y-107110261D02*
X43157238Y-107157880D01*
X43109619Y-107110261D01*
X43157238Y-107062642D01*
X43204857Y-107110261D01*
X43109619Y-107110261D01*
X43157238Y-108015023D02*
X43109619Y-107919785D01*
X43109619Y-107729309D01*
X43157238Y-107634071D01*
X43204857Y-107586452D01*
X43300095Y-107538833D01*
X43585809Y-107538833D01*
X43681047Y-107586452D01*
X43728666Y-107634071D01*
X43776285Y-107729309D01*
X43776285Y-107919785D01*
X43728666Y-108015023D01*
X43109619Y-108586452D02*
X43157238Y-108491214D01*
X43204857Y-108443595D01*
X43300095Y-108395976D01*
X43585809Y-108395976D01*
X43681047Y-108443595D01*
X43728666Y-108491214D01*
X43776285Y-108586452D01*
X43776285Y-108729309D01*
X43728666Y-108824547D01*
X43681047Y-108872166D01*
X43585809Y-108919785D01*
X43300095Y-108919785D01*
X43204857Y-108872166D01*
X43157238Y-108824547D01*
X43109619Y-108729309D01*
X43109619Y-108586452D01*
X43109619Y-109348357D02*
X43776285Y-109348357D01*
X43681047Y-109348357D02*
X43728666Y-109395976D01*
X43776285Y-109491214D01*
X43776285Y-109634071D01*
X43728666Y-109729309D01*
X43633428Y-109776928D01*
X43109619Y-109776928D01*
X43633428Y-109776928D02*
X43728666Y-109824547D01*
X43776285Y-109919785D01*
X43776285Y-110062642D01*
X43728666Y-110157880D01*
X43633428Y-110205500D01*
X43109619Y-110205500D01*
X44157238Y-111395976D02*
X42871523Y-110538833D01*
X43109619Y-111729309D02*
X44109619Y-111729309D01*
X43109619Y-112157880D02*
X43633428Y-112157880D01*
X43728666Y-112110261D01*
X43776285Y-112015023D01*
X43776285Y-111872166D01*
X43728666Y-111776928D01*
X43681047Y-111729309D01*
X43109619Y-113062642D02*
X43633428Y-113062642D01*
X43728666Y-113015023D01*
X43776285Y-112919785D01*
X43776285Y-112729309D01*
X43728666Y-112634071D01*
X43157238Y-113062642D02*
X43109619Y-112967404D01*
X43109619Y-112729309D01*
X43157238Y-112634071D01*
X43252476Y-112586452D01*
X43347714Y-112586452D01*
X43442952Y-112634071D01*
X43490571Y-112729309D01*
X43490571Y-112967404D01*
X43538190Y-113062642D01*
X43776285Y-113538833D02*
X43109619Y-113538833D01*
X43681047Y-113538833D02*
X43728666Y-113586452D01*
X43776285Y-113681690D01*
X43776285Y-113824547D01*
X43728666Y-113919785D01*
X43633428Y-113967404D01*
X43109619Y-113967404D01*
X43157238Y-114395976D02*
X43109619Y-114491214D01*
X43109619Y-114681690D01*
X43157238Y-114776928D01*
X43252476Y-114824547D01*
X43300095Y-114824547D01*
X43395333Y-114776928D01*
X43442952Y-114681690D01*
X43442952Y-114538833D01*
X43490571Y-114443595D01*
X43585809Y-114395976D01*
X43633428Y-114395976D01*
X43728666Y-114443595D01*
X43776285Y-114538833D01*
X43776285Y-114681690D01*
X43728666Y-114776928D01*
X43109619Y-115253119D02*
X44109619Y-115253119D01*
X43109619Y-115681690D02*
X43633428Y-115681690D01*
X43728666Y-115634071D01*
X43776285Y-115538833D01*
X43776285Y-115395976D01*
X43728666Y-115300738D01*
X43681047Y-115253119D01*
X43776285Y-116586452D02*
X43109619Y-116586452D01*
X43776285Y-116157880D02*
X43252476Y-116157880D01*
X43157238Y-116205500D01*
X43109619Y-116300738D01*
X43109619Y-116443595D01*
X43157238Y-116538833D01*
X43204857Y-116586452D01*
X43157238Y-117443595D02*
X43109619Y-117348357D01*
X43109619Y-117157880D01*
X43157238Y-117062642D01*
X43252476Y-117015023D01*
X43633428Y-117015023D01*
X43728666Y-117062642D01*
X43776285Y-117157880D01*
X43776285Y-117348357D01*
X43728666Y-117443595D01*
X43633428Y-117491214D01*
X43538190Y-117491214D01*
X43442952Y-117015023D01*
X43109619Y-117919785D02*
X44109619Y-117919785D01*
X43728666Y-117919785D02*
X43776285Y-118015023D01*
X43776285Y-118205500D01*
X43728666Y-118300738D01*
X43681047Y-118348357D01*
X43585809Y-118395976D01*
X43300095Y-118395976D01*
X43204857Y-118348357D01*
X43157238Y-118300738D01*
X43109619Y-118205500D01*
X43109619Y-118015023D01*
X43157238Y-117919785D01*
X43776285Y-118824547D02*
X43109619Y-118824547D01*
X43681047Y-118824547D02*
X43728666Y-118872166D01*
X43776285Y-118967404D01*
X43776285Y-119110261D01*
X43728666Y-119205500D01*
X43633428Y-119253119D01*
X43109619Y-119253119D01*
X43157238Y-120110261D02*
X43109619Y-120015023D01*
X43109619Y-119824547D01*
X43157238Y-119729309D01*
X43252476Y-119681690D01*
X43633428Y-119681690D01*
X43728666Y-119729309D01*
X43776285Y-119824547D01*
X43776285Y-120015023D01*
X43728666Y-120110261D01*
X43633428Y-120157880D01*
X43538190Y-120157880D01*
X43442952Y-119681690D01*
X43109619Y-120586452D02*
X43776285Y-120586452D01*
X43585809Y-120586452D02*
X43681047Y-120634071D01*
X43728666Y-120681690D01*
X43776285Y-120776928D01*
X43776285Y-120872166D01*
X44157238Y-121919785D02*
X42871523Y-121062642D01*
X43157238Y-122205500D02*
X43109619Y-122300738D01*
X43109619Y-122491214D01*
X43157238Y-122586452D01*
X43252476Y-122634071D01*
X43300095Y-122634071D01*
X43395333Y-122586452D01*
X43442952Y-122491214D01*
X43442952Y-122348357D01*
X43490571Y-122253119D01*
X43585809Y-122205500D01*
X43633428Y-122205500D01*
X43728666Y-122253119D01*
X43776285Y-122348357D01*
X43776285Y-122491214D01*
X43728666Y-122586452D01*
X43109619Y-123062642D02*
X43776285Y-123062642D01*
X44109619Y-123062642D02*
X44061999Y-123015023D01*
X44014380Y-123062642D01*
X44061999Y-123110261D01*
X44109619Y-123062642D01*
X44014380Y-123062642D01*
X43776285Y-123538833D02*
X43109619Y-123538833D01*
X43681047Y-123538833D02*
X43728666Y-123586452D01*
X43776285Y-123681690D01*
X43776285Y-123824547D01*
X43728666Y-123919785D01*
X43633428Y-123967404D01*
X43109619Y-123967404D01*
X43109619Y-124586452D02*
X43157238Y-124491214D01*
X43204857Y-124443595D01*
X43300095Y-124395976D01*
X43585809Y-124395976D01*
X43681047Y-124443595D01*
X43728666Y-124491214D01*
X43776285Y-124586452D01*
X43776285Y-124729309D01*
X43728666Y-124824547D01*
X43681047Y-124872166D01*
X43585809Y-124919785D01*
X43300095Y-124919785D01*
X43204857Y-124872166D01*
X43157238Y-124824547D01*
X43109619Y-124729309D01*
X43109619Y-124586452D01*
X43776285Y-125348357D02*
X42776285Y-125348357D01*
X43728666Y-125348357D02*
X43776285Y-125443595D01*
X43776285Y-125634071D01*
X43728666Y-125729309D01*
X43681047Y-125776928D01*
X43585809Y-125824547D01*
X43300095Y-125824547D01*
X43204857Y-125776928D01*
X43157238Y-125729309D01*
X43109619Y-125634071D01*
X43109619Y-125443595D01*
X43157238Y-125348357D01*
X43157238Y-126634071D02*
X43109619Y-126538833D01*
X43109619Y-126348357D01*
X43157238Y-126253119D01*
X43252476Y-126205500D01*
X43633428Y-126205500D01*
X43728666Y-126253119D01*
X43776285Y-126348357D01*
X43776285Y-126538833D01*
X43728666Y-126634071D01*
X43633428Y-126681690D01*
X43538190Y-126681690D01*
X43442952Y-126205500D01*
X40743238Y-75954285D02*
X40695619Y-76097142D01*
X40695619Y-76335238D01*
X40743238Y-76430476D01*
X40790857Y-76478095D01*
X40886095Y-76525714D01*
X40981333Y-76525714D01*
X41076571Y-76478095D01*
X41124190Y-76430476D01*
X41171809Y-76335238D01*
X41219428Y-76144761D01*
X41267047Y-76049523D01*
X41314666Y-76001904D01*
X41409904Y-75954285D01*
X41505142Y-75954285D01*
X41600380Y-76001904D01*
X41648000Y-76049523D01*
X41695619Y-76144761D01*
X41695619Y-76382857D01*
X41648000Y-76525714D01*
X41219428Y-76954285D02*
X41219428Y-77287619D01*
X40695619Y-77430476D02*
X40695619Y-76954285D01*
X41695619Y-76954285D01*
X41695619Y-77430476D01*
X40695619Y-78430476D02*
X41171809Y-78097142D01*
X40695619Y-77859047D02*
X41695619Y-77859047D01*
X41695619Y-78240000D01*
X41648000Y-78335238D01*
X41600380Y-78382857D01*
X41505142Y-78430476D01*
X41362285Y-78430476D01*
X41267047Y-78382857D01*
X41219428Y-78335238D01*
X41171809Y-78240000D01*
X41171809Y-77859047D01*
X40695619Y-78859047D02*
X41695619Y-78859047D01*
X40981333Y-79287619D02*
X40981333Y-79763809D01*
X40695619Y-79192380D02*
X41695619Y-79525714D01*
X40695619Y-79859047D01*
X40695619Y-80668571D02*
X40695619Y-80192380D01*
X41695619Y-80192380D01*
X40695619Y-81525714D02*
X40695619Y-80954285D01*
X40695619Y-81240000D02*
X41695619Y-81240000D01*
X41552761Y-81144761D01*
X41457523Y-81049523D01*
X41409904Y-80954285D01*
X40743238Y-88654285D02*
X40695619Y-88797142D01*
X40695619Y-89035238D01*
X40743238Y-89130476D01*
X40790857Y-89178095D01*
X40886095Y-89225714D01*
X40981333Y-89225714D01*
X41076571Y-89178095D01*
X41124190Y-89130476D01*
X41171809Y-89035238D01*
X41219428Y-88844761D01*
X41267047Y-88749523D01*
X41314666Y-88701904D01*
X41409904Y-88654285D01*
X41505142Y-88654285D01*
X41600380Y-88701904D01*
X41648000Y-88749523D01*
X41695619Y-88844761D01*
X41695619Y-89082857D01*
X41648000Y-89225714D01*
X41219428Y-89654285D02*
X41219428Y-89987619D01*
X40695619Y-90130476D02*
X40695619Y-89654285D01*
X41695619Y-89654285D01*
X41695619Y-90130476D01*
X40695619Y-91130476D02*
X41171809Y-90797142D01*
X40695619Y-90559047D02*
X41695619Y-90559047D01*
X41695619Y-90940000D01*
X41648000Y-91035238D01*
X41600380Y-91082857D01*
X41505142Y-91130476D01*
X41362285Y-91130476D01*
X41267047Y-91082857D01*
X41219428Y-91035238D01*
X41171809Y-90940000D01*
X41171809Y-90559047D01*
X40695619Y-91559047D02*
X41695619Y-91559047D01*
X40981333Y-91987619D02*
X40981333Y-92463809D01*
X40695619Y-91892380D02*
X41695619Y-92225714D01*
X40695619Y-92559047D01*
X40695619Y-93368571D02*
X40695619Y-92892380D01*
X41695619Y-92892380D01*
X41695619Y-93892380D02*
X41695619Y-93987619D01*
X41648000Y-94082857D01*
X41600380Y-94130476D01*
X41505142Y-94178095D01*
X41314666Y-94225714D01*
X41076571Y-94225714D01*
X40886095Y-94178095D01*
X40790857Y-94130476D01*
X40743238Y-94082857D01*
X40695619Y-93987619D01*
X40695619Y-93892380D01*
X40743238Y-93797142D01*
X40790857Y-93749523D01*
X40886095Y-93701904D01*
X41076571Y-93654285D01*
X41314666Y-93654285D01*
X41505142Y-93701904D01*
X41600380Y-93749523D01*
X41648000Y-93797142D01*
X41695619Y-93892380D01*
X41219428Y-62634952D02*
X41171809Y-62777809D01*
X41124190Y-62825428D01*
X41028952Y-62873047D01*
X40886095Y-62873047D01*
X40790857Y-62825428D01*
X40743238Y-62777809D01*
X40695619Y-62682571D01*
X40695619Y-62301619D01*
X41695619Y-62301619D01*
X41695619Y-62634952D01*
X41648000Y-62730190D01*
X41600380Y-62777809D01*
X41505142Y-62825428D01*
X41409904Y-62825428D01*
X41314666Y-62777809D01*
X41267047Y-62730190D01*
X41219428Y-62634952D01*
X41219428Y-62301619D01*
X40981333Y-63254000D02*
X40981333Y-63730190D01*
X40695619Y-63158761D02*
X41695619Y-63492095D01*
X40695619Y-63825428D01*
X41695619Y-64015904D02*
X41695619Y-64587333D01*
X40695619Y-64301619D02*
X41695619Y-64301619D01*
X41695619Y-64777809D02*
X41695619Y-65349238D01*
X40695619Y-65063523D02*
X41695619Y-65063523D01*
D10*
X43484895Y-47361457D02*
X45008704Y-47361457D01*
X44246800Y-48123361D02*
X44246800Y-46599552D01*
D12*
X40695619Y-38425619D02*
X41171809Y-38092285D01*
X40695619Y-37854190D02*
X41695619Y-37854190D01*
X41695619Y-38235142D01*
X41648000Y-38330380D01*
X41600380Y-38378000D01*
X41505142Y-38425619D01*
X41362285Y-38425619D01*
X41267047Y-38378000D01*
X41219428Y-38330380D01*
X41171809Y-38235142D01*
X41171809Y-37854190D01*
X41219428Y-38854190D02*
X41219428Y-39187523D01*
X40695619Y-39330380D02*
X40695619Y-38854190D01*
X41695619Y-38854190D01*
X41695619Y-39330380D01*
X40743238Y-39711333D02*
X40695619Y-39854190D01*
X40695619Y-40092285D01*
X40743238Y-40187523D01*
X40790857Y-40235142D01*
X40886095Y-40282761D01*
X40981333Y-40282761D01*
X41076571Y-40235142D01*
X41124190Y-40187523D01*
X41171809Y-40092285D01*
X41219428Y-39901809D01*
X41267047Y-39806571D01*
X41314666Y-39758952D01*
X41409904Y-39711333D01*
X41505142Y-39711333D01*
X41600380Y-39758952D01*
X41648000Y-39806571D01*
X41695619Y-39901809D01*
X41695619Y-40139904D01*
X41648000Y-40282761D01*
X41219428Y-40711333D02*
X41219428Y-41044666D01*
X40695619Y-41187523D02*
X40695619Y-40711333D01*
X41695619Y-40711333D01*
X41695619Y-41187523D01*
X41695619Y-41473238D02*
X41695619Y-42044666D01*
X40695619Y-41758952D02*
X41695619Y-41758952D01*
X40695619Y-50482666D02*
X41695619Y-50482666D01*
X41695619Y-50863619D01*
X41648000Y-50958857D01*
X41600380Y-51006476D01*
X41505142Y-51054095D01*
X41362285Y-51054095D01*
X41267047Y-51006476D01*
X41219428Y-50958857D01*
X41171809Y-50863619D01*
X41171809Y-50482666D01*
X41695619Y-51387428D02*
X40695619Y-51625523D01*
X41409904Y-51816000D01*
X40695619Y-52006476D01*
X41695619Y-52244571D01*
X40695619Y-53196952D02*
X41171809Y-52863619D01*
X40695619Y-52625523D02*
X41695619Y-52625523D01*
X41695619Y-53006476D01*
X41648000Y-53101714D01*
X41600380Y-53149333D01*
X41505142Y-53196952D01*
X41362285Y-53196952D01*
X41267047Y-53149333D01*
X41219428Y-53101714D01*
X41171809Y-53006476D01*
X41171809Y-52625523D01*
D13*
X168258000Y-81220000D02*
X162798000Y-81220000D01*
X168258000Y-121980000D02*
X168258000Y-81220000D01*
X155338000Y-121980000D02*
X168258000Y-121980000D01*
X155338000Y-81220000D02*
X155338000Y-121980000D01*
X160798000Y-81220000D02*
X155338000Y-81220000D01*
X162798000Y-81220000D02*
G75*
G02X160798000Y-81220000I-1000000J0D01*
G01*
X192388000Y-81220000D02*
X186928000Y-81220000D01*
X192388000Y-121980000D02*
X192388000Y-81220000D01*
X179468000Y-121980000D02*
X192388000Y-121980000D01*
X179468000Y-81220000D02*
X179468000Y-121980000D01*
X184928000Y-81220000D02*
X179468000Y-81220000D01*
X186928000Y-81220000D02*
G75*
G02X184928000Y-81220000I-1000000J0D01*
G01*
X186038000Y-53280000D02*
X184388000Y-53280000D01*
X186038000Y-73720000D02*
X186038000Y-53280000D01*
X180738000Y-73720000D02*
X186038000Y-73720000D01*
X180738000Y-53280000D02*
X180738000Y-73720000D01*
X182388000Y-53280000D02*
X180738000Y-53280000D01*
X184388000Y-53280000D02*
G75*
G02X182388000Y-53280000I-1000000J0D01*
G01*
X171390000Y-86300000D02*
X172720000Y-86300000D01*
X171390000Y-87630000D02*
X171390000Y-86300000D01*
X171390000Y-88900000D02*
X174050000Y-88900000D01*
X174050000Y-88900000D02*
X174050000Y-94040000D01*
X171390000Y-88900000D02*
X171390000Y-94040000D01*
X171390000Y-94040000D02*
X174050000Y-94040000D01*
X173930000Y-86300000D02*
X175260000Y-86300000D01*
X173930000Y-87630000D02*
X173930000Y-86300000D01*
X173930000Y-88900000D02*
X176590000Y-88900000D01*
X176590000Y-88900000D02*
X176590000Y-94040000D01*
X173930000Y-88900000D02*
X173930000Y-94040000D01*
X173930000Y-94040000D02*
X176590000Y-94040000D01*
X52578000Y-25594000D02*
X53908000Y-25594000D01*
X53908000Y-25594000D02*
X53908000Y-26924000D01*
X53908000Y-28194000D02*
X53908000Y-127314000D01*
X51248000Y-127314000D02*
X53908000Y-127314000D01*
X51248000Y-28194000D02*
X51248000Y-127314000D01*
X51248000Y-28194000D02*
X53908000Y-28194000D01*
X45526000Y-42224000D02*
X44196000Y-42224000D01*
X45526000Y-40894000D02*
X45526000Y-42224000D01*
X45526000Y-39624000D02*
X42866000Y-39624000D01*
X42866000Y-39624000D02*
X42866000Y-37024000D01*
X45526000Y-39624000D02*
X45526000Y-37024000D01*
X45526000Y-37024000D02*
X42866000Y-37024000D01*
X47034000Y-96564000D02*
X45974000Y-96564000D01*
X47034000Y-95504000D02*
X47034000Y-96564000D01*
X44974000Y-96564000D02*
X42914000Y-96564000D01*
X44974000Y-94504000D02*
X44974000Y-96564000D01*
X47034000Y-94504000D02*
X44974000Y-94504000D01*
X42914000Y-96564000D02*
X42914000Y-86444000D01*
X47034000Y-94504000D02*
X47034000Y-86444000D01*
X47034000Y-86444000D02*
X42914000Y-86444000D01*
X186038000Y-29150000D02*
X184388000Y-29150000D01*
X186038000Y-49590000D02*
X186038000Y-29150000D01*
X180738000Y-49590000D02*
X186038000Y-49590000D01*
X180738000Y-29150000D02*
X180738000Y-49590000D01*
X182388000Y-29150000D02*
X180738000Y-29150000D01*
X184388000Y-29150000D02*
G75*
G02X182388000Y-29150000I-1000000J0D01*
G01*
X177748000Y-39374578D02*
X177748000Y-38857422D01*
X176328000Y-39374578D02*
X176328000Y-38857422D01*
X171502000Y-83307422D02*
X171502000Y-83824578D01*
X172922000Y-83307422D02*
X172922000Y-83824578D01*
X143958000Y-45406000D02*
X145288000Y-45406000D01*
X143958000Y-46736000D02*
X143958000Y-45406000D01*
X146558000Y-45406000D02*
X149158000Y-45406000D01*
X146558000Y-48006000D02*
X146558000Y-45406000D01*
X143958000Y-48006000D02*
X146558000Y-48006000D01*
X149158000Y-45406000D02*
X149158000Y-60766000D01*
X143958000Y-48006000D02*
X143958000Y-60766000D01*
X143958000Y-60766000D02*
X149158000Y-60766000D01*
X169528000Y-26610000D02*
X164068000Y-26610000D01*
X169528000Y-77530000D02*
X169528000Y-26610000D01*
X156608000Y-77530000D02*
X169528000Y-77530000D01*
X156608000Y-26610000D02*
X156608000Y-77530000D01*
X162068000Y-26610000D02*
X156608000Y-26610000D01*
X164068000Y-26610000D02*
G75*
G02X162068000Y-26610000I-1000000J0D01*
G01*
X85073000Y-69155000D02*
X79613000Y-69155000D01*
X85073000Y-120075000D02*
X85073000Y-69155000D01*
X72153000Y-120075000D02*
X85073000Y-120075000D01*
X72153000Y-69155000D02*
X72153000Y-120075000D01*
X77613000Y-69155000D02*
X72153000Y-69155000D01*
X79613000Y-69155000D02*
G75*
G02X77613000Y-69155000I-1000000J0D01*
G01*
X139048000Y-26610000D02*
X133588000Y-26610000D01*
X139048000Y-77530000D02*
X139048000Y-26610000D01*
X126128000Y-77530000D02*
X139048000Y-77530000D01*
X126128000Y-26610000D02*
X126128000Y-77530000D01*
X131588000Y-26610000D02*
X126128000Y-26610000D01*
X133588000Y-26610000D02*
G75*
G02X131588000Y-26610000I-1000000J0D01*
G01*
X84438000Y-41215000D02*
X82788000Y-41215000D01*
X84438000Y-61655000D02*
X84438000Y-41215000D01*
X79138000Y-61655000D02*
X84438000Y-61655000D01*
X79138000Y-41215000D02*
X79138000Y-61655000D01*
X80788000Y-41215000D02*
X79138000Y-41215000D01*
X82788000Y-41215000D02*
G75*
G02X80788000Y-41215000I-1000000J0D01*
G01*
X45526000Y-82610000D02*
X44196000Y-82610000D01*
X45526000Y-81280000D02*
X45526000Y-82610000D01*
X45526000Y-80010000D02*
X42866000Y-80010000D01*
X42866000Y-80010000D02*
X42866000Y-74870000D01*
X45526000Y-80010000D02*
X45526000Y-74870000D01*
X45526000Y-74870000D02*
X42866000Y-74870000D01*
X68278000Y-27332000D02*
G75*
G03X67528000Y-28082000I0J-750000D01*
G01*
X88428000Y-28082000D02*
G75*
G03X87678000Y-27332000I-750000J0D01*
G01*
X87678000Y-40232000D02*
G75*
G03X88428000Y-39482000I0J750000D01*
G01*
X67528000Y-40232000D02*
X87678000Y-40232000D01*
X88428000Y-39482000D02*
X88428000Y-28082000D01*
X87678000Y-27332000D02*
X68278000Y-27332000D01*
X67528000Y-28082000D02*
X67528000Y-40232000D01*
X140318000Y-93920000D02*
X138668000Y-93920000D01*
X140318000Y-114360000D02*
X140318000Y-93920000D01*
X135018000Y-114360000D02*
X140318000Y-114360000D01*
X135018000Y-93920000D02*
X135018000Y-114360000D01*
X136668000Y-93920000D02*
X135018000Y-93920000D01*
X138668000Y-93920000D02*
G75*
G02X136668000Y-93920000I-1000000J0D01*
G01*
X123808000Y-83760000D02*
X122158000Y-83760000D01*
X123808000Y-114360000D02*
X123808000Y-83760000D01*
X118508000Y-114360000D02*
X123808000Y-114360000D01*
X118508000Y-83760000D02*
X118508000Y-114360000D01*
X120158000Y-83760000D02*
X118508000Y-83760000D01*
X122158000Y-83760000D02*
G75*
G02X120158000Y-83760000I-1000000J0D01*
G01*
X104504000Y-69028000D02*
X102854000Y-69028000D01*
X104504000Y-99628000D02*
X104504000Y-69028000D01*
X99204000Y-99628000D02*
X104504000Y-99628000D01*
X99204000Y-69028000D02*
X99204000Y-99628000D01*
X100854000Y-69028000D02*
X99204000Y-69028000D01*
X102854000Y-69028000D02*
G75*
G02X100854000Y-69028000I-1000000J0D01*
G01*
X109838000Y-26610000D02*
X104378000Y-26610000D01*
X109838000Y-62290000D02*
X109838000Y-26610000D01*
X96918000Y-62290000D02*
X109838000Y-62290000D01*
X96918000Y-26610000D02*
X96918000Y-62290000D01*
X102378000Y-26610000D02*
X96918000Y-26610000D01*
X104378000Y-26610000D02*
G75*
G02X102378000Y-26610000I-1000000J0D01*
G01*
X42978000Y-33523422D02*
X42978000Y-34040578D01*
X44398000Y-33523422D02*
X44398000Y-34040578D01*
X72140578Y-65076000D02*
X71623422Y-65076000D01*
X72140578Y-66496000D02*
X71623422Y-66496000D01*
X69789522Y-41341522D02*
G75*
G03X71628000Y-45780000I1838478J-1838478D01*
G01*
X73466478Y-41341522D02*
G75*
G02X71628000Y-45780000I-1838478J-1838478D01*
G01*
X73428000Y-41330000D02*
X69828000Y-41330000D01*
X45526000Y-54416000D02*
X44196000Y-54416000D01*
X45526000Y-53086000D02*
X45526000Y-54416000D01*
X45526000Y-51816000D02*
X42866000Y-51816000D01*
X42866000Y-51816000D02*
X42866000Y-49216000D01*
X45526000Y-51816000D02*
X45526000Y-49216000D01*
X45526000Y-49216000D02*
X42866000Y-49216000D01*
X42866000Y-66354000D02*
X42866000Y-65024000D01*
X44196000Y-66354000D02*
X42866000Y-66354000D01*
X42866000Y-63754000D02*
X42866000Y-61154000D01*
X45466000Y-63754000D02*
X42866000Y-63754000D01*
X45466000Y-66354000D02*
X45466000Y-63754000D01*
X42866000Y-61154000D02*
X45526000Y-61154000D01*
X45466000Y-66354000D02*
X45526000Y-66354000D01*
X45526000Y-66354000D02*
X45526000Y-61154000D01*
X116018000Y-50105000D02*
X117348000Y-50105000D01*
X116018000Y-51435000D02*
X116018000Y-50105000D01*
X118618000Y-50105000D02*
X121218000Y-50105000D01*
X118618000Y-52705000D02*
X118618000Y-50105000D01*
X116018000Y-52705000D02*
X118618000Y-52705000D01*
X121218000Y-50105000D02*
X121218000Y-65465000D01*
X116018000Y-52705000D02*
X116018000Y-65465000D01*
X116018000Y-65465000D02*
X121218000Y-65465000D01*
X44648000Y-31657000D02*
X44648000Y-28972000D01*
X42728000Y-31657000D02*
X44648000Y-31657000D01*
X42728000Y-28972000D02*
X42728000Y-31657000D01*
X87174000Y-57399422D02*
X87174000Y-57916578D01*
X88594000Y-57399422D02*
X88594000Y-57916578D01*
X143308000Y-96007422D02*
X143308000Y-96524578D01*
X144728000Y-96007422D02*
X144728000Y-96524578D01*
X182630578Y-78792000D02*
X182113422Y-78792000D01*
X182630578Y-80212000D02*
X182113422Y-80212000D01*
X126798000Y-86101422D02*
X126798000Y-86618578D01*
X128218000Y-86101422D02*
X128218000Y-86618578D01*
X87428000Y-42921422D02*
X87428000Y-43438578D01*
X88848000Y-42921422D02*
X88848000Y-43438578D01*
X69140000Y-49446922D02*
X69140000Y-49964078D01*
X70560000Y-49446922D02*
X70560000Y-49964078D01*
X88698000Y-97531422D02*
X88698000Y-98048578D01*
X90118000Y-97531422D02*
X90118000Y-98048578D01*
X189028000Y-55367422D02*
X189028000Y-55884578D01*
X190448000Y-55367422D02*
X190448000Y-55884578D01*
X177748000Y-63426078D02*
X177748000Y-62908922D01*
X176328000Y-63426078D02*
X176328000Y-62908922D01*
X142038000Y-28951422D02*
X142038000Y-29468578D01*
X143458000Y-28951422D02*
X143458000Y-29468578D01*
X152452000Y-49271422D02*
X152452000Y-49788578D01*
X153872000Y-49271422D02*
X153872000Y-49788578D01*
X112828000Y-28951422D02*
X112828000Y-29468578D01*
X114248000Y-28951422D02*
X114248000Y-29468578D01*
X177748000Y-68584578D02*
X177748000Y-68067422D01*
X176328000Y-68584578D02*
X176328000Y-68067422D01*
X176328000Y-55367422D02*
X176328000Y-55884578D01*
X177748000Y-55367422D02*
X177748000Y-55884578D01*
X176328000Y-59177422D02*
X176328000Y-59694578D01*
X177748000Y-59177422D02*
X177748000Y-59694578D01*
X189028000Y-31237422D02*
X189028000Y-31754578D01*
X190448000Y-31237422D02*
X190448000Y-31754578D01*
X177748000Y-44454578D02*
X177748000Y-43937422D01*
X176328000Y-44454578D02*
X176328000Y-43937422D01*
X176328000Y-31237422D02*
X176328000Y-31754578D01*
X177748000Y-31237422D02*
X177748000Y-31754578D01*
X176328000Y-35047422D02*
X176328000Y-35564578D01*
X177748000Y-35047422D02*
X177748000Y-35564578D01*
X94664423Y-63765001D02*
X95181579Y-63765001D01*
X94664423Y-65185001D02*
X95181579Y-65185001D01*
D12*
X161036095Y-79672380D02*
X161036095Y-80481904D01*
X161083714Y-80577142D01*
X161131333Y-80624761D01*
X161226571Y-80672380D01*
X161417047Y-80672380D01*
X161512285Y-80624761D01*
X161559904Y-80577142D01*
X161607523Y-80481904D01*
X161607523Y-79672380D01*
X162131333Y-80672380D02*
X162321809Y-80672380D01*
X162417047Y-80624761D01*
X162464666Y-80577142D01*
X162559904Y-80434285D01*
X162607523Y-80243809D01*
X162607523Y-79862857D01*
X162559904Y-79767619D01*
X162512285Y-79720000D01*
X162417047Y-79672380D01*
X162226571Y-79672380D01*
X162131333Y-79720000D01*
X162083714Y-79767619D01*
X162036095Y-79862857D01*
X162036095Y-80100952D01*
X162083714Y-80196190D01*
X162131333Y-80243809D01*
X162226571Y-80291428D01*
X162417047Y-80291428D01*
X162512285Y-80243809D01*
X162559904Y-80196190D01*
X162607523Y-80100952D01*
X184689904Y-79672380D02*
X184689904Y-80481904D01*
X184737523Y-80577142D01*
X184785142Y-80624761D01*
X184880380Y-80672380D01*
X185070857Y-80672380D01*
X185166095Y-80624761D01*
X185213714Y-80577142D01*
X185261333Y-80481904D01*
X185261333Y-79672380D01*
X186261333Y-80672380D02*
X185689904Y-80672380D01*
X185975619Y-80672380D02*
X185975619Y-79672380D01*
X185880380Y-79815238D01*
X185785142Y-79910476D01*
X185689904Y-79958095D01*
X186642285Y-79767619D02*
X186689904Y-79720000D01*
X186785142Y-79672380D01*
X187023238Y-79672380D01*
X187118476Y-79720000D01*
X187166095Y-79767619D01*
X187213714Y-79862857D01*
X187213714Y-79958095D01*
X187166095Y-80100952D01*
X186594666Y-80672380D01*
X187213714Y-80672380D01*
X182626095Y-51732380D02*
X182626095Y-52541904D01*
X182673714Y-52637142D01*
X182721333Y-52684761D01*
X182816571Y-52732380D01*
X183007047Y-52732380D01*
X183102285Y-52684761D01*
X183149904Y-52637142D01*
X183197523Y-52541904D01*
X183197523Y-51732380D01*
X184102285Y-51732380D02*
X183911809Y-51732380D01*
X183816571Y-51780000D01*
X183768952Y-51827619D01*
X183673714Y-51970476D01*
X183626095Y-52160952D01*
X183626095Y-52541904D01*
X183673714Y-52637142D01*
X183721333Y-52684761D01*
X183816571Y-52732380D01*
X184007047Y-52732380D01*
X184102285Y-52684761D01*
X184149904Y-52637142D01*
X184197523Y-52541904D01*
X184197523Y-52303809D01*
X184149904Y-52208571D01*
X184102285Y-52160952D01*
X184007047Y-52113333D01*
X183816571Y-52113333D01*
X183721333Y-52160952D01*
X183673714Y-52208571D01*
X183626095Y-52303809D01*
X52244666Y-23606380D02*
X52244666Y-24320666D01*
X52197047Y-24463523D01*
X52101809Y-24558761D01*
X51958952Y-24606380D01*
X51863714Y-24606380D01*
X52625619Y-23606380D02*
X53292285Y-23606380D01*
X52863714Y-24606380D01*
X46483638Y-38265266D02*
X46436019Y-38408123D01*
X46436019Y-38646219D01*
X46483638Y-38741457D01*
X46531257Y-38789076D01*
X46626495Y-38836695D01*
X46721733Y-38836695D01*
X46816971Y-38789076D01*
X46864590Y-38741457D01*
X46912209Y-38646219D01*
X46959828Y-38455742D01*
X47007447Y-38360504D01*
X47055066Y-38312885D01*
X47150304Y-38265266D01*
X47245542Y-38265266D01*
X47340780Y-38312885D01*
X47388400Y-38360504D01*
X47436019Y-38455742D01*
X47436019Y-38693838D01*
X47388400Y-38836695D01*
X47436019Y-39170028D02*
X46436019Y-39408123D01*
X47150304Y-39598600D01*
X46436019Y-39789076D01*
X47436019Y-40027171D01*
X46436019Y-40931933D02*
X46436019Y-40360504D01*
X46436019Y-40646219D02*
X47436019Y-40646219D01*
X47293161Y-40550980D01*
X47197923Y-40455742D01*
X47150304Y-40360504D01*
X48756819Y-91157466D02*
X48042533Y-91157466D01*
X47899676Y-91109847D01*
X47804438Y-91014609D01*
X47756819Y-90871752D01*
X47756819Y-90776514D01*
X48661580Y-91586038D02*
X48709200Y-91633657D01*
X48756819Y-91728895D01*
X48756819Y-91966990D01*
X48709200Y-92062228D01*
X48661580Y-92109847D01*
X48566342Y-92157466D01*
X48471104Y-92157466D01*
X48328247Y-92109847D01*
X47756819Y-91538419D01*
X47756819Y-92157466D01*
X182626095Y-27602380D02*
X182626095Y-28411904D01*
X182673714Y-28507142D01*
X182721333Y-28554761D01*
X182816571Y-28602380D01*
X183007047Y-28602380D01*
X183102285Y-28554761D01*
X183149904Y-28507142D01*
X183197523Y-28411904D01*
X183197523Y-27602380D01*
X184149904Y-27602380D02*
X183673714Y-27602380D01*
X183626095Y-28078571D01*
X183673714Y-28030952D01*
X183768952Y-27983333D01*
X184007047Y-27983333D01*
X184102285Y-28030952D01*
X184149904Y-28078571D01*
X184197523Y-28173809D01*
X184197523Y-28411904D01*
X184149904Y-28507142D01*
X184102285Y-28554761D01*
X184007047Y-28602380D01*
X183768952Y-28602380D01*
X183673714Y-28554761D01*
X183626095Y-28507142D01*
X174813933Y-39447742D02*
X174766314Y-39495361D01*
X174623457Y-39542980D01*
X174528219Y-39542980D01*
X174385361Y-39495361D01*
X174290123Y-39400123D01*
X174242504Y-39304885D01*
X174194885Y-39114409D01*
X174194885Y-38971552D01*
X174242504Y-38781076D01*
X174290123Y-38685838D01*
X174385361Y-38590600D01*
X174528219Y-38542980D01*
X174623457Y-38542980D01*
X174766314Y-38590600D01*
X174813933Y-38638219D01*
X175671076Y-38876314D02*
X175671076Y-39542980D01*
X175432980Y-38495361D02*
X175194885Y-39209647D01*
X175813933Y-39209647D01*
X171848542Y-81433942D02*
X171800923Y-81481561D01*
X171658066Y-81529180D01*
X171562828Y-81529180D01*
X171419971Y-81481561D01*
X171324733Y-81386323D01*
X171277114Y-81291085D01*
X171229495Y-81100609D01*
X171229495Y-80957752D01*
X171277114Y-80767276D01*
X171324733Y-80672038D01*
X171419971Y-80576800D01*
X171562828Y-80529180D01*
X171658066Y-80529180D01*
X171800923Y-80576800D01*
X171848542Y-80624419D01*
X172229495Y-80624419D02*
X172277114Y-80576800D01*
X172372352Y-80529180D01*
X172610447Y-80529180D01*
X172705685Y-80576800D01*
X172753304Y-80624419D01*
X172800923Y-80719657D01*
X172800923Y-80814895D01*
X172753304Y-80957752D01*
X172181876Y-81529180D01*
X172800923Y-81529180D01*
X173753304Y-81529180D02*
X173181876Y-81529180D01*
X173467590Y-81529180D02*
X173467590Y-80529180D01*
X173372352Y-80672038D01*
X173277114Y-80767276D01*
X173181876Y-80814895D01*
X146224666Y-43858380D02*
X146224666Y-44572666D01*
X146177047Y-44715523D01*
X146081809Y-44810761D01*
X145938952Y-44858380D01*
X145843714Y-44858380D01*
X146605619Y-43858380D02*
X147224666Y-43858380D01*
X146891333Y-44239333D01*
X147034190Y-44239333D01*
X147129428Y-44286952D01*
X147177047Y-44334571D01*
X147224666Y-44429809D01*
X147224666Y-44667904D01*
X147177047Y-44763142D01*
X147129428Y-44810761D01*
X147034190Y-44858380D01*
X146748476Y-44858380D01*
X146653238Y-44810761D01*
X146605619Y-44763142D01*
X162255295Y-77989180D02*
X162255295Y-78798704D01*
X162302914Y-78893942D01*
X162350533Y-78941561D01*
X162445771Y-78989180D01*
X162636247Y-78989180D01*
X162731485Y-78941561D01*
X162779104Y-78893942D01*
X162826723Y-78798704D01*
X162826723Y-77989180D01*
X163731485Y-78322514D02*
X163731485Y-78989180D01*
X163493390Y-77941561D02*
X163255295Y-78655847D01*
X163874342Y-78655847D01*
X77851095Y-67607380D02*
X77851095Y-68416904D01*
X77898714Y-68512142D01*
X77946333Y-68559761D01*
X78041571Y-68607380D01*
X78232047Y-68607380D01*
X78327285Y-68559761D01*
X78374904Y-68512142D01*
X78422523Y-68416904D01*
X78422523Y-67607380D01*
X79422523Y-68607380D02*
X78851095Y-68607380D01*
X79136809Y-68607380D02*
X79136809Y-67607380D01*
X79041571Y-67750238D01*
X78946333Y-67845476D01*
X78851095Y-67893095D01*
X131851495Y-78141580D02*
X131851495Y-78951104D01*
X131899114Y-79046342D01*
X131946733Y-79093961D01*
X132041971Y-79141580D01*
X132232447Y-79141580D01*
X132327685Y-79093961D01*
X132375304Y-79046342D01*
X132422923Y-78951104D01*
X132422923Y-78141580D01*
X132803876Y-78141580D02*
X133422923Y-78141580D01*
X133089590Y-78522533D01*
X133232447Y-78522533D01*
X133327685Y-78570152D01*
X133375304Y-78617771D01*
X133422923Y-78713009D01*
X133422923Y-78951104D01*
X133375304Y-79046342D01*
X133327685Y-79093961D01*
X133232447Y-79141580D01*
X132946733Y-79141580D01*
X132851495Y-79093961D01*
X132803876Y-79046342D01*
X81026095Y-62139580D02*
X81026095Y-62949104D01*
X81073714Y-63044342D01*
X81121333Y-63091961D01*
X81216571Y-63139580D01*
X81407047Y-63139580D01*
X81502285Y-63091961D01*
X81549904Y-63044342D01*
X81597523Y-62949104D01*
X81597523Y-62139580D01*
X82216571Y-62568152D02*
X82121333Y-62520533D01*
X82073714Y-62472914D01*
X82026095Y-62377676D01*
X82026095Y-62330057D01*
X82073714Y-62234819D01*
X82121333Y-62187200D01*
X82216571Y-62139580D01*
X82407047Y-62139580D01*
X82502285Y-62187200D01*
X82549904Y-62234819D01*
X82597523Y-62330057D01*
X82597523Y-62377676D01*
X82549904Y-62472914D01*
X82502285Y-62520533D01*
X82407047Y-62568152D01*
X82216571Y-62568152D01*
X82121333Y-62615771D01*
X82073714Y-62663390D01*
X82026095Y-62758628D01*
X82026095Y-62949104D01*
X82073714Y-63044342D01*
X82121333Y-63091961D01*
X82216571Y-63139580D01*
X82407047Y-63139580D01*
X82502285Y-63091961D01*
X82549904Y-63044342D01*
X82597523Y-62949104D01*
X82597523Y-62758628D01*
X82549904Y-62663390D01*
X82502285Y-62615771D01*
X82407047Y-62568152D01*
X47309019Y-78508266D02*
X46594733Y-78508266D01*
X46451876Y-78460647D01*
X46356638Y-78365409D01*
X46309019Y-78222552D01*
X46309019Y-78127314D01*
X46975685Y-79413028D02*
X46309019Y-79413028D01*
X47356638Y-79174933D02*
X46642352Y-78936838D01*
X46642352Y-79555885D01*
X66867019Y-33378876D02*
X65867019Y-34045542D01*
X66867019Y-34045542D02*
X65867019Y-33378876D01*
X65867019Y-34950304D02*
X65867019Y-34378876D01*
X65867019Y-34664590D02*
X66867019Y-34664590D01*
X66724161Y-34569352D01*
X66628923Y-34474114D01*
X66581304Y-34378876D01*
X136429904Y-92372380D02*
X136429904Y-93181904D01*
X136477523Y-93277142D01*
X136525142Y-93324761D01*
X136620380Y-93372380D01*
X136810857Y-93372380D01*
X136906095Y-93324761D01*
X136953714Y-93277142D01*
X137001333Y-93181904D01*
X137001333Y-92372380D01*
X138001333Y-93372380D02*
X137429904Y-93372380D01*
X137715619Y-93372380D02*
X137715619Y-92372380D01*
X137620380Y-92515238D01*
X137525142Y-92610476D01*
X137429904Y-92658095D01*
X138953714Y-93372380D02*
X138382285Y-93372380D01*
X138668000Y-93372380D02*
X138668000Y-92372380D01*
X138572761Y-92515238D01*
X138477523Y-92610476D01*
X138382285Y-92658095D01*
X119919904Y-82212380D02*
X119919904Y-83021904D01*
X119967523Y-83117142D01*
X120015142Y-83164761D01*
X120110380Y-83212380D01*
X120300857Y-83212380D01*
X120396095Y-83164761D01*
X120443714Y-83117142D01*
X120491333Y-83021904D01*
X120491333Y-82212380D01*
X121491333Y-83212380D02*
X120919904Y-83212380D01*
X121205619Y-83212380D02*
X121205619Y-82212380D01*
X121110380Y-82355238D01*
X121015142Y-82450476D01*
X120919904Y-82498095D01*
X122110380Y-82212380D02*
X122205619Y-82212380D01*
X122300857Y-82260000D01*
X122348476Y-82307619D01*
X122396095Y-82402857D01*
X122443714Y-82593333D01*
X122443714Y-82831428D01*
X122396095Y-83021904D01*
X122348476Y-83117142D01*
X122300857Y-83164761D01*
X122205619Y-83212380D01*
X122110380Y-83212380D01*
X122015142Y-83164761D01*
X121967523Y-83117142D01*
X121919904Y-83021904D01*
X121872285Y-82831428D01*
X121872285Y-82593333D01*
X121919904Y-82402857D01*
X121967523Y-82307619D01*
X122015142Y-82260000D01*
X122110380Y-82212380D01*
X101092095Y-67480380D02*
X101092095Y-68289904D01*
X101139714Y-68385142D01*
X101187333Y-68432761D01*
X101282571Y-68480380D01*
X101473047Y-68480380D01*
X101568285Y-68432761D01*
X101615904Y-68385142D01*
X101663523Y-68289904D01*
X101663523Y-67480380D01*
X102044476Y-67480380D02*
X102711142Y-67480380D01*
X102282571Y-68480380D01*
X102590695Y-62977780D02*
X102590695Y-63787304D01*
X102638314Y-63882542D01*
X102685933Y-63930161D01*
X102781171Y-63977780D01*
X102971647Y-63977780D01*
X103066885Y-63930161D01*
X103114504Y-63882542D01*
X103162123Y-63787304D01*
X103162123Y-62977780D01*
X103590695Y-63073019D02*
X103638314Y-63025400D01*
X103733552Y-62977780D01*
X103971647Y-62977780D01*
X104066885Y-63025400D01*
X104114504Y-63073019D01*
X104162123Y-63168257D01*
X104162123Y-63263495D01*
X104114504Y-63406352D01*
X103543076Y-63977780D01*
X104162123Y-63977780D01*
X45013619Y-33615333D02*
X45489809Y-33282000D01*
X45013619Y-33043904D02*
X46013619Y-33043904D01*
X46013619Y-33424857D01*
X45966000Y-33520095D01*
X45918380Y-33567714D01*
X45823142Y-33615333D01*
X45680285Y-33615333D01*
X45585047Y-33567714D01*
X45537428Y-33520095D01*
X45489809Y-33424857D01*
X45489809Y-33043904D01*
X45918380Y-33996285D02*
X45966000Y-34043904D01*
X46013619Y-34139142D01*
X46013619Y-34377238D01*
X45966000Y-34472476D01*
X45918380Y-34520095D01*
X45823142Y-34567714D01*
X45727904Y-34567714D01*
X45585047Y-34520095D01*
X45013619Y-33948666D01*
X45013619Y-34567714D01*
X73918819Y-65593933D02*
X74395009Y-65260600D01*
X73918819Y-65022504D02*
X74918819Y-65022504D01*
X74918819Y-65403457D01*
X74871200Y-65498695D01*
X74823580Y-65546314D01*
X74728342Y-65593933D01*
X74585485Y-65593933D01*
X74490247Y-65546314D01*
X74442628Y-65498695D01*
X74395009Y-65403457D01*
X74395009Y-65022504D01*
X73918819Y-66546314D02*
X73918819Y-65974885D01*
X73918819Y-66260600D02*
X74918819Y-66260600D01*
X74775961Y-66165361D01*
X74680723Y-66070123D01*
X74633104Y-65974885D01*
X67524380Y-43287961D02*
X67572000Y-43192723D01*
X67667238Y-43097485D01*
X67810095Y-42954628D01*
X67857714Y-42859390D01*
X67857714Y-42764152D01*
X67619619Y-42811771D02*
X67667238Y-42716533D01*
X67762476Y-42621295D01*
X67952952Y-42573676D01*
X68286285Y-42573676D01*
X68476761Y-42621295D01*
X68572000Y-42716533D01*
X68619619Y-42811771D01*
X68619619Y-43002247D01*
X68572000Y-43097485D01*
X68476761Y-43192723D01*
X68286285Y-43240342D01*
X67952952Y-43240342D01*
X67762476Y-43192723D01*
X67667238Y-43097485D01*
X67619619Y-43002247D01*
X67619619Y-42811771D01*
X67619619Y-44192723D02*
X67619619Y-43621295D01*
X67619619Y-43907009D02*
X68619619Y-43907009D01*
X68476761Y-43811771D01*
X68381523Y-43716533D01*
X68333904Y-43621295D01*
X47334419Y-51304866D02*
X46620133Y-51304866D01*
X46477276Y-51257247D01*
X46382038Y-51162009D01*
X46334419Y-51019152D01*
X46334419Y-50923914D01*
X47334419Y-52209628D02*
X47334419Y-52019152D01*
X47286800Y-51923914D01*
X47239180Y-51876295D01*
X47096323Y-51781057D01*
X46905847Y-51733438D01*
X46524895Y-51733438D01*
X46429657Y-51781057D01*
X46382038Y-51828676D01*
X46334419Y-51923914D01*
X46334419Y-52114390D01*
X46382038Y-52209628D01*
X46429657Y-52257247D01*
X46524895Y-52304866D01*
X46762990Y-52304866D01*
X46858228Y-52257247D01*
X46905847Y-52209628D01*
X46953466Y-52114390D01*
X46953466Y-51923914D01*
X46905847Y-51828676D01*
X46858228Y-51781057D01*
X46762990Y-51733438D01*
X47309019Y-63293666D02*
X46594733Y-63293666D01*
X46451876Y-63246047D01*
X46356638Y-63150809D01*
X46309019Y-63007952D01*
X46309019Y-62912714D01*
X47309019Y-64246047D02*
X47309019Y-63769857D01*
X46832828Y-63722238D01*
X46880447Y-63769857D01*
X46928066Y-63865095D01*
X46928066Y-64103190D01*
X46880447Y-64198428D01*
X46832828Y-64246047D01*
X46737590Y-64293666D01*
X46499495Y-64293666D01*
X46404257Y-64246047D01*
X46356638Y-64198428D01*
X46309019Y-64103190D01*
X46309019Y-63865095D01*
X46356638Y-63769857D01*
X46404257Y-63722238D01*
X118284666Y-48557380D02*
X118284666Y-49271666D01*
X118237047Y-49414523D01*
X118141809Y-49509761D01*
X117998952Y-49557380D01*
X117903714Y-49557380D01*
X119284666Y-49557380D02*
X118713238Y-49557380D01*
X118998952Y-49557380D02*
X118998952Y-48557380D01*
X118903714Y-48700238D01*
X118808476Y-48795476D01*
X118713238Y-48843095D01*
X45013619Y-29233904D02*
X46013619Y-29233904D01*
X46013619Y-29472000D01*
X45966000Y-29614857D01*
X45870761Y-29710095D01*
X45775523Y-29757714D01*
X45585047Y-29805333D01*
X45442190Y-29805333D01*
X45251714Y-29757714D01*
X45156476Y-29710095D01*
X45061238Y-29614857D01*
X45013619Y-29472000D01*
X45013619Y-29233904D01*
X45013619Y-30757714D02*
X45013619Y-30186285D01*
X45013619Y-30472000D02*
X46013619Y-30472000D01*
X45870761Y-30376761D01*
X45775523Y-30281523D01*
X45727904Y-30186285D01*
X87520542Y-60529742D02*
X87472923Y-60577361D01*
X87330066Y-60624980D01*
X87234828Y-60624980D01*
X87091971Y-60577361D01*
X86996733Y-60482123D01*
X86949114Y-60386885D01*
X86901495Y-60196409D01*
X86901495Y-60053552D01*
X86949114Y-59863076D01*
X86996733Y-59767838D01*
X87091971Y-59672600D01*
X87234828Y-59624980D01*
X87330066Y-59624980D01*
X87472923Y-59672600D01*
X87520542Y-59720219D01*
X87901495Y-59720219D02*
X87949114Y-59672600D01*
X88044352Y-59624980D01*
X88282447Y-59624980D01*
X88377685Y-59672600D01*
X88425304Y-59720219D01*
X88472923Y-59815457D01*
X88472923Y-59910695D01*
X88425304Y-60053552D01*
X87853876Y-60624980D01*
X88472923Y-60624980D01*
X88853876Y-59720219D02*
X88901495Y-59672600D01*
X88996733Y-59624980D01*
X89234828Y-59624980D01*
X89330066Y-59672600D01*
X89377685Y-59720219D01*
X89425304Y-59815457D01*
X89425304Y-59910695D01*
X89377685Y-60053552D01*
X88806257Y-60624980D01*
X89425304Y-60624980D01*
X143705342Y-99239342D02*
X143657723Y-99286961D01*
X143514866Y-99334580D01*
X143419628Y-99334580D01*
X143276771Y-99286961D01*
X143181533Y-99191723D01*
X143133914Y-99096485D01*
X143086295Y-98906009D01*
X143086295Y-98763152D01*
X143133914Y-98572676D01*
X143181533Y-98477438D01*
X143276771Y-98382200D01*
X143419628Y-98334580D01*
X143514866Y-98334580D01*
X143657723Y-98382200D01*
X143705342Y-98429819D01*
X144086295Y-98429819D02*
X144133914Y-98382200D01*
X144229152Y-98334580D01*
X144467247Y-98334580D01*
X144562485Y-98382200D01*
X144610104Y-98429819D01*
X144657723Y-98525057D01*
X144657723Y-98620295D01*
X144610104Y-98763152D01*
X144038676Y-99334580D01*
X144657723Y-99334580D01*
X145276771Y-98334580D02*
X145372009Y-98334580D01*
X145467247Y-98382200D01*
X145514866Y-98429819D01*
X145562485Y-98525057D01*
X145610104Y-98715533D01*
X145610104Y-98953628D01*
X145562485Y-99144104D01*
X145514866Y-99239342D01*
X145467247Y-99286961D01*
X145372009Y-99334580D01*
X145276771Y-99334580D01*
X145181533Y-99286961D01*
X145133914Y-99239342D01*
X145086295Y-99144104D01*
X145038676Y-98953628D01*
X145038676Y-98715533D01*
X145086295Y-98525057D01*
X145133914Y-98429819D01*
X145181533Y-98382200D01*
X145276771Y-98334580D01*
X181729142Y-77827142D02*
X181681523Y-77874761D01*
X181538666Y-77922380D01*
X181443428Y-77922380D01*
X181300571Y-77874761D01*
X181205333Y-77779523D01*
X181157714Y-77684285D01*
X181110095Y-77493809D01*
X181110095Y-77350952D01*
X181157714Y-77160476D01*
X181205333Y-77065238D01*
X181300571Y-76970000D01*
X181443428Y-76922380D01*
X181538666Y-76922380D01*
X181681523Y-76970000D01*
X181729142Y-77017619D01*
X182681523Y-77922380D02*
X182110095Y-77922380D01*
X182395809Y-77922380D02*
X182395809Y-76922380D01*
X182300571Y-77065238D01*
X182205333Y-77160476D01*
X182110095Y-77208095D01*
X183157714Y-77922380D02*
X183348190Y-77922380D01*
X183443428Y-77874761D01*
X183491047Y-77827142D01*
X183586285Y-77684285D01*
X183633904Y-77493809D01*
X183633904Y-77112857D01*
X183586285Y-77017619D01*
X183538666Y-76970000D01*
X183443428Y-76922380D01*
X183252952Y-76922380D01*
X183157714Y-76970000D01*
X183110095Y-77017619D01*
X183062476Y-77112857D01*
X183062476Y-77350952D01*
X183110095Y-77446190D01*
X183157714Y-77493809D01*
X183252952Y-77541428D01*
X183443428Y-77541428D01*
X183538666Y-77493809D01*
X183586285Y-77446190D01*
X183633904Y-77350952D01*
X127373142Y-89358742D02*
X127325523Y-89406361D01*
X127182666Y-89453980D01*
X127087428Y-89453980D01*
X126944571Y-89406361D01*
X126849333Y-89311123D01*
X126801714Y-89215885D01*
X126754095Y-89025409D01*
X126754095Y-88882552D01*
X126801714Y-88692076D01*
X126849333Y-88596838D01*
X126944571Y-88501600D01*
X127087428Y-88453980D01*
X127182666Y-88453980D01*
X127325523Y-88501600D01*
X127373142Y-88549219D01*
X128325523Y-89453980D02*
X127754095Y-89453980D01*
X128039809Y-89453980D02*
X128039809Y-88453980D01*
X127944571Y-88596838D01*
X127849333Y-88692076D01*
X127754095Y-88739695D01*
X128896952Y-88882552D02*
X128801714Y-88834933D01*
X128754095Y-88787314D01*
X128706476Y-88692076D01*
X128706476Y-88644457D01*
X128754095Y-88549219D01*
X128801714Y-88501600D01*
X128896952Y-88453980D01*
X129087428Y-88453980D01*
X129182666Y-88501600D01*
X129230285Y-88549219D01*
X129277904Y-88644457D01*
X129277904Y-88692076D01*
X129230285Y-88787314D01*
X129182666Y-88834933D01*
X129087428Y-88882552D01*
X128896952Y-88882552D01*
X128801714Y-88930171D01*
X128754095Y-88977790D01*
X128706476Y-89073028D01*
X128706476Y-89263504D01*
X128754095Y-89358742D01*
X128801714Y-89406361D01*
X128896952Y-89453980D01*
X129087428Y-89453980D01*
X129182666Y-89406361D01*
X129230285Y-89358742D01*
X129277904Y-89263504D01*
X129277904Y-89073028D01*
X129230285Y-88977790D01*
X129182666Y-88930171D01*
X129087428Y-88882552D01*
X87672942Y-45975542D02*
X87625323Y-46023161D01*
X87482466Y-46070780D01*
X87387228Y-46070780D01*
X87244371Y-46023161D01*
X87149133Y-45927923D01*
X87101514Y-45832685D01*
X87053895Y-45642209D01*
X87053895Y-45499352D01*
X87101514Y-45308876D01*
X87149133Y-45213638D01*
X87244371Y-45118400D01*
X87387228Y-45070780D01*
X87482466Y-45070780D01*
X87625323Y-45118400D01*
X87672942Y-45166019D01*
X88625323Y-46070780D02*
X88053895Y-46070780D01*
X88339609Y-46070780D02*
X88339609Y-45070780D01*
X88244371Y-45213638D01*
X88149133Y-45308876D01*
X88053895Y-45356495D01*
X88958657Y-45070780D02*
X89625323Y-45070780D01*
X89196752Y-46070780D01*
X67664057Y-48988742D02*
X67616438Y-48941123D01*
X67568819Y-48798266D01*
X67568819Y-48703028D01*
X67616438Y-48560171D01*
X67711676Y-48464933D01*
X67806914Y-48417314D01*
X67997390Y-48369695D01*
X68140247Y-48369695D01*
X68330723Y-48417314D01*
X68425961Y-48464933D01*
X68521200Y-48560171D01*
X68568819Y-48703028D01*
X68568819Y-48798266D01*
X68521200Y-48941123D01*
X68473580Y-48988742D01*
X67568819Y-49941123D02*
X67568819Y-49369695D01*
X67568819Y-49655409D02*
X68568819Y-49655409D01*
X68425961Y-49560171D01*
X68330723Y-49464933D01*
X68283104Y-49369695D01*
X68568819Y-50798266D02*
X68568819Y-50607790D01*
X68521200Y-50512552D01*
X68473580Y-50464933D01*
X68330723Y-50369695D01*
X68140247Y-50322076D01*
X67759295Y-50322076D01*
X67664057Y-50369695D01*
X67616438Y-50417314D01*
X67568819Y-50512552D01*
X67568819Y-50703028D01*
X67616438Y-50798266D01*
X67664057Y-50845885D01*
X67759295Y-50893504D01*
X67997390Y-50893504D01*
X68092628Y-50845885D01*
X68140247Y-50798266D01*
X68187866Y-50703028D01*
X68187866Y-50512552D01*
X68140247Y-50417314D01*
X68092628Y-50369695D01*
X67997390Y-50322076D01*
X88917542Y-100814142D02*
X88869923Y-100861761D01*
X88727066Y-100909380D01*
X88631828Y-100909380D01*
X88488971Y-100861761D01*
X88393733Y-100766523D01*
X88346114Y-100671285D01*
X88298495Y-100480809D01*
X88298495Y-100337952D01*
X88346114Y-100147476D01*
X88393733Y-100052238D01*
X88488971Y-99957000D01*
X88631828Y-99909380D01*
X88727066Y-99909380D01*
X88869923Y-99957000D01*
X88917542Y-100004619D01*
X89869923Y-100909380D02*
X89298495Y-100909380D01*
X89584209Y-100909380D02*
X89584209Y-99909380D01*
X89488971Y-100052238D01*
X89393733Y-100147476D01*
X89298495Y-100195095D01*
X90727066Y-100242714D02*
X90727066Y-100909380D01*
X90488971Y-99861761D02*
X90250876Y-100576047D01*
X90869923Y-100576047D01*
X191533542Y-55932342D02*
X191485923Y-55979961D01*
X191343066Y-56027580D01*
X191247828Y-56027580D01*
X191104971Y-55979961D01*
X191009733Y-55884723D01*
X190962114Y-55789485D01*
X190914495Y-55599009D01*
X190914495Y-55456152D01*
X190962114Y-55265676D01*
X191009733Y-55170438D01*
X191104971Y-55075200D01*
X191247828Y-55027580D01*
X191343066Y-55027580D01*
X191485923Y-55075200D01*
X191533542Y-55122819D01*
X192485923Y-56027580D02*
X191914495Y-56027580D01*
X192200209Y-56027580D02*
X192200209Y-55027580D01*
X192104971Y-55170438D01*
X192009733Y-55265676D01*
X191914495Y-55313295D01*
X192819257Y-55027580D02*
X193438304Y-55027580D01*
X193104971Y-55408533D01*
X193247828Y-55408533D01*
X193343066Y-55456152D01*
X193390685Y-55503771D01*
X193438304Y-55599009D01*
X193438304Y-55837104D01*
X193390685Y-55932342D01*
X193343066Y-55979961D01*
X193247828Y-56027580D01*
X192962114Y-56027580D01*
X192866876Y-55979961D01*
X192819257Y-55932342D01*
X173905942Y-63526942D02*
X173858323Y-63574561D01*
X173715466Y-63622180D01*
X173620228Y-63622180D01*
X173477371Y-63574561D01*
X173382133Y-63479323D01*
X173334514Y-63384085D01*
X173286895Y-63193609D01*
X173286895Y-63050752D01*
X173334514Y-62860276D01*
X173382133Y-62765038D01*
X173477371Y-62669800D01*
X173620228Y-62622180D01*
X173715466Y-62622180D01*
X173858323Y-62669800D01*
X173905942Y-62717419D01*
X174858323Y-63622180D02*
X174286895Y-63622180D01*
X174572609Y-63622180D02*
X174572609Y-62622180D01*
X174477371Y-62765038D01*
X174382133Y-62860276D01*
X174286895Y-62907895D01*
X175239276Y-62717419D02*
X175286895Y-62669800D01*
X175382133Y-62622180D01*
X175620228Y-62622180D01*
X175715466Y-62669800D01*
X175763085Y-62717419D01*
X175810704Y-62812657D01*
X175810704Y-62907895D01*
X175763085Y-63050752D01*
X175191657Y-63622180D01*
X175810704Y-63622180D01*
X144755142Y-29852857D02*
X144802761Y-29900476D01*
X144850380Y-30043333D01*
X144850380Y-30138571D01*
X144802761Y-30281428D01*
X144707523Y-30376666D01*
X144612285Y-30424285D01*
X144421809Y-30471904D01*
X144278952Y-30471904D01*
X144088476Y-30424285D01*
X143993238Y-30376666D01*
X143898000Y-30281428D01*
X143850380Y-30138571D01*
X143850380Y-30043333D01*
X143898000Y-29900476D01*
X143945619Y-29852857D01*
X144850380Y-28900476D02*
X144850380Y-29471904D01*
X144850380Y-29186190D02*
X143850380Y-29186190D01*
X143993238Y-29281428D01*
X144088476Y-29376666D01*
X144136095Y-29471904D01*
X144850380Y-27948095D02*
X144850380Y-28519523D01*
X144850380Y-28233809D02*
X143850380Y-28233809D01*
X143993238Y-28329047D01*
X144088476Y-28424285D01*
X144136095Y-28519523D01*
X152011142Y-47220142D02*
X151963523Y-47267761D01*
X151820666Y-47315380D01*
X151725428Y-47315380D01*
X151582571Y-47267761D01*
X151487333Y-47172523D01*
X151439714Y-47077285D01*
X151392095Y-46886809D01*
X151392095Y-46743952D01*
X151439714Y-46553476D01*
X151487333Y-46458238D01*
X151582571Y-46363000D01*
X151725428Y-46315380D01*
X151820666Y-46315380D01*
X151963523Y-46363000D01*
X152011142Y-46410619D01*
X152963523Y-47315380D02*
X152392095Y-47315380D01*
X152677809Y-47315380D02*
X152677809Y-46315380D01*
X152582571Y-46458238D01*
X152487333Y-46553476D01*
X152392095Y-46601095D01*
X153582571Y-46315380D02*
X153677809Y-46315380D01*
X153773047Y-46363000D01*
X153820666Y-46410619D01*
X153868285Y-46505857D01*
X153915904Y-46696333D01*
X153915904Y-46934428D01*
X153868285Y-47124904D01*
X153820666Y-47220142D01*
X153773047Y-47267761D01*
X153677809Y-47315380D01*
X153582571Y-47315380D01*
X153487333Y-47267761D01*
X153439714Y-47220142D01*
X153392095Y-47124904D01*
X153344476Y-46934428D01*
X153344476Y-46696333D01*
X153392095Y-46505857D01*
X153439714Y-46410619D01*
X153487333Y-46363000D01*
X153582571Y-46315380D01*
X115545142Y-29376666D02*
X115592761Y-29424285D01*
X115640380Y-29567142D01*
X115640380Y-29662380D01*
X115592761Y-29805238D01*
X115497523Y-29900476D01*
X115402285Y-29948095D01*
X115211809Y-29995714D01*
X115068952Y-29995714D01*
X114878476Y-29948095D01*
X114783238Y-29900476D01*
X114688000Y-29805238D01*
X114640380Y-29662380D01*
X114640380Y-29567142D01*
X114688000Y-29424285D01*
X114735619Y-29376666D01*
X115640380Y-28900476D02*
X115640380Y-28710000D01*
X115592761Y-28614761D01*
X115545142Y-28567142D01*
X115402285Y-28471904D01*
X115211809Y-28424285D01*
X114830857Y-28424285D01*
X114735619Y-28471904D01*
X114688000Y-28519523D01*
X114640380Y-28614761D01*
X114640380Y-28805238D01*
X114688000Y-28900476D01*
X114735619Y-28948095D01*
X114830857Y-28995714D01*
X115068952Y-28995714D01*
X115164190Y-28948095D01*
X115211809Y-28900476D01*
X115259428Y-28805238D01*
X115259428Y-28614761D01*
X115211809Y-28519523D01*
X115164190Y-28471904D01*
X115068952Y-28424285D01*
X174890133Y-68708542D02*
X174842514Y-68756161D01*
X174699657Y-68803780D01*
X174604419Y-68803780D01*
X174461561Y-68756161D01*
X174366323Y-68660923D01*
X174318704Y-68565685D01*
X174271085Y-68375209D01*
X174271085Y-68232352D01*
X174318704Y-68041876D01*
X174366323Y-67946638D01*
X174461561Y-67851400D01*
X174604419Y-67803780D01*
X174699657Y-67803780D01*
X174842514Y-67851400D01*
X174890133Y-67899019D01*
X175461561Y-68232352D02*
X175366323Y-68184733D01*
X175318704Y-68137114D01*
X175271085Y-68041876D01*
X175271085Y-67994257D01*
X175318704Y-67899019D01*
X175366323Y-67851400D01*
X175461561Y-67803780D01*
X175652038Y-67803780D01*
X175747276Y-67851400D01*
X175794895Y-67899019D01*
X175842514Y-67994257D01*
X175842514Y-68041876D01*
X175794895Y-68137114D01*
X175747276Y-68184733D01*
X175652038Y-68232352D01*
X175461561Y-68232352D01*
X175366323Y-68279971D01*
X175318704Y-68327590D01*
X175271085Y-68422828D01*
X175271085Y-68613304D01*
X175318704Y-68708542D01*
X175366323Y-68756161D01*
X175461561Y-68803780D01*
X175652038Y-68803780D01*
X175747276Y-68756161D01*
X175794895Y-68708542D01*
X175842514Y-68613304D01*
X175842514Y-68422828D01*
X175794895Y-68327590D01*
X175747276Y-68279971D01*
X175652038Y-68232352D01*
X174864733Y-56084742D02*
X174817114Y-56132361D01*
X174674257Y-56179980D01*
X174579019Y-56179980D01*
X174436161Y-56132361D01*
X174340923Y-56037123D01*
X174293304Y-55941885D01*
X174245685Y-55751409D01*
X174245685Y-55608552D01*
X174293304Y-55418076D01*
X174340923Y-55322838D01*
X174436161Y-55227600D01*
X174579019Y-55179980D01*
X174674257Y-55179980D01*
X174817114Y-55227600D01*
X174864733Y-55275219D01*
X175198066Y-55179980D02*
X175864733Y-55179980D01*
X175436161Y-56179980D01*
X174813933Y-59818542D02*
X174766314Y-59866161D01*
X174623457Y-59913780D01*
X174528219Y-59913780D01*
X174385361Y-59866161D01*
X174290123Y-59770923D01*
X174242504Y-59675685D01*
X174194885Y-59485209D01*
X174194885Y-59342352D01*
X174242504Y-59151876D01*
X174290123Y-59056638D01*
X174385361Y-58961400D01*
X174528219Y-58913780D01*
X174623457Y-58913780D01*
X174766314Y-58961400D01*
X174813933Y-59009019D01*
X175671076Y-58913780D02*
X175480600Y-58913780D01*
X175385361Y-58961400D01*
X175337742Y-59009019D01*
X175242504Y-59151876D01*
X175194885Y-59342352D01*
X175194885Y-59723304D01*
X175242504Y-59818542D01*
X175290123Y-59866161D01*
X175385361Y-59913780D01*
X175575838Y-59913780D01*
X175671076Y-59866161D01*
X175718695Y-59818542D01*
X175766314Y-59723304D01*
X175766314Y-59485209D01*
X175718695Y-59389971D01*
X175671076Y-59342352D01*
X175575838Y-59294733D01*
X175385361Y-59294733D01*
X175290123Y-59342352D01*
X175242504Y-59389971D01*
X175194885Y-59485209D01*
X191654133Y-31802342D02*
X191606514Y-31849961D01*
X191463657Y-31897580D01*
X191368419Y-31897580D01*
X191225561Y-31849961D01*
X191130323Y-31754723D01*
X191082704Y-31659485D01*
X191035085Y-31469009D01*
X191035085Y-31326152D01*
X191082704Y-31135676D01*
X191130323Y-31040438D01*
X191225561Y-30945200D01*
X191368419Y-30897580D01*
X191463657Y-30897580D01*
X191606514Y-30945200D01*
X191654133Y-30992819D01*
X192558895Y-30897580D02*
X192082704Y-30897580D01*
X192035085Y-31373771D01*
X192082704Y-31326152D01*
X192177942Y-31278533D01*
X192416038Y-31278533D01*
X192511276Y-31326152D01*
X192558895Y-31373771D01*
X192606514Y-31469009D01*
X192606514Y-31707104D01*
X192558895Y-31802342D01*
X192511276Y-31849961D01*
X192416038Y-31897580D01*
X192177942Y-31897580D01*
X192082704Y-31849961D01*
X192035085Y-31802342D01*
X174940933Y-44527742D02*
X174893314Y-44575361D01*
X174750457Y-44622980D01*
X174655219Y-44622980D01*
X174512361Y-44575361D01*
X174417123Y-44480123D01*
X174369504Y-44384885D01*
X174321885Y-44194409D01*
X174321885Y-44051552D01*
X174369504Y-43861076D01*
X174417123Y-43765838D01*
X174512361Y-43670600D01*
X174655219Y-43622980D01*
X174750457Y-43622980D01*
X174893314Y-43670600D01*
X174940933Y-43718219D01*
X175274266Y-43622980D02*
X175893314Y-43622980D01*
X175559980Y-44003933D01*
X175702838Y-44003933D01*
X175798076Y-44051552D01*
X175845695Y-44099171D01*
X175893314Y-44194409D01*
X175893314Y-44432504D01*
X175845695Y-44527742D01*
X175798076Y-44575361D01*
X175702838Y-44622980D01*
X175417123Y-44622980D01*
X175321885Y-44575361D01*
X175274266Y-44527742D01*
X174864733Y-31929342D02*
X174817114Y-31976961D01*
X174674257Y-32024580D01*
X174579019Y-32024580D01*
X174436161Y-31976961D01*
X174340923Y-31881723D01*
X174293304Y-31786485D01*
X174245685Y-31596009D01*
X174245685Y-31453152D01*
X174293304Y-31262676D01*
X174340923Y-31167438D01*
X174436161Y-31072200D01*
X174579019Y-31024580D01*
X174674257Y-31024580D01*
X174817114Y-31072200D01*
X174864733Y-31119819D01*
X175245685Y-31119819D02*
X175293304Y-31072200D01*
X175388542Y-31024580D01*
X175626638Y-31024580D01*
X175721876Y-31072200D01*
X175769495Y-31119819D01*
X175817114Y-31215057D01*
X175817114Y-31310295D01*
X175769495Y-31453152D01*
X175198066Y-32024580D01*
X175817114Y-32024580D01*
X174813933Y-35891742D02*
X174766314Y-35939361D01*
X174623457Y-35986980D01*
X174528219Y-35986980D01*
X174385361Y-35939361D01*
X174290123Y-35844123D01*
X174242504Y-35748885D01*
X174194885Y-35558409D01*
X174194885Y-35415552D01*
X174242504Y-35225076D01*
X174290123Y-35129838D01*
X174385361Y-35034600D01*
X174528219Y-34986980D01*
X174623457Y-34986980D01*
X174766314Y-35034600D01*
X174813933Y-35082219D01*
X175766314Y-35986980D02*
X175194885Y-35986980D01*
X175480600Y-35986980D02*
X175480600Y-34986980D01*
X175385361Y-35129838D01*
X175290123Y-35225076D01*
X175194885Y-35272695D01*
X94302342Y-66600342D02*
X94254723Y-66647961D01*
X94111866Y-66695580D01*
X94016628Y-66695580D01*
X93873771Y-66647961D01*
X93778533Y-66552723D01*
X93730914Y-66457485D01*
X93683295Y-66267009D01*
X93683295Y-66124152D01*
X93730914Y-65933676D01*
X93778533Y-65838438D01*
X93873771Y-65743200D01*
X94016628Y-65695580D01*
X94111866Y-65695580D01*
X94254723Y-65743200D01*
X94302342Y-65790819D01*
X95254723Y-66695580D02*
X94683295Y-66695580D01*
X94969009Y-66695580D02*
X94969009Y-65695580D01*
X94873771Y-65838438D01*
X94778533Y-65933676D01*
X94683295Y-65981295D01*
X96159485Y-65695580D02*
X95683295Y-65695580D01*
X95635676Y-66171771D01*
X95683295Y-66124152D01*
X95778533Y-66076533D01*
X96016628Y-66076533D01*
X96111866Y-66124152D01*
X96159485Y-66171771D01*
X96207104Y-66267009D01*
X96207104Y-66505104D01*
X96159485Y-66600342D01*
X96111866Y-66647961D01*
X96016628Y-66695580D01*
X95778533Y-66695580D01*
X95683295Y-66647961D01*
X95635676Y-66600342D01*
M02*
