G04 #@! TF.GenerationSoftware,KiCad,Pcbnew,(5.1.5-0-10_14)*
G04 #@! TF.CreationDate,2020-04-20T13:05:25+02:00*
G04 #@! TF.ProjectId,sinope,73696e6f-7065-42e6-9b69-6361645f7063,rev?*
G04 #@! TF.SameCoordinates,Original*
G04 #@! TF.FileFunction,Legend,Top*
G04 #@! TF.FilePolarity,Positive*
%FSLAX46Y46*%
G04 Gerber Fmt 4.6, Leading zero omitted, Abs format (unit mm)*
G04 Created by KiCad (PCBNEW (5.1.5-0-10_14)) date 2020-04-20 13:05:25*
%MOMM*%
%LPD*%
G04 APERTURE LIST*
%ADD10C,0.150000*%
%ADD11C,0.120000*%
G04 APERTURE END LIST*
D10*
X46457238Y-102395976D02*
X46409619Y-102538833D01*
X46409619Y-102776928D01*
X46457238Y-102872166D01*
X46504857Y-102919785D01*
X46600095Y-102967404D01*
X46695333Y-102967404D01*
X46790571Y-102919785D01*
X46838190Y-102872166D01*
X46885809Y-102776928D01*
X46933428Y-102586452D01*
X46981047Y-102491214D01*
X47028666Y-102443595D01*
X47123904Y-102395976D01*
X47219142Y-102395976D01*
X47314380Y-102443595D01*
X47362000Y-102491214D01*
X47409619Y-102586452D01*
X47409619Y-102824547D01*
X47362000Y-102967404D01*
X46409619Y-103395976D02*
X47409619Y-103395976D01*
X46409619Y-103872166D02*
X47409619Y-103872166D01*
X46409619Y-104443595D01*
X47409619Y-104443595D01*
X47409619Y-105110261D02*
X47409619Y-105300738D01*
X47362000Y-105395976D01*
X47266761Y-105491214D01*
X47076285Y-105538833D01*
X46742952Y-105538833D01*
X46552476Y-105491214D01*
X46457238Y-105395976D01*
X46409619Y-105300738D01*
X46409619Y-105110261D01*
X46457238Y-105015023D01*
X46552476Y-104919785D01*
X46742952Y-104872166D01*
X47076285Y-104872166D01*
X47266761Y-104919785D01*
X47362000Y-105015023D01*
X47409619Y-105110261D01*
X46409619Y-105967404D02*
X47409619Y-105967404D01*
X47409619Y-106348357D01*
X47362000Y-106443595D01*
X47314380Y-106491214D01*
X47219142Y-106538833D01*
X47076285Y-106538833D01*
X46981047Y-106491214D01*
X46933428Y-106443595D01*
X46885809Y-106348357D01*
X46885809Y-105967404D01*
X46933428Y-106967404D02*
X46933428Y-107300738D01*
X46409619Y-107443595D02*
X46409619Y-106967404D01*
X47409619Y-106967404D01*
X47409619Y-107443595D01*
X47409619Y-108491214D02*
X46409619Y-108824547D01*
X47409619Y-109157880D01*
X46409619Y-110015023D02*
X46409619Y-109443595D01*
X46409619Y-109729309D02*
X47409619Y-109729309D01*
X47266761Y-109634071D01*
X47171523Y-109538833D01*
X47123904Y-109443595D01*
X46504857Y-110443595D02*
X46457238Y-110491214D01*
X46409619Y-110443595D01*
X46457238Y-110395976D01*
X46504857Y-110443595D01*
X46409619Y-110443595D01*
X47409619Y-111110261D02*
X47409619Y-111205500D01*
X47362000Y-111300738D01*
X47314380Y-111348357D01*
X47219142Y-111395976D01*
X47028666Y-111443595D01*
X46790571Y-111443595D01*
X46600095Y-111395976D01*
X46504857Y-111348357D01*
X46457238Y-111300738D01*
X46409619Y-111205500D01*
X46409619Y-111110261D01*
X46457238Y-111015023D01*
X46504857Y-110967404D01*
X46600095Y-110919785D01*
X46790571Y-110872166D01*
X47028666Y-110872166D01*
X47219142Y-110919785D01*
X47314380Y-110967404D01*
X47362000Y-111015023D01*
X47409619Y-111110261D01*
X44759619Y-102443595D02*
X45759619Y-102443595D01*
X45283428Y-102443595D02*
X45283428Y-103015023D01*
X44759619Y-103015023D02*
X45759619Y-103015023D01*
X44759619Y-103919785D02*
X45283428Y-103919785D01*
X45378666Y-103872166D01*
X45426285Y-103776928D01*
X45426285Y-103586452D01*
X45378666Y-103491214D01*
X44807238Y-103919785D02*
X44759619Y-103824547D01*
X44759619Y-103586452D01*
X44807238Y-103491214D01*
X44902476Y-103443595D01*
X44997714Y-103443595D01*
X45092952Y-103491214D01*
X45140571Y-103586452D01*
X45140571Y-103824547D01*
X45188190Y-103919785D01*
X45426285Y-104395976D02*
X44759619Y-104395976D01*
X45331047Y-104395976D02*
X45378666Y-104443595D01*
X45426285Y-104538833D01*
X45426285Y-104681690D01*
X45378666Y-104776928D01*
X45283428Y-104824547D01*
X44759619Y-104824547D01*
X44807238Y-105253119D02*
X44759619Y-105348357D01*
X44759619Y-105538833D01*
X44807238Y-105634071D01*
X44902476Y-105681690D01*
X44950095Y-105681690D01*
X45045333Y-105634071D01*
X45092952Y-105538833D01*
X45092952Y-105395976D01*
X45140571Y-105300738D01*
X45235809Y-105253119D01*
X45283428Y-105253119D01*
X45378666Y-105300738D01*
X45426285Y-105395976D01*
X45426285Y-105538833D01*
X45378666Y-105634071D01*
X44759619Y-106872166D02*
X45759619Y-106872166D01*
X45283428Y-106872166D02*
X45283428Y-107443595D01*
X44759619Y-107443595D02*
X45759619Y-107443595D01*
X45426285Y-108348357D02*
X44759619Y-108348357D01*
X45426285Y-107919785D02*
X44902476Y-107919785D01*
X44807238Y-107967404D01*
X44759619Y-108062642D01*
X44759619Y-108205500D01*
X44807238Y-108300738D01*
X44854857Y-108348357D01*
X45759619Y-107967404D02*
X45712000Y-108015023D01*
X45664380Y-107967404D01*
X45712000Y-107919785D01*
X45759619Y-107967404D01*
X45664380Y-107967404D01*
X45759619Y-108348357D02*
X45712000Y-108395976D01*
X45664380Y-108348357D01*
X45712000Y-108300738D01*
X45759619Y-108348357D01*
X45664380Y-108348357D01*
X44759619Y-108824547D02*
X45759619Y-108824547D01*
X45378666Y-108824547D02*
X45426285Y-108919785D01*
X45426285Y-109110261D01*
X45378666Y-109205500D01*
X45331047Y-109253119D01*
X45235809Y-109300738D01*
X44950095Y-109300738D01*
X44854857Y-109253119D01*
X44807238Y-109205500D01*
X44759619Y-109110261D01*
X44759619Y-108919785D01*
X44807238Y-108824547D01*
X45426285Y-109729309D02*
X44759619Y-109729309D01*
X45331047Y-109729309D02*
X45378666Y-109776928D01*
X45426285Y-109872166D01*
X45426285Y-110015023D01*
X45378666Y-110110261D01*
X45283428Y-110157880D01*
X44759619Y-110157880D01*
X44807238Y-111015023D02*
X44759619Y-110919785D01*
X44759619Y-110729309D01*
X44807238Y-110634071D01*
X44902476Y-110586452D01*
X45283428Y-110586452D01*
X45378666Y-110634071D01*
X45426285Y-110729309D01*
X45426285Y-110919785D01*
X45378666Y-111015023D01*
X45283428Y-111062642D01*
X45188190Y-111062642D01*
X45092952Y-110586452D01*
X44759619Y-111491214D02*
X45426285Y-111491214D01*
X45235809Y-111491214D02*
X45331047Y-111538833D01*
X45378666Y-111586452D01*
X45426285Y-111681690D01*
X45426285Y-111776928D01*
X44378666Y-113157880D02*
X44426285Y-113110261D01*
X44569142Y-113015023D01*
X44664380Y-112967404D01*
X44807238Y-112919785D01*
X45045333Y-112872166D01*
X45235809Y-112872166D01*
X45473904Y-112919785D01*
X45616761Y-112967404D01*
X45712000Y-113015023D01*
X45854857Y-113110261D01*
X45902476Y-113157880D01*
X45235809Y-114157880D02*
X45283428Y-114110261D01*
X45331047Y-114015023D01*
X45331047Y-113919785D01*
X45283428Y-113824547D01*
X45235809Y-113776928D01*
X45140571Y-113729309D01*
X45045333Y-113729309D01*
X44950095Y-113776928D01*
X44902476Y-113824547D01*
X44854857Y-113919785D01*
X44854857Y-114015023D01*
X44902476Y-114110261D01*
X44950095Y-114157880D01*
X45331047Y-114157880D02*
X44950095Y-114157880D01*
X44902476Y-114205500D01*
X44902476Y-114253119D01*
X44950095Y-114348357D01*
X45045333Y-114395976D01*
X45283428Y-114395976D01*
X45426285Y-114300738D01*
X45521523Y-114157880D01*
X45569142Y-113967404D01*
X45521523Y-113776928D01*
X45426285Y-113634071D01*
X45283428Y-113538833D01*
X45092952Y-113491214D01*
X44902476Y-113538833D01*
X44759619Y-113634071D01*
X44664380Y-113776928D01*
X44616761Y-113967404D01*
X44664380Y-114157880D01*
X44759619Y-114300738D01*
X44759619Y-114824547D02*
X45759619Y-114824547D01*
X44759619Y-115253119D02*
X45283428Y-115253119D01*
X45378666Y-115205500D01*
X45426285Y-115110261D01*
X45426285Y-114967404D01*
X45378666Y-114872166D01*
X45331047Y-114824547D01*
X44759619Y-116157880D02*
X45283428Y-116157880D01*
X45378666Y-116110261D01*
X45426285Y-116015023D01*
X45426285Y-115824547D01*
X45378666Y-115729309D01*
X44807238Y-116157880D02*
X44759619Y-116062642D01*
X44759619Y-115824547D01*
X44807238Y-115729309D01*
X44902476Y-115681690D01*
X44997714Y-115681690D01*
X45092952Y-115729309D01*
X45140571Y-115824547D01*
X45140571Y-116062642D01*
X45188190Y-116157880D01*
X45426285Y-116634071D02*
X44759619Y-116634071D01*
X45331047Y-116634071D02*
X45378666Y-116681690D01*
X45426285Y-116776928D01*
X45426285Y-116919785D01*
X45378666Y-117015023D01*
X45283428Y-117062642D01*
X44759619Y-117062642D01*
X44807238Y-117491214D02*
X44759619Y-117586452D01*
X44759619Y-117776928D01*
X44807238Y-117872166D01*
X44902476Y-117919785D01*
X44950095Y-117919785D01*
X45045333Y-117872166D01*
X45092952Y-117776928D01*
X45092952Y-117634071D01*
X45140571Y-117538833D01*
X45235809Y-117491214D01*
X45283428Y-117491214D01*
X45378666Y-117538833D01*
X45426285Y-117634071D01*
X45426285Y-117776928D01*
X45378666Y-117872166D01*
X44759619Y-118348357D02*
X45759619Y-118348357D01*
X44759619Y-118776928D02*
X45283428Y-118776928D01*
X45378666Y-118729309D01*
X45426285Y-118634071D01*
X45426285Y-118491214D01*
X45378666Y-118395976D01*
X45331047Y-118348357D01*
X45426285Y-119681690D02*
X44759619Y-119681690D01*
X45426285Y-119253119D02*
X44902476Y-119253119D01*
X44807238Y-119300738D01*
X44759619Y-119395976D01*
X44759619Y-119538833D01*
X44807238Y-119634071D01*
X44854857Y-119681690D01*
X44807238Y-120538833D02*
X44759619Y-120443595D01*
X44759619Y-120253119D01*
X44807238Y-120157880D01*
X44902476Y-120110261D01*
X45283428Y-120110261D01*
X45378666Y-120157880D01*
X45426285Y-120253119D01*
X45426285Y-120443595D01*
X45378666Y-120538833D01*
X45283428Y-120586452D01*
X45188190Y-120586452D01*
X45092952Y-120110261D01*
X44759619Y-121015023D02*
X45759619Y-121015023D01*
X45378666Y-121015023D02*
X45426285Y-121110261D01*
X45426285Y-121300738D01*
X45378666Y-121395976D01*
X45331047Y-121443595D01*
X45235809Y-121491214D01*
X44950095Y-121491214D01*
X44854857Y-121443595D01*
X44807238Y-121395976D01*
X44759619Y-121300738D01*
X44759619Y-121110261D01*
X44807238Y-121015023D01*
X45426285Y-121919785D02*
X44759619Y-121919785D01*
X45331047Y-121919785D02*
X45378666Y-121967404D01*
X45426285Y-122062642D01*
X45426285Y-122205500D01*
X45378666Y-122300738D01*
X45283428Y-122348357D01*
X44759619Y-122348357D01*
X44807238Y-123205500D02*
X44759619Y-123110261D01*
X44759619Y-122919785D01*
X44807238Y-122824547D01*
X44902476Y-122776928D01*
X45283428Y-122776928D01*
X45378666Y-122824547D01*
X45426285Y-122919785D01*
X45426285Y-123110261D01*
X45378666Y-123205500D01*
X45283428Y-123253119D01*
X45188190Y-123253119D01*
X45092952Y-122776928D01*
X44759619Y-123681690D02*
X45426285Y-123681690D01*
X45235809Y-123681690D02*
X45331047Y-123729309D01*
X45378666Y-123776928D01*
X45426285Y-123872166D01*
X45426285Y-123967404D01*
X44378666Y-124205500D02*
X44426285Y-124253119D01*
X44569142Y-124348357D01*
X44664380Y-124395976D01*
X44807238Y-124443595D01*
X45045333Y-124491214D01*
X45235809Y-124491214D01*
X45473904Y-124443595D01*
X45616761Y-124395976D01*
X45711999Y-124348357D01*
X45854857Y-124253119D01*
X45902476Y-124205500D01*
X43776285Y-102872166D02*
X42966761Y-102872166D01*
X42871523Y-102824547D01*
X42823904Y-102776928D01*
X42776285Y-102681690D01*
X42776285Y-102538833D01*
X42823904Y-102443595D01*
X43157238Y-102872166D02*
X43109619Y-102776928D01*
X43109619Y-102586452D01*
X43157238Y-102491214D01*
X43204857Y-102443595D01*
X43300095Y-102395976D01*
X43585809Y-102395976D01*
X43681047Y-102443595D01*
X43728666Y-102491214D01*
X43776285Y-102586452D01*
X43776285Y-102776928D01*
X43728666Y-102872166D01*
X43109619Y-103348357D02*
X43776285Y-103348357D01*
X44109619Y-103348357D02*
X44062000Y-103300738D01*
X44014380Y-103348357D01*
X44062000Y-103395976D01*
X44109619Y-103348357D01*
X44014380Y-103348357D01*
X43776285Y-103681690D02*
X43776285Y-104062642D01*
X44109619Y-103824547D02*
X43252476Y-103824547D01*
X43157238Y-103872166D01*
X43109619Y-103967404D01*
X43109619Y-104062642D01*
X43109619Y-104395976D02*
X44109619Y-104395976D01*
X43109619Y-104824547D02*
X43633428Y-104824547D01*
X43728666Y-104776928D01*
X43776285Y-104681690D01*
X43776285Y-104538833D01*
X43728666Y-104443595D01*
X43681047Y-104395976D01*
X43776285Y-105729309D02*
X43109619Y-105729309D01*
X43776285Y-105300738D02*
X43252476Y-105300738D01*
X43157238Y-105348357D01*
X43109619Y-105443595D01*
X43109619Y-105586452D01*
X43157238Y-105681690D01*
X43204857Y-105729309D01*
X43109619Y-106205500D02*
X44109619Y-106205500D01*
X43728666Y-106205500D02*
X43776285Y-106300738D01*
X43776285Y-106491214D01*
X43728666Y-106586452D01*
X43681047Y-106634071D01*
X43585809Y-106681690D01*
X43300095Y-106681690D01*
X43204857Y-106634071D01*
X43157238Y-106586452D01*
X43109619Y-106491214D01*
X43109619Y-106300738D01*
X43157238Y-106205500D01*
X43204857Y-107110261D02*
X43157238Y-107157880D01*
X43109619Y-107110261D01*
X43157238Y-107062642D01*
X43204857Y-107110261D01*
X43109619Y-107110261D01*
X43157238Y-108015023D02*
X43109619Y-107919785D01*
X43109619Y-107729309D01*
X43157238Y-107634071D01*
X43204857Y-107586452D01*
X43300095Y-107538833D01*
X43585809Y-107538833D01*
X43681047Y-107586452D01*
X43728666Y-107634071D01*
X43776285Y-107729309D01*
X43776285Y-107919785D01*
X43728666Y-108015023D01*
X43109619Y-108586452D02*
X43157238Y-108491214D01*
X43204857Y-108443595D01*
X43300095Y-108395976D01*
X43585809Y-108395976D01*
X43681047Y-108443595D01*
X43728666Y-108491214D01*
X43776285Y-108586452D01*
X43776285Y-108729309D01*
X43728666Y-108824547D01*
X43681047Y-108872166D01*
X43585809Y-108919785D01*
X43300095Y-108919785D01*
X43204857Y-108872166D01*
X43157238Y-108824547D01*
X43109619Y-108729309D01*
X43109619Y-108586452D01*
X43109619Y-109348357D02*
X43776285Y-109348357D01*
X43681047Y-109348357D02*
X43728666Y-109395976D01*
X43776285Y-109491214D01*
X43776285Y-109634071D01*
X43728666Y-109729309D01*
X43633428Y-109776928D01*
X43109619Y-109776928D01*
X43633428Y-109776928D02*
X43728666Y-109824547D01*
X43776285Y-109919785D01*
X43776285Y-110062642D01*
X43728666Y-110157880D01*
X43633428Y-110205500D01*
X43109619Y-110205500D01*
X44157238Y-111395976D02*
X42871523Y-110538833D01*
X43109619Y-111729309D02*
X44109619Y-111729309D01*
X43109619Y-112157880D02*
X43633428Y-112157880D01*
X43728666Y-112110261D01*
X43776285Y-112015023D01*
X43776285Y-111872166D01*
X43728666Y-111776928D01*
X43681047Y-111729309D01*
X43109619Y-113062642D02*
X43633428Y-113062642D01*
X43728666Y-113015023D01*
X43776285Y-112919785D01*
X43776285Y-112729309D01*
X43728666Y-112634071D01*
X43157238Y-113062642D02*
X43109619Y-112967404D01*
X43109619Y-112729309D01*
X43157238Y-112634071D01*
X43252476Y-112586452D01*
X43347714Y-112586452D01*
X43442952Y-112634071D01*
X43490571Y-112729309D01*
X43490571Y-112967404D01*
X43538190Y-113062642D01*
X43776285Y-113538833D02*
X43109619Y-113538833D01*
X43681047Y-113538833D02*
X43728666Y-113586452D01*
X43776285Y-113681690D01*
X43776285Y-113824547D01*
X43728666Y-113919785D01*
X43633428Y-113967404D01*
X43109619Y-113967404D01*
X43157238Y-114395976D02*
X43109619Y-114491214D01*
X43109619Y-114681690D01*
X43157238Y-114776928D01*
X43252476Y-114824547D01*
X43300095Y-114824547D01*
X43395333Y-114776928D01*
X43442952Y-114681690D01*
X43442952Y-114538833D01*
X43490571Y-114443595D01*
X43585809Y-114395976D01*
X43633428Y-114395976D01*
X43728666Y-114443595D01*
X43776285Y-114538833D01*
X43776285Y-114681690D01*
X43728666Y-114776928D01*
X43109619Y-115253119D02*
X44109619Y-115253119D01*
X43109619Y-115681690D02*
X43633428Y-115681690D01*
X43728666Y-115634071D01*
X43776285Y-115538833D01*
X43776285Y-115395976D01*
X43728666Y-115300738D01*
X43681047Y-115253119D01*
X43776285Y-116586452D02*
X43109619Y-116586452D01*
X43776285Y-116157880D02*
X43252476Y-116157880D01*
X43157238Y-116205500D01*
X43109619Y-116300738D01*
X43109619Y-116443595D01*
X43157238Y-116538833D01*
X43204857Y-116586452D01*
X43157238Y-117443595D02*
X43109619Y-117348357D01*
X43109619Y-117157880D01*
X43157238Y-117062642D01*
X43252476Y-117015023D01*
X43633428Y-117015023D01*
X43728666Y-117062642D01*
X43776285Y-117157880D01*
X43776285Y-117348357D01*
X43728666Y-117443595D01*
X43633428Y-117491214D01*
X43538190Y-117491214D01*
X43442952Y-117015023D01*
X43109619Y-117919785D02*
X44109619Y-117919785D01*
X43728666Y-117919785D02*
X43776285Y-118015023D01*
X43776285Y-118205500D01*
X43728666Y-118300738D01*
X43681047Y-118348357D01*
X43585809Y-118395976D01*
X43300095Y-118395976D01*
X43204857Y-118348357D01*
X43157238Y-118300738D01*
X43109619Y-118205500D01*
X43109619Y-118015023D01*
X43157238Y-117919785D01*
X43776285Y-118824547D02*
X43109619Y-118824547D01*
X43681047Y-118824547D02*
X43728666Y-118872166D01*
X43776285Y-118967404D01*
X43776285Y-119110261D01*
X43728666Y-119205500D01*
X43633428Y-119253119D01*
X43109619Y-119253119D01*
X43157238Y-120110261D02*
X43109619Y-120015023D01*
X43109619Y-119824547D01*
X43157238Y-119729309D01*
X43252476Y-119681690D01*
X43633428Y-119681690D01*
X43728666Y-119729309D01*
X43776285Y-119824547D01*
X43776285Y-120015023D01*
X43728666Y-120110261D01*
X43633428Y-120157880D01*
X43538190Y-120157880D01*
X43442952Y-119681690D01*
X43109619Y-120586452D02*
X43776285Y-120586452D01*
X43585809Y-120586452D02*
X43681047Y-120634071D01*
X43728666Y-120681690D01*
X43776285Y-120776928D01*
X43776285Y-120872166D01*
X44157238Y-121919785D02*
X42871523Y-121062642D01*
X43157238Y-122205500D02*
X43109619Y-122300738D01*
X43109619Y-122491214D01*
X43157238Y-122586452D01*
X43252476Y-122634071D01*
X43300095Y-122634071D01*
X43395333Y-122586452D01*
X43442952Y-122491214D01*
X43442952Y-122348357D01*
X43490571Y-122253119D01*
X43585809Y-122205500D01*
X43633428Y-122205500D01*
X43728666Y-122253119D01*
X43776285Y-122348357D01*
X43776285Y-122491214D01*
X43728666Y-122586452D01*
X43109619Y-123062642D02*
X43776285Y-123062642D01*
X44109619Y-123062642D02*
X44061999Y-123015023D01*
X44014380Y-123062642D01*
X44061999Y-123110261D01*
X44109619Y-123062642D01*
X44014380Y-123062642D01*
X43776285Y-123538833D02*
X43109619Y-123538833D01*
X43681047Y-123538833D02*
X43728666Y-123586452D01*
X43776285Y-123681690D01*
X43776285Y-123824547D01*
X43728666Y-123919785D01*
X43633428Y-123967404D01*
X43109619Y-123967404D01*
X43109619Y-124586452D02*
X43157238Y-124491214D01*
X43204857Y-124443595D01*
X43300095Y-124395976D01*
X43585809Y-124395976D01*
X43681047Y-124443595D01*
X43728666Y-124491214D01*
X43776285Y-124586452D01*
X43776285Y-124729309D01*
X43728666Y-124824547D01*
X43681047Y-124872166D01*
X43585809Y-124919785D01*
X43300095Y-124919785D01*
X43204857Y-124872166D01*
X43157238Y-124824547D01*
X43109619Y-124729309D01*
X43109619Y-124586452D01*
X43776285Y-125348357D02*
X42776285Y-125348357D01*
X43728666Y-125348357D02*
X43776285Y-125443595D01*
X43776285Y-125634071D01*
X43728666Y-125729309D01*
X43681047Y-125776928D01*
X43585809Y-125824547D01*
X43300095Y-125824547D01*
X43204857Y-125776928D01*
X43157238Y-125729309D01*
X43109619Y-125634071D01*
X43109619Y-125443595D01*
X43157238Y-125348357D01*
X43157238Y-126634071D02*
X43109619Y-126538833D01*
X43109619Y-126348357D01*
X43157238Y-126253119D01*
X43252476Y-126205500D01*
X43633428Y-126205500D01*
X43728666Y-126253119D01*
X43776285Y-126348357D01*
X43776285Y-126538833D01*
X43728666Y-126634071D01*
X43633428Y-126681690D01*
X43538190Y-126681690D01*
X43442952Y-126205500D01*
X40743238Y-75954285D02*
X40695619Y-76097142D01*
X40695619Y-76335238D01*
X40743238Y-76430476D01*
X40790857Y-76478095D01*
X40886095Y-76525714D01*
X40981333Y-76525714D01*
X41076571Y-76478095D01*
X41124190Y-76430476D01*
X41171809Y-76335238D01*
X41219428Y-76144761D01*
X41267047Y-76049523D01*
X41314666Y-76001904D01*
X41409904Y-75954285D01*
X41505142Y-75954285D01*
X41600380Y-76001904D01*
X41648000Y-76049523D01*
X41695619Y-76144761D01*
X41695619Y-76382857D01*
X41648000Y-76525714D01*
X41219428Y-76954285D02*
X41219428Y-77287619D01*
X40695619Y-77430476D02*
X40695619Y-76954285D01*
X41695619Y-76954285D01*
X41695619Y-77430476D01*
X40695619Y-78430476D02*
X41171809Y-78097142D01*
X40695619Y-77859047D02*
X41695619Y-77859047D01*
X41695619Y-78240000D01*
X41648000Y-78335238D01*
X41600380Y-78382857D01*
X41505142Y-78430476D01*
X41362285Y-78430476D01*
X41267047Y-78382857D01*
X41219428Y-78335238D01*
X41171809Y-78240000D01*
X41171809Y-77859047D01*
X40695619Y-78859047D02*
X41695619Y-78859047D01*
X40981333Y-79287619D02*
X40981333Y-79763809D01*
X40695619Y-79192380D02*
X41695619Y-79525714D01*
X40695619Y-79859047D01*
X40695619Y-80668571D02*
X40695619Y-80192380D01*
X41695619Y-80192380D01*
X40695619Y-81525714D02*
X40695619Y-80954285D01*
X40695619Y-81240000D02*
X41695619Y-81240000D01*
X41552761Y-81144761D01*
X41457523Y-81049523D01*
X41409904Y-80954285D01*
X40743238Y-88654285D02*
X40695619Y-88797142D01*
X40695619Y-89035238D01*
X40743238Y-89130476D01*
X40790857Y-89178095D01*
X40886095Y-89225714D01*
X40981333Y-89225714D01*
X41076571Y-89178095D01*
X41124190Y-89130476D01*
X41171809Y-89035238D01*
X41219428Y-88844761D01*
X41267047Y-88749523D01*
X41314666Y-88701904D01*
X41409904Y-88654285D01*
X41505142Y-88654285D01*
X41600380Y-88701904D01*
X41648000Y-88749523D01*
X41695619Y-88844761D01*
X41695619Y-89082857D01*
X41648000Y-89225714D01*
X41219428Y-89654285D02*
X41219428Y-89987619D01*
X40695619Y-90130476D02*
X40695619Y-89654285D01*
X41695619Y-89654285D01*
X41695619Y-90130476D01*
X40695619Y-91130476D02*
X41171809Y-90797142D01*
X40695619Y-90559047D02*
X41695619Y-90559047D01*
X41695619Y-90940000D01*
X41648000Y-91035238D01*
X41600380Y-91082857D01*
X41505142Y-91130476D01*
X41362285Y-91130476D01*
X41267047Y-91082857D01*
X41219428Y-91035238D01*
X41171809Y-90940000D01*
X41171809Y-90559047D01*
X40695619Y-91559047D02*
X41695619Y-91559047D01*
X40981333Y-91987619D02*
X40981333Y-92463809D01*
X40695619Y-91892380D02*
X41695619Y-92225714D01*
X40695619Y-92559047D01*
X40695619Y-93368571D02*
X40695619Y-92892380D01*
X41695619Y-92892380D01*
X41695619Y-93892380D02*
X41695619Y-93987619D01*
X41648000Y-94082857D01*
X41600380Y-94130476D01*
X41505142Y-94178095D01*
X41314666Y-94225714D01*
X41076571Y-94225714D01*
X40886095Y-94178095D01*
X40790857Y-94130476D01*
X40743238Y-94082857D01*
X40695619Y-93987619D01*
X40695619Y-93892380D01*
X40743238Y-93797142D01*
X40790857Y-93749523D01*
X40886095Y-93701904D01*
X41076571Y-93654285D01*
X41314666Y-93654285D01*
X41505142Y-93701904D01*
X41600380Y-93749523D01*
X41648000Y-93797142D01*
X41695619Y-93892380D01*
X41942000Y-59761428D02*
X42703904Y-59761428D01*
X42322952Y-60142380D02*
X42322952Y-59380476D01*
X43084857Y-59142380D02*
X43703904Y-59142380D01*
X43370571Y-59523333D01*
X43513428Y-59523333D01*
X43608666Y-59570952D01*
X43656285Y-59618571D01*
X43703904Y-59713809D01*
X43703904Y-59951904D01*
X43656285Y-60047142D01*
X43608666Y-60094761D01*
X43513428Y-60142380D01*
X43227714Y-60142380D01*
X43132476Y-60094761D01*
X43084857Y-60047142D01*
X44132476Y-60047142D02*
X44180095Y-60094761D01*
X44132476Y-60142380D01*
X44084857Y-60094761D01*
X44132476Y-60047142D01*
X44132476Y-60142380D01*
X44513428Y-59142380D02*
X45132476Y-59142380D01*
X44799142Y-59523333D01*
X44942000Y-59523333D01*
X45037238Y-59570952D01*
X45084857Y-59618571D01*
X45132476Y-59713809D01*
X45132476Y-59951904D01*
X45084857Y-60047142D01*
X45037238Y-60094761D01*
X44942000Y-60142380D01*
X44656285Y-60142380D01*
X44561047Y-60094761D01*
X44513428Y-60047142D01*
X45418190Y-59142380D02*
X45751523Y-60142380D01*
X46084857Y-59142380D01*
X41219428Y-62634952D02*
X41171809Y-62777809D01*
X41124190Y-62825428D01*
X41028952Y-62873047D01*
X40886095Y-62873047D01*
X40790857Y-62825428D01*
X40743238Y-62777809D01*
X40695619Y-62682571D01*
X40695619Y-62301619D01*
X41695619Y-62301619D01*
X41695619Y-62634952D01*
X41648000Y-62730190D01*
X41600380Y-62777809D01*
X41505142Y-62825428D01*
X41409904Y-62825428D01*
X41314666Y-62777809D01*
X41267047Y-62730190D01*
X41219428Y-62634952D01*
X41219428Y-62301619D01*
X40981333Y-63254000D02*
X40981333Y-63730190D01*
X40695619Y-63158761D02*
X41695619Y-63492095D01*
X40695619Y-63825428D01*
X41695619Y-64015904D02*
X41695619Y-64587333D01*
X40695619Y-64301619D02*
X41695619Y-64301619D01*
X41695619Y-64777809D02*
X41695619Y-65349238D01*
X40695619Y-65063523D02*
X41695619Y-65063523D01*
X42656285Y-47823428D02*
X43418190Y-47823428D01*
X43037238Y-48204380D02*
X43037238Y-47442476D01*
X44370571Y-47204380D02*
X43894380Y-47204380D01*
X43846761Y-47680571D01*
X43894380Y-47632952D01*
X43989619Y-47585333D01*
X44227714Y-47585333D01*
X44322952Y-47632952D01*
X44370571Y-47680571D01*
X44418190Y-47775809D01*
X44418190Y-48013904D01*
X44370571Y-48109142D01*
X44322952Y-48156761D01*
X44227714Y-48204380D01*
X43989619Y-48204380D01*
X43894380Y-48156761D01*
X43846761Y-48109142D01*
X44703904Y-47204380D02*
X45037238Y-48204380D01*
X45370571Y-47204380D01*
X40695619Y-38425619D02*
X41171809Y-38092285D01*
X40695619Y-37854190D02*
X41695619Y-37854190D01*
X41695619Y-38235142D01*
X41648000Y-38330380D01*
X41600380Y-38378000D01*
X41505142Y-38425619D01*
X41362285Y-38425619D01*
X41267047Y-38378000D01*
X41219428Y-38330380D01*
X41171809Y-38235142D01*
X41171809Y-37854190D01*
X41219428Y-38854190D02*
X41219428Y-39187523D01*
X40695619Y-39330380D02*
X40695619Y-38854190D01*
X41695619Y-38854190D01*
X41695619Y-39330380D01*
X40743238Y-39711333D02*
X40695619Y-39854190D01*
X40695619Y-40092285D01*
X40743238Y-40187523D01*
X40790857Y-40235142D01*
X40886095Y-40282761D01*
X40981333Y-40282761D01*
X41076571Y-40235142D01*
X41124190Y-40187523D01*
X41171809Y-40092285D01*
X41219428Y-39901809D01*
X41267047Y-39806571D01*
X41314666Y-39758952D01*
X41409904Y-39711333D01*
X41505142Y-39711333D01*
X41600380Y-39758952D01*
X41648000Y-39806571D01*
X41695619Y-39901809D01*
X41695619Y-40139904D01*
X41648000Y-40282761D01*
X41219428Y-40711333D02*
X41219428Y-41044666D01*
X40695619Y-41187523D02*
X40695619Y-40711333D01*
X41695619Y-40711333D01*
X41695619Y-41187523D01*
X41695619Y-41473238D02*
X41695619Y-42044666D01*
X40695619Y-41758952D02*
X41695619Y-41758952D01*
X40695619Y-50482666D02*
X41695619Y-50482666D01*
X41695619Y-50863619D01*
X41648000Y-50958857D01*
X41600380Y-51006476D01*
X41505142Y-51054095D01*
X41362285Y-51054095D01*
X41267047Y-51006476D01*
X41219428Y-50958857D01*
X41171809Y-50863619D01*
X41171809Y-50482666D01*
X41695619Y-51387428D02*
X40695619Y-51625523D01*
X41409904Y-51816000D01*
X40695619Y-52006476D01*
X41695619Y-52244571D01*
X40695619Y-53196952D02*
X41171809Y-52863619D01*
X40695619Y-52625523D02*
X41695619Y-52625523D01*
X41695619Y-53006476D01*
X41648000Y-53101714D01*
X41600380Y-53149333D01*
X41505142Y-53196952D01*
X41362285Y-53196952D01*
X41267047Y-53149333D01*
X41219428Y-53101714D01*
X41171809Y-53006476D01*
X41171809Y-52625523D01*
D11*
X168258000Y-81220000D02*
X162798000Y-81220000D01*
X168258000Y-121980000D02*
X168258000Y-81220000D01*
X155338000Y-121980000D02*
X168258000Y-121980000D01*
X155338000Y-81220000D02*
X155338000Y-121980000D01*
X160798000Y-81220000D02*
X155338000Y-81220000D01*
X162798000Y-81220000D02*
G75*
G02X160798000Y-81220000I-1000000J0D01*
G01*
X52578000Y-25594000D02*
X53908000Y-25594000D01*
X53908000Y-25594000D02*
X53908000Y-26924000D01*
X53908000Y-28194000D02*
X53908000Y-127314000D01*
X51248000Y-127314000D02*
X53908000Y-127314000D01*
X51248000Y-28194000D02*
X51248000Y-127314000D01*
X51248000Y-28194000D02*
X53908000Y-28194000D01*
X45526000Y-42224000D02*
X44196000Y-42224000D01*
X45526000Y-40894000D02*
X45526000Y-42224000D01*
X45526000Y-39624000D02*
X42866000Y-39624000D01*
X42866000Y-39624000D02*
X42866000Y-37024000D01*
X45526000Y-39624000D02*
X45526000Y-37024000D01*
X45526000Y-37024000D02*
X42866000Y-37024000D01*
X47034000Y-96564000D02*
X45974000Y-96564000D01*
X47034000Y-95504000D02*
X47034000Y-96564000D01*
X44974000Y-96564000D02*
X42914000Y-96564000D01*
X44974000Y-94504000D02*
X44974000Y-96564000D01*
X47034000Y-94504000D02*
X44974000Y-94504000D01*
X42914000Y-96564000D02*
X42914000Y-86444000D01*
X47034000Y-94504000D02*
X47034000Y-86444000D01*
X47034000Y-86444000D02*
X42914000Y-86444000D01*
X186038000Y-29150000D02*
X184388000Y-29150000D01*
X186038000Y-49590000D02*
X186038000Y-29150000D01*
X180738000Y-49590000D02*
X186038000Y-49590000D01*
X180738000Y-29150000D02*
X180738000Y-49590000D01*
X182388000Y-29150000D02*
X180738000Y-29150000D01*
X184388000Y-29150000D02*
G75*
G02X182388000Y-29150000I-1000000J0D01*
G01*
X177748000Y-39374578D02*
X177748000Y-38857422D01*
X176328000Y-39374578D02*
X176328000Y-38857422D01*
X171502000Y-83307422D02*
X171502000Y-83824578D01*
X172922000Y-83307422D02*
X172922000Y-83824578D01*
X143958000Y-45406000D02*
X145288000Y-45406000D01*
X143958000Y-46736000D02*
X143958000Y-45406000D01*
X146558000Y-45406000D02*
X149158000Y-45406000D01*
X146558000Y-48006000D02*
X146558000Y-45406000D01*
X143958000Y-48006000D02*
X146558000Y-48006000D01*
X149158000Y-45406000D02*
X149158000Y-60766000D01*
X143958000Y-48006000D02*
X143958000Y-60766000D01*
X143958000Y-60766000D02*
X149158000Y-60766000D01*
X169528000Y-26610000D02*
X164068000Y-26610000D01*
X169528000Y-77530000D02*
X169528000Y-26610000D01*
X156608000Y-77530000D02*
X169528000Y-77530000D01*
X156608000Y-26610000D02*
X156608000Y-77530000D01*
X162068000Y-26610000D02*
X156608000Y-26610000D01*
X164068000Y-26610000D02*
G75*
G02X162068000Y-26610000I-1000000J0D01*
G01*
X85073000Y-69155000D02*
X79613000Y-69155000D01*
X85073000Y-120075000D02*
X85073000Y-69155000D01*
X72153000Y-120075000D02*
X85073000Y-120075000D01*
X72153000Y-69155000D02*
X72153000Y-120075000D01*
X77613000Y-69155000D02*
X72153000Y-69155000D01*
X79613000Y-69155000D02*
G75*
G02X77613000Y-69155000I-1000000J0D01*
G01*
X139048000Y-26610000D02*
X133588000Y-26610000D01*
X139048000Y-77530000D02*
X139048000Y-26610000D01*
X126128000Y-77530000D02*
X139048000Y-77530000D01*
X126128000Y-26610000D02*
X126128000Y-77530000D01*
X131588000Y-26610000D02*
X126128000Y-26610000D01*
X133588000Y-26610000D02*
G75*
G02X131588000Y-26610000I-1000000J0D01*
G01*
X84438000Y-41215000D02*
X82788000Y-41215000D01*
X84438000Y-61655000D02*
X84438000Y-41215000D01*
X79138000Y-61655000D02*
X84438000Y-61655000D01*
X79138000Y-41215000D02*
X79138000Y-61655000D01*
X80788000Y-41215000D02*
X79138000Y-41215000D01*
X82788000Y-41215000D02*
G75*
G02X80788000Y-41215000I-1000000J0D01*
G01*
X45526000Y-82610000D02*
X44196000Y-82610000D01*
X45526000Y-81280000D02*
X45526000Y-82610000D01*
X45526000Y-80010000D02*
X42866000Y-80010000D01*
X42866000Y-80010000D02*
X42866000Y-74870000D01*
X45526000Y-80010000D02*
X45526000Y-74870000D01*
X45526000Y-74870000D02*
X42866000Y-74870000D01*
X68278000Y-27332000D02*
G75*
G03X67528000Y-28082000I0J-750000D01*
G01*
X88428000Y-28082000D02*
G75*
G03X87678000Y-27332000I-750000J0D01*
G01*
X87678000Y-40232000D02*
G75*
G03X88428000Y-39482000I0J750000D01*
G01*
X67528000Y-40232000D02*
X87678000Y-40232000D01*
X88428000Y-39482000D02*
X88428000Y-28082000D01*
X87678000Y-27332000D02*
X68278000Y-27332000D01*
X67528000Y-28082000D02*
X67528000Y-40232000D01*
X192388000Y-81220000D02*
X186928000Y-81220000D01*
X192388000Y-121980000D02*
X192388000Y-81220000D01*
X179468000Y-121980000D02*
X192388000Y-121980000D01*
X179468000Y-81220000D02*
X179468000Y-121980000D01*
X184928000Y-81220000D02*
X179468000Y-81220000D01*
X186928000Y-81220000D02*
G75*
G02X184928000Y-81220000I-1000000J0D01*
G01*
X140318000Y-93920000D02*
X138668000Y-93920000D01*
X140318000Y-114360000D02*
X140318000Y-93920000D01*
X135018000Y-114360000D02*
X140318000Y-114360000D01*
X135018000Y-93920000D02*
X135018000Y-114360000D01*
X136668000Y-93920000D02*
X135018000Y-93920000D01*
X138668000Y-93920000D02*
G75*
G02X136668000Y-93920000I-1000000J0D01*
G01*
X123808000Y-83760000D02*
X122158000Y-83760000D01*
X123808000Y-114360000D02*
X123808000Y-83760000D01*
X118508000Y-114360000D02*
X123808000Y-114360000D01*
X118508000Y-83760000D02*
X118508000Y-114360000D01*
X120158000Y-83760000D02*
X118508000Y-83760000D01*
X122158000Y-83760000D02*
G75*
G02X120158000Y-83760000I-1000000J0D01*
G01*
X104504000Y-69028000D02*
X102854000Y-69028000D01*
X104504000Y-99628000D02*
X104504000Y-69028000D01*
X99204000Y-99628000D02*
X104504000Y-99628000D01*
X99204000Y-69028000D02*
X99204000Y-99628000D01*
X100854000Y-69028000D02*
X99204000Y-69028000D01*
X102854000Y-69028000D02*
G75*
G02X100854000Y-69028000I-1000000J0D01*
G01*
X186038000Y-53280000D02*
X184388000Y-53280000D01*
X186038000Y-73720000D02*
X186038000Y-53280000D01*
X180738000Y-73720000D02*
X186038000Y-73720000D01*
X180738000Y-53280000D02*
X180738000Y-73720000D01*
X182388000Y-53280000D02*
X180738000Y-53280000D01*
X184388000Y-53280000D02*
G75*
G02X182388000Y-53280000I-1000000J0D01*
G01*
X109838000Y-26610000D02*
X104378000Y-26610000D01*
X109838000Y-62290000D02*
X109838000Y-26610000D01*
X96918000Y-62290000D02*
X109838000Y-62290000D01*
X96918000Y-26610000D02*
X96918000Y-62290000D01*
X102378000Y-26610000D02*
X96918000Y-26610000D01*
X104378000Y-26610000D02*
G75*
G02X102378000Y-26610000I-1000000J0D01*
G01*
X42978000Y-33523422D02*
X42978000Y-34040578D01*
X44398000Y-33523422D02*
X44398000Y-34040578D01*
X72140578Y-65076000D02*
X71623422Y-65076000D01*
X72140578Y-66496000D02*
X71623422Y-66496000D01*
X69789522Y-41341522D02*
G75*
G03X71628000Y-45780000I1838478J-1838478D01*
G01*
X73466478Y-41341522D02*
G75*
G02X71628000Y-45780000I-1838478J-1838478D01*
G01*
X73428000Y-41330000D02*
X69828000Y-41330000D01*
X45526000Y-54416000D02*
X44196000Y-54416000D01*
X45526000Y-53086000D02*
X45526000Y-54416000D01*
X45526000Y-51816000D02*
X42866000Y-51816000D01*
X42866000Y-51816000D02*
X42866000Y-49216000D01*
X45526000Y-51816000D02*
X45526000Y-49216000D01*
X45526000Y-49216000D02*
X42866000Y-49216000D01*
X42866000Y-66354000D02*
X42866000Y-65024000D01*
X44196000Y-66354000D02*
X42866000Y-66354000D01*
X42866000Y-63754000D02*
X42866000Y-61154000D01*
X45466000Y-63754000D02*
X42866000Y-63754000D01*
X45466000Y-66354000D02*
X45466000Y-63754000D01*
X42866000Y-61154000D02*
X45526000Y-61154000D01*
X45466000Y-66354000D02*
X45526000Y-66354000D01*
X45526000Y-66354000D02*
X45526000Y-61154000D01*
X116018000Y-50105000D02*
X117348000Y-50105000D01*
X116018000Y-51435000D02*
X116018000Y-50105000D01*
X118618000Y-50105000D02*
X121218000Y-50105000D01*
X118618000Y-52705000D02*
X118618000Y-50105000D01*
X116018000Y-52705000D02*
X118618000Y-52705000D01*
X121218000Y-50105000D02*
X121218000Y-65465000D01*
X116018000Y-52705000D02*
X116018000Y-65465000D01*
X116018000Y-65465000D02*
X121218000Y-65465000D01*
X44648000Y-31657000D02*
X44648000Y-28972000D01*
X42728000Y-31657000D02*
X44648000Y-31657000D01*
X42728000Y-28972000D02*
X42728000Y-31657000D01*
X87174000Y-57399422D02*
X87174000Y-57916578D01*
X88594000Y-57399422D02*
X88594000Y-57916578D01*
X143308000Y-96007422D02*
X143308000Y-96524578D01*
X144728000Y-96007422D02*
X144728000Y-96524578D01*
X182630578Y-78792000D02*
X182113422Y-78792000D01*
X182630578Y-80212000D02*
X182113422Y-80212000D01*
X126798000Y-86101422D02*
X126798000Y-86618578D01*
X128218000Y-86101422D02*
X128218000Y-86618578D01*
X87428000Y-42921422D02*
X87428000Y-43438578D01*
X88848000Y-42921422D02*
X88848000Y-43438578D01*
X69140000Y-49446922D02*
X69140000Y-49964078D01*
X70560000Y-49446922D02*
X70560000Y-49964078D01*
X88698000Y-97531422D02*
X88698000Y-98048578D01*
X90118000Y-97531422D02*
X90118000Y-98048578D01*
X189028000Y-55367422D02*
X189028000Y-55884578D01*
X190448000Y-55367422D02*
X190448000Y-55884578D01*
X177748000Y-63426078D02*
X177748000Y-62908922D01*
X176328000Y-63426078D02*
X176328000Y-62908922D01*
X142038000Y-28951422D02*
X142038000Y-29468578D01*
X143458000Y-28951422D02*
X143458000Y-29468578D01*
X152452000Y-49271422D02*
X152452000Y-49788578D01*
X153872000Y-49271422D02*
X153872000Y-49788578D01*
X112828000Y-28951422D02*
X112828000Y-29468578D01*
X114248000Y-28951422D02*
X114248000Y-29468578D01*
X177748000Y-68584578D02*
X177748000Y-68067422D01*
X176328000Y-68584578D02*
X176328000Y-68067422D01*
X176328000Y-55367422D02*
X176328000Y-55884578D01*
X177748000Y-55367422D02*
X177748000Y-55884578D01*
X176328000Y-59177422D02*
X176328000Y-59694578D01*
X177748000Y-59177422D02*
X177748000Y-59694578D01*
X189028000Y-31237422D02*
X189028000Y-31754578D01*
X190448000Y-31237422D02*
X190448000Y-31754578D01*
X177748000Y-44454578D02*
X177748000Y-43937422D01*
X176328000Y-44454578D02*
X176328000Y-43937422D01*
X176328000Y-31237422D02*
X176328000Y-31754578D01*
X177748000Y-31237422D02*
X177748000Y-31754578D01*
X176328000Y-35047422D02*
X176328000Y-35564578D01*
X177748000Y-35047422D02*
X177748000Y-35564578D01*
X94664423Y-63765001D02*
X95181579Y-63765001D01*
X94664423Y-65185001D02*
X95181579Y-65185001D01*
D10*
X161036095Y-79672380D02*
X161036095Y-80481904D01*
X161083714Y-80577142D01*
X161131333Y-80624761D01*
X161226571Y-80672380D01*
X161417047Y-80672380D01*
X161512285Y-80624761D01*
X161559904Y-80577142D01*
X161607523Y-80481904D01*
X161607523Y-79672380D01*
X162131333Y-80672380D02*
X162321809Y-80672380D01*
X162417047Y-80624761D01*
X162464666Y-80577142D01*
X162559904Y-80434285D01*
X162607523Y-80243809D01*
X162607523Y-79862857D01*
X162559904Y-79767619D01*
X162512285Y-79720000D01*
X162417047Y-79672380D01*
X162226571Y-79672380D01*
X162131333Y-79720000D01*
X162083714Y-79767619D01*
X162036095Y-79862857D01*
X162036095Y-80100952D01*
X162083714Y-80196190D01*
X162131333Y-80243809D01*
X162226571Y-80291428D01*
X162417047Y-80291428D01*
X162512285Y-80243809D01*
X162559904Y-80196190D01*
X162607523Y-80100952D01*
X52244666Y-23606380D02*
X52244666Y-24320666D01*
X52197047Y-24463523D01*
X52101809Y-24558761D01*
X51958952Y-24606380D01*
X51863714Y-24606380D01*
X52625619Y-23606380D02*
X53292285Y-23606380D01*
X52863714Y-24606380D01*
X42862666Y-43628761D02*
X43005523Y-43676380D01*
X43243619Y-43676380D01*
X43338857Y-43628761D01*
X43386476Y-43581142D01*
X43434095Y-43485904D01*
X43434095Y-43390666D01*
X43386476Y-43295428D01*
X43338857Y-43247809D01*
X43243619Y-43200190D01*
X43053142Y-43152571D01*
X42957904Y-43104952D01*
X42910285Y-43057333D01*
X42862666Y-42962095D01*
X42862666Y-42866857D01*
X42910285Y-42771619D01*
X42957904Y-42724000D01*
X43053142Y-42676380D01*
X43291238Y-42676380D01*
X43434095Y-42724000D01*
X43767428Y-42676380D02*
X44005523Y-43676380D01*
X44196000Y-42962095D01*
X44386476Y-43676380D01*
X44624571Y-42676380D01*
X45529333Y-43676380D02*
X44957904Y-43676380D01*
X45243619Y-43676380D02*
X45243619Y-42676380D01*
X45148380Y-42819238D01*
X45053142Y-42914476D01*
X44957904Y-42962095D01*
X44640666Y-97016380D02*
X44640666Y-97730666D01*
X44593047Y-97873523D01*
X44497809Y-97968761D01*
X44354952Y-98016380D01*
X44259714Y-98016380D01*
X45069238Y-97111619D02*
X45116857Y-97064000D01*
X45212095Y-97016380D01*
X45450190Y-97016380D01*
X45545428Y-97064000D01*
X45593047Y-97111619D01*
X45640666Y-97206857D01*
X45640666Y-97302095D01*
X45593047Y-97444952D01*
X45021619Y-98016380D01*
X45640666Y-98016380D01*
X182626095Y-27602380D02*
X182626095Y-28411904D01*
X182673714Y-28507142D01*
X182721333Y-28554761D01*
X182816571Y-28602380D01*
X183007047Y-28602380D01*
X183102285Y-28554761D01*
X183149904Y-28507142D01*
X183197523Y-28411904D01*
X183197523Y-27602380D01*
X184149904Y-27602380D02*
X183673714Y-27602380D01*
X183626095Y-28078571D01*
X183673714Y-28030952D01*
X183768952Y-27983333D01*
X184007047Y-27983333D01*
X184102285Y-28030952D01*
X184149904Y-28078571D01*
X184197523Y-28173809D01*
X184197523Y-28411904D01*
X184149904Y-28507142D01*
X184102285Y-28554761D01*
X184007047Y-28602380D01*
X183768952Y-28602380D01*
X183673714Y-28554761D01*
X183626095Y-28507142D01*
X175745142Y-39282666D02*
X175792761Y-39330285D01*
X175840380Y-39473142D01*
X175840380Y-39568380D01*
X175792761Y-39711238D01*
X175697523Y-39806476D01*
X175602285Y-39854095D01*
X175411809Y-39901714D01*
X175268952Y-39901714D01*
X175078476Y-39854095D01*
X174983238Y-39806476D01*
X174888000Y-39711238D01*
X174840380Y-39568380D01*
X174840380Y-39473142D01*
X174888000Y-39330285D01*
X174935619Y-39282666D01*
X175173714Y-38425523D02*
X175840380Y-38425523D01*
X174792761Y-38663619D02*
X175507047Y-38901714D01*
X175507047Y-38282666D01*
X174219142Y-84208857D02*
X174266761Y-84256476D01*
X174314380Y-84399333D01*
X174314380Y-84494571D01*
X174266761Y-84637428D01*
X174171523Y-84732666D01*
X174076285Y-84780285D01*
X173885809Y-84827904D01*
X173742952Y-84827904D01*
X173552476Y-84780285D01*
X173457238Y-84732666D01*
X173362000Y-84637428D01*
X173314380Y-84494571D01*
X173314380Y-84399333D01*
X173362000Y-84256476D01*
X173409619Y-84208857D01*
X173409619Y-83827904D02*
X173362000Y-83780285D01*
X173314380Y-83685047D01*
X173314380Y-83446952D01*
X173362000Y-83351714D01*
X173409619Y-83304095D01*
X173504857Y-83256476D01*
X173600095Y-83256476D01*
X173742952Y-83304095D01*
X174314380Y-83875523D01*
X174314380Y-83256476D01*
X174314380Y-82304095D02*
X174314380Y-82875523D01*
X174314380Y-82589809D02*
X173314380Y-82589809D01*
X173457238Y-82685047D01*
X173552476Y-82780285D01*
X173600095Y-82875523D01*
X146224666Y-43858380D02*
X146224666Y-44572666D01*
X146177047Y-44715523D01*
X146081809Y-44810761D01*
X145938952Y-44858380D01*
X145843714Y-44858380D01*
X146605619Y-43858380D02*
X147224666Y-43858380D01*
X146891333Y-44239333D01*
X147034190Y-44239333D01*
X147129428Y-44286952D01*
X147177047Y-44334571D01*
X147224666Y-44429809D01*
X147224666Y-44667904D01*
X147177047Y-44763142D01*
X147129428Y-44810761D01*
X147034190Y-44858380D01*
X146748476Y-44858380D01*
X146653238Y-44810761D01*
X146605619Y-44763142D01*
X162306095Y-25062380D02*
X162306095Y-25871904D01*
X162353714Y-25967142D01*
X162401333Y-26014761D01*
X162496571Y-26062380D01*
X162687047Y-26062380D01*
X162782285Y-26014761D01*
X162829904Y-25967142D01*
X162877523Y-25871904D01*
X162877523Y-25062380D01*
X163782285Y-25395714D02*
X163782285Y-26062380D01*
X163544190Y-25014761D02*
X163306095Y-25729047D01*
X163925142Y-25729047D01*
X77851095Y-67607380D02*
X77851095Y-68416904D01*
X77898714Y-68512142D01*
X77946333Y-68559761D01*
X78041571Y-68607380D01*
X78232047Y-68607380D01*
X78327285Y-68559761D01*
X78374904Y-68512142D01*
X78422523Y-68416904D01*
X78422523Y-67607380D01*
X79422523Y-68607380D02*
X78851095Y-68607380D01*
X79136809Y-68607380D02*
X79136809Y-67607380D01*
X79041571Y-67750238D01*
X78946333Y-67845476D01*
X78851095Y-67893095D01*
X131826095Y-25062380D02*
X131826095Y-25871904D01*
X131873714Y-25967142D01*
X131921333Y-26014761D01*
X132016571Y-26062380D01*
X132207047Y-26062380D01*
X132302285Y-26014761D01*
X132349904Y-25967142D01*
X132397523Y-25871904D01*
X132397523Y-25062380D01*
X132778476Y-25062380D02*
X133397523Y-25062380D01*
X133064190Y-25443333D01*
X133207047Y-25443333D01*
X133302285Y-25490952D01*
X133349904Y-25538571D01*
X133397523Y-25633809D01*
X133397523Y-25871904D01*
X133349904Y-25967142D01*
X133302285Y-26014761D01*
X133207047Y-26062380D01*
X132921333Y-26062380D01*
X132826095Y-26014761D01*
X132778476Y-25967142D01*
X81026095Y-39667380D02*
X81026095Y-40476904D01*
X81073714Y-40572142D01*
X81121333Y-40619761D01*
X81216571Y-40667380D01*
X81407047Y-40667380D01*
X81502285Y-40619761D01*
X81549904Y-40572142D01*
X81597523Y-40476904D01*
X81597523Y-39667380D01*
X82216571Y-40095952D02*
X82121333Y-40048333D01*
X82073714Y-40000714D01*
X82026095Y-39905476D01*
X82026095Y-39857857D01*
X82073714Y-39762619D01*
X82121333Y-39715000D01*
X82216571Y-39667380D01*
X82407047Y-39667380D01*
X82502285Y-39715000D01*
X82549904Y-39762619D01*
X82597523Y-39857857D01*
X82597523Y-39905476D01*
X82549904Y-40000714D01*
X82502285Y-40048333D01*
X82407047Y-40095952D01*
X82216571Y-40095952D01*
X82121333Y-40143571D01*
X82073714Y-40191190D01*
X82026095Y-40286428D01*
X82026095Y-40476904D01*
X82073714Y-40572142D01*
X82121333Y-40619761D01*
X82216571Y-40667380D01*
X82407047Y-40667380D01*
X82502285Y-40619761D01*
X82549904Y-40572142D01*
X82597523Y-40476904D01*
X82597523Y-40286428D01*
X82549904Y-40191190D01*
X82502285Y-40143571D01*
X82407047Y-40095952D01*
X43862666Y-83062380D02*
X43862666Y-83776666D01*
X43815047Y-83919523D01*
X43719809Y-84014761D01*
X43576952Y-84062380D01*
X43481714Y-84062380D01*
X44767428Y-83395714D02*
X44767428Y-84062380D01*
X44529333Y-83014761D02*
X44291238Y-83729047D01*
X44910285Y-83729047D01*
X77168476Y-25784380D02*
X77835142Y-26784380D01*
X77835142Y-25784380D02*
X77168476Y-26784380D01*
X78739904Y-26784380D02*
X78168476Y-26784380D01*
X78454190Y-26784380D02*
X78454190Y-25784380D01*
X78358952Y-25927238D01*
X78263714Y-26022476D01*
X78168476Y-26070095D01*
X184689904Y-79672380D02*
X184689904Y-80481904D01*
X184737523Y-80577142D01*
X184785142Y-80624761D01*
X184880380Y-80672380D01*
X185070857Y-80672380D01*
X185166095Y-80624761D01*
X185213714Y-80577142D01*
X185261333Y-80481904D01*
X185261333Y-79672380D01*
X186261333Y-80672380D02*
X185689904Y-80672380D01*
X185975619Y-80672380D02*
X185975619Y-79672380D01*
X185880380Y-79815238D01*
X185785142Y-79910476D01*
X185689904Y-79958095D01*
X186642285Y-79767619D02*
X186689904Y-79720000D01*
X186785142Y-79672380D01*
X187023238Y-79672380D01*
X187118476Y-79720000D01*
X187166095Y-79767619D01*
X187213714Y-79862857D01*
X187213714Y-79958095D01*
X187166095Y-80100952D01*
X186594666Y-80672380D01*
X187213714Y-80672380D01*
X136429904Y-92372380D02*
X136429904Y-93181904D01*
X136477523Y-93277142D01*
X136525142Y-93324761D01*
X136620380Y-93372380D01*
X136810857Y-93372380D01*
X136906095Y-93324761D01*
X136953714Y-93277142D01*
X137001333Y-93181904D01*
X137001333Y-92372380D01*
X138001333Y-93372380D02*
X137429904Y-93372380D01*
X137715619Y-93372380D02*
X137715619Y-92372380D01*
X137620380Y-92515238D01*
X137525142Y-92610476D01*
X137429904Y-92658095D01*
X138953714Y-93372380D02*
X138382285Y-93372380D01*
X138668000Y-93372380D02*
X138668000Y-92372380D01*
X138572761Y-92515238D01*
X138477523Y-92610476D01*
X138382285Y-92658095D01*
X119919904Y-82212380D02*
X119919904Y-83021904D01*
X119967523Y-83117142D01*
X120015142Y-83164761D01*
X120110380Y-83212380D01*
X120300857Y-83212380D01*
X120396095Y-83164761D01*
X120443714Y-83117142D01*
X120491333Y-83021904D01*
X120491333Y-82212380D01*
X121491333Y-83212380D02*
X120919904Y-83212380D01*
X121205619Y-83212380D02*
X121205619Y-82212380D01*
X121110380Y-82355238D01*
X121015142Y-82450476D01*
X120919904Y-82498095D01*
X122110380Y-82212380D02*
X122205619Y-82212380D01*
X122300857Y-82260000D01*
X122348476Y-82307619D01*
X122396095Y-82402857D01*
X122443714Y-82593333D01*
X122443714Y-82831428D01*
X122396095Y-83021904D01*
X122348476Y-83117142D01*
X122300857Y-83164761D01*
X122205619Y-83212380D01*
X122110380Y-83212380D01*
X122015142Y-83164761D01*
X121967523Y-83117142D01*
X121919904Y-83021904D01*
X121872285Y-82831428D01*
X121872285Y-82593333D01*
X121919904Y-82402857D01*
X121967523Y-82307619D01*
X122015142Y-82260000D01*
X122110380Y-82212380D01*
X101092095Y-67480380D02*
X101092095Y-68289904D01*
X101139714Y-68385142D01*
X101187333Y-68432761D01*
X101282571Y-68480380D01*
X101473047Y-68480380D01*
X101568285Y-68432761D01*
X101615904Y-68385142D01*
X101663523Y-68289904D01*
X101663523Y-67480380D01*
X102044476Y-67480380D02*
X102711142Y-67480380D01*
X102282571Y-68480380D01*
X182626095Y-51732380D02*
X182626095Y-52541904D01*
X182673714Y-52637142D01*
X182721333Y-52684761D01*
X182816571Y-52732380D01*
X183007047Y-52732380D01*
X183102285Y-52684761D01*
X183149904Y-52637142D01*
X183197523Y-52541904D01*
X183197523Y-51732380D01*
X184102285Y-51732380D02*
X183911809Y-51732380D01*
X183816571Y-51780000D01*
X183768952Y-51827619D01*
X183673714Y-51970476D01*
X183626095Y-52160952D01*
X183626095Y-52541904D01*
X183673714Y-52637142D01*
X183721333Y-52684761D01*
X183816571Y-52732380D01*
X184007047Y-52732380D01*
X184102285Y-52684761D01*
X184149904Y-52637142D01*
X184197523Y-52541904D01*
X184197523Y-52303809D01*
X184149904Y-52208571D01*
X184102285Y-52160952D01*
X184007047Y-52113333D01*
X183816571Y-52113333D01*
X183721333Y-52160952D01*
X183673714Y-52208571D01*
X183626095Y-52303809D01*
X102616095Y-25062380D02*
X102616095Y-25871904D01*
X102663714Y-25967142D01*
X102711333Y-26014761D01*
X102806571Y-26062380D01*
X102997047Y-26062380D01*
X103092285Y-26014761D01*
X103139904Y-25967142D01*
X103187523Y-25871904D01*
X103187523Y-25062380D01*
X103616095Y-25157619D02*
X103663714Y-25110000D01*
X103758952Y-25062380D01*
X103997047Y-25062380D01*
X104092285Y-25110000D01*
X104139904Y-25157619D01*
X104187523Y-25252857D01*
X104187523Y-25348095D01*
X104139904Y-25490952D01*
X103568476Y-26062380D01*
X104187523Y-26062380D01*
X45918380Y-33948666D02*
X45442190Y-34282000D01*
X45918380Y-34520095D02*
X44918380Y-34520095D01*
X44918380Y-34139142D01*
X44966000Y-34043904D01*
X45013619Y-33996285D01*
X45108857Y-33948666D01*
X45251714Y-33948666D01*
X45346952Y-33996285D01*
X45394571Y-34043904D01*
X45442190Y-34139142D01*
X45442190Y-34520095D01*
X45013619Y-33567714D02*
X44966000Y-33520095D01*
X44918380Y-33424857D01*
X44918380Y-33186761D01*
X44966000Y-33091523D01*
X45013619Y-33043904D01*
X45108857Y-32996285D01*
X45204095Y-32996285D01*
X45346952Y-33043904D01*
X45918380Y-33615333D01*
X45918380Y-32996285D01*
X71715333Y-67888380D02*
X71382000Y-67412190D01*
X71143904Y-67888380D02*
X71143904Y-66888380D01*
X71524857Y-66888380D01*
X71620095Y-66936000D01*
X71667714Y-66983619D01*
X71715333Y-67078857D01*
X71715333Y-67221714D01*
X71667714Y-67316952D01*
X71620095Y-67364571D01*
X71524857Y-67412190D01*
X71143904Y-67412190D01*
X72667714Y-67888380D02*
X72096285Y-67888380D01*
X72382000Y-67888380D02*
X72382000Y-66888380D01*
X72286761Y-67031238D01*
X72191523Y-67126476D01*
X72096285Y-67174095D01*
X71532761Y-47287619D02*
X71437523Y-47240000D01*
X71342285Y-47144761D01*
X71199428Y-47001904D01*
X71104190Y-46954285D01*
X71008952Y-46954285D01*
X71056571Y-47192380D02*
X70961333Y-47144761D01*
X70866095Y-47049523D01*
X70818476Y-46859047D01*
X70818476Y-46525714D01*
X70866095Y-46335238D01*
X70961333Y-46240000D01*
X71056571Y-46192380D01*
X71247047Y-46192380D01*
X71342285Y-46240000D01*
X71437523Y-46335238D01*
X71485142Y-46525714D01*
X71485142Y-46859047D01*
X71437523Y-47049523D01*
X71342285Y-47144761D01*
X71247047Y-47192380D01*
X71056571Y-47192380D01*
X72437523Y-47192380D02*
X71866095Y-47192380D01*
X72151809Y-47192380D02*
X72151809Y-46192380D01*
X72056571Y-46335238D01*
X71961333Y-46430476D01*
X71866095Y-46478095D01*
X43862666Y-55078380D02*
X43862666Y-55792666D01*
X43815047Y-55935523D01*
X43719809Y-56030761D01*
X43576952Y-56078380D01*
X43481714Y-56078380D01*
X44767428Y-55078380D02*
X44576952Y-55078380D01*
X44481714Y-55126000D01*
X44434095Y-55173619D01*
X44338857Y-55316476D01*
X44291238Y-55506952D01*
X44291238Y-55887904D01*
X44338857Y-55983142D01*
X44386476Y-56030761D01*
X44481714Y-56078380D01*
X44672190Y-56078380D01*
X44767428Y-56030761D01*
X44815047Y-55983142D01*
X44862666Y-55887904D01*
X44862666Y-55649809D01*
X44815047Y-55554571D01*
X44767428Y-55506952D01*
X44672190Y-55459333D01*
X44481714Y-55459333D01*
X44386476Y-55506952D01*
X44338857Y-55554571D01*
X44291238Y-55649809D01*
X43862666Y-67016380D02*
X43862666Y-67730666D01*
X43815047Y-67873523D01*
X43719809Y-67968761D01*
X43576952Y-68016380D01*
X43481714Y-68016380D01*
X44815047Y-67016380D02*
X44338857Y-67016380D01*
X44291238Y-67492571D01*
X44338857Y-67444952D01*
X44434095Y-67397333D01*
X44672190Y-67397333D01*
X44767428Y-67444952D01*
X44815047Y-67492571D01*
X44862666Y-67587809D01*
X44862666Y-67825904D01*
X44815047Y-67921142D01*
X44767428Y-67968761D01*
X44672190Y-68016380D01*
X44434095Y-68016380D01*
X44338857Y-67968761D01*
X44291238Y-67921142D01*
X118284666Y-48557380D02*
X118284666Y-49271666D01*
X118237047Y-49414523D01*
X118141809Y-49509761D01*
X117998952Y-49557380D01*
X117903714Y-49557380D01*
X119284666Y-49557380D02*
X118713238Y-49557380D01*
X118998952Y-49557380D02*
X118998952Y-48557380D01*
X118903714Y-48700238D01*
X118808476Y-48795476D01*
X118713238Y-48843095D01*
X45918380Y-30710095D02*
X44918380Y-30710095D01*
X44918380Y-30472000D01*
X44966000Y-30329142D01*
X45061238Y-30233904D01*
X45156476Y-30186285D01*
X45346952Y-30138666D01*
X45489809Y-30138666D01*
X45680285Y-30186285D01*
X45775523Y-30233904D01*
X45870761Y-30329142D01*
X45918380Y-30472000D01*
X45918380Y-30710095D01*
X45918380Y-29186285D02*
X45918380Y-29757714D01*
X45918380Y-29472000D02*
X44918380Y-29472000D01*
X45061238Y-29567238D01*
X45156476Y-29662476D01*
X45204095Y-29757714D01*
X89891142Y-58300857D02*
X89938761Y-58348476D01*
X89986380Y-58491333D01*
X89986380Y-58586571D01*
X89938761Y-58729428D01*
X89843523Y-58824666D01*
X89748285Y-58872285D01*
X89557809Y-58919904D01*
X89414952Y-58919904D01*
X89224476Y-58872285D01*
X89129238Y-58824666D01*
X89034000Y-58729428D01*
X88986380Y-58586571D01*
X88986380Y-58491333D01*
X89034000Y-58348476D01*
X89081619Y-58300857D01*
X89081619Y-57919904D02*
X89034000Y-57872285D01*
X88986380Y-57777047D01*
X88986380Y-57538952D01*
X89034000Y-57443714D01*
X89081619Y-57396095D01*
X89176857Y-57348476D01*
X89272095Y-57348476D01*
X89414952Y-57396095D01*
X89986380Y-57967523D01*
X89986380Y-57348476D01*
X89081619Y-56967523D02*
X89034000Y-56919904D01*
X88986380Y-56824666D01*
X88986380Y-56586571D01*
X89034000Y-56491333D01*
X89081619Y-56443714D01*
X89176857Y-56396095D01*
X89272095Y-56396095D01*
X89414952Y-56443714D01*
X89986380Y-57015142D01*
X89986380Y-56396095D01*
X146025142Y-96908857D02*
X146072761Y-96956476D01*
X146120380Y-97099333D01*
X146120380Y-97194571D01*
X146072761Y-97337428D01*
X145977523Y-97432666D01*
X145882285Y-97480285D01*
X145691809Y-97527904D01*
X145548952Y-97527904D01*
X145358476Y-97480285D01*
X145263238Y-97432666D01*
X145168000Y-97337428D01*
X145120380Y-97194571D01*
X145120380Y-97099333D01*
X145168000Y-96956476D01*
X145215619Y-96908857D01*
X145215619Y-96527904D02*
X145168000Y-96480285D01*
X145120380Y-96385047D01*
X145120380Y-96146952D01*
X145168000Y-96051714D01*
X145215619Y-96004095D01*
X145310857Y-95956476D01*
X145406095Y-95956476D01*
X145548952Y-96004095D01*
X146120380Y-96575523D01*
X146120380Y-95956476D01*
X145120380Y-95337428D02*
X145120380Y-95242190D01*
X145168000Y-95146952D01*
X145215619Y-95099333D01*
X145310857Y-95051714D01*
X145501333Y-95004095D01*
X145739428Y-95004095D01*
X145929904Y-95051714D01*
X146025142Y-95099333D01*
X146072761Y-95146952D01*
X146120380Y-95242190D01*
X146120380Y-95337428D01*
X146072761Y-95432666D01*
X146025142Y-95480285D01*
X145929904Y-95527904D01*
X145739428Y-95575523D01*
X145501333Y-95575523D01*
X145310857Y-95527904D01*
X145215619Y-95480285D01*
X145168000Y-95432666D01*
X145120380Y-95337428D01*
X181729142Y-77827142D02*
X181681523Y-77874761D01*
X181538666Y-77922380D01*
X181443428Y-77922380D01*
X181300571Y-77874761D01*
X181205333Y-77779523D01*
X181157714Y-77684285D01*
X181110095Y-77493809D01*
X181110095Y-77350952D01*
X181157714Y-77160476D01*
X181205333Y-77065238D01*
X181300571Y-76970000D01*
X181443428Y-76922380D01*
X181538666Y-76922380D01*
X181681523Y-76970000D01*
X181729142Y-77017619D01*
X182681523Y-77922380D02*
X182110095Y-77922380D01*
X182395809Y-77922380D02*
X182395809Y-76922380D01*
X182300571Y-77065238D01*
X182205333Y-77160476D01*
X182110095Y-77208095D01*
X183157714Y-77922380D02*
X183348190Y-77922380D01*
X183443428Y-77874761D01*
X183491047Y-77827142D01*
X183586285Y-77684285D01*
X183633904Y-77493809D01*
X183633904Y-77112857D01*
X183586285Y-77017619D01*
X183538666Y-76970000D01*
X183443428Y-76922380D01*
X183252952Y-76922380D01*
X183157714Y-76970000D01*
X183110095Y-77017619D01*
X183062476Y-77112857D01*
X183062476Y-77350952D01*
X183110095Y-77446190D01*
X183157714Y-77493809D01*
X183252952Y-77541428D01*
X183443428Y-77541428D01*
X183538666Y-77493809D01*
X183586285Y-77446190D01*
X183633904Y-77350952D01*
X129515142Y-87002857D02*
X129562761Y-87050476D01*
X129610380Y-87193333D01*
X129610380Y-87288571D01*
X129562761Y-87431428D01*
X129467523Y-87526666D01*
X129372285Y-87574285D01*
X129181809Y-87621904D01*
X129038952Y-87621904D01*
X128848476Y-87574285D01*
X128753238Y-87526666D01*
X128658000Y-87431428D01*
X128610380Y-87288571D01*
X128610380Y-87193333D01*
X128658000Y-87050476D01*
X128705619Y-87002857D01*
X129610380Y-86050476D02*
X129610380Y-86621904D01*
X129610380Y-86336190D02*
X128610380Y-86336190D01*
X128753238Y-86431428D01*
X128848476Y-86526666D01*
X128896095Y-86621904D01*
X129038952Y-85479047D02*
X128991333Y-85574285D01*
X128943714Y-85621904D01*
X128848476Y-85669523D01*
X128800857Y-85669523D01*
X128705619Y-85621904D01*
X128658000Y-85574285D01*
X128610380Y-85479047D01*
X128610380Y-85288571D01*
X128658000Y-85193333D01*
X128705619Y-85145714D01*
X128800857Y-85098095D01*
X128848476Y-85098095D01*
X128943714Y-85145714D01*
X128991333Y-85193333D01*
X129038952Y-85288571D01*
X129038952Y-85479047D01*
X129086571Y-85574285D01*
X129134190Y-85621904D01*
X129229428Y-85669523D01*
X129419904Y-85669523D01*
X129515142Y-85621904D01*
X129562761Y-85574285D01*
X129610380Y-85479047D01*
X129610380Y-85288571D01*
X129562761Y-85193333D01*
X129515142Y-85145714D01*
X129419904Y-85098095D01*
X129229428Y-85098095D01*
X129134190Y-85145714D01*
X129086571Y-85193333D01*
X129038952Y-85288571D01*
X90145142Y-43822857D02*
X90192761Y-43870476D01*
X90240380Y-44013333D01*
X90240380Y-44108571D01*
X90192761Y-44251428D01*
X90097523Y-44346666D01*
X90002285Y-44394285D01*
X89811809Y-44441904D01*
X89668952Y-44441904D01*
X89478476Y-44394285D01*
X89383238Y-44346666D01*
X89288000Y-44251428D01*
X89240380Y-44108571D01*
X89240380Y-44013333D01*
X89288000Y-43870476D01*
X89335619Y-43822857D01*
X90240380Y-42870476D02*
X90240380Y-43441904D01*
X90240380Y-43156190D02*
X89240380Y-43156190D01*
X89383238Y-43251428D01*
X89478476Y-43346666D01*
X89526095Y-43441904D01*
X89240380Y-42537142D02*
X89240380Y-41870476D01*
X90240380Y-42299047D01*
X71857142Y-50348357D02*
X71904761Y-50395976D01*
X71952380Y-50538833D01*
X71952380Y-50634071D01*
X71904761Y-50776928D01*
X71809523Y-50872166D01*
X71714285Y-50919785D01*
X71523809Y-50967404D01*
X71380952Y-50967404D01*
X71190476Y-50919785D01*
X71095238Y-50872166D01*
X71000000Y-50776928D01*
X70952380Y-50634071D01*
X70952380Y-50538833D01*
X71000000Y-50395976D01*
X71047619Y-50348357D01*
X71952380Y-49395976D02*
X71952380Y-49967404D01*
X71952380Y-49681690D02*
X70952380Y-49681690D01*
X71095238Y-49776928D01*
X71190476Y-49872166D01*
X71238095Y-49967404D01*
X70952380Y-48538833D02*
X70952380Y-48729309D01*
X71000000Y-48824547D01*
X71047619Y-48872166D01*
X71190476Y-48967404D01*
X71380952Y-49015023D01*
X71761904Y-49015023D01*
X71857142Y-48967404D01*
X71904761Y-48919785D01*
X71952380Y-48824547D01*
X71952380Y-48634071D01*
X71904761Y-48538833D01*
X71857142Y-48491214D01*
X71761904Y-48443595D01*
X71523809Y-48443595D01*
X71428571Y-48491214D01*
X71380952Y-48538833D01*
X71333333Y-48634071D01*
X71333333Y-48824547D01*
X71380952Y-48919785D01*
X71428571Y-48967404D01*
X71523809Y-49015023D01*
X91415142Y-98432857D02*
X91462761Y-98480476D01*
X91510380Y-98623333D01*
X91510380Y-98718571D01*
X91462761Y-98861428D01*
X91367523Y-98956666D01*
X91272285Y-99004285D01*
X91081809Y-99051904D01*
X90938952Y-99051904D01*
X90748476Y-99004285D01*
X90653238Y-98956666D01*
X90558000Y-98861428D01*
X90510380Y-98718571D01*
X90510380Y-98623333D01*
X90558000Y-98480476D01*
X90605619Y-98432857D01*
X91510380Y-97480476D02*
X91510380Y-98051904D01*
X91510380Y-97766190D02*
X90510380Y-97766190D01*
X90653238Y-97861428D01*
X90748476Y-97956666D01*
X90796095Y-98051904D01*
X90843714Y-96623333D02*
X91510380Y-96623333D01*
X90462761Y-96861428D02*
X91177047Y-97099523D01*
X91177047Y-96480476D01*
X191745142Y-56268857D02*
X191792761Y-56316476D01*
X191840380Y-56459333D01*
X191840380Y-56554571D01*
X191792761Y-56697428D01*
X191697523Y-56792666D01*
X191602285Y-56840285D01*
X191411809Y-56887904D01*
X191268952Y-56887904D01*
X191078476Y-56840285D01*
X190983238Y-56792666D01*
X190888000Y-56697428D01*
X190840380Y-56554571D01*
X190840380Y-56459333D01*
X190888000Y-56316476D01*
X190935619Y-56268857D01*
X191840380Y-55316476D02*
X191840380Y-55887904D01*
X191840380Y-55602190D02*
X190840380Y-55602190D01*
X190983238Y-55697428D01*
X191078476Y-55792666D01*
X191126095Y-55887904D01*
X190840380Y-54983142D02*
X190840380Y-54364095D01*
X191221333Y-54697428D01*
X191221333Y-54554571D01*
X191268952Y-54459333D01*
X191316571Y-54411714D01*
X191411809Y-54364095D01*
X191649904Y-54364095D01*
X191745142Y-54411714D01*
X191792761Y-54459333D01*
X191840380Y-54554571D01*
X191840380Y-54840285D01*
X191792761Y-54935523D01*
X191745142Y-54983142D01*
X175745142Y-63810357D02*
X175792761Y-63857976D01*
X175840380Y-64000833D01*
X175840380Y-64096071D01*
X175792761Y-64238928D01*
X175697523Y-64334166D01*
X175602285Y-64381785D01*
X175411809Y-64429404D01*
X175268952Y-64429404D01*
X175078476Y-64381785D01*
X174983238Y-64334166D01*
X174888000Y-64238928D01*
X174840380Y-64096071D01*
X174840380Y-64000833D01*
X174888000Y-63857976D01*
X174935619Y-63810357D01*
X175840380Y-62857976D02*
X175840380Y-63429404D01*
X175840380Y-63143690D02*
X174840380Y-63143690D01*
X174983238Y-63238928D01*
X175078476Y-63334166D01*
X175126095Y-63429404D01*
X174935619Y-62477023D02*
X174888000Y-62429404D01*
X174840380Y-62334166D01*
X174840380Y-62096071D01*
X174888000Y-62000833D01*
X174935619Y-61953214D01*
X175030857Y-61905595D01*
X175126095Y-61905595D01*
X175268952Y-61953214D01*
X175840380Y-62524642D01*
X175840380Y-61905595D01*
X144755142Y-29852857D02*
X144802761Y-29900476D01*
X144850380Y-30043333D01*
X144850380Y-30138571D01*
X144802761Y-30281428D01*
X144707523Y-30376666D01*
X144612285Y-30424285D01*
X144421809Y-30471904D01*
X144278952Y-30471904D01*
X144088476Y-30424285D01*
X143993238Y-30376666D01*
X143898000Y-30281428D01*
X143850380Y-30138571D01*
X143850380Y-30043333D01*
X143898000Y-29900476D01*
X143945619Y-29852857D01*
X144850380Y-28900476D02*
X144850380Y-29471904D01*
X144850380Y-29186190D02*
X143850380Y-29186190D01*
X143993238Y-29281428D01*
X144088476Y-29376666D01*
X144136095Y-29471904D01*
X144850380Y-27948095D02*
X144850380Y-28519523D01*
X144850380Y-28233809D02*
X143850380Y-28233809D01*
X143993238Y-28329047D01*
X144088476Y-28424285D01*
X144136095Y-28519523D01*
X155169142Y-50172857D02*
X155216761Y-50220476D01*
X155264380Y-50363333D01*
X155264380Y-50458571D01*
X155216761Y-50601428D01*
X155121523Y-50696666D01*
X155026285Y-50744285D01*
X154835809Y-50791904D01*
X154692952Y-50791904D01*
X154502476Y-50744285D01*
X154407238Y-50696666D01*
X154312000Y-50601428D01*
X154264380Y-50458571D01*
X154264380Y-50363333D01*
X154312000Y-50220476D01*
X154359619Y-50172857D01*
X155264380Y-49220476D02*
X155264380Y-49791904D01*
X155264380Y-49506190D02*
X154264380Y-49506190D01*
X154407238Y-49601428D01*
X154502476Y-49696666D01*
X154550095Y-49791904D01*
X154264380Y-48601428D02*
X154264380Y-48506190D01*
X154312000Y-48410952D01*
X154359619Y-48363333D01*
X154454857Y-48315714D01*
X154645333Y-48268095D01*
X154883428Y-48268095D01*
X155073904Y-48315714D01*
X155169142Y-48363333D01*
X155216761Y-48410952D01*
X155264380Y-48506190D01*
X155264380Y-48601428D01*
X155216761Y-48696666D01*
X155169142Y-48744285D01*
X155073904Y-48791904D01*
X154883428Y-48839523D01*
X154645333Y-48839523D01*
X154454857Y-48791904D01*
X154359619Y-48744285D01*
X154312000Y-48696666D01*
X154264380Y-48601428D01*
X115545142Y-29376666D02*
X115592761Y-29424285D01*
X115640380Y-29567142D01*
X115640380Y-29662380D01*
X115592761Y-29805238D01*
X115497523Y-29900476D01*
X115402285Y-29948095D01*
X115211809Y-29995714D01*
X115068952Y-29995714D01*
X114878476Y-29948095D01*
X114783238Y-29900476D01*
X114688000Y-29805238D01*
X114640380Y-29662380D01*
X114640380Y-29567142D01*
X114688000Y-29424285D01*
X114735619Y-29376666D01*
X115640380Y-28900476D02*
X115640380Y-28710000D01*
X115592761Y-28614761D01*
X115545142Y-28567142D01*
X115402285Y-28471904D01*
X115211809Y-28424285D01*
X114830857Y-28424285D01*
X114735619Y-28471904D01*
X114688000Y-28519523D01*
X114640380Y-28614761D01*
X114640380Y-28805238D01*
X114688000Y-28900476D01*
X114735619Y-28948095D01*
X114830857Y-28995714D01*
X115068952Y-28995714D01*
X115164190Y-28948095D01*
X115211809Y-28900476D01*
X115259428Y-28805238D01*
X115259428Y-28614761D01*
X115211809Y-28519523D01*
X115164190Y-28471904D01*
X115068952Y-28424285D01*
X175745142Y-68492666D02*
X175792761Y-68540285D01*
X175840380Y-68683142D01*
X175840380Y-68778380D01*
X175792761Y-68921238D01*
X175697523Y-69016476D01*
X175602285Y-69064095D01*
X175411809Y-69111714D01*
X175268952Y-69111714D01*
X175078476Y-69064095D01*
X174983238Y-69016476D01*
X174888000Y-68921238D01*
X174840380Y-68778380D01*
X174840380Y-68683142D01*
X174888000Y-68540285D01*
X174935619Y-68492666D01*
X175268952Y-67921238D02*
X175221333Y-68016476D01*
X175173714Y-68064095D01*
X175078476Y-68111714D01*
X175030857Y-68111714D01*
X174935619Y-68064095D01*
X174888000Y-68016476D01*
X174840380Y-67921238D01*
X174840380Y-67730761D01*
X174888000Y-67635523D01*
X174935619Y-67587904D01*
X175030857Y-67540285D01*
X175078476Y-67540285D01*
X175173714Y-67587904D01*
X175221333Y-67635523D01*
X175268952Y-67730761D01*
X175268952Y-67921238D01*
X175316571Y-68016476D01*
X175364190Y-68064095D01*
X175459428Y-68111714D01*
X175649904Y-68111714D01*
X175745142Y-68064095D01*
X175792761Y-68016476D01*
X175840380Y-67921238D01*
X175840380Y-67730761D01*
X175792761Y-67635523D01*
X175745142Y-67587904D01*
X175649904Y-67540285D01*
X175459428Y-67540285D01*
X175364190Y-67587904D01*
X175316571Y-67635523D01*
X175268952Y-67730761D01*
X175871142Y-55792666D02*
X175918761Y-55840285D01*
X175966380Y-55983142D01*
X175966380Y-56078380D01*
X175918761Y-56221238D01*
X175823523Y-56316476D01*
X175728285Y-56364095D01*
X175537809Y-56411714D01*
X175394952Y-56411714D01*
X175204476Y-56364095D01*
X175109238Y-56316476D01*
X175014000Y-56221238D01*
X174966380Y-56078380D01*
X174966380Y-55983142D01*
X175014000Y-55840285D01*
X175061619Y-55792666D01*
X174966380Y-55459333D02*
X174966380Y-54792666D01*
X175966380Y-55221238D01*
X179045142Y-59602666D02*
X179092761Y-59650285D01*
X179140380Y-59793142D01*
X179140380Y-59888380D01*
X179092761Y-60031238D01*
X178997523Y-60126476D01*
X178902285Y-60174095D01*
X178711809Y-60221714D01*
X178568952Y-60221714D01*
X178378476Y-60174095D01*
X178283238Y-60126476D01*
X178188000Y-60031238D01*
X178140380Y-59888380D01*
X178140380Y-59793142D01*
X178188000Y-59650285D01*
X178235619Y-59602666D01*
X178140380Y-58745523D02*
X178140380Y-58936000D01*
X178188000Y-59031238D01*
X178235619Y-59078857D01*
X178378476Y-59174095D01*
X178568952Y-59221714D01*
X178949904Y-59221714D01*
X179045142Y-59174095D01*
X179092761Y-59126476D01*
X179140380Y-59031238D01*
X179140380Y-58840761D01*
X179092761Y-58745523D01*
X179045142Y-58697904D01*
X178949904Y-58650285D01*
X178711809Y-58650285D01*
X178616571Y-58697904D01*
X178568952Y-58745523D01*
X178521333Y-58840761D01*
X178521333Y-59031238D01*
X178568952Y-59126476D01*
X178616571Y-59174095D01*
X178711809Y-59221714D01*
X191745142Y-31662666D02*
X191792761Y-31710285D01*
X191840380Y-31853142D01*
X191840380Y-31948380D01*
X191792761Y-32091238D01*
X191697523Y-32186476D01*
X191602285Y-32234095D01*
X191411809Y-32281714D01*
X191268952Y-32281714D01*
X191078476Y-32234095D01*
X190983238Y-32186476D01*
X190888000Y-32091238D01*
X190840380Y-31948380D01*
X190840380Y-31853142D01*
X190888000Y-31710285D01*
X190935619Y-31662666D01*
X190840380Y-30757904D02*
X190840380Y-31234095D01*
X191316571Y-31281714D01*
X191268952Y-31234095D01*
X191221333Y-31138857D01*
X191221333Y-30900761D01*
X191268952Y-30805523D01*
X191316571Y-30757904D01*
X191411809Y-30710285D01*
X191649904Y-30710285D01*
X191745142Y-30757904D01*
X191792761Y-30805523D01*
X191840380Y-30900761D01*
X191840380Y-31138857D01*
X191792761Y-31234095D01*
X191745142Y-31281714D01*
X175745142Y-44362666D02*
X175792761Y-44410285D01*
X175840380Y-44553142D01*
X175840380Y-44648380D01*
X175792761Y-44791238D01*
X175697523Y-44886476D01*
X175602285Y-44934095D01*
X175411809Y-44981714D01*
X175268952Y-44981714D01*
X175078476Y-44934095D01*
X174983238Y-44886476D01*
X174888000Y-44791238D01*
X174840380Y-44648380D01*
X174840380Y-44553142D01*
X174888000Y-44410285D01*
X174935619Y-44362666D01*
X174840380Y-44029333D02*
X174840380Y-43410285D01*
X175221333Y-43743619D01*
X175221333Y-43600761D01*
X175268952Y-43505523D01*
X175316571Y-43457904D01*
X175411809Y-43410285D01*
X175649904Y-43410285D01*
X175745142Y-43457904D01*
X175792761Y-43505523D01*
X175840380Y-43600761D01*
X175840380Y-43886476D01*
X175792761Y-43981714D01*
X175745142Y-44029333D01*
X175617142Y-31916666D02*
X175664761Y-31964285D01*
X175712380Y-32107142D01*
X175712380Y-32202380D01*
X175664761Y-32345238D01*
X175569523Y-32440476D01*
X175474285Y-32488095D01*
X175283809Y-32535714D01*
X175140952Y-32535714D01*
X174950476Y-32488095D01*
X174855238Y-32440476D01*
X174760000Y-32345238D01*
X174712380Y-32202380D01*
X174712380Y-32107142D01*
X174760000Y-31964285D01*
X174807619Y-31916666D01*
X174807619Y-31535714D02*
X174760000Y-31488095D01*
X174712380Y-31392857D01*
X174712380Y-31154761D01*
X174760000Y-31059523D01*
X174807619Y-31011904D01*
X174902857Y-30964285D01*
X174998095Y-30964285D01*
X175140952Y-31011904D01*
X175712380Y-31583333D01*
X175712380Y-30964285D01*
X175093333Y-35917142D02*
X175045714Y-35964761D01*
X174902857Y-36012380D01*
X174807619Y-36012380D01*
X174664761Y-35964761D01*
X174569523Y-35869523D01*
X174521904Y-35774285D01*
X174474285Y-35583809D01*
X174474285Y-35440952D01*
X174521904Y-35250476D01*
X174569523Y-35155238D01*
X174664761Y-35060000D01*
X174807619Y-35012380D01*
X174902857Y-35012380D01*
X175045714Y-35060000D01*
X175093333Y-35107619D01*
X176045714Y-36012380D02*
X175474285Y-36012380D01*
X175760000Y-36012380D02*
X175760000Y-35012380D01*
X175664761Y-35155238D01*
X175569523Y-35250476D01*
X175474285Y-35298095D01*
X94280143Y-63182143D02*
X94232524Y-63229762D01*
X94089667Y-63277381D01*
X93994429Y-63277381D01*
X93851572Y-63229762D01*
X93756334Y-63134524D01*
X93708715Y-63039286D01*
X93661096Y-62848810D01*
X93661096Y-62705953D01*
X93708715Y-62515477D01*
X93756334Y-62420239D01*
X93851572Y-62325001D01*
X93994429Y-62277381D01*
X94089667Y-62277381D01*
X94232524Y-62325001D01*
X94280143Y-62372620D01*
X95232524Y-63277381D02*
X94661096Y-63277381D01*
X94946810Y-63277381D02*
X94946810Y-62277381D01*
X94851572Y-62420239D01*
X94756334Y-62515477D01*
X94661096Y-62563096D01*
X96137286Y-62277381D02*
X95661096Y-62277381D01*
X95613477Y-62753572D01*
X95661096Y-62705953D01*
X95756334Y-62658334D01*
X95994429Y-62658334D01*
X96089667Y-62705953D01*
X96137286Y-62753572D01*
X96184905Y-62848810D01*
X96184905Y-63086905D01*
X96137286Y-63182143D01*
X96089667Y-63229762D01*
X95994429Y-63277381D01*
X95756334Y-63277381D01*
X95661096Y-63229762D01*
X95613477Y-63182143D01*
M02*
